<svg version="1.1" viewBox="0.0 0.0 600.0 371.0" fill="none" stroke="none" stroke-linecap="square" stroke-miterlimit="10" width="600" height="371" xmlns:xlink="http://www.w3.org/1999/xlink" xmlns="http://www.w3.org/2000/svg"><path fill="#ffffff" d="M0 0L600.0 0L600.0 371.0L0 371.0L0 0Z" fill-rule="nonzero"/><path stroke="#333333" stroke-width="1.0" stroke-linecap="butt" d="M56.5 296.5L581.5 296.5" fill-rule="nonzero"/><path stroke="#cccccc" stroke-width="1.0" stroke-linecap="butt" d="M56.5 245.5L581.5 245.5" fill-rule="nonzero"/><path stroke="#cccccc" stroke-width="1.0" stroke-linecap="butt" d="M56.5 194.5L581.5 194.5" fill-rule="nonzero"/><path stroke="#cccccc" stroke-width="1.0" stroke-linecap="butt" d="M56.5 143.5L581.5 143.5" fill-rule="nonzero"/><path stroke="#cccccc" stroke-width="1.0" stroke-linecap="butt" d="M56.5 92.5L581.5 92.5" fill-rule="nonzero"/><clipPath id="id_0"><path d="M56.55 92.28333L581.45 92.28333L581.45 296.45L56.55 296.45L56.55 92.28333Z" clip-rule="nonzero"/></clipPath><path fill="#efc649" clip-path="url(#id_0)" d="M56.55 174.66228L100.291664 206.74583L144.03334 187.55481L187.775 217.32698L231.51666 186.25746L275.25833 195.52742L319.0 180.14664L362.74167 180.8272L406.48334 167.2462L450.225 194.36667L493.96667 168.84952L537.7083 178.38182L581.45 183.03325L581.45 296.45L537.7083 296.45L493.96667 296.45L450.225 296.45L406.48334 296.45L362.74167 296.45L319.0 296.45L275.25833 296.45L231.51666 296.45L187.775 296.45L144.03334 296.45L100.291664 296.45L56.55 296.45Z" fill-rule="nonzero"/><path fill="#d64e20" clip-path="url(#id_0)" d="M56.55 92.28333L100.291664 92.28333L144.03334 92.28333L187.775 92.28333L231.51666 92.28333L275.25833 92.28333L319.0 92.28333L362.74167 92.28333L406.48334 92.28333L450.225 92.28333L493.96667 92.28333L537.7083 92.28333L581.45 92.28333L581.45 183.03325L537.7083 178.38182L493.96667 168.84952L450.225 194.36667L406.48334 167.2462L362.74167 180.8272L319.0 180.14664L275.25833 195.52742L231.51666 186.25746L187.775 217.32698L144.03334 187.55481L100.291664 206.74583L56.55 174.66228Z" fill-rule="nonzero"/><path stroke="#efc649" stroke-width="2.0" stroke-linecap="butt" clip-path="url(#id_0)" d="M56.55 174.66228L100.291664 206.74583L144.03334 187.55481L187.775 217.32698L231.51666 186.25746L275.25833 195.52742L319.0 180.14664L362.74167 180.8272L406.48334 167.2462L450.225 194.36667L493.96667 168.84952L537.7083 178.38182L581.45 183.03325" fill-rule="nonzero"/><path stroke="#d64e20" stroke-width="2.0" stroke-linecap="butt" clip-path="url(#id_0)" d="M56.55 92.28333L100.291664 92.28333L144.03334 92.28333L187.775 92.28333L231.51666 92.28333L275.25833 92.28333L319.0 92.28333L362.74167 92.28333L406.48334 92.28333L450.225 92.28333L493.96667 92.28333L537.7083 92.28333L581.45 92.28333" fill-rule="nonzero"/><path fill="#000000" fill-opacity="0.0" clip-path="url(#id_0)" d="M59.55 174.66228C59.55 176.31914 58.206856 177.66228 56.55 177.66228C54.893147 177.66228 53.55 176.31914 53.55 174.66228C53.55 173.00542 54.893147 171.66228 56.55 171.66228C58.206856 171.66228 59.55 173.00542 59.55 174.66228Z" fill-rule="nonzero"/><path fill="#000000" fill-opacity="0.0" clip-path="url(#id_0)" d="M103.291664 206.74583C103.291664 208.4027 101.948524 209.74583 100.291664 209.74583C98.63481 209.74583 97.291664 208.4027 97.291664 206.74583C97.291664 205.08899 98.63481 203.74583 100.291664 203.74583C101.948524 203.74583 103.291664 205.08899 103.291664 206.74583Z" fill-rule="nonzero"/><path fill="#000000" fill-opacity="0.0" clip-path="url(#id_0)" d="M147.03334 187.55481C147.03334 189.21165 145.69019 190.55481 144.03334 190.55481C142.37648 190.55481 141.03334 189.21165 141.03334 187.55481C141.03334 185.89795 142.37648 184.55481 144.03334 184.55481C145.69019 184.55481 147.03334 185.89795 147.03334 187.55481Z" fill-rule="nonzero"/><path fill="#000000" fill-opacity="0.0" clip-path="url(#id_0)" d="M190.775 217.32698C190.775 218.98383 189.43185 220.32698 187.775 220.32698C186.11815 220.32698 184.775 218.98383 184.775 217.32698C184.775 215.67012 186.11815 214.32698 187.775 214.32698C189.43185 214.32698 190.775 215.67012 190.775 217.32698Z" fill-rule="nonzero"/><path fill="#000000" fill-opacity="0.0" clip-path="url(#id_0)" d="M234.51666 186.25746C234.51666 187.9143 233.17352 189.25746 231.51666 189.25746C229.85982 189.25746 228.51666 187.9143 228.51666 186.25746C228.51666 184.6006 229.85982 183.25746 231.51666 183.25746C233.17352 183.25746 234.51666 184.6006 234.51666 186.25746Z" fill-rule="nonzero"/><path fill="#000000" fill-opacity="0.0" clip-path="url(#id_0)" d="M278.25833 195.52742C278.25833 197.18428 276.9152 198.52742 275.25833 198.52742C273.60147 198.52742 272.25833 197.18428 272.25833 195.52742C272.25833 193.87057 273.60147 192.52742 275.25833 192.52742C276.9152 192.52742 278.25833 193.87057 278.25833 195.52742Z" fill-rule="nonzero"/><path fill="#000000" fill-opacity="0.0" clip-path="url(#id_0)" d="M322.0 180.14664C322.0 181.80348 320.65686 183.14664 319.0 183.14664C317.34314 183.14664 316.0 181.80348 316.0 180.14664C316.0 178.48978 317.34314 177.14664 319.0 177.14664C320.65686 177.14664 322.0 178.48978 322.0 180.14664Z" fill-rule="nonzero"/><path fill="#000000" fill-opacity="0.0" clip-path="url(#id_0)" d="M365.74167 180.8272C365.74167 182.48405 364.39853 183.8272 362.74167 183.8272C361.0848 183.8272 359.74167 182.48405 359.74167 180.8272C359.74167 179.17033 361.0848 177.8272 362.74167 177.8272C364.39853 177.8272 365.74167 179.17033 365.74167 180.8272Z" fill-rule="nonzero"/><path fill="#000000" fill-opacity="0.0" clip-path="url(#id_0)" d="M409.48334 167.2462C409.48334 168.90305 408.1402 170.2462 406.48334 170.2462C404.82648 170.2462 403.48334 168.90305 403.48334 167.2462C403.48334 165.58934 404.82648 164.2462 406.48334 164.2462C408.1402 164.2462 409.48334 165.58934 409.48334 167.2462Z" fill-rule="nonzero"/><path fill="#000000" fill-opacity="0.0" clip-path="url(#id_0)" d="M453.225 194.36667C453.225 196.02351 451.88187 197.36667 450.225 197.36667C448.56815 197.36667 447.225 196.02351 447.225 194.36667C447.225 192.70981 448.56815 191.36667 450.225 191.36667C451.88187 191.36667 453.225 192.70981 453.225 194.36667Z" fill-rule="nonzero"/><path fill="#000000" fill-opacity="0.0" clip-path="url(#id_0)" d="M496.96667 168.84952C496.96667 170.50636 495.62354 171.84952 493.96667 171.84952C492.3098 171.84952 490.96667 170.50636 490.96667 168.84952C490.96667 167.19266 492.3098 165.84952 493.96667 165.84952C495.62354 165.84952 496.96667 167.19266 496.96667 168.84952Z" fill-rule="nonzero"/><path fill="#000000" fill-opacity="0.0" clip-path="url(#id_0)" d="M540.7083 178.38182C540.7083 180.03867 539.3652 181.38182 537.7083 181.38182C536.05145 181.38182 534.7083 180.03867 534.7083 178.38182C534.7083 176.72496 536.05145 175.38182 537.7083 175.38182C539.3652 175.38182 540.7083 176.72496 540.7083 178.38182Z" fill-rule="nonzero"/><path fill="#000000" fill-opacity="0.0" clip-path="url(#id_0)" d="M584.45 183.03325C584.45 184.69011 583.1069 186.03325 581.45 186.03325C579.79315 186.03325 578.45 184.69011 578.45 183.03325C578.45 181.37639 579.79315 180.03325 581.45 180.03325C583.1069 180.03325 584.45 181.37639 584.45 183.03325Z" fill-rule="nonzero"/><path fill="#d64e20" clip-path="url(#id_0)" d="M62.55 92.28333C62.55 95.59704 59.86371 98.28333 56.55 98.28333C53.23629 98.28333 50.55 95.59704 50.55 92.28333C50.55 88.96963 53.23629 86.28333 56.55 86.28333C59.86371 86.28333 62.55 88.96963 62.55 92.28333Z" fill-rule="nonzero"/><path fill="#d64e20" clip-path="url(#id_0)" d="M106.291664 92.28333C106.291664 95.59704 103.60538 98.28333 100.291664 98.28333C96.97796 98.28333 94.291664 95.59704 94.291664 92.28333C94.291664 88.96963 96.97796 86.28333 100.291664 86.28333C103.60538 86.28333 106.291664 88.96963 106.291664 92.28333Z" fill-rule="nonzero"/><path fill="#d64e20" clip-path="url(#id_0)" d="M150.03334 92.28333C150.03334 95.59704 147.34705 98.28333 144.03334 98.28333C140.71962 98.28333 138.03334 95.59704 138.03334 92.28333C138.03334 88.96963 140.71962 86.28333 144.03334 86.28333C147.34705 86.28333 150.03334 88.96963 150.03334 92.28333Z" fill-rule="nonzero"/><path fill="#d64e20" clip-path="url(#id_0)" d="M193.775 92.28333C193.775 95.59704 191.08871 98.28333 187.775 98.28333C184.46129 98.28333 181.775 95.59704 181.775 92.28333C181.775 88.96963 184.46129 86.28333 187.775 86.28333C191.08871 86.28333 193.775 88.96963 193.775 92.28333Z" fill-rule="nonzero"/><path fill="#d64e20" clip-path="url(#id_0)" d="M237.51666 92.28333C237.51666 95.59704 234.83037 98.28333 231.51666 98.28333C228.20296 98.28333 225.51666 95.59704 225.51666 92.28333C225.51666 88.96963 228.20296 86.28333 231.51666 86.28333C234.83037 86.28333 237.51666 88.96963 237.51666 92.28333Z" fill-rule="nonzero"/><path fill="#d64e20" clip-path="url(#id_0)" d="M281.25833 92.28333C281.25833 95.59704 278.57205 98.28333 275.25833 98.28333C271.9446 98.28333 269.25833 95.59704 269.25833 92.28333C269.25833 88.96963 271.9446 86.28333 275.25833 86.28333C278.57205 86.28333 281.25833 88.96963 281.25833 92.28333Z" fill-rule="nonzero"/><path fill="#d64e20" clip-path="url(#id_0)" d="M325.0 92.28333C325.0 95.59704 322.31372 98.28333 319.0 98.28333C315.68628 98.28333 313.0 95.59704 313.0 92.28333C313.0 88.96963 315.68628 86.28333 319.0 86.28333C322.31372 86.28333 325.0 88.96963 325.0 92.28333Z" fill-rule="nonzero"/><path fill="#d64e20" clip-path="url(#id_0)" d="M368.74167 92.28333C368.74167 95.59704 366.0554 98.28333 362.74167 98.28333C359.42795 98.28333 356.74167 95.59704 356.74167 92.28333C356.74167 88.96963 359.42795 86.28333 362.74167 86.28333C366.0554 86.28333 368.74167 88.96963 368.74167 92.28333Z" fill-rule="nonzero"/><path fill="#d64e20" clip-path="url(#id_0)" d="M412.48334 92.28333C412.48334 95.59704 409.79703 98.28333 406.48334 98.28333C403.16962 98.28333 400.48334 95.59704 400.48334 92.28333C400.48334 88.96963 403.16962 86.28333 406.48334 86.28333C409.79703 86.28333 412.48334 88.96963 412.48334 92.28333Z" fill-rule="nonzero"/><path fill="#d64e20" clip-path="url(#id_0)" d="M456.225 92.28333C456.225 95.59704 453.5387 98.28333 450.225 98.28333C446.9113 98.28333 444.225 95.59704 444.225 92.28333C444.225 88.96963 446.9113 86.28333 450.225 86.28333C453.5387 86.28333 456.225 88.96963 456.225 92.28333Z" fill-rule="nonzero"/><path fill="#d64e20" clip-path="url(#id_0)" d="M499.96667 92.28333C499.96667 95.59704 497.28036 98.28333 493.96667 98.28333C490.65295 98.28333 487.96667 95.59704 487.96667 92.28333C487.96667 88.96963 490.65295 86.28333 493.96667 86.28333C497.28036 86.28333 499.96667 88.96963 499.96667 92.28333Z" fill-rule="nonzero"/><path fill="#d64e20" clip-path="url(#id_0)" d="M543.7083 92.28333C543.7083 95.59704 541.02203 98.28333 537.7083 98.28333C534.39465 98.28333 531.7083 95.59704 531.7083 92.28333C531.7083 88.96963 534.39465 86.28333 537.7083 86.28333C541.02203 86.28333 543.7083 88.96963 543.7083 92.28333Z" fill-rule="nonzero"/><path fill="#d64e20" clip-path="url(#id_0)" d="M587.45 92.28333C587.45 95.59704 584.76373 98.28333 581.45 98.28333C578.1363 98.28333 575.45 95.59704 575.45 92.28333C575.45 88.96963 578.1363 86.28333 581.45 86.28333C584.76373 86.28333 587.45 88.96963 587.45 92.28333Z" fill-rule="nonzero"/><path fill="#000000" d="M296.39062 348.84064Q296.28125 348.84064 295.98438 348.575Q295.71875 348.34064 295.59375 348.15314Q295.03125 348.45 294.59375 348.60626Q294.17188 348.7625 293.89062 348.7625Q292.51562 348.7625 291.89062 347.9969Q291.29688 347.2625 291.29688 345.7625Q291.29688 344.34064 292.26562 343.34064Q293.25 342.325 294.60938 342.325Q295.10938 342.325 295.75 342.59064Q296.54688 342.91876 296.54688 343.3875Q296.54688 343.54376 296.42188 343.66876Q296.375 343.8875 296.32812 344.40314Q296.29688 344.90314 296.29688 345.7Q296.29688 346.4344 296.39062 346.85626Q296.45312 347.10626 296.76562 347.8875Q296.8125 347.9969 296.90625 348.2L296.9375 348.29376Q296.9375 348.52814 296.76562 348.6844Q296.60938 348.84064 296.39062 348.84064ZM295.17188 344.7625Q295.17188 344.5125 295.20312 344.21564Q295.23438 343.91876 295.29688 343.59064Q295.07812 343.48126 294.92188 343.4344Q294.78125 343.3719 294.6875 343.3719Q293.76562 343.3719 293.10938 344.1219Q292.45312 344.85626 292.45312 345.825Q292.45312 346.77814 292.79688 347.2625Q293.14062 347.7469 293.8125 347.7469Q294.375 347.7469 294.76562 347.52814Q294.98438 347.41876 295.35938 347.09064Q295.17188 345.54376 295.17188 344.7625ZM301.75 340.21564Q300.32812 340.21564 300.17188 342.1844L300.14062 342.54376Q301.14062 342.46564 301.4375 342.46564Q302.375 342.46564 302.375 343.0594Q302.375 343.48126 301.90625 343.575Q301.71875 343.60626 301.4375 343.60626Q301.17188 343.59064 300.09375 343.66876L300.04688 345.0125Q300.04688 345.3719 300.0625 346.10626Q300.09375 346.825 300.09375 347.1844Q300.09375 348.29376 299.96875 348.91876Q299.85938 349.3875 299.42188 349.3875Q299.1875 349.3875 299.01562 349.23126Q298.84375 349.075 298.84375 348.84064Q298.84375 348.79376 298.85938 348.73126Q298.96875 347.96564 298.96875 347.0594L298.95312 345.46564L298.95312 343.7625Q298.21875 343.825 298.03125 343.825Q297.4375 343.825 297.4375 343.2625Q297.4375 342.6844 298.46875 342.65314L299.03125 342.6375Q299.04688 342.3094 299.10938 341.7469Q299.26562 340.4344 299.76562 339.825Q300.375 339.075 301.67188 339.075Q302.51562 339.075 302.51562 339.65314Q302.51562 340.21564 301.75 340.21564ZM305.29688 343.84064L305.21875 346.7625Q305.21875 347.21564 305.17188 348.1219Q305.10938 348.7 304.59375 348.7Q304.01562 348.7 304.01562 348.10626Q304.01562 347.3875 304.07812 345.98126Q304.15625 344.5594 304.15625 343.84064Q304.15625 342.91876 304.17188 341.73126Q304.20312 340.52814 304.20312 339.60626Q304.20312 339.02814 304.78125 339.02814Q305.35938 339.02814 305.35938 339.60626Q305.35938 340.52814 305.32812 341.73126Q305.29688 342.91876 305.29688 343.84064ZM310.54688 348.71564Q309.23438 348.71564 308.40625 348.0594Q307.51562 347.325 307.51562 346.0125Q307.51562 344.48126 308.25 343.45Q309.04688 342.325 310.39062 342.325Q311.35938 342.325 311.98438 342.65314Q312.73438 343.0594 312.73438 343.90314Q312.73438 344.48126 312.07812 344.96564Q311.78125 345.16876 310.82812 345.6219L308.59375 346.6844Q308.92188 347.16876 309.40625 347.41876Q309.90625 347.65314 310.54688 347.65314Q310.95312 347.65314 311.5 347.5125Q312.1875 347.3094 312.39062 346.9969Q312.59375 346.6844 312.8125 346.6844Q313.03125 346.6844 313.1875 346.84064Q313.34375 346.9969 313.34375 347.2Q313.34375 347.85626 312.29688 348.325Q311.40625 348.71564 310.54688 348.71564ZM310.39062 343.3875Q309.67188 343.3875 309.20312 343.9344Q308.73438 344.48126 308.5 345.60626L310.29688 344.7469Q311.35938 344.23126 311.8125 343.85626Q311.29688 343.3875 310.39062 343.3875ZM316.51562 348.1375Q316.5 348.6844 315.98438 348.6844Q315.5625 348.6844 315.35938 348.1844L314.46875 345.79376L313.42188 343.10626Q313.35938 342.96564 313.35938 342.84064Q313.35938 342.60626 313.54688 342.4344Q313.73438 342.2625 313.96875 342.2625Q314.3125 342.2625 314.46875 342.6219L315.95312 346.71564Q316.40625 345.77814 317.0625 343.9969Q317.21875 343.52814 317.5625 342.66876Q317.75 342.29376 318.07812 342.29376Q318.32812 342.29376 318.5 342.46564Q318.6875 342.6375 318.6875 342.8719Q318.6875 343.09064 317.71875 345.3719L316.51562 348.1375ZM322.54688 348.71564Q321.23438 348.71564 320.40625 348.0594Q319.51562 347.325 319.51562 346.0125Q319.51562 344.48126 320.25 343.45Q321.04688 342.325 322.39062 342.325Q323.35938 342.325 323.98438 342.65314Q324.73438 343.0594 324.73438 343.90314Q324.73438 344.48126 324.07812 344.96564Q323.78125 345.16876 322.82812 345.6219L320.59375 346.6844Q320.92188 347.16876 321.40625 347.41876Q321.90625 347.65314 322.54688 347.65314Q322.95312 347.65314 323.5 347.5125Q324.1875 347.3094 324.39062 346.9969Q324.59375 346.6844 324.8125 346.6844Q325.03125 346.6844 325.1875 346.84064Q325.34375 346.9969 325.34375 347.2Q325.34375 347.85626 324.29688 348.325Q323.40625 348.71564 322.54688 348.71564ZM322.39062 343.3875Q321.67188 343.3875 321.20312 343.9344Q320.73438 344.48126 320.5 345.60626L322.29688 344.7469Q323.35938 344.23126 323.8125 343.85626Q323.29688 343.3875 322.39062 343.3875ZM330.375 344.1219Q330.32812 344.85626 329.78125 344.85626Q329.28125 344.85626 329.28125 344.27814Q329.28125 344.15314 329.26562 343.85626L329.25 343.3719Q328.32812 343.48126 327.76562 343.8875Q327.25 344.27814 326.90625 345.04376L326.90625 348.2469Q326.90625 348.84064 326.32812 348.84064Q325.8125 348.84064 325.8125 348.2469L325.8125 344.1375Q325.8125 343.95 325.82812 343.5594Q325.84375 343.16876 325.84375 342.98126Q325.84375 342.3875 326.35938 342.3875Q326.9375 342.3875 326.9375 343.35626Q328.0625 342.27814 329.4375 342.27814Q329.90625 342.27814 330.14062 342.6375Q330.375 342.98126 330.375 343.71564Q330.375 344.0125 330.375 344.1219ZM332.9375 341.02814Q332.65625 341.02814 332.45312 340.84064Q332.25 340.6375 332.25 340.35626Q332.25 340.075 332.45312 339.8719Q332.65625 339.66876 332.9375 339.66876Q333.21875 339.66876 333.42188 339.8719Q333.625 340.075 333.625 340.35626Q333.625 340.6375 333.42188 340.84064Q333.21875 341.02814 332.9375 341.02814ZM333.20312 345.79376Q333.20312 346.1375 333.21875 346.84064Q333.23438 347.54376 333.23438 347.8875Q333.23438 348.15314 333.07812 348.325Q332.92188 348.48126 332.67188 348.48126Q332.40625 348.48126 332.25 348.325Q332.09375 348.15314 332.09375 347.8875Q332.09375 347.54376 332.0625 346.84064Q332.04688 346.1375 332.04688 345.79376Q332.04688 345.23126 332.10938 344.41876Q332.17188 343.59064 332.17188 343.04376Q332.17188 342.77814 332.32812 342.6219Q332.48438 342.45 332.73438 342.45Q333.0 342.45 333.15625 342.6219Q333.3125 342.77814 333.3125 343.04376Q333.3125 343.59064 333.25 344.41876Q333.20312 345.23126 333.20312 345.79376ZM340.3125 348.8719Q339.8125 348.8719 339.73438 348.3094L339.57812 347.02814Q339.5 346.34064 339.5 345.7469Q339.5 345.59064 339.51562 345.2Q339.53125 344.79376 339.53125 344.6375Q339.53125 343.3719 339.0625 343.3719Q338.40625 343.3719 337.8125 344.15314Q337.28125 344.85626 336.96875 345.9344Q336.95312 346.16876 336.92188 346.5125Q336.875 346.8094 336.875 347.09064Q336.875 347.2625 336.90625 347.6219Q336.95312 347.96564 336.95312 348.1375Q336.95312 348.40314 336.78125 348.5594Q336.625 348.73126 336.375 348.73126Q336.125 348.73126 335.95312 348.5594Q335.79688 348.40314 335.79688 348.1375Q335.79688 347.96564 335.76562 347.6219Q335.73438 347.2625 335.73438 347.09064Q335.73438 346.48126 335.8125 345.41876Q335.89062 344.34064 335.89062 343.73126Q335.89062 343.54376 335.875 343.1844Q335.85938 342.8094 335.85938 342.6219Q335.85938 342.3719 336.01562 342.21564Q336.1875 342.04376 336.4375 342.04376Q336.96875 342.04376 337.03125 342.8094L337.04688 343.4969Q338.03125 342.1844 339.0625 342.1844Q340.0 342.1844 340.375 343.0125Q340.625 343.5594 340.65625 344.6375L340.65625 345.23126L340.64062 345.77814Q340.64062 346.2625 340.76562 347.04376Q340.89062 347.8094 340.89062 348.27814Q340.89062 348.54376 340.71875 348.7Q340.5625 348.8719 340.3125 348.8719ZM346.64062 345.91876L346.5 347.8875Q346.46875 349.0594 346.26562 349.8094Q346.0 350.7625 345.42188 351.21564Q344.71875 351.7625 343.39062 351.7625Q342.60938 351.7625 342.07812 351.65314Q341.34375 351.4969 341.34375 351.04376Q341.34375 350.5125 341.84375 350.5125Q342.0625 350.5125 342.54688 350.6219Q343.04688 350.73126 343.64062 350.71564Q344.76562 350.7 345.20312 349.6219Q345.48438 348.90314 345.5 347.41876Q345.17188 348.0125 344.73438 348.3094Q344.3125 348.59064 343.75 348.59064Q342.6875 348.59064 342.01562 347.8719Q341.35938 347.15314 341.35938 345.9969Q341.35938 344.41876 342.26562 343.45Q343.20312 342.45 344.8125 342.45Q345.35938 342.45 345.71875 342.59064Q346.09375 342.73126 346.29688 343.0125Q346.92188 343.02814 346.92188 343.71564Q346.92188 344.1219 346.79688 344.825Q346.65625 345.6375 346.64062 345.91876ZM344.75 343.3875Q343.64062 343.3875 343.03125 344.15314Q342.48438 344.84064 342.48438 345.91876Q342.48438 346.7625 342.8125 347.2Q343.14062 347.6219 343.78125 347.6219Q344.375 347.6219 344.92188 346.95Q345.4375 346.34064 345.5 345.73126Q345.625 345.09064 345.76562 343.7469Q345.53125 343.5594 345.28125 343.48126Q345.03125 343.3875 344.75 343.3875Z" fill-rule="nonzero"/><path fill="#000000" d="M33.05 296.21564Q33.05 294.6844 33.3625 293.7625Q33.675 292.825 34.284374 292.325Q34.909374 291.825 35.846874 291.825Q36.534374 291.825 37.05 292.10626Q37.58125 292.3875 37.925 292.91876Q38.26875 293.4344 38.45625 294.1844Q38.64375 294.9344 38.64375 296.21564Q38.64375 297.73126 38.33125 298.65314Q38.034374 299.575 37.409374 300.09064Q36.8 300.59064 35.846874 300.59064Q34.6125 300.59064 33.89375 299.7Q33.05 298.6375 33.05 296.21564ZM34.128124 296.21564Q34.128124 298.325 34.628124 299.02814Q35.128124 299.73126 35.846874 299.73126Q36.58125 299.73126 37.065624 299.02814Q37.565624 298.325 37.565624 296.21564Q37.565624 294.09064 37.065624 293.40314Q36.58125 292.7 35.83125 292.7Q35.1125 292.7 34.675 293.3094Q34.128124 294.09064 34.128124 296.21564ZM40.253124 293.91876Q40.253124 292.9969 40.70625 292.35626Q41.175 291.71564 42.05 291.71564Q42.8625 291.71564 43.39375 292.29376Q43.925 292.8719 43.925 293.98126Q43.925 295.075 43.378124 295.66876Q42.846874 296.2469 42.065624 296.2469Q41.284374 296.2469 40.76875 295.66876Q40.253124 295.09064 40.253124 293.91876ZM42.08125 292.4344Q41.690624 292.4344 41.425 292.77814Q41.175 293.1219 41.175 294.02814Q41.175 294.85626 41.425 295.2Q41.690624 295.52814 42.08125 295.52814Q42.4875 295.52814 42.7375 295.1844Q43.003124 294.84064 43.003124 293.95Q43.003124 293.10626 42.7375 292.77814Q42.471874 292.4344 42.08125 292.4344ZM42.08125 300.7625L46.784374 291.71564L47.64375 291.71564L42.95625 300.7625L42.08125 300.7625ZM45.8 298.4344Q45.8 297.5125 46.253124 296.8719Q46.721874 296.23126 47.6125 296.23126Q48.425 296.23126 48.95625 296.8094Q49.4875 297.3719 49.4875 298.4969Q49.4875 299.59064 48.940624 300.1844Q48.409374 300.7625 47.6125 300.7625Q46.846874 300.7625 46.315624 300.1844Q45.8 299.60626 45.8 298.4344ZM47.64375 296.95Q47.2375 296.95 46.971874 297.29376Q46.721874 297.6375 46.721874 298.54376Q46.721874 299.35626 46.9875 299.7Q47.253124 300.04376 47.64375 300.04376Q48.034374 300.04376 48.3 299.7Q48.565624 299.35626 48.565624 298.45Q48.565624 297.6219 48.3 297.29376Q48.034374 296.95 47.64375 296.95Z" fill-rule="nonzero"/><path fill="#000000" d="M31.596874 248.39272L31.596874 249.40834L25.909374 249.40834Q25.909374 249.03334 26.034374 248.67397Q26.253124 248.09584 26.721874 247.53334Q27.20625 246.97084 28.1125 246.23647Q29.51875 245.08022 30.003124 244.40834Q30.503124 243.73647 30.503124 243.14272Q30.503124 242.51772 30.05 242.09584Q29.596874 241.65834 28.878124 241.65834Q28.1125 241.65834 27.659374 242.11147Q27.20625 242.56459 27.190624 243.37709L26.1125 243.26772Q26.221874 242.04897 26.940624 241.42397Q27.675 240.78334 28.909374 240.78334Q30.14375 240.78334 30.8625 241.47084Q31.58125 242.15834 31.58125 243.17397Q31.58125 243.68959 31.3625 244.18959Q31.159374 244.67397 30.659374 245.23647Q30.175 245.78334 29.05 246.73647Q28.096874 247.53334 27.815624 247.83022Q27.55 248.11147 27.378124 248.39272L31.596874 248.39272ZM33.05 247.15834L34.159374 247.06459Q34.284374 247.87709 34.721874 248.28334Q35.175 248.68959 35.815624 248.68959Q36.565624 248.68959 37.096874 248.11147Q37.628124 247.53334 37.628124 246.59584Q37.628124 245.68959 37.1125 245.17397Q36.6125 244.64272 35.784374 244.64272Q35.284374 244.64272 34.8625 244.87709Q34.45625 245.11147 34.221874 245.47084L33.2375 245.34584L34.065624 240.93959L38.346874 240.93959L38.346874 241.93959L34.909374 241.93959L34.45625 244.25209Q35.221874 243.70522 36.065624 243.70522Q37.190624 243.70522 37.95625 244.48647Q38.7375 245.26772 38.7375 246.50209Q38.7375 247.65834 38.065624 248.51772Q37.2375 249.54897 35.815624 249.54897Q34.64375 249.54897 33.89375 248.89272Q33.159374 248.23647 33.05 247.15834ZM40.253124 242.87709Q40.253124 241.95522 40.70625 241.31459Q41.175 240.67397 42.05 240.67397Q42.8625 240.67397 43.39375 241.25209Q43.925 241.83022 43.925 242.93959Q43.925 244.03334 43.378124 244.62709Q42.846874 245.20522 42.065624 245.20522Q41.284374 245.20522 40.76875 244.62709Q40.253124 244.04897 40.253124 242.87709ZM42.08125 241.39272Q41.690624 241.39272 41.425 241.73647Q41.175 242.08022 41.175 242.98647Q41.175 243.81459 41.425 244.15834Q41.690624 244.48647 42.08125 244.48647Q42.4875 244.48647 42.7375 244.14272Q43.003124 243.79897 43.003124 242.90834Q43.003124 242.06459 42.7375 241.73647Q42.471874 241.39272 42.08125 241.39272ZM42.08125 249.72084L46.784374 240.67397L47.64375 240.67397L42.95625 249.72084L42.08125 249.72084ZM45.8 247.39272Q45.8 246.47084 46.253124 245.83022Q46.721874 245.18959 47.6125 245.18959Q48.425 245.18959 48.95625 245.76772Q49.4875 246.33022 49.4875 247.45522Q49.4875 248.54897 48.940624 249.14272Q48.409374 249.72084 47.6125 249.72084Q46.846874 249.72084 46.315624 249.14272Q45.8 248.56459 45.8 247.39272ZM47.64375 245.90834Q47.2375 245.90834 46.971874 246.25209Q46.721874 246.59584 46.721874 247.50209Q46.721874 248.31459 46.9875 248.65834Q47.253124 249.00209 47.64375 249.00209Q48.034374 249.00209 48.3 248.65834Q48.565624 248.31459 48.565624 247.40834Q48.565624 246.58022 48.3 246.25209Q48.034374 245.90834 47.64375 245.90834Z" fill-rule="nonzero"/><path fill="#000000" d="M26.05 196.11667L27.159374 196.02292Q27.284374 196.83542 27.721874 197.24167Q28.175 197.64792 28.815624 197.64792Q29.565624 197.64792 30.096874 197.0698Q30.628124 196.49167 30.628124 195.55417Q30.628124 194.64792 30.1125 194.1323Q29.6125 193.60104 28.784374 193.60104Q28.284374 193.60104 27.8625 193.83542Q27.45625 194.0698 27.221874 194.42917L26.2375 194.30417L27.065624 189.89792L31.346874 189.89792L31.346874 190.89792L27.909374 190.89792L27.45625 193.21042Q28.221874 192.66354 29.065624 192.66354Q30.190624 192.66354 30.95625 193.4448Q31.7375 194.22604 31.7375 195.46042Q31.7375 196.61667 31.065624 197.47604Q30.2375 198.5073 28.815624 198.5073Q27.64375 198.5073 26.89375 197.85104Q26.159374 197.1948 26.05 196.11667ZM33.05 194.1323Q33.05 192.60104 33.3625 191.67917Q33.675 190.74167 34.284374 190.24167Q34.909374 189.74167 35.846874 189.74167Q36.534374 189.74167 37.05 190.02292Q37.58125 190.30417 37.925 190.83542Q38.26875 191.35104 38.45625 192.10104Q38.64375 192.85104 38.64375 194.1323Q38.64375 195.64792 38.33125 196.5698Q38.034374 197.49167 37.409374 198.0073Q36.8 198.5073 35.846874 198.5073Q34.6125 198.5073 33.89375 197.61667Q33.05 196.55417 33.05 194.1323ZM34.128124 194.1323Q34.128124 196.24167 34.628124 196.9448Q35.128124 197.64792 35.846874 197.64792Q36.58125 197.64792 37.065624 196.9448Q37.565624 196.24167 37.565624 194.1323Q37.565624 192.0073 37.065624 191.3198Q36.58125 190.61667 35.83125 190.61667Q35.1125 190.61667 34.675 191.22604Q34.128124 192.0073 34.128124 194.1323ZM40.253124 191.83542Q40.253124 190.91354 40.70625 190.27292Q41.175 189.6323 42.05 189.6323Q42.8625 189.6323 43.39375 190.21042Q43.925 190.78854 43.925 191.89792Q43.925 192.99167 43.378124 193.58542Q42.846874 194.16354 42.065624 194.16354Q41.284374 194.16354 40.76875 193.58542Q40.253124 193.0073 40.253124 191.83542ZM42.08125 190.35104Q41.690624 190.35104 41.425 190.6948Q41.175 191.03854 41.175 191.9448Q41.175 192.77292 41.425 193.11667Q41.690624 193.4448 42.08125 193.4448Q42.4875 193.4448 42.7375 193.10104Q43.003124 192.7573 43.003124 191.86667Q43.003124 191.02292 42.7375 190.6948Q42.471874 190.35104 42.08125 190.35104ZM42.08125 198.67917L46.784374 189.6323L47.64375 189.6323L42.95625 198.67917L42.08125 198.67917ZM45.8 196.35104Q45.8 195.42917 46.253124 194.78854Q46.721874 194.14792 47.6125 194.14792Q48.425 194.14792 48.95625 194.72604Q49.4875 195.28854 49.4875 196.41354Q49.4875 197.5073 48.940624 198.10104Q48.409374 198.67917 47.6125 198.67917Q46.846874 198.67917 46.315624 198.10104Q45.8 197.52292 45.8 196.35104ZM47.64375 194.86667Q47.2375 194.86667 46.971874 195.21042Q46.721874 195.55417 46.721874 196.46042Q46.721874 197.27292 46.9875 197.61667Q47.253124 197.96042 47.64375 197.96042Q48.034374 197.96042 48.3 197.61667Q48.565624 197.27292 48.565624 196.36667Q48.565624 195.53854 48.3 195.21042Q48.034374 194.86667 47.64375 194.86667Z" fill-rule="nonzero"/><path fill="#000000" d="M26.1125 139.85625L26.1125 138.84062L31.675 138.84062L31.675 139.66875Q30.8625 140.54375 30.05 141.99687Q29.253124 143.43437 28.815624 144.96562Q28.4875 146.04375 28.409374 147.325L27.315624 147.325Q27.33125 146.30937 27.70625 144.87187Q28.096874 143.43437 28.8 142.10625Q29.51875 140.77812 30.33125 139.85625L26.1125 139.85625ZM33.05 145.075L34.159374 144.98125Q34.284374 145.79375 34.721874 146.2Q35.175 146.60625 35.815624 146.60625Q36.565624 146.60625 37.096874 146.02812Q37.628124 145.45 37.628124 144.5125Q37.628124 143.60625 37.1125 143.09062Q36.6125 142.55937 35.784374 142.55937Q35.284374 142.55937 34.8625 142.79375Q34.45625 143.02812 34.221874 143.3875L33.2375 143.2625L34.065624 138.85625L38.346874 138.85625L38.346874 139.85625L34.909374 139.85625L34.45625 142.16875Q35.221874 141.62187 36.065624 141.62187Q37.190624 141.62187 37.95625 142.40312Q38.7375 143.18437 38.7375 144.41875Q38.7375 145.575 38.065624 146.43437Q37.2375 147.46562 35.815624 147.46562Q34.64375 147.46562 33.89375 146.80937Q33.159374 146.15312 33.05 145.075ZM40.253124 140.79375Q40.253124 139.87187 40.70625 139.23125Q41.175 138.59062 42.05 138.59062Q42.8625 138.59062 43.39375 139.16875Q43.925 139.74687 43.925 140.85625Q43.925 141.95 43.378124 142.54375Q42.846874 143.12187 42.065624 143.12187Q41.284374 143.12187 40.76875 142.54375Q40.253124 141.96562 40.253124 140.79375ZM42.08125 139.30937Q41.690624 139.30937 41.425 139.65312Q41.175 139.99687 41.175 140.90312Q41.175 141.73125 41.425 142.075Q41.690624 142.40312 42.08125 142.40312Q42.4875 142.40312 42.7375 142.05937Q43.003124 141.71562 43.003124 140.825Q43.003124 139.98125 42.7375 139.65312Q42.471874 139.30937 42.08125 139.30937ZM42.08125 147.6375L46.784374 138.59062L47.64375 138.59062L42.95625 147.6375L42.08125 147.6375ZM45.8 145.30937Q45.8 144.3875 46.253124 143.74687Q46.721874 143.10625 47.6125 143.10625Q48.425 143.10625 48.95625 143.68437Q49.4875 144.24687 49.4875 145.37187Q49.4875 146.46562 48.940624 147.05937Q48.409374 147.6375 47.6125 147.6375Q46.846874 147.6375 46.315624 147.05937Q45.8 146.48125 45.8 145.30937ZM47.64375 143.825Q47.2375 143.825 46.971874 144.16875Q46.721874 144.5125 46.721874 145.41875Q46.721874 146.23125 46.9875 146.575Q47.253124 146.91875 47.64375 146.91875Q48.034374 146.91875 48.3 146.575Q48.565624 146.23125 48.565624 145.325Q48.565624 144.49687 48.3 144.16875Q48.034374 143.825 47.64375 143.825Z" fill-rule="nonzero"/><path fill="#000000" d="M23.01875 96.28333L21.971874 96.28333L21.971874 89.56458Q21.58125 89.92396 20.95625 90.29896Q20.346874 90.65833 19.8625 90.83021L19.8625 89.81458Q20.7375 89.39271 21.39375 88.81458Q22.065624 88.22083 22.346874 87.65833L23.01875 87.65833L23.01875 96.28333ZM26.05 92.04896Q26.05 90.51771 26.3625 89.59583Q26.675 88.65833 27.284374 88.15833Q27.909374 87.65833 28.846874 87.65833Q29.534374 87.65833 30.05 87.93958Q30.58125 88.22083 30.925 88.75208Q31.26875 89.26771 31.45625 90.01771Q31.64375 90.76771 31.64375 92.04896Q31.64375 93.56458 31.33125 94.48646Q31.034374 95.40833 30.409374 95.92396Q29.8 96.42396 28.846874 96.42396Q27.6125 96.42396 26.89375 95.53333Q26.05 94.47083 26.05 92.04896ZM27.128124 92.04896Q27.128124 94.15833 27.628124 94.86146Q28.128124 95.56458 28.846874 95.56458Q29.58125 95.56458 30.065624 94.86146Q30.565624 94.15833 30.565624 92.04896Q30.565624 89.92396 30.065624 89.23646Q29.58125 88.53333 28.83125 88.53333Q28.1125 88.53333 27.675 89.14271Q27.128124 89.92396 27.128124 92.04896ZM33.05 92.04896Q33.05 90.51771 33.3625 89.59583Q33.675 88.65833 34.284374 88.15833Q34.909374 87.65833 35.846874 87.65833Q36.534374 87.65833 37.05 87.93958Q37.58125 88.22083 37.925 88.75208Q38.26875 89.26771 38.45625 90.01771Q38.64375 90.76771 38.64375 92.04896Q38.64375 93.56458 38.33125 94.48646Q38.034374 95.40833 37.409374 95.92396Q36.8 96.42396 35.846874 96.42396Q34.6125 96.42396 33.89375 95.53333Q33.05 94.47083 33.05 92.04896ZM34.128124 92.04896Q34.128124 94.15833 34.628124 94.86146Q35.128124 95.56458 35.846874 95.56458Q36.58125 95.56458 37.065624 94.86146Q37.565624 94.15833 37.565624 92.04896Q37.565624 89.92396 37.065624 89.23646Q36.58125 88.53333 35.83125 88.53333Q35.1125 88.53333 34.675 89.14271Q34.128124 89.92396 34.128124 92.04896ZM40.253124 89.75208Q40.253124 88.83021 40.70625 88.18958Q41.175 87.54896 42.05 87.54896Q42.8625 87.54896 43.39375 88.12708Q43.925 88.70521 43.925 89.81458Q43.925 90.90833 43.378124 91.50208Q42.846874 92.08021 42.065624 92.08021Q41.284374 92.08021 40.76875 91.50208Q40.253124 90.92396 40.253124 89.75208ZM42.08125 88.26771Q41.690624 88.26771 41.425 88.61146Q41.175 88.95521 41.175 89.86146Q41.175 90.68958 41.425 91.03333Q41.690624 91.36146 42.08125 91.36146Q42.4875 91.36146 42.7375 91.01771Q43.003124 90.67396 43.003124 89.78333Q43.003124 88.93958 42.7375 88.61146Q42.471874 88.26771 42.08125 88.26771ZM42.08125 96.59583L46.784374 87.54896L47.64375 87.54896L42.95625 96.59583L42.08125 96.59583ZM45.8 94.26771Q45.8 93.34583 46.253124 92.70521Q46.721874 92.06458 47.6125 92.06458Q48.425 92.06458 48.95625 92.64271Q49.4875 93.20521 49.4875 94.33021Q49.4875 95.42396 48.940624 96.01771Q48.409374 96.59583 47.6125 96.59583Q46.846874 96.59583 46.315624 96.01771Q45.8 95.43958 45.8 94.26771ZM47.64375 92.78333Q47.2375 92.78333 46.971874 93.12708Q46.721874 93.47083 46.721874 94.37708Q46.721874 95.18958 46.9875 95.53333Q47.253124 95.87708 47.64375 95.87708Q48.034374 95.87708 48.3 95.53333Q48.565624 95.18958 48.565624 94.28333Q48.565624 93.45521 48.3 93.12708Q48.034374 92.78333 47.64375 92.78333Z" fill-rule="nonzero"/><path fill="#000000" d="M50.20625 311.46564L51.221874 311.3719Q51.346874 312.09064 51.70625 312.41876Q52.08125 312.73126 52.64375 312.73126Q53.128124 312.73126 53.4875 312.5125Q53.8625 312.27814 54.096874 311.91876Q54.33125 311.54376 54.4875 310.91876Q54.64375 310.27814 54.64375 309.6219Q54.64375 309.54376 54.64375 309.40314Q54.33125 309.90314 53.784374 310.23126Q53.2375 310.54376 52.596874 310.54376Q51.51875 310.54376 50.784374 309.77814Q50.05 308.9969 50.05 307.73126Q50.05 306.41876 50.815624 305.6219Q51.596874 304.825 52.753124 304.825Q53.58125 304.825 54.26875 305.27814Q54.971874 305.73126 55.33125 306.575Q55.690624 307.40314 55.690624 308.98126Q55.690624 310.6219 55.33125 311.60626Q54.9875 312.575 54.26875 313.09064Q53.565624 313.59064 52.628124 313.59064Q51.6125 313.59064 50.971874 313.04376Q50.33125 312.48126 50.20625 311.46564ZM54.51875 307.66876Q54.51875 306.7625 54.034374 306.23126Q53.565624 305.7 52.878124 305.7Q52.175 305.7 51.64375 306.27814Q51.128124 306.84064 51.128124 307.7625Q51.128124 308.575 51.628124 309.09064Q52.128124 309.60626 52.846874 309.60626Q53.58125 309.60626 54.05 309.09064Q54.51875 308.575 54.51875 307.66876ZM62.596874 312.4344L62.596874 313.45L56.909374 313.45Q56.909374 313.075 57.034374 312.71564Q57.253124 312.1375 57.721874 311.575Q58.20625 311.0125 59.1125 310.27814Q60.51875 309.1219 61.003124 308.45Q61.503124 307.77814 61.503124 307.1844Q61.503124 306.5594 61.05 306.1375Q60.596874 305.7 59.878124 305.7Q59.1125 305.7 58.659374 306.15314Q58.20625 306.60626 58.190624 307.41876L57.1125 307.3094Q57.221874 306.09064 57.940624 305.46564Q58.675 304.825 59.909374 304.825Q61.14375 304.825 61.8625 305.5125Q62.58125 306.2 62.58125 307.21564Q62.58125 307.73126 62.3625 308.23126Q62.159374 308.71564 61.659374 309.27814Q61.175 309.825 60.05 310.77814Q59.096874 311.575 58.815624 311.8719Q58.55 312.15314 58.378124 312.4344L62.596874 312.4344Z" fill-rule="nonzero"/><path fill="#000000" d="M93.947914 311.46564L94.96354 311.3719Q95.08854 312.09064 95.447914 312.41876Q95.822914 312.73126 96.385414 312.73126Q96.86979 312.73126 97.229164 312.5125Q97.604164 312.27814 97.83854 311.91876Q98.072914 311.54376 98.229164 310.91876Q98.385414 310.27814 98.385414 309.6219Q98.385414 309.54376 98.385414 309.40314Q98.072914 309.90314 97.52604 310.23126Q96.979164 310.54376 96.33854 310.54376Q95.260414 310.54376 94.52604 309.77814Q93.791664 308.9969 93.791664 307.73126Q93.791664 306.41876 94.55729 305.6219Q95.33854 304.825 96.49479 304.825Q97.322914 304.825 98.010414 305.27814Q98.71354 305.73126 99.072914 306.575Q99.43229 307.40314 99.43229 308.98126Q99.43229 310.6219 99.072914 311.60626Q98.729164 312.575 98.010414 313.09064Q97.30729 313.59064 96.36979 313.59064Q95.354164 313.59064 94.71354 313.04376Q94.072914 312.48126 93.947914 311.46564ZM98.260414 307.66876Q98.260414 306.7625 97.77604 306.23126Q97.30729 305.7 96.61979 305.7Q95.916664 305.7 95.385414 306.27814Q94.86979 306.84064 94.86979 307.7625Q94.86979 308.575 95.36979 309.09064Q95.86979 309.60626 96.58854 309.60626Q97.322914 309.60626 97.791664 309.09064Q98.260414 308.575 98.260414 307.66876ZM100.791664 311.1844L101.854164 311.04376Q102.02604 311.9344 102.46354 312.34064Q102.90104 312.73126 103.52604 312.73126Q104.27604 312.73126 104.791664 312.21564Q105.30729 311.7 105.30729 310.9344Q105.30729 310.21564 104.822914 309.7469Q104.354164 309.2625 103.61979 309.2625Q103.322914 309.2625 102.86979 309.3875L102.99479 308.45Q103.104164 308.46564 103.166664 308.46564Q103.83854 308.46564 104.36979 308.1219Q104.916664 307.7625 104.916664 307.02814Q104.916664 306.45 104.52604 306.075Q104.135414 305.6844 103.510414 305.6844Q102.90104 305.6844 102.479164 306.075Q102.072914 306.46564 101.96354 307.23126L100.90104 307.04376Q101.08854 305.9969 101.77604 305.41876Q102.46354 304.825 103.479164 304.825Q104.18229 304.825 104.77604 305.1375Q105.36979 305.4344 105.68229 305.95Q105.99479 306.46564 105.99479 307.0594Q105.99479 307.60626 105.697914 308.075Q105.40104 308.52814 104.822914 308.79376Q105.572914 308.96564 105.99479 309.52814Q106.416664 310.075 106.416664 310.91876Q106.416664 312.04376 105.58854 312.825Q104.77604 313.60626 103.52604 313.60626Q102.40104 313.60626 101.65104 312.9344Q100.90104 312.2469 100.791664 311.1844Z" fill-rule="nonzero"/><path fill="#000000" d="M137.68959 311.46564L138.70522 311.3719Q138.83022 312.09064 139.18959 312.41876Q139.56459 312.73126 140.12709 312.73126Q140.61147 312.73126 140.97084 312.5125Q141.34584 312.27814 141.58022 311.91876Q141.81459 311.54376 141.97084 310.91876Q142.12709 310.27814 142.12709 309.6219Q142.12709 309.54376 142.12709 309.40314Q141.81459 309.90314 141.26772 310.23126Q140.72084 310.54376 140.08022 310.54376Q139.00209 310.54376 138.26772 309.77814Q137.53334 308.9969 137.53334 307.73126Q137.53334 306.41876 138.29897 305.6219Q139.08022 304.825 140.23647 304.825Q141.06459 304.825 141.75209 305.27814Q142.45522 305.73126 142.81459 306.575Q143.17397 307.40314 143.17397 308.98126Q143.17397 310.6219 142.81459 311.60626Q142.47084 312.575 141.75209 313.09064Q141.04897 313.59064 140.11147 313.59064Q139.09584 313.59064 138.45522 313.04376Q137.81459 312.48126 137.68959 311.46564ZM142.00209 307.66876Q142.00209 306.7625 141.51772 306.23126Q141.04897 305.7 140.36147 305.7Q139.65834 305.7 139.12709 306.27814Q138.61147 306.84064 138.61147 307.7625Q138.61147 308.575 139.11147 309.09064Q139.61147 309.60626 140.33022 309.60626Q141.06459 309.60626 141.53334 309.09064Q142.00209 308.575 142.00209 307.66876ZM147.90834 313.45L147.90834 311.3875L144.18959 311.3875L144.18959 310.41876L148.11147 304.85626L148.97084 304.85626L148.97084 310.41876L150.12709 310.41876L150.12709 311.3875L148.97084 311.3875L148.97084 313.45L147.90834 313.45ZM147.90834 310.41876L147.90834 306.5594L145.22084 310.41876L147.90834 310.41876Z" fill-rule="nonzero"/><path fill="#000000" d="M181.43124 311.46564L182.44687 311.3719Q182.57187 312.09064 182.93124 312.41876Q183.30624 312.73126 183.86874 312.73126Q184.35312 312.73126 184.7125 312.5125Q185.0875 312.27814 185.32187 311.91876Q185.55624 311.54376 185.7125 310.91876Q185.86874 310.27814 185.86874 309.6219Q185.86874 309.54376 185.86874 309.40314Q185.55624 309.90314 185.00937 310.23126Q184.4625 310.54376 183.82187 310.54376Q182.74374 310.54376 182.00937 309.77814Q181.275 308.9969 181.275 307.73126Q181.275 306.41876 182.04062 305.6219Q182.82187 304.825 183.97812 304.825Q184.80624 304.825 185.49374 305.27814Q186.19687 305.73126 186.55624 306.575Q186.91562 307.40314 186.91562 308.98126Q186.91562 310.6219 186.55624 311.60626Q186.2125 312.575 185.49374 313.09064Q184.79062 313.59064 183.85312 313.59064Q182.8375 313.59064 182.19687 313.04376Q181.55624 312.48126 181.43124 311.46564ZM185.74374 307.66876Q185.74374 306.7625 185.25937 306.23126Q184.79062 305.7 184.10312 305.7Q183.4 305.7 182.86874 306.27814Q182.35312 306.84064 182.35312 307.7625Q182.35312 308.575 182.85312 309.09064Q183.35312 309.60626 184.07187 309.60626Q184.80624 309.60626 185.275 309.09064Q185.74374 308.575 185.74374 307.66876ZM188.275 311.2L189.38437 311.10626Q189.50937 311.91876 189.94687 312.325Q190.4 312.73126 191.04062 312.73126Q191.79062 312.73126 192.32187 312.15314Q192.85312 311.575 192.85312 310.6375Q192.85312 309.73126 192.3375 309.21564Q191.8375 308.6844 191.00937 308.6844Q190.50937 308.6844 190.0875 308.91876Q189.68124 309.15314 189.44687 309.5125L188.4625 309.3875L189.29062 304.98126L193.57187 304.98126L193.57187 305.98126L190.13437 305.98126L189.68124 308.29376Q190.44687 307.7469 191.29062 307.7469Q192.41562 307.7469 193.18124 308.52814Q193.9625 309.3094 193.9625 310.54376Q193.9625 311.7 193.29062 312.5594Q192.4625 313.59064 191.04062 313.59064Q189.86874 313.59064 189.11874 312.9344Q188.38437 312.27814 188.275 311.2Z" fill-rule="nonzero"/><path fill="#000000" d="M225.17291 311.46564L226.18854 311.3719Q226.31354 312.09064 226.67291 312.41876Q227.04791 312.73126 227.61041 312.73126Q228.09479 312.73126 228.45416 312.5125Q228.82916 312.27814 229.06354 311.91876Q229.29791 311.54376 229.45416 310.91876Q229.61041 310.27814 229.61041 309.6219Q229.61041 309.54376 229.61041 309.40314Q229.29791 309.90314 228.75104 310.23126Q228.20416 310.54376 227.56354 310.54376Q226.48541 310.54376 225.75104 309.77814Q225.01666 308.9969 225.01666 307.73126Q225.01666 306.41876 225.78229 305.6219Q226.56354 304.825 227.71979 304.825Q228.54791 304.825 229.23541 305.27814Q229.93854 305.73126 230.29791 306.575Q230.65729 307.40314 230.65729 308.98126Q230.65729 310.6219 230.29791 311.60626Q229.95416 312.575 229.23541 313.09064Q228.53229 313.59064 227.59479 313.59064Q226.57916 313.59064 225.93854 313.04376Q225.29791 312.48126 225.17291 311.46564ZM229.48541 307.66876Q229.48541 306.7625 229.00104 306.23126Q228.53229 305.7 227.84479 305.7Q227.14166 305.7 226.61041 306.27814Q226.09479 306.84064 226.09479 307.7625Q226.09479 308.575 226.59479 309.09064Q227.09479 309.60626 227.81354 309.60626Q228.54791 309.60626 229.01666 309.09064Q229.48541 308.575 229.48541 307.66876ZM237.48541 306.96564L236.43854 307.04376Q236.29791 306.41876 236.04791 306.1375Q235.61041 305.6844 234.98541 305.6844Q234.48541 305.6844 234.09479 305.96564Q233.61041 306.34064 233.31354 307.04376Q233.03229 307.73126 233.01666 309.0125Q233.39166 308.4344 233.93854 308.15314Q234.50104 307.8719 235.11041 307.8719Q236.15729 307.8719 236.89166 308.65314Q237.64166 309.4344 237.64166 310.65314Q237.64166 311.46564 237.28229 312.16876Q236.93854 312.85626 236.32916 313.23126Q235.71979 313.59064 234.95416 313.59064Q233.62604 313.59064 232.79791 312.6219Q231.96979 311.65314 231.96979 309.4344Q231.96979 306.9344 232.89166 305.8094Q233.68854 304.825 235.04791 304.825Q236.06354 304.825 236.70416 305.40314Q237.36041 305.96564 237.48541 306.96564ZM233.18854 310.66876Q233.18854 311.21564 233.40729 311.71564Q233.64166 312.2 234.04791 312.46564Q234.46979 312.73126 234.93854 312.73126Q235.59479 312.73126 236.07916 312.2Q236.56354 311.65314 236.56354 310.73126Q236.56354 309.84064 236.07916 309.325Q235.61041 308.8094 234.89166 308.8094Q234.17291 308.8094 233.67291 309.325Q233.18854 309.84064 233.18854 310.66876Z" fill-rule="nonzero"/><path fill="#000000" d="M268.91458 311.46564L269.9302 311.3719Q270.0552 312.09064 270.41458 312.41876Q270.78958 312.73126 271.35208 312.73126Q271.83646 312.73126 272.19583 312.5125Q272.57083 312.27814 272.8052 311.91876Q273.03958 311.54376 273.19583 310.91876Q273.35208 310.27814 273.35208 309.6219Q273.35208 309.54376 273.35208 309.40314Q273.03958 309.90314 272.4927 310.23126Q271.94583 310.54376 271.3052 310.54376Q270.22708 310.54376 269.4927 309.77814Q268.75833 308.9969 268.75833 307.73126Q268.75833 306.41876 269.52396 305.6219Q270.3052 304.825 271.46146 304.825Q272.28958 304.825 272.97708 305.27814Q273.6802 305.73126 274.03958 306.575Q274.39896 307.40314 274.39896 308.98126Q274.39896 310.6219 274.03958 311.60626Q273.69583 312.575 272.97708 313.09064Q272.27396 313.59064 271.33646 313.59064Q270.32083 313.59064 269.6802 313.04376Q269.03958 312.48126 268.91458 311.46564ZM273.22708 307.66876Q273.22708 306.7625 272.7427 306.23126Q272.27396 305.7 271.58646 305.7Q270.88333 305.7 270.35208 306.27814Q269.83646 306.84064 269.83646 307.7625Q269.83646 308.575 270.33646 309.09064Q270.83646 309.60626 271.5552 309.60626Q272.28958 309.60626 272.75833 309.09064Q273.22708 308.575 273.22708 307.66876ZM275.82083 305.98126L275.82083 304.96564L281.38333 304.96564L281.38333 305.79376Q280.57083 306.66876 279.75833 308.1219Q278.96146 309.5594 278.52396 311.09064Q278.19583 312.16876 278.1177 313.45L277.02396 313.45Q277.03958 312.4344 277.41458 310.9969Q277.8052 309.5594 278.50833 308.23126Q279.22708 306.90314 280.03958 305.98126L275.82083 305.98126Z" fill-rule="nonzero"/><path fill="#000000" d="M312.65625 311.46564L313.67188 311.3719Q313.79688 312.09064 314.15625 312.41876Q314.53125 312.73126 315.09375 312.73126Q315.57812 312.73126 315.9375 312.5125Q316.3125 312.27814 316.54688 311.91876Q316.78125 311.54376 316.9375 310.91876Q317.09375 310.27814 317.09375 309.6219Q317.09375 309.54376 317.09375 309.40314Q316.78125 309.90314 316.23438 310.23126Q315.6875 310.54376 315.04688 310.54376Q313.96875 310.54376 313.23438 309.77814Q312.5 308.9969 312.5 307.73126Q312.5 306.41876 313.26562 305.6219Q314.04688 304.825 315.20312 304.825Q316.03125 304.825 316.71875 305.27814Q317.42188 305.73126 317.78125 306.575Q318.14062 307.40314 318.14062 308.98126Q318.14062 310.6219 317.78125 311.60626Q317.4375 312.575 316.71875 313.09064Q316.01562 313.59064 315.07812 313.59064Q314.0625 313.59064 313.42188 313.04376Q312.78125 312.48126 312.65625 311.46564ZM316.96875 307.66876Q316.96875 306.7625 316.48438 306.23126Q316.01562 305.7 315.32812 305.7Q314.625 305.7 314.09375 306.27814Q313.57812 306.84064 313.57812 307.7625Q313.57812 308.575 314.07812 309.09064Q314.57812 309.60626 315.29688 309.60626Q316.03125 309.60626 316.5 309.09064Q316.96875 308.575 316.96875 307.66876ZM321.125 308.79376Q320.46875 308.54376 320.14062 308.10626Q319.82812 307.65314 319.82812 307.04376Q319.82812 306.10626 320.5 305.46564Q321.1875 304.825 322.29688 304.825Q323.42188 304.825 324.10938 305.48126Q324.79688 306.1375 324.79688 307.075Q324.79688 307.66876 324.48438 308.10626Q324.17188 308.54376 323.53125 308.79376Q324.32812 309.04376 324.73438 309.6219Q325.14062 310.2 325.14062 310.9969Q325.14062 312.09064 324.35938 312.84064Q323.59375 313.59064 322.3125 313.59064Q321.04688 313.59064 320.26562 312.84064Q319.48438 312.09064 319.48438 310.96564Q319.48438 310.1219 319.90625 309.5594Q320.34375 308.9969 321.125 308.79376ZM320.90625 306.9969Q320.90625 307.60626 321.29688 307.9969Q321.70312 308.3875 322.32812 308.3875Q322.9375 308.3875 323.32812 308.0125Q323.71875 307.6219 323.71875 307.0594Q323.71875 306.48126 323.3125 306.09064Q322.90625 305.6844 322.3125 305.6844Q321.70312 305.6844 321.29688 306.075Q320.90625 306.46564 320.90625 306.9969ZM320.57812 310.96564Q320.57812 311.41876 320.78125 311.84064Q321.0 312.2625 321.42188 312.4969Q321.84375 312.73126 322.32812 312.73126Q323.07812 312.73126 323.5625 312.2469Q324.0625 311.7625 324.0625 311.0125Q324.0625 310.2469 323.5625 309.7469Q323.0625 309.2469 322.29688 309.2469Q321.54688 309.2469 321.0625 309.7469Q320.57812 310.23126 320.57812 310.96564Z" fill-rule="nonzero"/><path fill="#000000" d="M356.39792 311.46564L357.41354 311.3719Q357.53854 312.09064 357.89792 312.41876Q358.27292 312.73126 358.83542 312.73126Q359.3198 312.73126 359.67917 312.5125Q360.05417 312.27814 360.28854 311.91876Q360.52292 311.54376 360.67917 310.91876Q360.83542 310.27814 360.83542 309.6219Q360.83542 309.54376 360.83542 309.40314Q360.52292 309.90314 359.97604 310.23126Q359.42917 310.54376 358.78854 310.54376Q357.71042 310.54376 356.97604 309.77814Q356.24167 308.9969 356.24167 307.73126Q356.24167 306.41876 357.0073 305.6219Q357.78854 304.825 358.9448 304.825Q359.77292 304.825 360.46042 305.27814Q361.16354 305.73126 361.52292 306.575Q361.8823 307.40314 361.8823 308.98126Q361.8823 310.6219 361.52292 311.60626Q361.17917 312.575 360.46042 313.09064Q359.7573 313.59064 358.8198 313.59064Q357.80417 313.59064 357.16354 313.04376Q356.52292 312.48126 356.39792 311.46564ZM360.71042 307.66876Q360.71042 306.7625 360.22604 306.23126Q359.7573 305.7 359.0698 305.7Q358.36667 305.7 357.83542 306.27814Q357.3198 306.84064 357.3198 307.7625Q357.3198 308.575 357.8198 309.09064Q358.3198 309.60626 359.03854 309.60626Q359.77292 309.60626 360.24167 309.09064Q360.71042 308.575 360.71042 307.66876ZM363.39792 311.46564L364.41354 311.3719Q364.53854 312.09064 364.89792 312.41876Q365.27292 312.73126 365.83542 312.73126Q366.3198 312.73126 366.67917 312.5125Q367.05417 312.27814 367.28854 311.91876Q367.52292 311.54376 367.67917 310.91876Q367.83542 310.27814 367.83542 309.6219Q367.83542 309.54376 367.83542 309.40314Q367.52292 309.90314 366.97604 310.23126Q366.42917 310.54376 365.78854 310.54376Q364.71042 310.54376 363.97604 309.77814Q363.24167 308.9969 363.24167 307.73126Q363.24167 306.41876 364.0073 305.6219Q364.78854 304.825 365.9448 304.825Q366.77292 304.825 367.46042 305.27814Q368.16354 305.73126 368.52292 306.575Q368.8823 307.40314 368.8823 308.98126Q368.8823 310.6219 368.52292 311.60626Q368.17917 312.575 367.46042 313.09064Q366.7573 313.59064 365.8198 313.59064Q364.80417 313.59064 364.16354 313.04376Q363.52292 312.48126 363.39792 311.46564ZM367.71042 307.66876Q367.71042 306.7625 367.22604 306.23126Q366.7573 305.7 366.0698 305.7Q365.36667 305.7 364.83542 306.27814Q364.3198 306.84064 364.3198 307.7625Q364.3198 308.575 364.8198 309.09064Q365.3198 309.60626 366.03854 309.60626Q366.77292 309.60626 367.24167 309.09064Q367.71042 308.575 367.71042 307.66876Z" fill-rule="nonzero"/><path fill="#000000" d="M400.4521 313.45L399.4052 313.45L399.4052 306.73126Q399.0146 307.09064 398.3896 307.46564Q397.7802 307.825 397.29584 307.9969L397.29584 306.98126Q398.17084 306.5594 398.8271 305.98126Q399.49896 305.3875 399.7802 304.825L400.4521 304.825L400.4521 313.45ZM403.48334 309.21564Q403.48334 307.6844 403.79584 306.7625Q404.10834 305.825 404.7177 305.325Q405.3427 304.825 406.2802 304.825Q406.9677 304.825 407.48334 305.10626Q408.0146 305.3875 408.35834 305.91876Q408.7021 306.4344 408.8896 307.1844Q409.0771 307.9344 409.0771 309.21564Q409.0771 310.73126 408.7646 311.65314Q408.4677 312.575 407.8427 313.09064Q407.23334 313.59064 406.2802 313.59064Q405.04584 313.59064 404.3271 312.7Q403.48334 311.6375 403.48334 309.21564ZM404.56146 309.21564Q404.56146 311.325 405.06146 312.02814Q405.56146 312.73126 406.2802 312.73126Q407.0146 312.73126 407.49896 312.02814Q407.99896 311.325 407.99896 309.21564Q407.99896 307.09064 407.49896 306.40314Q407.0146 305.7 406.2646 305.7Q405.54584 305.7 405.10834 306.3094Q404.56146 307.09064 404.56146 309.21564ZM410.48334 309.21564Q410.48334 307.6844 410.79584 306.7625Q411.10834 305.825 411.7177 305.325Q412.3427 304.825 413.2802 304.825Q413.9677 304.825 414.48334 305.10626Q415.0146 305.3875 415.35834 305.91876Q415.7021 306.4344 415.8896 307.1844Q416.0771 307.9344 416.0771 309.21564Q416.0771 310.73126 415.7646 311.65314Q415.4677 312.575 414.8427 313.09064Q414.23334 313.59064 413.2802 313.59064Q412.04584 313.59064 411.3271 312.7Q410.48334 311.6375 410.48334 309.21564ZM411.56146 309.21564Q411.56146 311.325 412.06146 312.02814Q412.56146 312.73126 413.2802 312.73126Q414.0146 312.73126 414.49896 312.02814Q414.99896 311.325 414.99896 309.21564Q414.99896 307.09064 414.49896 306.40314Q414.0146 305.7 413.2646 305.7Q412.54584 305.7 412.10834 306.3094Q411.56146 307.09064 411.56146 309.21564Z" fill-rule="nonzero"/><path fill="#000000" d="M444.19376 313.45L443.14688 313.45L443.14688 306.73126Q442.75626 307.09064 442.13126 307.46564Q441.52188 307.825 441.0375 307.9969L441.0375 306.98126Q441.9125 306.5594 442.56876 305.98126Q443.24063 305.3875 443.52188 304.825L444.19376 304.825L444.19376 313.45ZM447.225 309.21564Q447.225 307.6844 447.5375 306.7625Q447.85 305.825 448.45938 305.325Q449.08438 304.825 450.02188 304.825Q450.70938 304.825 451.225 305.10626Q451.75626 305.3875 452.1 305.91876Q452.44376 306.4344 452.63126 307.1844Q452.81876 307.9344 452.81876 309.21564Q452.81876 310.73126 452.50626 311.65314Q452.20938 312.575 451.58438 313.09064Q450.975 313.59064 450.02188 313.59064Q448.7875 313.59064 448.06876 312.7Q447.225 311.6375 447.225 309.21564ZM448.30313 309.21564Q448.30313 311.325 448.80313 312.02814Q449.30313 312.73126 450.02188 312.73126Q450.75626 312.73126 451.24063 312.02814Q451.74063 311.325 451.74063 309.21564Q451.74063 307.09064 451.24063 306.40314Q450.75626 305.7 450.00626 305.7Q449.2875 305.7 448.85 306.3094Q448.30313 307.09064 448.30313 309.21564ZM458.19376 313.45L457.14688 313.45L457.14688 306.73126Q456.75626 307.09064 456.13126 307.46564Q455.52188 307.825 455.0375 307.9969L455.0375 306.98126Q455.9125 306.5594 456.56876 305.98126Q457.24063 305.3875 457.52188 304.825L458.19376 304.825L458.19376 313.45Z" fill-rule="nonzero"/><path fill="#000000" d="M487.93542 313.45L486.88855 313.45L486.88855 306.73126Q486.49792 307.09064 485.87292 307.46564Q485.26355 307.825 484.77917 307.9969L484.77917 306.98126Q485.65417 306.5594 486.31042 305.98126Q486.9823 305.3875 487.26355 304.825L487.93542 304.825L487.93542 313.45ZM490.96667 309.21564Q490.96667 307.6844 491.27917 306.7625Q491.59167 305.825 492.20105 305.325Q492.82605 304.825 493.76355 304.825Q494.45105 304.825 494.96667 305.10626Q495.49792 305.3875 495.84167 305.91876Q496.18542 306.4344 496.37292 307.1844Q496.56042 307.9344 496.56042 309.21564Q496.56042 310.73126 496.24792 311.65314Q495.95105 312.575 495.32605 313.09064Q494.71667 313.59064 493.76355 313.59064Q492.52917 313.59064 491.81042 312.7Q490.96667 311.6375 490.96667 309.21564ZM492.0448 309.21564Q492.0448 311.325 492.5448 312.02814Q493.0448 312.73126 493.76355 312.73126Q494.49792 312.73126 494.9823 312.02814Q495.4823 311.325 495.4823 309.21564Q495.4823 307.09064 494.9823 306.40314Q494.49792 305.7 493.74792 305.7Q493.02917 305.7 492.59167 306.3094Q492.0448 307.09064 492.0448 309.21564ZM503.51355 312.4344L503.51355 313.45L497.82605 313.45Q497.82605 313.075 497.95105 312.71564Q498.1698 312.1375 498.63855 311.575Q499.12292 311.0125 500.02917 310.27814Q501.43542 309.1219 501.9198 308.45Q502.4198 307.77814 502.4198 307.1844Q502.4198 306.5594 501.96667 306.1375Q501.51355 305.7 500.7948 305.7Q500.02917 305.7 499.57605 306.15314Q499.12292 306.60626 499.1073 307.41876L498.02917 307.3094Q498.13855 306.09064 498.8573 305.46564Q499.59167 304.825 500.82605 304.825Q502.06042 304.825 502.77917 305.5125Q503.49792 306.2 503.49792 307.21564Q503.49792 307.73126 503.27917 308.23126Q503.07605 308.71564 502.57605 309.27814Q502.09167 309.825 500.96667 310.77814Q500.01355 311.575 499.7323 311.8719Q499.46667 312.15314 499.2948 312.4344L503.51355 312.4344Z" fill-rule="nonzero"/><path fill="#000000" d="M531.67706 313.45L530.6302 313.45L530.6302 306.73126Q530.23956 307.09064 529.61456 307.46564Q529.0052 307.825 528.5208 307.9969L528.5208 306.98126Q529.3958 306.5594 530.05206 305.98126Q530.72394 305.3875 531.0052 304.825L531.67706 304.825L531.67706 313.45ZM534.7083 309.21564Q534.7083 307.6844 535.0208 306.7625Q535.3333 305.825 535.9427 305.325Q536.5677 304.825 537.5052 304.825Q538.1927 304.825 538.7083 305.10626Q539.23956 305.3875 539.5833 305.91876Q539.92706 306.4344 540.11456 307.1844Q540.30206 307.9344 540.30206 309.21564Q540.30206 310.73126 539.98956 311.65314Q539.6927 312.575 539.0677 313.09064Q538.4583 313.59064 537.5052 313.59064Q536.2708 313.59064 535.55206 312.7Q534.7083 311.6375 534.7083 309.21564ZM535.78644 309.21564Q535.78644 311.325 536.28644 312.02814Q536.78644 312.73126 537.5052 312.73126Q538.23956 312.73126 538.72394 312.02814Q539.22394 311.325 539.22394 309.21564Q539.22394 307.09064 538.72394 306.40314Q538.23956 305.7 537.48956 305.7Q536.7708 305.7 536.3333 306.3094Q535.78644 307.09064 535.78644 309.21564ZM541.7083 311.1844L542.7708 311.04376Q542.9427 311.9344 543.3802 312.34064Q543.8177 312.73126 544.4427 312.73126Q545.1927 312.73126 545.7083 312.21564Q546.22394 311.7 546.22394 310.9344Q546.22394 310.21564 545.73956 309.7469Q545.2708 309.2625 544.53644 309.2625Q544.23956 309.2625 543.78644 309.3875L543.91144 308.45Q544.0208 308.46564 544.0833 308.46564Q544.7552 308.46564 545.28644 308.1219Q545.8333 307.7625 545.8333 307.02814Q545.8333 306.45 545.4427 306.075Q545.05206 305.6844 544.42706 305.6844Q543.8177 305.6844 543.3958 306.075Q542.98956 306.46564 542.8802 307.23126L541.8177 307.04376Q542.0052 305.9969 542.6927 305.41876Q543.3802 304.825 544.3958 304.825Q545.09894 304.825 545.6927 305.1375Q546.28644 305.4344 546.59894 305.95Q546.91144 306.46564 546.91144 307.0594Q546.91144 307.60626 546.61456 308.075Q546.3177 308.52814 545.73956 308.79376Q546.48956 308.96564 546.91144 309.52814Q547.3333 310.075 547.3333 310.91876Q547.3333 312.04376 546.5052 312.825Q545.6927 313.60626 544.4427 313.60626Q543.3177 313.60626 542.5677 312.9344Q541.8177 312.2469 541.7083 311.1844Z" fill-rule="nonzero"/><path fill="#000000" d="M575.41876 313.45L574.3719 313.45L574.3719 306.73126Q573.98126 307.09064 573.35626 307.46564Q572.7469 307.825 572.2625 307.9969L572.2625 306.98126Q573.1375 306.5594 573.79376 305.98126Q574.46564 305.3875 574.7469 304.825L575.41876 304.825L575.41876 313.45ZM578.45 309.21564Q578.45 307.6844 578.7625 306.7625Q579.075 305.825 579.6844 305.325Q580.3094 304.825 581.2469 304.825Q581.9344 304.825 582.45 305.10626Q582.98126 305.3875 583.325 305.91876Q583.66876 306.4344 583.85626 307.1844Q584.04376 307.9344 584.04376 309.21564Q584.04376 310.73126 583.73126 311.65314Q583.4344 312.575 582.8094 313.09064Q582.2 313.59064 581.2469 313.59064Q580.0125 313.59064 579.29376 312.7Q578.45 311.6375 578.45 309.21564ZM579.52814 309.21564Q579.52814 311.325 580.02814 312.02814Q580.52814 312.73126 581.2469 312.73126Q581.98126 312.73126 582.46564 312.02814Q582.96564 311.325 582.96564 309.21564Q582.96564 307.09064 582.46564 306.40314Q581.98126 305.7 581.23126 305.7Q580.5125 305.7 580.075 306.3094Q579.52814 307.09064 579.52814 309.21564ZM588.825 313.45L588.825 311.3875L585.10626 311.3875L585.10626 310.41876L589.02814 304.85626L589.8875 304.85626L589.8875 310.41876L591.04376 310.41876L591.04376 311.3875L589.8875 311.3875L589.8875 313.45L588.825 313.45ZM588.825 310.41876L588.825 306.5594L586.1375 310.41876L588.825 310.41876Z" fill-rule="nonzero"/><path fill="#d64e20" d="M265.0 65.916664C265.0 69.23038 262.31372 71.916664 259.0 71.916664C255.6863 71.916664 253.0 69.23038 253.0 65.916664C253.0 62.60296 255.6863 59.916668 259.0 59.916668C262.31372 59.916668 265.0 62.60296 265.0 65.916664Z" fill-rule="nonzero"/><path fill="#1a1a1a" d="M273.79688 69.916664L273.79688 63.697914L274.73438 63.697914L274.73438 64.572914Q275.03125 64.104164 275.51562 63.83854Q276.0 63.55729 276.625 63.55729Q277.3125 63.55729 277.75 63.83854Q278.20312 64.11979 278.375 64.635414Q279.125 63.55729 280.29688 63.55729Q281.23438 63.55729 281.71875 64.072914Q282.21875 64.572914 282.21875 65.65104L282.21875 69.916664L281.17188 69.916664L281.17188 65.99479Q281.17188 65.36979 281.0625 65.08854Q280.96875 64.80729 280.70312 64.635414Q280.4375 64.46354 280.0625 64.46354Q279.40625 64.46354 278.96875 64.90104Q278.54688 65.33854 278.54688 66.30729L278.54688 69.916664L277.48438 69.916664L277.48438 65.86979Q277.48438 65.166664 277.21875 64.822914Q276.96875 64.46354 276.39062 64.46354Q275.9375 64.46354 275.5625 64.697914Q275.1875 64.93229 275.01562 65.385414Q274.84375 65.83854 274.84375 66.68229L274.84375 69.916664L273.79688 69.916664ZM288.85938 69.15104Q288.26562 69.65104 287.71875 69.854164Q287.1875 70.05729 286.5625 70.05729Q285.53125 70.05729 284.98438 69.55729Q284.4375 69.05729 284.4375 68.27604Q284.4375 67.822914 284.64062 67.447914Q284.84375 67.05729 285.1875 66.83854Q285.53125 66.604164 285.95312 66.49479Q286.25 66.40104 286.89062 66.322914Q288.15625 66.18229 288.76562 65.96354Q288.76562 65.74479 288.76562 65.697914Q288.76562 65.041664 288.46875 64.77604Q288.0625 64.43229 287.26562 64.43229Q286.53125 64.43229 286.17188 64.697914Q285.8125 64.947914 285.64062 65.604164L284.60938 65.46354Q284.75 64.80729 285.07812 64.40104Q285.40625 63.99479 286.01562 63.77604Q286.625 63.55729 287.42188 63.55729Q288.21875 63.55729 288.71875 63.74479Q289.21875 63.93229 289.45312 64.21354Q289.6875 64.49479 289.78125 64.93229Q289.82812 65.197914 289.82812 65.90104L289.82812 67.30729Q289.82812 68.77604 289.89062 69.166664Q289.96875 69.55729 290.17188 69.916664L289.0625 69.916664Q288.90625 69.58854 288.85938 69.15104ZM288.76562 66.791664Q288.1875 67.02604 287.04688 67.197914Q286.39062 67.291664 286.125 67.416664Q285.85938 67.52604 285.70312 67.74479Q285.5625 67.96354 285.5625 68.24479Q285.5625 68.666664 285.875 68.947914Q286.20312 69.229164 286.8125 69.229164Q287.42188 69.229164 287.89062 68.96354Q288.375 68.697914 288.59375 68.229164Q288.76562 67.86979 288.76562 67.18229L288.76562 66.791664ZM294.09375 68.979164L294.25 69.90104Q293.79688 69.99479 293.45312 69.99479Q292.875 69.99479 292.5625 69.822914Q292.25 69.635414 292.10938 69.33854Q291.98438 69.041664 291.98438 68.08854L291.98438 64.510414L291.21875 64.510414L291.21875 63.697914L291.98438 63.697914L291.98438 62.15104L293.03125 61.52604L293.03125 63.697914L294.09375 63.697914L294.09375 64.510414L293.03125 64.510414L293.03125 68.15104Q293.03125 68.604164 293.07812 68.729164Q293.14062 68.854164 293.26562 68.93229Q293.39062 69.010414 293.625 69.010414Q293.8125 69.010414 294.09375 68.979164Z" fill-rule="nonzero"/><path fill="#efc649" d="M310.0 60.916668C310.0 60.364384 310.44772 59.916668 311.0 59.916668L321.0 59.916668C321.55228 59.916668 322.0 60.364384 322.0 60.916668L322.0 70.916664C322.0 71.46895 321.55228 71.916664 321.0 71.916664L311.0 71.916664C310.44772 71.916664 310.0 71.46895 310.0 70.916664Z" fill-rule="nonzero"/><path fill="#1a1a1a" d="M330.79688 72.30729L330.79688 63.697914L331.75 63.697914L331.75 64.49479Q332.09375 64.02604 332.51562 63.791664Q332.95312 63.55729 333.5625 63.55729Q334.35938 63.55729 334.96875 63.96354Q335.57812 64.36979 335.875 65.11979Q336.1875 65.86979 336.1875 66.760414Q336.1875 67.71354 335.84375 68.479164Q335.51562 69.24479 334.85938 69.65104Q334.20312 70.05729 333.48438 70.05729Q332.95312 70.05729 332.53125 69.83854Q332.10938 69.604164 331.84375 69.27604L331.84375 72.30729L330.79688 72.30729ZM331.75 66.83854Q331.75 68.041664 332.23438 68.61979Q332.71875 69.18229 333.40625 69.18229Q334.10938 69.18229 334.60938 68.58854Q335.10938 67.99479 335.10938 66.74479Q335.10938 65.55729 334.625 64.979164Q334.14062 64.385414 333.45312 64.385414Q332.78125 64.385414 332.26562 65.010414Q331.75 65.635414 331.75 66.83854ZM341.85938 69.15104Q341.26562 69.65104 340.71875 69.854164Q340.1875 70.05729 339.5625 70.05729Q338.53125 70.05729 337.98438 69.55729Q337.4375 69.05729 337.4375 68.27604Q337.4375 67.822914 337.64062 67.447914Q337.84375 67.05729 338.1875 66.83854Q338.53125 66.604164 338.95312 66.49479Q339.25 66.40104 339.89062 66.322914Q341.15625 66.18229 341.76562 65.96354Q341.76562 65.74479 341.76562 65.697914Q341.76562 65.041664 341.46875 64.77604Q341.0625 64.43229 340.26562 64.43229Q339.53125 64.43229 339.17188 64.697914Q338.8125 64.947914 338.64062 65.604164L337.60938 65.46354Q337.75 64.80729 338.07812 64.40104Q338.40625 63.99479 339.01562 63.77604Q339.625 63.55729 340.42188 63.55729Q341.21875 63.55729 341.71875 63.74479Q342.21875 63.93229 342.45312 64.21354Q342.6875 64.49479 342.78125 64.93229Q342.82812 65.197914 342.82812 65.90104L342.82812 67.30729Q342.82812 68.77604 342.89062 69.166664Q342.96875 69.55729 343.17188 69.916664L342.0625 69.916664Q341.90625 69.58854 341.85938 69.15104ZM341.76562 66.791664Q341.1875 67.02604 340.04688 67.197914Q339.39062 67.291664 339.125 67.416664Q338.85938 67.52604 338.70312 67.74479Q338.5625 67.96354 338.5625 68.24479Q338.5625 68.666664 338.875 68.947914Q339.20312 69.229164 339.8125 69.229164Q340.42188 69.229164 340.89062 68.96354Q341.375 68.697914 341.59375 68.229164Q341.76562 67.86979 341.76562 67.18229L341.76562 66.791664ZM347.09375 68.979164L347.25 69.90104Q346.79688 69.99479 346.45312 69.99479Q345.875 69.99479 345.5625 69.822914Q345.25 69.635414 345.10938 69.33854Q344.98438 69.041664 344.98438 68.08854L344.98438 64.510414L344.21875 64.510414L344.21875 63.697914L344.98438 63.697914L344.98438 62.15104L346.03125 61.52604L346.03125 63.697914L347.09375 63.697914L347.09375 64.510414L346.03125 64.510414L346.03125 68.15104Q346.03125 68.604164 346.07812 68.729164Q346.14062 68.854164 346.26562 68.93229Q346.39062 69.010414 346.625 69.010414Q346.8125 69.010414 347.09375 68.979164Z" fill-rule="nonzero"/><path fill="#757575" d="M22.58125 34.815624Q22.315624 34.815624 21.39375 34.690624Q21.315624 36.159374 21.315624 39.8625Q21.315624 40.253124 21.05 40.51875Q20.8 40.784374 20.425 40.784374Q20.034374 40.784374 19.784374 40.51875Q19.534374 40.253124 19.534374 39.8625L19.534374 36.9875Q19.534374 35.55 19.70625 32.940624Q19.89375 30.1125 19.925 28.89375L19.925 27.55Q19.925 26.58125 20.034374 26.14375Q20.253124 25.284374 20.9875 25.409374Q21.3 25.3 21.878124 25.253124Q22.45625 25.20625 23.3 25.20625Q25.08125 25.20625 26.64375 26.425Q28.3625 27.76875 28.3625 29.675Q28.3625 32.096874 26.534374 33.534374Q24.89375 34.815624 22.58125 34.815624ZM23.065624 27.065624Q22.64375 27.065624 22.3 27.08125Q21.971874 27.096874 21.7375 27.14375L21.721874 28.940624L21.503124 32.83125L22.58125 32.95625Q24.221874 32.95625 25.346874 32.128124Q26.58125 31.20625 26.58125 29.675Q26.58125 28.58125 25.409374 27.784374Q24.315624 27.065624 23.065624 27.065624ZM37.534374 41.190624Q37.346874 41.190624 36.8625 40.76875Q36.425 40.3625 36.20625 40.05Q35.26875 40.565624 34.55 40.815624Q33.846874 41.08125 33.3625 41.08125Q31.08125 41.08125 30.034374 39.784374Q29.05 38.58125 29.05 36.08125Q29.05 33.70625 30.675 32.034374Q32.3 30.346874 34.55 30.346874Q35.409374 30.346874 36.45625 30.8Q37.784374 31.346874 37.784374 32.1125Q37.784374 32.378124 37.596874 32.58125Q37.503124 32.95625 37.440624 33.8Q37.39375 34.64375 37.378124 35.971874Q37.3625 37.190624 37.55 37.89375Q37.64375 38.315624 38.159374 39.6125Q38.221874 39.784374 38.378124 40.128124L38.440624 40.3Q38.440624 40.690624 38.159374 40.940624Q37.89375 41.190624 37.534374 41.190624ZM35.503124 34.409374Q35.503124 33.9875 35.55 33.503124Q35.6125 33.003124 35.721874 32.440624Q35.3625 32.253124 35.096874 32.175Q34.846874 32.08125 34.690624 32.08125Q33.175 32.08125 32.065624 33.315624Q30.971874 34.55 30.971874 36.159374Q30.971874 37.76875 31.534374 38.565624Q32.1125 39.3625 33.2375 39.3625Q34.175 39.3625 34.83125 39.01875Q35.175 38.846874 35.815624 38.284374Q35.503124 35.690624 35.503124 34.409374ZM46.440624 32.221874Q46.2375 32.221874 45.95625 32.20625Q45.675 32.190624 45.471874 32.190624Q45.253124 32.190624 44.14375 32.33125L44.33125 38.1125L44.346874 38.534374L44.346874 39.034374Q44.39375 41.175 43.33125 41.175Q42.940624 41.175 42.64375 40.925Q42.3625 40.675 42.3625 40.284374Q42.3625 39.909374 42.39375 39.175Q42.425 38.425 42.425 38.065624L42.221874 32.3625Q41.503124 32.33125 40.05 32.190624Q39.190624 32.065624 39.190624 31.221874Q39.190624 30.8 39.440624 30.51875Q39.70625 30.221874 40.128124 30.221874L42.175 30.39375Q42.175 29.89375 42.128124 29.065624Q42.08125 28.221874 42.08125 27.846874Q42.08125 27.440624 42.3625 27.175Q42.659374 26.909374 43.065624 26.909374Q43.940624 26.909374 44.08125 28.346874Q44.1125 28.70625 44.1125 29.20625L44.096874 29.784374L44.08125 30.378124Q45.3 30.221874 45.471874 30.221874Q46.4875 30.221874 46.8 30.33125Q47.39375 30.51875 47.39375 31.2375Q47.39375 31.675 47.128124 31.95625Q46.8625 32.221874 46.440624 32.221874ZM58.409374 40.034374Q58.378124 40.940624 57.51875 40.940624Q56.815624 40.940624 56.4875 40.096874L54.9875 36.128124L53.253124 31.659374Q53.159374 31.39375 53.159374 31.20625Q53.159374 30.8 53.45625 30.51875Q53.76875 30.2375 54.159374 30.2375Q54.753124 30.2375 55.003124 30.83125L57.4875 37.659374Q58.221874 36.096874 59.33125 33.128124Q59.596874 32.346874 60.159374 30.925Q60.45625 30.3 61.01875 30.3Q61.425 30.3 61.721874 30.58125Q62.01875 30.8625 62.01875 31.253124Q62.01875 31.628124 60.409374 35.425L58.409374 40.034374ZM70.50313 33.034374Q69.95625 33.034374 69.75313 32.675Q69.59688 32.409374 69.4875 31.6125Q68.76875 31.8 67.2375 32.3Q65.65938 32.925 65.65938 33.846874Q65.95625 33.940624 66.2375 34.003124Q68.47188 34.39375 69.56563 35.096874Q71.15938 36.128124 71.15938 38.065624Q71.15938 39.659374 69.78438 40.471874Q68.64375 41.14375 66.89375 41.14375Q65.6125 41.14375 64.45625 40.70625Q62.95625 40.159374 62.95625 39.175Q62.95625 38.784374 63.253124 38.503124Q63.565624 38.20625 63.95625 38.20625Q64.25313 38.20625 64.7375 38.675Q64.97188 38.89375 65.8 39.05Q66.44063 39.159374 66.89375 39.159374Q67.72188 39.159374 68.34688 38.971874Q69.25313 38.690624 69.25313 38.065624Q69.25313 36.7375 67.39375 36.26875L66.37813 36.05Q65.08125 35.76875 64.53438 35.378124Q63.7375 34.83125 63.7375 33.7375Q63.7375 31.690624 65.65938 30.815624Q66.25313 30.565624 67.53438 30.20625Q68.83125 29.83125 69.39375 29.565624Q69.78438 29.39375 70.25313 29.39375Q70.675 29.39375 70.94063 29.675Q71.20625 29.940624 71.20625 30.378124Q71.20625 30.659374 71.33125 31.20625Q71.45625 31.753124 71.45625 32.05Q71.45625 32.4875 71.19063 32.76875Q70.925 33.034374 70.50313 33.034374ZM75.15938 41.45625Q74.64375 41.45625 74.28438 41.096874Q73.94063 40.753124 73.94063 40.253124Q73.94063 39.753124 74.28438 39.39375Q74.64375 39.034374 75.15938 39.034374Q75.65938 39.034374 76.00313 39.39375Q76.3625 39.753124 76.3625 40.253124Q76.3625 40.753124 76.00313 41.096874Q75.65938 41.45625 75.15938 41.45625ZM98.425 41.3625Q97.89375 41.3625 97.55 40.815624Q97.25313 40.346874 97.01875 39.253124L96.675 37.565624Q96.26875 36.003124 95.40938 30.675L93.45625 36.565624L92.87813 38.425Q92.51875 39.51875 92.14375 40.221874Q91.7375 40.971874 91.03438 40.971874Q90.45625 40.971874 90.12813 40.346874Q89.90938 39.940624 89.7375 39.3L89.45625 38.221874Q88.47188 34.76875 87.72188 30.83125L87.3625 32.58125L86.1125 37.7375Q86.03438 38.64375 85.6125 40.425Q85.33125 41.190624 84.64375 41.190624Q84.175 41.190624 83.89375 40.846874Q83.64375 40.55 83.64375 40.1125Q83.64375 38.4875 84.31563 36.1125L85.39375 32.175L85.95625 29.096874Q86.39375 26.940624 86.8625 26.284374Q87.25313 25.721874 87.83125 25.721874Q88.47188 25.721874 88.78438 26.440624Q89.15938 27.3 89.59688 29.9875Q90.1125 33.190624 91.20625 36.940624Q92.65938 33.175 93.70625 29.096874L94.00313 27.675Q94.175 26.815624 94.47188 26.284374Q94.84688 25.565624 95.50313 25.565624Q96.34688 25.565624 96.78438 27.190624Q96.94063 27.753124 97.175 29.4875Q97.75313 33.909374 98.6125 37.034374L99.08125 38.70625Q99.45625 40.065624 99.45625 40.378124Q99.45625 40.8 99.12813 41.08125Q98.81563 41.3625 98.425 41.3625ZM109.53438 41.190624Q109.34688 41.190624 108.8625 40.76875Q108.425 40.3625 108.20625 40.05Q107.26875 40.565624 106.55 40.815624Q105.84688 41.08125 105.3625 41.08125Q103.08125 41.08125 102.03438 39.784374Q101.05 38.58125 101.05 36.08125Q101.05 33.70625 102.675 32.034374Q104.3 30.346874 106.55 30.346874Q107.40938 30.346874 108.45625 30.8Q109.78438 31.346874 109.78438 32.1125Q109.78438 32.378124 109.59688 32.58125Q109.50313 32.95625 109.44063 33.8Q109.39375 34.64375 109.37813 35.971874Q109.3625 37.190624 109.55 37.89375Q109.64375 38.315624 110.15938 39.6125Q110.22188 39.784374 110.37813 40.128124L110.44063 40.3Q110.44063 40.690624 110.15938 40.940624Q109.89375 41.190624 109.53438 41.190624ZM107.50313 34.409374Q107.50313 33.9875 107.55 33.503124Q107.6125 33.003124 107.72188 32.440624Q107.3625 32.253124 107.09688 32.175Q106.84688 32.08125 106.69063 32.08125Q105.175 32.08125 104.06563 33.315624Q102.97188 34.55 102.97188 36.159374Q102.97188 37.76875 103.53438 38.565624Q104.1125 39.3625 105.2375 39.3625Q106.175 39.3625 106.83125 39.01875Q107.175 38.846874 107.81563 38.284374Q107.50313 35.690624 107.50313 34.409374ZM118.44063 32.221874Q118.2375 32.221874 117.95625 32.20625Q117.675 32.190624 117.47188 32.190624Q117.25313 32.190624 116.14375 32.33125L116.33125 38.1125L116.34688 38.534374L116.34688 39.034374Q116.39375 41.175 115.33125 41.175Q114.94063 41.175 114.64375 40.925Q114.3625 40.675 114.3625 40.284374Q114.3625 39.909374 114.39375 39.175Q114.425 38.425 114.425 38.065624L114.22188 32.3625Q113.50313 32.33125 112.05 32.190624Q111.19063 32.065624 111.19063 31.221874Q111.19063 30.8 111.44063 30.51875Q111.70625 30.221874 112.12813 30.221874L114.175 30.39375Q114.175 29.89375 114.12813 29.065624Q114.08125 28.221874 114.08125 27.846874Q114.08125 27.440624 114.3625 27.175Q114.65938 26.909374 115.06563 26.909374Q115.94063 26.909374 116.08125 28.346874Q116.1125 28.70625 116.1125 29.20625L116.09688 29.784374L116.08125 30.378124Q117.3 30.221874 117.47188 30.221874Q118.4875 30.221874 118.8 30.33125Q119.39375 30.51875 119.39375 31.2375Q119.39375 31.675 119.12813 31.95625Q118.8625 32.221874 118.44063 32.221874ZM131.34688 25.76875Q131.34688 26.1125 130.7375 26.76875Q130.3 27.221874 129.84688 27.675Q128.76875 28.89375 128.15938 31.190624Q127.6125 33.175 127.6125 35.096874Q127.6125 40.065624 129.8625 42.378124Q130.31563 42.721874 130.76875 43.08125Q131.33125 43.534374 131.33125 43.971874Q131.33125 44.284374 131.08125 44.51875Q130.83125 44.76875 130.50313 44.76875Q130.20625 44.76875 129.8 44.55Q125.65938 42.2375 125.65938 34.878124Q125.65938 32.221874 126.72188 29.51875Q127.925 26.503124 129.84688 25.14375Q130.2375 24.8625 130.47188 24.8625Q130.81563 24.8625 131.08125 25.14375Q131.34688 25.425 131.34688 25.76875ZM141.39375 40.565624Q141.14375 40.565624 140.70625 40.425Q140.26875 40.26875 140.03438 40.26875Q139.53438 40.26875 138.53438 40.33125Q137.53438 40.378124 137.03438 40.378124Q136.64375 40.378124 135.89375 40.4875Q135.15938 40.58125 134.76875 40.58125Q134.65938 40.58125 134.45625 40.55Q134.25313 40.503124 134.14375 40.503124Q133.47188 40.503124 133.26875 39.846874Q133.15938 39.503124 133.15938 38.675Q133.15938 36.39375 134.39375 35.01875Q134.95625 34.378124 137.45625 32.675Q138.84688 31.70625 139.31563 31.175Q140.15938 30.2375 140.15938 28.971874Q140.15938 28.346874 139.34688 27.8625Q138.62813 27.425 137.94063 27.425Q137.05 27.425 136.2375 27.940624L134.84688 29.034374Q134.425 29.3625 134.175 29.3625Q133.15938 29.3625 133.15938 28.565624Q133.15938 28.1125 133.53438 27.76875Q134.675 26.70625 135.51875 26.221874Q136.69063 25.55 137.94063 25.55Q139.53438 25.55 140.76875 26.409374Q142.15938 27.378124 142.15938 28.89375Q142.15938 29.878124 141.87813 30.721874Q141.59688 31.565624 141.01875 32.253124Q140.28438 33.14375 138.53438 34.221874Q136.69063 35.378124 136.12813 35.971874Q135.03438 37.096874 135.05 38.690624L137.06563 38.503124Q139.14375 38.39375 140.03438 38.39375Q140.76875 38.39375 141.44063 38.64375Q142.31563 38.9875 142.31563 39.596874Q142.31563 39.971874 142.05 40.26875Q141.78438 40.565624 141.39375 40.565624ZM149.51875 40.925Q146.55 40.925 145.175 38.221874Q144.14375 36.128124 144.14375 32.76875Q144.14375 29.940624 145.4875 27.83125Q147.08125 25.3625 149.81563 25.3625Q152.39375 25.3625 153.83125 27.55Q155.06563 29.440624 155.06563 32.175Q155.06563 36.55 153.675 38.7375Q152.28438 40.925 149.51875 40.925ZM149.81563 27.253124Q147.9875 27.253124 146.925 29.096874Q146.03438 30.64375 146.03438 32.6125Q146.03438 35.83125 146.90938 37.440624Q147.78438 39.05 149.51875 39.05Q151.58125 39.05 152.4875 36.690624Q153.1125 35.05 153.1125 32.534374Q153.1125 29.878124 152.28438 28.565624Q151.45625 27.253124 149.81563 27.253124ZM162.425 40.565624L160.4875 40.565624L158.55 40.55Q157.8625 40.55 157.59688 40.45625Q157.09688 40.284374 157.09688 39.721874Q157.09688 38.7375 158.62813 38.7375L159.09688 38.7375L159.50313 38.76875Q159.50313 38.3 159.40938 37.378124Q159.33125 36.45625 159.33125 36.003124Q159.33125 34.753124 159.55 32.221874Q159.76875 29.7375 159.75313 28.45625Q158.45625 29.471874 158.09688 29.471874Q157.70625 29.471874 157.40938 29.175Q157.12813 28.878124 157.12813 28.503124Q157.12813 28.034374 157.95625 27.378124Q158.4875 27.01875 159.45625 26.190624Q160.31563 25.33125 161.09688 25.33125Q161.75313 25.33125 161.75313 26.08125Q161.75313 26.3 161.69063 26.753124Q161.62813 27.190624 161.62813 27.409374Q161.62813 27.7375 161.65938 28.39375Q161.70625 29.05 161.70625 29.3625Q161.70625 30.4875 161.47188 32.690624Q161.2375 34.89375 161.2375 36.003124Q161.2375 36.565624 161.31563 37.378124Q161.39375 38.190624 161.39375 38.70625L162.425 38.690624Q162.83125 38.690624 163.09688 38.95625Q163.37813 39.221874 163.37813 39.628124Q163.37813 40.034374 163.09688 40.3Q162.83125 40.565624 162.425 40.565624ZM170.55 41.08125Q168.4875 41.08125 167.22188 40.175Q165.76875 39.159374 165.7375 37.20625Q165.70625 34.05 167.95625 32.909374Q166.22188 31.846874 166.22188 29.909374Q166.22188 28.065624 167.56563 26.83125Q168.83125 25.659374 170.65938 25.64375Q174.76875 25.6125 174.76875 29.70625Q174.76875 30.878124 174.3 31.503124Q173.90938 32.034374 172.81563 32.596874Q174.28438 33.315624 174.8625 34.175Q175.55 35.175 175.55 36.909374Q175.55 38.909374 174.06563 40.034374Q172.70625 41.08125 170.55 41.08125ZM170.62813 27.39375Q169.37813 27.39375 168.70625 28.1125Q168.1125 28.76875 168.12813 29.909374Q168.12813 31.26875 170.37813 31.846874Q171.55 31.503124 172.05 31.159374Q172.8625 30.6125 172.8625 29.70625Q172.8625 28.378124 172.26875 27.83125Q171.75313 27.39375 170.62813 27.39375ZM170.45625 33.58125Q168.90938 34.3 168.39375 34.83125Q167.58125 35.64375 167.62813 37.1125Q167.65938 38.33125 168.75313 38.940624Q169.53438 39.3625 170.55 39.3625Q172.26875 39.3625 172.95625 38.55Q173.50313 37.909374 173.50313 36.596874Q173.50313 35.33125 172.50313 34.55Q171.83125 34.003124 170.45625 33.58125ZM183.34688 34.878124Q183.34688 42.2375 179.20625 44.55Q178.8 44.76875 178.51875 44.76875Q178.175 44.76875 177.925 44.51875Q177.675 44.284374 177.675 43.971874Q177.675 43.534374 178.2375 43.08125Q178.69063 42.721874 179.14375 42.378124Q181.39375 40.065624 181.39375 35.096874Q181.39375 33.175 180.8625 31.190624Q180.2375 28.89375 179.15938 27.675Q178.70625 27.221874 178.26875 26.76875Q177.65938 26.1125 177.65938 25.76875Q177.65938 25.425 177.90938 25.14375Q178.175 24.8625 178.53438 24.8625Q178.75313 24.8625 179.15938 25.14375Q181.09688 26.503124 182.28438 29.51875Q183.34688 32.221874 183.34688 34.878124Z" fill-rule="nonzero"/></svg>