<svg version="1.1" viewBox="0.0 0.0 600.0 371.0" fill="none" stroke="none" stroke-linecap="square" stroke-miterlimit="10" width="600" height="371" xmlns:xlink="http://www.w3.org/1999/xlink" xmlns="http://www.w3.org/2000/svg"><path fill="#ffffff" d="M0 0L600.0 0L600.0 371.0L0 371.0L0 0Z" fill-rule="nonzero"/><path stroke="#333333" stroke-width="1.0" stroke-linecap="butt" d="M56.5 296.5L581.5 296.5" fill-rule="nonzero"/><path stroke="#cccccc" stroke-width="1.0" stroke-linecap="butt" d="M56.5 245.5L581.5 245.5" fill-rule="nonzero"/><path stroke="#cccccc" stroke-width="1.0" stroke-linecap="butt" d="M56.5 194.5L581.5 194.5" fill-rule="nonzero"/><path stroke="#cccccc" stroke-width="1.0" stroke-linecap="butt" d="M56.5 143.5L581.5 143.5" fill-rule="nonzero"/><path stroke="#cccccc" stroke-width="1.0" stroke-linecap="butt" d="M56.5 92.5L581.5 92.5" fill-rule="nonzero"/><clipPath id="id_0"><path d="M56.55 92.28333L581.45 92.28333L581.45 296.45L56.55 296.45L56.55 92.28333Z" clip-rule="nonzero"/></clipPath><path fill="#efc649" clip-path="url(#id_0)" d="M56.55 193.22061L100.291664 166.77567L144.03334 183.61926L187.775 193.58533L231.51666 221.52083L275.25833 147.46828L319.0 196.1047L362.74167 183.0024L406.48334 224.81801L450.225 179.79976L493.96667 193.10506L537.7083 186.30745L581.45 209.74908L581.45 296.45L537.7083 296.45L493.96667 296.45L450.225 296.45L406.48334 296.45L362.74167 296.45L319.0 296.45L275.25833 296.45L231.51666 296.45L187.775 296.45L144.03334 296.45L100.291664 296.45L56.55 296.45Z" fill-rule="nonzero"/><path fill="#d64e20" clip-path="url(#id_0)" d="M56.55 92.28333L100.291664 92.28333L144.03334 92.28333L187.775 92.28333L231.51666 92.28333L275.25833 92.28333L319.0 92.28333L362.74167 92.28333L406.48334 92.28333L450.225 92.28333L493.96667 92.28333L537.7083 92.28333L581.45 92.28333L581.45 209.74908L537.7083 186.30745L493.96667 193.10506L450.225 179.79976L406.48334 224.81801L362.74167 183.0024L319.0 196.1047L275.25833 147.46828L231.51666 221.52083L187.775 193.58533L144.03334 183.61926L100.291664 166.77567L56.55 193.22061Z" fill-rule="nonzero"/><path stroke="#efc649" stroke-width="2.0" stroke-linecap="butt" clip-path="url(#id_0)" d="M56.55 193.22061L100.291664 166.77567L144.03334 183.61926L187.775 193.58533L231.51666 221.52083L275.25833 147.46828L319.0 196.1047L362.74167 183.0024L406.48334 224.81801L450.225 179.79976L493.96667 193.10506L537.7083 186.30745L581.45 209.74908" fill-rule="nonzero"/><path stroke="#d64e20" stroke-width="2.0" stroke-linecap="butt" clip-path="url(#id_0)" d="M56.55 92.28333L100.291664 92.28333L144.03334 92.28333L187.775 92.28333L231.51666 92.28333L275.25833 92.28333L319.0 92.28333L362.74167 92.28333L406.48334 92.28333L450.225 92.28333L493.96667 92.28333L537.7083 92.28333L581.45 92.28333" fill-rule="nonzero"/><path fill="#000000" fill-opacity="0.0" clip-path="url(#id_0)" d="M59.55 193.22061C59.55 194.87747 58.206856 196.22061 56.55 196.22061C54.893147 196.22061 53.55 194.87747 53.55 193.22061C53.55 191.56377 54.893147 190.22061 56.55 190.22061C58.206856 190.22061 59.55 191.56377 59.55 193.22061Z" fill-rule="nonzero"/><path fill="#000000" fill-opacity="0.0" clip-path="url(#id_0)" d="M103.291664 166.77567C103.291664 168.43251 101.948524 169.77567 100.291664 169.77567C98.63481 169.77567 97.291664 168.43251 97.291664 166.77567C97.291664 165.1188 98.63481 163.77567 100.291664 163.77567C101.948524 163.77567 103.291664 165.1188 103.291664 166.77567Z" fill-rule="nonzero"/><path fill="#000000" fill-opacity="0.0" clip-path="url(#id_0)" d="M147.03334 183.61926C147.03334 185.27611 145.69019 186.61926 144.03334 186.61926C142.37648 186.61926 141.03334 185.27611 141.03334 183.61926C141.03334 181.9624 142.37648 180.61926 144.03334 180.61926C145.69019 180.61926 147.03334 181.9624 147.03334 183.61926Z" fill-rule="nonzero"/><path fill="#000000" fill-opacity="0.0" clip-path="url(#id_0)" d="M190.775 193.58533C190.775 195.24219 189.43185 196.58533 187.775 196.58533C186.11815 196.58533 184.775 195.24219 184.775 193.58533C184.775 191.92848 186.11815 190.58533 187.775 190.58533C189.43185 190.58533 190.775 191.92848 190.775 193.58533Z" fill-rule="nonzero"/><path fill="#000000" fill-opacity="0.0" clip-path="url(#id_0)" d="M234.51666 221.52083C234.51666 223.17769 233.17352 224.52083 231.51666 224.52083C229.85982 224.52083 228.51666 223.17769 228.51666 221.52083C228.51666 219.86398 229.85982 218.52083 231.51666 218.52083C233.17352 218.52083 234.51666 219.86398 234.51666 221.52083Z" fill-rule="nonzero"/><path fill="#000000" fill-opacity="0.0" clip-path="url(#id_0)" d="M278.25833 147.46828C278.25833 149.12514 276.9152 150.46828 275.25833 150.46828C273.60147 150.46828 272.25833 149.12514 272.25833 147.46828C272.25833 145.81143 273.60147 144.46828 275.25833 144.46828C276.9152 144.46828 278.25833 145.81143 278.25833 147.46828Z" fill-rule="nonzero"/><path fill="#000000" fill-opacity="0.0" clip-path="url(#id_0)" d="M322.0 196.1047C322.0 197.76157 320.65686 199.1047 319.0 199.1047C317.34314 199.1047 316.0 197.76157 316.0 196.1047C316.0 194.44786 317.34314 193.1047 319.0 193.1047C320.65686 193.1047 322.0 194.44786 322.0 196.1047Z" fill-rule="nonzero"/><path fill="#000000" fill-opacity="0.0" clip-path="url(#id_0)" d="M365.74167 183.0024C365.74167 184.65926 364.39853 186.0024 362.74167 186.0024C361.0848 186.0024 359.74167 184.65926 359.74167 183.0024C359.74167 181.34554 361.0848 180.0024 362.74167 180.0024C364.39853 180.0024 365.74167 181.34554 365.74167 183.0024Z" fill-rule="nonzero"/><path fill="#000000" fill-opacity="0.0" clip-path="url(#id_0)" d="M409.48334 224.81801C409.48334 226.47485 408.1402 227.81801 406.48334 227.81801C404.82648 227.81801 403.48334 226.47485 403.48334 224.81801C403.48334 223.16115 404.82648 221.81801 406.48334 221.81801C408.1402 221.81801 409.48334 223.16115 409.48334 224.81801Z" fill-rule="nonzero"/><path fill="#000000" fill-opacity="0.0" clip-path="url(#id_0)" d="M453.225 179.79976C453.225 181.45662 451.88187 182.79976 450.225 182.79976C448.56815 182.79976 447.225 181.45662 447.225 179.79976C447.225 178.14291 448.56815 176.79976 450.225 176.79976C451.88187 176.79976 453.225 178.14291 453.225 179.79976Z" fill-rule="nonzero"/><path fill="#000000" fill-opacity="0.0" clip-path="url(#id_0)" d="M496.96667 193.10506C496.96667 194.76192 495.62354 196.10506 493.96667 196.10506C492.3098 196.10506 490.96667 194.76192 490.96667 193.10506C490.96667 191.44821 492.3098 190.10506 493.96667 190.10506C495.62354 190.10506 496.96667 191.44821 496.96667 193.10506Z" fill-rule="nonzero"/><path fill="#000000" fill-opacity="0.0" clip-path="url(#id_0)" d="M540.7083 186.30745C540.7083 187.96431 539.3652 189.30745 537.7083 189.30745C536.05145 189.30745 534.7083 187.96431 534.7083 186.30745C534.7083 184.6506 536.05145 183.30745 537.7083 183.30745C539.3652 183.30745 540.7083 184.6506 540.7083 186.30745Z" fill-rule="nonzero"/><path fill="#000000" fill-opacity="0.0" clip-path="url(#id_0)" d="M584.45 209.74908C584.45 211.40594 583.1069 212.74908 581.45 212.74908C579.79315 212.74908 578.45 211.40594 578.45 209.74908C578.45 208.09224 579.79315 206.74908 581.45 206.74908C583.1069 206.74908 584.45 208.09224 584.45 209.74908Z" fill-rule="nonzero"/><path fill="#d64e20" clip-path="url(#id_0)" d="M62.55 92.28333C62.55 95.59704 59.86371 98.28333 56.55 98.28333C53.23629 98.28333 50.55 95.59704 50.55 92.28333C50.55 88.96963 53.23629 86.28333 56.55 86.28333C59.86371 86.28333 62.55 88.96963 62.55 92.28333Z" fill-rule="nonzero"/><path fill="#d64e20" clip-path="url(#id_0)" d="M106.291664 92.28333C106.291664 95.59704 103.60538 98.28333 100.291664 98.28333C96.97796 98.28333 94.291664 95.59704 94.291664 92.28333C94.291664 88.96963 96.97796 86.28333 100.291664 86.28333C103.60538 86.28333 106.291664 88.96963 106.291664 92.28333Z" fill-rule="nonzero"/><path fill="#d64e20" clip-path="url(#id_0)" d="M150.03334 92.28333C150.03334 95.59704 147.34705 98.28333 144.03334 98.28333C140.71962 98.28333 138.03334 95.59704 138.03334 92.28333C138.03334 88.96963 140.71962 86.28333 144.03334 86.28333C147.34705 86.28333 150.03334 88.96963 150.03334 92.28333Z" fill-rule="nonzero"/><path fill="#d64e20" clip-path="url(#id_0)" d="M193.775 92.28333C193.775 95.59704 191.08871 98.28333 187.775 98.28333C184.46129 98.28333 181.775 95.59704 181.775 92.28333C181.775 88.96963 184.46129 86.28333 187.775 86.28333C191.08871 86.28333 193.775 88.96963 193.775 92.28333Z" fill-rule="nonzero"/><path fill="#d64e20" clip-path="url(#id_0)" d="M237.51666 92.28333C237.51666 95.59704 234.83037 98.28333 231.51666 98.28333C228.20296 98.28333 225.51666 95.59704 225.51666 92.28333C225.51666 88.96963 228.20296 86.28333 231.51666 86.28333C234.83037 86.28333 237.51666 88.96963 237.51666 92.28333Z" fill-rule="nonzero"/><path fill="#d64e20" clip-path="url(#id_0)" d="M281.25833 92.28333C281.25833 95.59704 278.57205 98.28333 275.25833 98.28333C271.9446 98.28333 269.25833 95.59704 269.25833 92.28333C269.25833 88.96963 271.9446 86.28333 275.25833 86.28333C278.57205 86.28333 281.25833 88.96963 281.25833 92.28333Z" fill-rule="nonzero"/><path fill="#d64e20" clip-path="url(#id_0)" d="M325.0 92.28333C325.0 95.59704 322.31372 98.28333 319.0 98.28333C315.68628 98.28333 313.0 95.59704 313.0 92.28333C313.0 88.96963 315.68628 86.28333 319.0 86.28333C322.31372 86.28333 325.0 88.96963 325.0 92.28333Z" fill-rule="nonzero"/><path fill="#d64e20" clip-path="url(#id_0)" d="M368.74167 92.28333C368.74167 95.59704 366.0554 98.28333 362.74167 98.28333C359.42795 98.28333 356.74167 95.59704 356.74167 92.28333C356.74167 88.96963 359.42795 86.28333 362.74167 86.28333C366.0554 86.28333 368.74167 88.96963 368.74167 92.28333Z" fill-rule="nonzero"/><path fill="#d64e20" clip-path="url(#id_0)" d="M412.48334 92.28333C412.48334 95.59704 409.79703 98.28333 406.48334 98.28333C403.16962 98.28333 400.48334 95.59704 400.48334 92.28333C400.48334 88.96963 403.16962 86.28333 406.48334 86.28333C409.79703 86.28333 412.48334 88.96963 412.48334 92.28333Z" fill-rule="nonzero"/><path fill="#d64e20" clip-path="url(#id_0)" d="M456.225 92.28333C456.225 95.59704 453.5387 98.28333 450.225 98.28333C446.9113 98.28333 444.225 95.59704 444.225 92.28333C444.225 88.96963 446.9113 86.28333 450.225 86.28333C453.5387 86.28333 456.225 88.96963 456.225 92.28333Z" fill-rule="nonzero"/><path fill="#d64e20" clip-path="url(#id_0)" d="M499.96667 92.28333C499.96667 95.59704 497.28036 98.28333 493.96667 98.28333C490.65295 98.28333 487.96667 95.59704 487.96667 92.28333C487.96667 88.96963 490.65295 86.28333 493.96667 86.28333C497.28036 86.28333 499.96667 88.96963 499.96667 92.28333Z" fill-rule="nonzero"/><path fill="#d64e20" clip-path="url(#id_0)" d="M543.7083 92.28333C543.7083 95.59704 541.02203 98.28333 537.7083 98.28333C534.39465 98.28333 531.7083 95.59704 531.7083 92.28333C531.7083 88.96963 534.39465 86.28333 537.7083 86.28333C541.02203 86.28333 543.7083 88.96963 543.7083 92.28333Z" fill-rule="nonzero"/><path fill="#d64e20" clip-path="url(#id_0)" d="M587.45 92.28333C587.45 95.59704 584.76373 98.28333 581.45 98.28333C578.1363 98.28333 575.45 95.59704 575.45 92.28333C575.45 88.96963 578.1363 86.28333 581.45 86.28333C584.76373 86.28333 587.45 88.96963 587.45 92.28333Z" fill-rule="nonzero"/><path fill="#000000" d="M296.39062 348.84064Q296.28125 348.84064 295.98438 348.575Q295.71875 348.34064 295.59375 348.15314Q295.03125 348.45 294.59375 348.60626Q294.17188 348.7625 293.89062 348.7625Q292.51562 348.7625 291.89062 347.9969Q291.29688 347.2625 291.29688 345.7625Q291.29688 344.34064 292.26562 343.34064Q293.25 342.325 294.60938 342.325Q295.10938 342.325 295.75 342.59064Q296.54688 342.91876 296.54688 343.3875Q296.54688 343.54376 296.42188 343.66876Q296.375 343.8875 296.32812 344.40314Q296.29688 344.90314 296.29688 345.7Q296.29688 346.4344 296.39062 346.85626Q296.45312 347.10626 296.76562 347.8875Q296.8125 347.9969 296.90625 348.2L296.9375 348.29376Q296.9375 348.52814 296.76562 348.6844Q296.60938 348.84064 296.39062 348.84064ZM295.17188 344.7625Q295.17188 344.5125 295.20312 344.21564Q295.23438 343.91876 295.29688 343.59064Q295.07812 343.48126 294.92188 343.4344Q294.78125 343.3719 294.6875 343.3719Q293.76562 343.3719 293.10938 344.1219Q292.45312 344.85626 292.45312 345.825Q292.45312 346.77814 292.79688 347.2625Q293.14062 347.7469 293.8125 347.7469Q294.375 347.7469 294.76562 347.52814Q294.98438 347.41876 295.35938 347.09064Q295.17188 345.54376 295.17188 344.7625ZM301.75 340.21564Q300.32812 340.21564 300.17188 342.1844L300.14062 342.54376Q301.14062 342.46564 301.4375 342.46564Q302.375 342.46564 302.375 343.0594Q302.375 343.48126 301.90625 343.575Q301.71875 343.60626 301.4375 343.60626Q301.17188 343.59064 300.09375 343.66876L300.04688 345.0125Q300.04688 345.3719 300.0625 346.10626Q300.09375 346.825 300.09375 347.1844Q300.09375 348.29376 299.96875 348.91876Q299.85938 349.3875 299.42188 349.3875Q299.1875 349.3875 299.01562 349.23126Q298.84375 349.075 298.84375 348.84064Q298.84375 348.79376 298.85938 348.73126Q298.96875 347.96564 298.96875 347.0594L298.95312 345.46564L298.95312 343.7625Q298.21875 343.825 298.03125 343.825Q297.4375 343.825 297.4375 343.2625Q297.4375 342.6844 298.46875 342.65314L299.03125 342.6375Q299.04688 342.3094 299.10938 341.7469Q299.26562 340.4344 299.76562 339.825Q300.375 339.075 301.67188 339.075Q302.51562 339.075 302.51562 339.65314Q302.51562 340.21564 301.75 340.21564ZM305.29688 343.84064L305.21875 346.7625Q305.21875 347.21564 305.17188 348.1219Q305.10938 348.7 304.59375 348.7Q304.01562 348.7 304.01562 348.10626Q304.01562 347.3875 304.07812 345.98126Q304.15625 344.5594 304.15625 343.84064Q304.15625 342.91876 304.17188 341.73126Q304.20312 340.52814 304.20312 339.60626Q304.20312 339.02814 304.78125 339.02814Q305.35938 339.02814 305.35938 339.60626Q305.35938 340.52814 305.32812 341.73126Q305.29688 342.91876 305.29688 343.84064ZM310.54688 348.71564Q309.23438 348.71564 308.40625 348.0594Q307.51562 347.325 307.51562 346.0125Q307.51562 344.48126 308.25 343.45Q309.04688 342.325 310.39062 342.325Q311.35938 342.325 311.98438 342.65314Q312.73438 343.0594 312.73438 343.90314Q312.73438 344.48126 312.07812 344.96564Q311.78125 345.16876 310.82812 345.6219L308.59375 346.6844Q308.92188 347.16876 309.40625 347.41876Q309.90625 347.65314 310.54688 347.65314Q310.95312 347.65314 311.5 347.5125Q312.1875 347.3094 312.39062 346.9969Q312.59375 346.6844 312.8125 346.6844Q313.03125 346.6844 313.1875 346.84064Q313.34375 346.9969 313.34375 347.2Q313.34375 347.85626 312.29688 348.325Q311.40625 348.71564 310.54688 348.71564ZM310.39062 343.3875Q309.67188 343.3875 309.20312 343.9344Q308.73438 344.48126 308.5 345.60626L310.29688 344.7469Q311.35938 344.23126 311.8125 343.85626Q311.29688 343.3875 310.39062 343.3875ZM316.51562 348.1375Q316.5 348.6844 315.98438 348.6844Q315.5625 348.6844 315.35938 348.1844L314.46875 345.79376L313.42188 343.10626Q313.35938 342.96564 313.35938 342.84064Q313.35938 342.60626 313.54688 342.4344Q313.73438 342.2625 313.96875 342.2625Q314.3125 342.2625 314.46875 342.6219L315.95312 346.71564Q316.40625 345.77814 317.0625 343.9969Q317.21875 343.52814 317.5625 342.66876Q317.75 342.29376 318.07812 342.29376Q318.32812 342.29376 318.5 342.46564Q318.6875 342.6375 318.6875 342.8719Q318.6875 343.09064 317.71875 345.3719L316.51562 348.1375ZM322.54688 348.71564Q321.23438 348.71564 320.40625 348.0594Q319.51562 347.325 319.51562 346.0125Q319.51562 344.48126 320.25 343.45Q321.04688 342.325 322.39062 342.325Q323.35938 342.325 323.98438 342.65314Q324.73438 343.0594 324.73438 343.90314Q324.73438 344.48126 324.07812 344.96564Q323.78125 345.16876 322.82812 345.6219L320.59375 346.6844Q320.92188 347.16876 321.40625 347.41876Q321.90625 347.65314 322.54688 347.65314Q322.95312 347.65314 323.5 347.5125Q324.1875 347.3094 324.39062 346.9969Q324.59375 346.6844 324.8125 346.6844Q325.03125 346.6844 325.1875 346.84064Q325.34375 346.9969 325.34375 347.2Q325.34375 347.85626 324.29688 348.325Q323.40625 348.71564 322.54688 348.71564ZM322.39062 343.3875Q321.67188 343.3875 321.20312 343.9344Q320.73438 344.48126 320.5 345.60626L322.29688 344.7469Q323.35938 344.23126 323.8125 343.85626Q323.29688 343.3875 322.39062 343.3875ZM330.375 344.1219Q330.32812 344.85626 329.78125 344.85626Q329.28125 344.85626 329.28125 344.27814Q329.28125 344.15314 329.26562 343.85626L329.25 343.3719Q328.32812 343.48126 327.76562 343.8875Q327.25 344.27814 326.90625 345.04376L326.90625 348.2469Q326.90625 348.84064 326.32812 348.84064Q325.8125 348.84064 325.8125 348.2469L325.8125 344.1375Q325.8125 343.95 325.82812 343.5594Q325.84375 343.16876 325.84375 342.98126Q325.84375 342.3875 326.35938 342.3875Q326.9375 342.3875 326.9375 343.35626Q328.0625 342.27814 329.4375 342.27814Q329.90625 342.27814 330.14062 342.6375Q330.375 342.98126 330.375 343.71564Q330.375 344.0125 330.375 344.1219ZM332.9375 341.02814Q332.65625 341.02814 332.45312 340.84064Q332.25 340.6375 332.25 340.35626Q332.25 340.075 332.45312 339.8719Q332.65625 339.66876 332.9375 339.66876Q333.21875 339.66876 333.42188 339.8719Q333.625 340.075 333.625 340.35626Q333.625 340.6375 333.42188 340.84064Q333.21875 341.02814 332.9375 341.02814ZM333.20312 345.79376Q333.20312 346.1375 333.21875 346.84064Q333.23438 347.54376 333.23438 347.8875Q333.23438 348.15314 333.07812 348.325Q332.92188 348.48126 332.67188 348.48126Q332.40625 348.48126 332.25 348.325Q332.09375 348.15314 332.09375 347.8875Q332.09375 347.54376 332.0625 346.84064Q332.04688 346.1375 332.04688 345.79376Q332.04688 345.23126 332.10938 344.41876Q332.17188 343.59064 332.17188 343.04376Q332.17188 342.77814 332.32812 342.6219Q332.48438 342.45 332.73438 342.45Q333.0 342.45 333.15625 342.6219Q333.3125 342.77814 333.3125 343.04376Q333.3125 343.59064 333.25 344.41876Q333.20312 345.23126 333.20312 345.79376ZM340.3125 348.8719Q339.8125 348.8719 339.73438 348.3094L339.57812 347.02814Q339.5 346.34064 339.5 345.7469Q339.5 345.59064 339.51562 345.2Q339.53125 344.79376 339.53125 344.6375Q339.53125 343.3719 339.0625 343.3719Q338.40625 343.3719 337.8125 344.15314Q337.28125 344.85626 336.96875 345.9344Q336.95312 346.16876 336.92188 346.5125Q336.875 346.8094 336.875 347.09064Q336.875 347.2625 336.90625 347.6219Q336.95312 347.96564 336.95312 348.1375Q336.95312 348.40314 336.78125 348.5594Q336.625 348.73126 336.375 348.73126Q336.125 348.73126 335.95312 348.5594Q335.79688 348.40314 335.79688 348.1375Q335.79688 347.96564 335.76562 347.6219Q335.73438 347.2625 335.73438 347.09064Q335.73438 346.48126 335.8125 345.41876Q335.89062 344.34064 335.89062 343.73126Q335.89062 343.54376 335.875 343.1844Q335.85938 342.8094 335.85938 342.6219Q335.85938 342.3719 336.01562 342.21564Q336.1875 342.04376 336.4375 342.04376Q336.96875 342.04376 337.03125 342.8094L337.04688 343.4969Q338.03125 342.1844 339.0625 342.1844Q340.0 342.1844 340.375 343.0125Q340.625 343.5594 340.65625 344.6375L340.65625 345.23126L340.64062 345.77814Q340.64062 346.2625 340.76562 347.04376Q340.89062 347.8094 340.89062 348.27814Q340.89062 348.54376 340.71875 348.7Q340.5625 348.8719 340.3125 348.8719ZM346.64062 345.91876L346.5 347.8875Q346.46875 349.0594 346.26562 349.8094Q346.0 350.7625 345.42188 351.21564Q344.71875 351.7625 343.39062 351.7625Q342.60938 351.7625 342.07812 351.65314Q341.34375 351.4969 341.34375 351.04376Q341.34375 350.5125 341.84375 350.5125Q342.0625 350.5125 342.54688 350.6219Q343.04688 350.73126 343.64062 350.71564Q344.76562 350.7 345.20312 349.6219Q345.48438 348.90314 345.5 347.41876Q345.17188 348.0125 344.73438 348.3094Q344.3125 348.59064 343.75 348.59064Q342.6875 348.59064 342.01562 347.8719Q341.35938 347.15314 341.35938 345.9969Q341.35938 344.41876 342.26562 343.45Q343.20312 342.45 344.8125 342.45Q345.35938 342.45 345.71875 342.59064Q346.09375 342.73126 346.29688 343.0125Q346.92188 343.02814 346.92188 343.71564Q346.92188 344.1219 346.79688 344.825Q346.65625 345.6375 346.64062 345.91876ZM344.75 343.3875Q343.64062 343.3875 343.03125 344.15314Q342.48438 344.84064 342.48438 345.91876Q342.48438 346.7625 342.8125 347.2Q343.14062 347.6219 343.78125 347.6219Q344.375 347.6219 344.92188 346.95Q345.4375 346.34064 345.5 345.73126Q345.625 345.09064 345.76562 343.7469Q345.53125 343.5594 345.28125 343.48126Q345.03125 343.3875 344.75 343.3875Z" fill-rule="nonzero"/><path fill="#000000" d="M33.05 296.21564Q33.05 294.6844 33.3625 293.7625Q33.675 292.825 34.284374 292.325Q34.909374 291.825 35.846874 291.825Q36.534374 291.825 37.05 292.10626Q37.58125 292.3875 37.925 292.91876Q38.26875 293.4344 38.45625 294.1844Q38.64375 294.9344 38.64375 296.21564Q38.64375 297.73126 38.33125 298.65314Q38.034374 299.575 37.409374 300.09064Q36.8 300.59064 35.846874 300.59064Q34.6125 300.59064 33.89375 299.7Q33.05 298.6375 33.05 296.21564ZM34.128124 296.21564Q34.128124 298.325 34.628124 299.02814Q35.128124 299.73126 35.846874 299.73126Q36.58125 299.73126 37.065624 299.02814Q37.565624 298.325 37.565624 296.21564Q37.565624 294.09064 37.065624 293.40314Q36.58125 292.7 35.83125 292.7Q35.1125 292.7 34.675 293.3094Q34.128124 294.09064 34.128124 296.21564ZM40.253124 293.91876Q40.253124 292.9969 40.70625 292.35626Q41.175 291.71564 42.05 291.71564Q42.8625 291.71564 43.39375 292.29376Q43.925 292.8719 43.925 293.98126Q43.925 295.075 43.378124 295.66876Q42.846874 296.2469 42.065624 296.2469Q41.284374 296.2469 40.76875 295.66876Q40.253124 295.09064 40.253124 293.91876ZM42.08125 292.4344Q41.690624 292.4344 41.425 292.77814Q41.175 293.1219 41.175 294.02814Q41.175 294.85626 41.425 295.2Q41.690624 295.52814 42.08125 295.52814Q42.4875 295.52814 42.7375 295.1844Q43.003124 294.84064 43.003124 293.95Q43.003124 293.10626 42.7375 292.77814Q42.471874 292.4344 42.08125 292.4344ZM42.08125 300.7625L46.784374 291.71564L47.64375 291.71564L42.95625 300.7625L42.08125 300.7625ZM45.8 298.4344Q45.8 297.5125 46.253124 296.8719Q46.721874 296.23126 47.6125 296.23126Q48.425 296.23126 48.95625 296.8094Q49.4875 297.3719 49.4875 298.4969Q49.4875 299.59064 48.940624 300.1844Q48.409374 300.7625 47.6125 300.7625Q46.846874 300.7625 46.315624 300.1844Q45.8 299.60626 45.8 298.4344ZM47.64375 296.95Q47.2375 296.95 46.971874 297.29376Q46.721874 297.6375 46.721874 298.54376Q46.721874 299.35626 46.9875 299.7Q47.253124 300.04376 47.64375 300.04376Q48.034374 300.04376 48.3 299.7Q48.565624 299.35626 48.565624 298.45Q48.565624 297.6219 48.3 297.29376Q48.034374 296.95 47.64375 296.95Z" fill-rule="nonzero"/><path fill="#000000" d="M31.596874 248.39272L31.596874 249.40834L25.909374 249.40834Q25.909374 249.03334 26.034374 248.67397Q26.253124 248.09584 26.721874 247.53334Q27.20625 246.97084 28.1125 246.23647Q29.51875 245.08022 30.003124 244.40834Q30.503124 243.73647 30.503124 243.14272Q30.503124 242.51772 30.05 242.09584Q29.596874 241.65834 28.878124 241.65834Q28.1125 241.65834 27.659374 242.11147Q27.20625 242.56459 27.190624 243.37709L26.1125 243.26772Q26.221874 242.04897 26.940624 241.42397Q27.675 240.78334 28.909374 240.78334Q30.14375 240.78334 30.8625 241.47084Q31.58125 242.15834 31.58125 243.17397Q31.58125 243.68959 31.3625 244.18959Q31.159374 244.67397 30.659374 245.23647Q30.175 245.78334 29.05 246.73647Q28.096874 247.53334 27.815624 247.83022Q27.55 248.11147 27.378124 248.39272L31.596874 248.39272ZM33.05 247.15834L34.159374 247.06459Q34.284374 247.87709 34.721874 248.28334Q35.175 248.68959 35.815624 248.68959Q36.565624 248.68959 37.096874 248.11147Q37.628124 247.53334 37.628124 246.59584Q37.628124 245.68959 37.1125 245.17397Q36.6125 244.64272 35.784374 244.64272Q35.284374 244.64272 34.8625 244.87709Q34.45625 245.11147 34.221874 245.47084L33.2375 245.34584L34.065624 240.93959L38.346874 240.93959L38.346874 241.93959L34.909374 241.93959L34.45625 244.25209Q35.221874 243.70522 36.065624 243.70522Q37.190624 243.70522 37.95625 244.48647Q38.7375 245.26772 38.7375 246.50209Q38.7375 247.65834 38.065624 248.51772Q37.2375 249.54897 35.815624 249.54897Q34.64375 249.54897 33.89375 248.89272Q33.159374 248.23647 33.05 247.15834ZM40.253124 242.87709Q40.253124 241.95522 40.70625 241.31459Q41.175 240.67397 42.05 240.67397Q42.8625 240.67397 43.39375 241.25209Q43.925 241.83022 43.925 242.93959Q43.925 244.03334 43.378124 244.62709Q42.846874 245.20522 42.065624 245.20522Q41.284374 245.20522 40.76875 244.62709Q40.253124 244.04897 40.253124 242.87709ZM42.08125 241.39272Q41.690624 241.39272 41.425 241.73647Q41.175 242.08022 41.175 242.98647Q41.175 243.81459 41.425 244.15834Q41.690624 244.48647 42.08125 244.48647Q42.4875 244.48647 42.7375 244.14272Q43.003124 243.79897 43.003124 242.90834Q43.003124 242.06459 42.7375 241.73647Q42.471874 241.39272 42.08125 241.39272ZM42.08125 249.72084L46.784374 240.67397L47.64375 240.67397L42.95625 249.72084L42.08125 249.72084ZM45.8 247.39272Q45.8 246.47084 46.253124 245.83022Q46.721874 245.18959 47.6125 245.18959Q48.425 245.18959 48.95625 245.76772Q49.4875 246.33022 49.4875 247.45522Q49.4875 248.54897 48.940624 249.14272Q48.409374 249.72084 47.6125 249.72084Q46.846874 249.72084 46.315624 249.14272Q45.8 248.56459 45.8 247.39272ZM47.64375 245.90834Q47.2375 245.90834 46.971874 246.25209Q46.721874 246.59584 46.721874 247.50209Q46.721874 248.31459 46.9875 248.65834Q47.253124 249.00209 47.64375 249.00209Q48.034374 249.00209 48.3 248.65834Q48.565624 248.31459 48.565624 247.40834Q48.565624 246.58022 48.3 246.25209Q48.034374 245.90834 47.64375 245.90834Z" fill-rule="nonzero"/><path fill="#000000" d="M26.05 196.11667L27.159374 196.02292Q27.284374 196.83542 27.721874 197.24167Q28.175 197.64792 28.815624 197.64792Q29.565624 197.64792 30.096874 197.0698Q30.628124 196.49167 30.628124 195.55417Q30.628124 194.64792 30.1125 194.1323Q29.6125 193.60104 28.784374 193.60104Q28.284374 193.60104 27.8625 193.83542Q27.45625 194.0698 27.221874 194.42917L26.2375 194.30417L27.065624 189.89792L31.346874 189.89792L31.346874 190.89792L27.909374 190.89792L27.45625 193.21042Q28.221874 192.66354 29.065624 192.66354Q30.190624 192.66354 30.95625 193.4448Q31.7375 194.22604 31.7375 195.46042Q31.7375 196.61667 31.065624 197.47604Q30.2375 198.5073 28.815624 198.5073Q27.64375 198.5073 26.89375 197.85104Q26.159374 197.1948 26.05 196.11667ZM33.05 194.1323Q33.05 192.60104 33.3625 191.67917Q33.675 190.74167 34.284374 190.24167Q34.909374 189.74167 35.846874 189.74167Q36.534374 189.74167 37.05 190.02292Q37.58125 190.30417 37.925 190.83542Q38.26875 191.35104 38.45625 192.10104Q38.64375 192.85104 38.64375 194.1323Q38.64375 195.64792 38.33125 196.5698Q38.034374 197.49167 37.409374 198.0073Q36.8 198.5073 35.846874 198.5073Q34.6125 198.5073 33.89375 197.61667Q33.05 196.55417 33.05 194.1323ZM34.128124 194.1323Q34.128124 196.24167 34.628124 196.9448Q35.128124 197.64792 35.846874 197.64792Q36.58125 197.64792 37.065624 196.9448Q37.565624 196.24167 37.565624 194.1323Q37.565624 192.0073 37.065624 191.3198Q36.58125 190.61667 35.83125 190.61667Q35.1125 190.61667 34.675 191.22604Q34.128124 192.0073 34.128124 194.1323ZM40.253124 191.83542Q40.253124 190.91354 40.70625 190.27292Q41.175 189.6323 42.05 189.6323Q42.8625 189.6323 43.39375 190.21042Q43.925 190.78854 43.925 191.89792Q43.925 192.99167 43.378124 193.58542Q42.846874 194.16354 42.065624 194.16354Q41.284374 194.16354 40.76875 193.58542Q40.253124 193.0073 40.253124 191.83542ZM42.08125 190.35104Q41.690624 190.35104 41.425 190.6948Q41.175 191.03854 41.175 191.9448Q41.175 192.77292 41.425 193.11667Q41.690624 193.4448 42.08125 193.4448Q42.4875 193.4448 42.7375 193.10104Q43.003124 192.7573 43.003124 191.86667Q43.003124 191.02292 42.7375 190.6948Q42.471874 190.35104 42.08125 190.35104ZM42.08125 198.67917L46.784374 189.6323L47.64375 189.6323L42.95625 198.67917L42.08125 198.67917ZM45.8 196.35104Q45.8 195.42917 46.253124 194.78854Q46.721874 194.14792 47.6125 194.14792Q48.425 194.14792 48.95625 194.72604Q49.4875 195.28854 49.4875 196.41354Q49.4875 197.5073 48.940624 198.10104Q48.409374 198.67917 47.6125 198.67917Q46.846874 198.67917 46.315624 198.10104Q45.8 197.52292 45.8 196.35104ZM47.64375 194.86667Q47.2375 194.86667 46.971874 195.21042Q46.721874 195.55417 46.721874 196.46042Q46.721874 197.27292 46.9875 197.61667Q47.253124 197.96042 47.64375 197.96042Q48.034374 197.96042 48.3 197.61667Q48.565624 197.27292 48.565624 196.36667Q48.565624 195.53854 48.3 195.21042Q48.034374 194.86667 47.64375 194.86667Z" fill-rule="nonzero"/><path fill="#000000" d="M26.1125 139.85625L26.1125 138.84062L31.675 138.84062L31.675 139.66875Q30.8625 140.54375 30.05 141.99687Q29.253124 143.43437 28.815624 144.96562Q28.4875 146.04375 28.409374 147.325L27.315624 147.325Q27.33125 146.30937 27.70625 144.87187Q28.096874 143.43437 28.8 142.10625Q29.51875 140.77812 30.33125 139.85625L26.1125 139.85625ZM33.05 145.075L34.159374 144.98125Q34.284374 145.79375 34.721874 146.2Q35.175 146.60625 35.815624 146.60625Q36.565624 146.60625 37.096874 146.02812Q37.628124 145.45 37.628124 144.5125Q37.628124 143.60625 37.1125 143.09062Q36.6125 142.55937 35.784374 142.55937Q35.284374 142.55937 34.8625 142.79375Q34.45625 143.02812 34.221874 143.3875L33.2375 143.2625L34.065624 138.85625L38.346874 138.85625L38.346874 139.85625L34.909374 139.85625L34.45625 142.16875Q35.221874 141.62187 36.065624 141.62187Q37.190624 141.62187 37.95625 142.40312Q38.7375 143.18437 38.7375 144.41875Q38.7375 145.575 38.065624 146.43437Q37.2375 147.46562 35.815624 147.46562Q34.64375 147.46562 33.89375 146.80937Q33.159374 146.15312 33.05 145.075ZM40.253124 140.79375Q40.253124 139.87187 40.70625 139.23125Q41.175 138.59062 42.05 138.59062Q42.8625 138.59062 43.39375 139.16875Q43.925 139.74687 43.925 140.85625Q43.925 141.95 43.378124 142.54375Q42.846874 143.12187 42.065624 143.12187Q41.284374 143.12187 40.76875 142.54375Q40.253124 141.96562 40.253124 140.79375ZM42.08125 139.30937Q41.690624 139.30937 41.425 139.65312Q41.175 139.99687 41.175 140.90312Q41.175 141.73125 41.425 142.075Q41.690624 142.40312 42.08125 142.40312Q42.4875 142.40312 42.7375 142.05937Q43.003124 141.71562 43.003124 140.825Q43.003124 139.98125 42.7375 139.65312Q42.471874 139.30937 42.08125 139.30937ZM42.08125 147.6375L46.784374 138.59062L47.64375 138.59062L42.95625 147.6375L42.08125 147.6375ZM45.8 145.30937Q45.8 144.3875 46.253124 143.74687Q46.721874 143.10625 47.6125 143.10625Q48.425 143.10625 48.95625 143.68437Q49.4875 144.24687 49.4875 145.37187Q49.4875 146.46562 48.940624 147.05937Q48.409374 147.6375 47.6125 147.6375Q46.846874 147.6375 46.315624 147.05937Q45.8 146.48125 45.8 145.30937ZM47.64375 143.825Q47.2375 143.825 46.971874 144.16875Q46.721874 144.5125 46.721874 145.41875Q46.721874 146.23125 46.9875 146.575Q47.253124 146.91875 47.64375 146.91875Q48.034374 146.91875 48.3 146.575Q48.565624 146.23125 48.565624 145.325Q48.565624 144.49687 48.3 144.16875Q48.034374 143.825 47.64375 143.825Z" fill-rule="nonzero"/><path fill="#000000" d="M23.01875 96.28333L21.971874 96.28333L21.971874 89.56458Q21.58125 89.92396 20.95625 90.29896Q20.346874 90.65833 19.8625 90.83021L19.8625 89.81458Q20.7375 89.39271 21.39375 88.81458Q22.065624 88.22083 22.346874 87.65833L23.01875 87.65833L23.01875 96.28333ZM26.05 92.04896Q26.05 90.51771 26.3625 89.59583Q26.675 88.65833 27.284374 88.15833Q27.909374 87.65833 28.846874 87.65833Q29.534374 87.65833 30.05 87.93958Q30.58125 88.22083 30.925 88.75208Q31.26875 89.26771 31.45625 90.01771Q31.64375 90.76771 31.64375 92.04896Q31.64375 93.56458 31.33125 94.48646Q31.034374 95.40833 30.409374 95.92396Q29.8 96.42396 28.846874 96.42396Q27.6125 96.42396 26.89375 95.53333Q26.05 94.47083 26.05 92.04896ZM27.128124 92.04896Q27.128124 94.15833 27.628124 94.86146Q28.128124 95.56458 28.846874 95.56458Q29.58125 95.56458 30.065624 94.86146Q30.565624 94.15833 30.565624 92.04896Q30.565624 89.92396 30.065624 89.23646Q29.58125 88.53333 28.83125 88.53333Q28.1125 88.53333 27.675 89.14271Q27.128124 89.92396 27.128124 92.04896ZM33.05 92.04896Q33.05 90.51771 33.3625 89.59583Q33.675 88.65833 34.284374 88.15833Q34.909374 87.65833 35.846874 87.65833Q36.534374 87.65833 37.05 87.93958Q37.58125 88.22083 37.925 88.75208Q38.26875 89.26771 38.45625 90.01771Q38.64375 90.76771 38.64375 92.04896Q38.64375 93.56458 38.33125 94.48646Q38.034374 95.40833 37.409374 95.92396Q36.8 96.42396 35.846874 96.42396Q34.6125 96.42396 33.89375 95.53333Q33.05 94.47083 33.05 92.04896ZM34.128124 92.04896Q34.128124 94.15833 34.628124 94.86146Q35.128124 95.56458 35.846874 95.56458Q36.58125 95.56458 37.065624 94.86146Q37.565624 94.15833 37.565624 92.04896Q37.565624 89.92396 37.065624 89.23646Q36.58125 88.53333 35.83125 88.53333Q35.1125 88.53333 34.675 89.14271Q34.128124 89.92396 34.128124 92.04896ZM40.253124 89.75208Q40.253124 88.83021 40.70625 88.18958Q41.175 87.54896 42.05 87.54896Q42.8625 87.54896 43.39375 88.12708Q43.925 88.70521 43.925 89.81458Q43.925 90.90833 43.378124 91.50208Q42.846874 92.08021 42.065624 92.08021Q41.284374 92.08021 40.76875 91.50208Q40.253124 90.92396 40.253124 89.75208ZM42.08125 88.26771Q41.690624 88.26771 41.425 88.61146Q41.175 88.95521 41.175 89.86146Q41.175 90.68958 41.425 91.03333Q41.690624 91.36146 42.08125 91.36146Q42.4875 91.36146 42.7375 91.01771Q43.003124 90.67396 43.003124 89.78333Q43.003124 88.93958 42.7375 88.61146Q42.471874 88.26771 42.08125 88.26771ZM42.08125 96.59583L46.784374 87.54896L47.64375 87.54896L42.95625 96.59583L42.08125 96.59583ZM45.8 94.26771Q45.8 93.34583 46.253124 92.70521Q46.721874 92.06458 47.6125 92.06458Q48.425 92.06458 48.95625 92.64271Q49.4875 93.20521 49.4875 94.33021Q49.4875 95.42396 48.940624 96.01771Q48.409374 96.59583 47.6125 96.59583Q46.846874 96.59583 46.315624 96.01771Q45.8 95.43958 45.8 94.26771ZM47.64375 92.78333Q47.2375 92.78333 46.971874 93.12708Q46.721874 93.47083 46.721874 94.37708Q46.721874 95.18958 46.9875 95.53333Q47.253124 95.87708 47.64375 95.87708Q48.034374 95.87708 48.3 95.53333Q48.565624 95.18958 48.565624 94.28333Q48.565624 93.45521 48.3 93.12708Q48.034374 92.78333 47.64375 92.78333Z" fill-rule="nonzero"/><path fill="#000000" d="M50.1125 305.98126L50.1125 304.96564L55.675 304.96564L55.675 305.79376Q54.8625 306.66876 54.05 308.1219Q53.253124 309.5594 52.815624 311.09064Q52.4875 312.16876 52.409374 313.45L51.315624 313.45Q51.33125 312.4344 51.70625 310.9969Q52.096874 309.5594 52.8 308.23126Q53.51875 306.90314 54.33125 305.98126L50.1125 305.98126ZM57.20625 311.46564L58.221874 311.3719Q58.346874 312.09064 58.70625 312.41876Q59.08125 312.73126 59.64375 312.73126Q60.128124 312.73126 60.4875 312.5125Q60.8625 312.27814 61.096874 311.91876Q61.33125 311.54376 61.4875 310.91876Q61.64375 310.27814 61.64375 309.6219Q61.64375 309.54376 61.64375 309.40314Q61.33125 309.90314 60.784374 310.23126Q60.2375 310.54376 59.596874 310.54376Q58.51875 310.54376 57.784374 309.77814Q57.05 308.9969 57.05 307.73126Q57.05 306.41876 57.815624 305.6219Q58.596874 304.825 59.753124 304.825Q60.58125 304.825 61.26875 305.27814Q61.971874 305.73126 62.33125 306.575Q62.690624 307.40314 62.690624 308.98126Q62.690624 310.6219 62.33125 311.60626Q61.9875 312.575 61.26875 313.09064Q60.565624 313.59064 59.628124 313.59064Q58.6125 313.59064 57.971874 313.04376Q57.33125 312.48126 57.20625 311.46564ZM61.51875 307.66876Q61.51875 306.7625 61.034374 306.23126Q60.565624 305.7 59.878124 305.7Q59.175 305.7 58.64375 306.27814Q58.128124 306.84064 58.128124 307.7625Q58.128124 308.575 58.628124 309.09064Q59.128124 309.60626 59.846874 309.60626Q60.58125 309.60626 61.05 309.09064Q61.51875 308.575 61.51875 307.66876Z" fill-rule="nonzero"/><path fill="#000000" d="M95.416664 308.79376Q94.760414 308.54376 94.43229 308.10626Q94.11979 307.65314 94.11979 307.04376Q94.11979 306.10626 94.791664 305.46564Q95.479164 304.825 96.58854 304.825Q97.71354 304.825 98.40104 305.48126Q99.08854 306.1375 99.08854 307.075Q99.08854 307.66876 98.77604 308.10626Q98.46354 308.54376 97.822914 308.79376Q98.61979 309.04376 99.02604 309.6219Q99.43229 310.2 99.43229 310.9969Q99.43229 312.09064 98.65104 312.84064Q97.885414 313.59064 96.604164 313.59064Q95.33854 313.59064 94.55729 312.84064Q93.77604 312.09064 93.77604 310.96564Q93.77604 310.1219 94.197914 309.5594Q94.635414 308.9969 95.416664 308.79376ZM95.197914 306.9969Q95.197914 307.60626 95.58854 307.9969Q95.99479 308.3875 96.61979 308.3875Q97.229164 308.3875 97.61979 308.0125Q98.010414 307.6219 98.010414 307.0594Q98.010414 306.48126 97.604164 306.09064Q97.197914 305.6844 96.604164 305.6844Q95.99479 305.6844 95.58854 306.075Q95.197914 306.46564 95.197914 306.9969ZM94.86979 310.96564Q94.86979 311.41876 95.072914 311.84064Q95.291664 312.2625 95.71354 312.4969Q96.135414 312.73126 96.61979 312.73126Q97.36979 312.73126 97.854164 312.2469Q98.354164 311.7625 98.354164 311.0125Q98.354164 310.2469 97.854164 309.7469Q97.354164 309.2469 96.58854 309.2469Q95.83854 309.2469 95.354164 309.7469Q94.86979 310.23126 94.86979 310.96564ZM100.791664 309.21564Q100.791664 307.6844 101.104164 306.7625Q101.416664 305.825 102.02604 305.325Q102.65104 304.825 103.58854 304.825Q104.27604 304.825 104.791664 305.10626Q105.322914 305.3875 105.666664 305.91876Q106.010414 306.4344 106.197914 307.1844Q106.385414 307.9344 106.385414 309.21564Q106.385414 310.73126 106.072914 311.65314Q105.77604 312.575 105.15104 313.09064Q104.541664 313.59064 103.58854 313.59064Q102.354164 313.59064 101.635414 312.7Q100.791664 311.6375 100.791664 309.21564ZM101.86979 309.21564Q101.86979 311.325 102.36979 312.02814Q102.86979 312.73126 103.58854 312.73126Q104.322914 312.73126 104.80729 312.02814Q105.30729 311.325 105.30729 309.21564Q105.30729 307.09064 104.80729 306.40314Q104.322914 305.7 103.572914 305.7Q102.854164 305.7 102.416664 306.3094Q101.86979 307.09064 101.86979 309.21564Z" fill-rule="nonzero"/><path fill="#000000" d="M139.15834 308.79376Q138.50209 308.54376 138.17397 308.10626Q137.86147 307.65314 137.86147 307.04376Q137.86147 306.10626 138.53334 305.46564Q139.22084 304.825 140.33022 304.825Q141.45522 304.825 142.14272 305.48126Q142.83022 306.1375 142.83022 307.075Q142.83022 307.66876 142.51772 308.10626Q142.20522 308.54376 141.56459 308.79376Q142.36147 309.04376 142.76772 309.6219Q143.17397 310.2 143.17397 310.9969Q143.17397 312.09064 142.39272 312.84064Q141.62709 313.59064 140.34584 313.59064Q139.08022 313.59064 138.29897 312.84064Q137.51772 312.09064 137.51772 310.96564Q137.51772 310.1219 137.93959 309.5594Q138.37709 308.9969 139.15834 308.79376ZM138.93959 306.9969Q138.93959 307.60626 139.33022 307.9969Q139.73647 308.3875 140.36147 308.3875Q140.97084 308.3875 141.36147 308.0125Q141.75209 307.6219 141.75209 307.0594Q141.75209 306.48126 141.34584 306.09064Q140.93959 305.6844 140.34584 305.6844Q139.73647 305.6844 139.33022 306.075Q138.93959 306.46564 138.93959 306.9969ZM138.61147 310.96564Q138.61147 311.41876 138.81459 311.84064Q139.03334 312.2625 139.45522 312.4969Q139.87709 312.73126 140.36147 312.73126Q141.11147 312.73126 141.59584 312.2469Q142.09584 311.7625 142.09584 311.0125Q142.09584 310.2469 141.59584 309.7469Q141.09584 309.2469 140.33022 309.2469Q139.58022 309.2469 139.09584 309.7469Q138.61147 310.23126 138.61147 310.96564ZM148.50209 313.45L147.45522 313.45L147.45522 306.73126Q147.06459 307.09064 146.43959 307.46564Q145.83022 307.825 145.34584 307.9969L145.34584 306.98126Q146.22084 306.5594 146.87709 305.98126Q147.54897 305.3875 147.83022 304.825L148.50209 304.825L148.50209 313.45Z" fill-rule="nonzero"/><path fill="#000000" d="M182.9 308.79376Q182.24374 308.54376 181.91562 308.10626Q181.60312 307.65314 181.60312 307.04376Q181.60312 306.10626 182.275 305.46564Q182.9625 304.825 184.07187 304.825Q185.19687 304.825 185.88437 305.48126Q186.57187 306.1375 186.57187 307.075Q186.57187 307.66876 186.25937 308.10626Q185.94687 308.54376 185.30624 308.79376Q186.10312 309.04376 186.50937 309.6219Q186.91562 310.2 186.91562 310.9969Q186.91562 312.09064 186.13437 312.84064Q185.36874 313.59064 184.0875 313.59064Q182.82187 313.59064 182.04062 312.84064Q181.25937 312.09064 181.25937 310.96564Q181.25937 310.1219 181.68124 309.5594Q182.11874 308.9969 182.9 308.79376ZM182.68124 306.9969Q182.68124 307.60626 183.07187 307.9969Q183.47812 308.3875 184.10312 308.3875Q184.7125 308.3875 185.10312 308.0125Q185.49374 307.6219 185.49374 307.0594Q185.49374 306.48126 185.0875 306.09064Q184.68124 305.6844 184.0875 305.6844Q183.47812 305.6844 183.07187 306.075Q182.68124 306.46564 182.68124 306.9969ZM182.35312 310.96564Q182.35312 311.41876 182.55624 311.84064Q182.775 312.2625 183.19687 312.4969Q183.61874 312.73126 184.10312 312.73126Q184.85312 312.73126 185.3375 312.2469Q185.8375 311.7625 185.8375 311.0125Q185.8375 310.2469 185.3375 309.7469Q184.8375 309.2469 184.07187 309.2469Q183.32187 309.2469 182.8375 309.7469Q182.35312 310.23126 182.35312 310.96564ZM193.82187 312.4344L193.82187 313.45L188.13437 313.45Q188.13437 313.075 188.25937 312.71564Q188.47812 312.1375 188.94687 311.575Q189.43124 311.0125 190.3375 310.27814Q191.74374 309.1219 192.22812 308.45Q192.72812 307.77814 192.72812 307.1844Q192.72812 306.5594 192.275 306.1375Q191.82187 305.7 191.10312 305.7Q190.3375 305.7 189.88437 306.15314Q189.43124 306.60626 189.41562 307.41876L188.3375 307.3094Q188.44687 306.09064 189.16562 305.46564Q189.9 304.825 191.13437 304.825Q192.36874 304.825 193.0875 305.5125Q193.80624 306.2 193.80624 307.21564Q193.80624 307.73126 193.5875 308.23126Q193.38437 308.71564 192.88437 309.27814Q192.4 309.825 191.275 310.77814Q190.32187 311.575 190.04062 311.8719Q189.775 312.15314 189.60312 312.4344L193.82187 312.4344Z" fill-rule="nonzero"/><path fill="#000000" d="M226.64166 308.79376Q225.98541 308.54376 225.65729 308.10626Q225.34479 307.65314 225.34479 307.04376Q225.34479 306.10626 226.01666 305.46564Q226.70416 304.825 227.81354 304.825Q228.93854 304.825 229.62604 305.48126Q230.31354 306.1375 230.31354 307.075Q230.31354 307.66876 230.00104 308.10626Q229.68854 308.54376 229.04791 308.79376Q229.84479 309.04376 230.25104 309.6219Q230.65729 310.2 230.65729 310.9969Q230.65729 312.09064 229.87604 312.84064Q229.11041 313.59064 227.82916 313.59064Q226.56354 313.59064 225.78229 312.84064Q225.00104 312.09064 225.00104 310.96564Q225.00104 310.1219 225.42291 309.5594Q225.86041 308.9969 226.64166 308.79376ZM226.42291 306.9969Q226.42291 307.60626 226.81354 307.9969Q227.21979 308.3875 227.84479 308.3875Q228.45416 308.3875 228.84479 308.0125Q229.23541 307.6219 229.23541 307.0594Q229.23541 306.48126 228.82916 306.09064Q228.42291 305.6844 227.82916 305.6844Q227.21979 305.6844 226.81354 306.075Q226.42291 306.46564 226.42291 306.9969ZM226.09479 310.96564Q226.09479 311.41876 226.29791 311.84064Q226.51666 312.2625 226.93854 312.4969Q227.36041 312.73126 227.84479 312.73126Q228.59479 312.73126 229.07916 312.2469Q229.57916 311.7625 229.57916 311.0125Q229.57916 310.2469 229.07916 309.7469Q228.57916 309.2469 227.81354 309.2469Q227.06354 309.2469 226.57916 309.7469Q226.09479 310.23126 226.09479 310.96564ZM232.01666 311.1844L233.07916 311.04376Q233.25104 311.9344 233.68854 312.34064Q234.12604 312.73126 234.75104 312.73126Q235.50104 312.73126 236.01666 312.21564Q236.53229 311.7 236.53229 310.9344Q236.53229 310.21564 236.04791 309.7469Q235.57916 309.2625 234.84479 309.2625Q234.54791 309.2625 234.09479 309.3875L234.21979 308.45Q234.32916 308.46564 234.39166 308.46564Q235.06354 308.46564 235.59479 308.1219Q236.14166 307.7625 236.14166 307.02814Q236.14166 306.45 235.75104 306.075Q235.36041 305.6844 234.73541 305.6844Q234.12604 305.6844 233.70416 306.075Q233.29791 306.46564 233.18854 307.23126L232.12604 307.04376Q232.31354 305.9969 233.00104 305.41876Q233.68854 304.825 234.70416 304.825Q235.40729 304.825 236.00104 305.1375Q236.59479 305.4344 236.90729 305.95Q237.21979 306.46564 237.21979 307.0594Q237.21979 307.60626 236.92291 308.075Q236.62604 308.52814 236.04791 308.79376Q236.79791 308.96564 237.21979 309.52814Q237.64166 310.075 237.64166 310.91876Q237.64166 312.04376 236.81354 312.825Q236.00104 313.60626 234.75104 313.60626Q233.62604 313.60626 232.87604 312.9344Q232.12604 312.2469 232.01666 311.1844Z" fill-rule="nonzero"/><path fill="#000000" d="M270.38333 308.79376Q269.72708 308.54376 269.39896 308.10626Q269.08646 307.65314 269.08646 307.04376Q269.08646 306.10626 269.75833 305.46564Q270.44583 304.825 271.5552 304.825Q272.6802 304.825 273.3677 305.48126Q274.0552 306.1375 274.0552 307.075Q274.0552 307.66876 273.7427 308.10626Q273.4302 308.54376 272.78958 308.79376Q273.58646 309.04376 273.9927 309.6219Q274.39896 310.2 274.39896 310.9969Q274.39896 312.09064 273.6177 312.84064Q272.85208 313.59064 271.57083 313.59064Q270.3052 313.59064 269.52396 312.84064Q268.7427 312.09064 268.7427 310.96564Q268.7427 310.1219 269.16458 309.5594Q269.60208 308.9969 270.38333 308.79376ZM270.16458 306.9969Q270.16458 307.60626 270.5552 307.9969Q270.96146 308.3875 271.58646 308.3875Q272.19583 308.3875 272.58646 308.0125Q272.97708 307.6219 272.97708 307.0594Q272.97708 306.48126 272.57083 306.09064Q272.16458 305.6844 271.57083 305.6844Q270.96146 305.6844 270.5552 306.075Q270.16458 306.46564 270.16458 306.9969ZM269.83646 310.96564Q269.83646 311.41876 270.03958 311.84064Q270.25833 312.2625 270.6802 312.4969Q271.10208 312.73126 271.58646 312.73126Q272.33646 312.73126 272.82083 312.2469Q273.32083 311.7625 273.32083 311.0125Q273.32083 310.2469 272.82083 309.7469Q272.32083 309.2469 271.5552 309.2469Q270.8052 309.2469 270.32083 309.7469Q269.83646 310.23126 269.83646 310.96564ZM279.13333 313.45L279.13333 311.3875L275.41458 311.3875L275.41458 310.41876L279.33646 304.85626L280.19583 304.85626L280.19583 310.41876L281.35208 310.41876L281.35208 311.3875L280.19583 311.3875L280.19583 313.45L279.13333 313.45ZM279.13333 310.41876L279.13333 306.5594L276.44583 310.41876L279.13333 310.41876Z" fill-rule="nonzero"/><path fill="#000000" d="M314.125 308.79376Q313.46875 308.54376 313.14062 308.10626Q312.82812 307.65314 312.82812 307.04376Q312.82812 306.10626 313.5 305.46564Q314.1875 304.825 315.29688 304.825Q316.42188 304.825 317.10938 305.48126Q317.79688 306.1375 317.79688 307.075Q317.79688 307.66876 317.48438 308.10626Q317.17188 308.54376 316.53125 308.79376Q317.32812 309.04376 317.73438 309.6219Q318.14062 310.2 318.14062 310.9969Q318.14062 312.09064 317.35938 312.84064Q316.59375 313.59064 315.3125 313.59064Q314.04688 313.59064 313.26562 312.84064Q312.48438 312.09064 312.48438 310.96564Q312.48438 310.1219 312.90625 309.5594Q313.34375 308.9969 314.125 308.79376ZM313.90625 306.9969Q313.90625 307.60626 314.29688 307.9969Q314.70312 308.3875 315.32812 308.3875Q315.9375 308.3875 316.32812 308.0125Q316.71875 307.6219 316.71875 307.0594Q316.71875 306.48126 316.3125 306.09064Q315.90625 305.6844 315.3125 305.6844Q314.70312 305.6844 314.29688 306.075Q313.90625 306.46564 313.90625 306.9969ZM313.57812 310.96564Q313.57812 311.41876 313.78125 311.84064Q314.0 312.2625 314.42188 312.4969Q314.84375 312.73126 315.32812 312.73126Q316.07812 312.73126 316.5625 312.2469Q317.0625 311.7625 317.0625 311.0125Q317.0625 310.2469 316.5625 309.7469Q316.0625 309.2469 315.29688 309.2469Q314.54688 309.2469 314.0625 309.7469Q313.57812 310.23126 313.57812 310.96564ZM319.5 311.2L320.60938 311.10626Q320.73438 311.91876 321.17188 312.325Q321.625 312.73126 322.26562 312.73126Q323.01562 312.73126 323.54688 312.15314Q324.07812 311.575 324.07812 310.6375Q324.07812 309.73126 323.5625 309.21564Q323.0625 308.6844 322.23438 308.6844Q321.73438 308.6844 321.3125 308.91876Q320.90625 309.15314 320.67188 309.5125L319.6875 309.3875L320.51562 304.98126L324.79688 304.98126L324.79688 305.98126L321.35938 305.98126L320.90625 308.29376Q321.67188 307.7469 322.51562 307.7469Q323.64062 307.7469 324.40625 308.52814Q325.1875 309.3094 325.1875 310.54376Q325.1875 311.7 324.51562 312.5594Q323.6875 313.59064 322.26562 313.59064Q321.09375 313.59064 320.34375 312.9344Q319.60938 312.27814 319.5 311.2Z" fill-rule="nonzero"/><path fill="#000000" d="M357.86667 308.79376Q357.21042 308.54376 356.8823 308.10626Q356.5698 307.65314 356.5698 307.04376Q356.5698 306.10626 357.24167 305.46564Q357.92917 304.825 359.03854 304.825Q360.16354 304.825 360.85104 305.48126Q361.53854 306.1375 361.53854 307.075Q361.53854 307.66876 361.22604 308.10626Q360.91354 308.54376 360.27292 308.79376Q361.0698 309.04376 361.47604 309.6219Q361.8823 310.2 361.8823 310.9969Q361.8823 312.09064 361.10104 312.84064Q360.33542 313.59064 359.05417 313.59064Q357.78854 313.59064 357.0073 312.84064Q356.22604 312.09064 356.22604 310.96564Q356.22604 310.1219 356.64792 309.5594Q357.08542 308.9969 357.86667 308.79376ZM357.64792 306.9969Q357.64792 307.60626 358.03854 307.9969Q358.4448 308.3875 359.0698 308.3875Q359.67917 308.3875 360.0698 308.0125Q360.46042 307.6219 360.46042 307.0594Q360.46042 306.48126 360.05417 306.09064Q359.64792 305.6844 359.05417 305.6844Q358.4448 305.6844 358.03854 306.075Q357.64792 306.46564 357.64792 306.9969ZM357.3198 310.96564Q357.3198 311.41876 357.52292 311.84064Q357.74167 312.2625 358.16354 312.4969Q358.58542 312.73126 359.0698 312.73126Q359.8198 312.73126 360.30417 312.2469Q360.80417 311.7625 360.80417 311.0125Q360.80417 310.2469 360.30417 309.7469Q359.80417 309.2469 359.03854 309.2469Q358.28854 309.2469 357.80417 309.7469Q357.3198 310.23126 357.3198 310.96564ZM368.71042 306.96564L367.66354 307.04376Q367.52292 306.41876 367.27292 306.1375Q366.83542 305.6844 366.21042 305.6844Q365.71042 305.6844 365.3198 305.96564Q364.83542 306.34064 364.53854 307.04376Q364.2573 307.73126 364.24167 309.0125Q364.61667 308.4344 365.16354 308.15314Q365.72604 307.8719 366.33542 307.8719Q367.3823 307.8719 368.11667 308.65314Q368.86667 309.4344 368.86667 310.65314Q368.86667 311.46564 368.5073 312.16876Q368.16354 312.85626 367.55417 313.23126Q366.9448 313.59064 366.17917 313.59064Q364.85104 313.59064 364.02292 312.6219Q363.1948 311.65314 363.1948 309.4344Q363.1948 306.9344 364.11667 305.8094Q364.91354 304.825 366.27292 304.825Q367.28854 304.825 367.92917 305.40314Q368.58542 305.96564 368.71042 306.96564ZM364.41354 310.66876Q364.41354 311.21564 364.6323 311.71564Q364.86667 312.2 365.27292 312.46564Q365.6948 312.73126 366.16354 312.73126Q366.8198 312.73126 367.30417 312.2Q367.78854 311.65314 367.78854 310.73126Q367.78854 309.84064 367.30417 309.325Q366.83542 308.8094 366.11667 308.8094Q365.39792 308.8094 364.89792 309.325Q364.41354 309.84064 364.41354 310.66876Z" fill-rule="nonzero"/><path fill="#000000" d="M401.60834 308.79376Q400.9521 308.54376 400.62396 308.10626Q400.31146 307.65314 400.31146 307.04376Q400.31146 306.10626 400.98334 305.46564Q401.67084 304.825 402.7802 304.825Q403.9052 304.825 404.5927 305.48126Q405.2802 306.1375 405.2802 307.075Q405.2802 307.66876 404.9677 308.10626Q404.6552 308.54376 404.0146 308.79376Q404.81146 309.04376 405.2177 309.6219Q405.62396 310.2 405.62396 310.9969Q405.62396 312.09064 404.8427 312.84064Q404.0771 313.59064 402.79584 313.59064Q401.5302 313.59064 400.74896 312.84064Q399.9677 312.09064 399.9677 310.96564Q399.9677 310.1219 400.3896 309.5594Q400.8271 308.9969 401.60834 308.79376ZM401.3896 306.9969Q401.3896 307.60626 401.7802 307.9969Q402.18646 308.3875 402.81146 308.3875Q403.42084 308.3875 403.81146 308.0125Q404.2021 307.6219 404.2021 307.0594Q404.2021 306.48126 403.79584 306.09064Q403.3896 305.6844 402.79584 305.6844Q402.18646 305.6844 401.7802 306.075Q401.3896 306.46564 401.3896 306.9969ZM401.06146 310.96564Q401.06146 311.41876 401.2646 311.84064Q401.48334 312.2625 401.9052 312.4969Q402.3271 312.73126 402.81146 312.73126Q403.56146 312.73126 404.04584 312.2469Q404.54584 311.7625 404.54584 311.0125Q404.54584 310.2469 404.04584 309.7469Q403.54584 309.2469 402.7802 309.2469Q402.0302 309.2469 401.54584 309.7469Q401.06146 310.23126 401.06146 310.96564ZM407.04584 305.98126L407.04584 304.96564L412.60834 304.96564L412.60834 305.79376Q411.79584 306.66876 410.98334 308.1219Q410.18646 309.5594 409.74896 311.09064Q409.42084 312.16876 409.3427 313.45L408.24896 313.45Q408.2646 312.4344 408.6396 310.9969Q409.0302 309.5594 409.73334 308.23126Q410.4521 306.90314 411.2646 305.98126L407.04584 305.98126Z" fill-rule="nonzero"/><path fill="#000000" d="M445.35 308.79376Q444.69376 308.54376 444.36563 308.10626Q444.05313 307.65314 444.05313 307.04376Q444.05313 306.10626 444.725 305.46564Q445.4125 304.825 446.52188 304.825Q447.64688 304.825 448.33438 305.48126Q449.02188 306.1375 449.02188 307.075Q449.02188 307.66876 448.70938 308.10626Q448.39688 308.54376 447.75626 308.79376Q448.55313 309.04376 448.95938 309.6219Q449.36563 310.2 449.36563 310.9969Q449.36563 312.09064 448.58438 312.84064Q447.81876 313.59064 446.5375 313.59064Q445.27188 313.59064 444.49063 312.84064Q443.70938 312.09064 443.70938 310.96564Q443.70938 310.1219 444.13126 309.5594Q444.56876 308.9969 445.35 308.79376ZM445.13126 306.9969Q445.13126 307.60626 445.52188 307.9969Q445.92813 308.3875 446.55313 308.3875Q447.1625 308.3875 447.55313 308.0125Q447.94376 307.6219 447.94376 307.0594Q447.94376 306.48126 447.5375 306.09064Q447.13126 305.6844 446.5375 305.6844Q445.92813 305.6844 445.52188 306.075Q445.13126 306.46564 445.13126 306.9969ZM444.80313 310.96564Q444.80313 311.41876 445.00626 311.84064Q445.225 312.2625 445.64688 312.4969Q446.06876 312.73126 446.55313 312.73126Q447.30313 312.73126 447.7875 312.2469Q448.2875 311.7625 448.2875 311.0125Q448.2875 310.2469 447.7875 309.7469Q447.2875 309.2469 446.52188 309.2469Q445.77188 309.2469 445.2875 309.7469Q444.80313 310.23126 444.80313 310.96564ZM452.35 308.79376Q451.69376 308.54376 451.36563 308.10626Q451.05313 307.65314 451.05313 307.04376Q451.05313 306.10626 451.725 305.46564Q452.4125 304.825 453.52188 304.825Q454.64688 304.825 455.33438 305.48126Q456.02188 306.1375 456.02188 307.075Q456.02188 307.66876 455.70938 308.10626Q455.39688 308.54376 454.75626 308.79376Q455.55313 309.04376 455.95938 309.6219Q456.36563 310.2 456.36563 310.9969Q456.36563 312.09064 455.58438 312.84064Q454.81876 313.59064 453.5375 313.59064Q452.27188 313.59064 451.49063 312.84064Q450.70938 312.09064 450.70938 310.96564Q450.70938 310.1219 451.13126 309.5594Q451.56876 308.9969 452.35 308.79376ZM452.13126 306.9969Q452.13126 307.60626 452.52188 307.9969Q452.92813 308.3875 453.55313 308.3875Q454.1625 308.3875 454.55313 308.0125Q454.94376 307.6219 454.94376 307.0594Q454.94376 306.48126 454.5375 306.09064Q454.13126 305.6844 453.5375 305.6844Q452.92813 305.6844 452.52188 306.075Q452.13126 306.46564 452.13126 306.9969ZM451.80313 310.96564Q451.80313 311.41876 452.00626 311.84064Q452.225 312.2625 452.64688 312.4969Q453.06876 312.73126 453.55313 312.73126Q454.30313 312.73126 454.7875 312.2469Q455.2875 311.7625 455.2875 311.0125Q455.2875 310.2469 454.7875 309.7469Q454.2875 309.2469 453.52188 309.2469Q452.77188 309.2469 452.2875 309.7469Q451.80313 310.23126 451.80313 310.96564Z" fill-rule="nonzero"/><path fill="#000000" d="M489.09167 308.79376Q488.43542 308.54376 488.1073 308.10626Q487.7948 307.65314 487.7948 307.04376Q487.7948 306.10626 488.46667 305.46564Q489.15417 304.825 490.26355 304.825Q491.38855 304.825 492.07605 305.48126Q492.76355 306.1375 492.76355 307.075Q492.76355 307.66876 492.45105 308.10626Q492.13855 308.54376 491.49792 308.79376Q492.2948 309.04376 492.70105 309.6219Q493.1073 310.2 493.1073 310.9969Q493.1073 312.09064 492.32605 312.84064Q491.56042 313.59064 490.27917 313.59064Q489.01355 313.59064 488.2323 312.84064Q487.45105 312.09064 487.45105 310.96564Q487.45105 310.1219 487.87292 309.5594Q488.31042 308.9969 489.09167 308.79376ZM488.87292 306.9969Q488.87292 307.60626 489.26355 307.9969Q489.6698 308.3875 490.2948 308.3875Q490.90417 308.3875 491.2948 308.0125Q491.68542 307.6219 491.68542 307.0594Q491.68542 306.48126 491.27917 306.09064Q490.87292 305.6844 490.27917 305.6844Q489.6698 305.6844 489.26355 306.075Q488.87292 306.46564 488.87292 306.9969ZM488.5448 310.96564Q488.5448 311.41876 488.74792 311.84064Q488.96667 312.2625 489.38855 312.4969Q489.81042 312.73126 490.2948 312.73126Q491.0448 312.73126 491.52917 312.2469Q492.02917 311.7625 492.02917 311.0125Q492.02917 310.2469 491.52917 309.7469Q491.02917 309.2469 490.26355 309.2469Q489.51355 309.2469 489.02917 309.7469Q488.5448 310.23126 488.5448 310.96564ZM494.62292 311.46564L495.63855 311.3719Q495.76355 312.09064 496.12292 312.41876Q496.49792 312.73126 497.06042 312.73126Q497.5448 312.73126 497.90417 312.5125Q498.27917 312.27814 498.51355 311.91876Q498.74792 311.54376 498.90417 310.91876Q499.06042 310.27814 499.06042 309.6219Q499.06042 309.54376 499.06042 309.40314Q498.74792 309.90314 498.20105 310.23126Q497.65417 310.54376 497.01355 310.54376Q495.93542 310.54376 495.20105 309.77814Q494.46667 308.9969 494.46667 307.73126Q494.46667 306.41876 495.2323 305.6219Q496.01355 304.825 497.1698 304.825Q497.99792 304.825 498.68542 305.27814Q499.38855 305.73126 499.74792 306.575Q500.1073 307.40314 500.1073 308.98126Q500.1073 310.6219 499.74792 311.60626Q499.40417 312.575 498.68542 313.09064Q497.9823 313.59064 497.0448 313.59064Q496.02917 313.59064 495.38855 313.04376Q494.74792 312.48126 494.62292 311.46564ZM498.93542 307.66876Q498.93542 306.7625 498.45105 306.23126Q497.9823 305.7 497.2948 305.7Q496.59167 305.7 496.06042 306.27814Q495.5448 306.84064 495.5448 307.7625Q495.5448 308.575 496.0448 309.09064Q496.5448 309.60626 497.26355 309.60626Q497.99792 309.60626 498.46667 309.09064Q498.93542 308.575 498.93542 307.66876Z" fill-rule="nonzero"/><path fill="#000000" d="M531.36456 311.46564L532.3802 311.3719Q532.5052 312.09064 532.86456 312.41876Q533.23956 312.73126 533.80206 312.73126Q534.28644 312.73126 534.6458 312.5125Q535.0208 312.27814 535.2552 311.91876Q535.48956 311.54376 535.6458 310.91876Q535.80206 310.27814 535.80206 309.6219Q535.80206 309.54376 535.80206 309.40314Q535.48956 309.90314 534.9427 310.23126Q534.3958 310.54376 533.7552 310.54376Q532.67706 310.54376 531.9427 309.77814Q531.2083 308.9969 531.2083 307.73126Q531.2083 306.41876 531.97394 305.6219Q532.7552 304.825 533.91144 304.825Q534.73956 304.825 535.42706 305.27814Q536.1302 305.73126 536.48956 306.575Q536.84894 307.40314 536.84894 308.98126Q536.84894 310.6219 536.48956 311.60626Q536.1458 312.575 535.42706 313.09064Q534.72394 313.59064 533.78644 313.59064Q532.7708 313.59064 532.1302 313.04376Q531.48956 312.48126 531.36456 311.46564ZM535.67706 307.66876Q535.67706 306.7625 535.1927 306.23126Q534.72394 305.7 534.03644 305.7Q533.3333 305.7 532.80206 306.27814Q532.28644 306.84064 532.28644 307.7625Q532.28644 308.575 532.78644 309.09064Q533.28644 309.60626 534.0052 309.60626Q534.73956 309.60626 535.2083 309.09064Q535.67706 308.575 535.67706 307.66876ZM538.2083 309.21564Q538.2083 307.6844 538.5208 306.7625Q538.8333 305.825 539.4427 305.325Q540.0677 304.825 541.0052 304.825Q541.6927 304.825 542.2083 305.10626Q542.73956 305.3875 543.0833 305.91876Q543.42706 306.4344 543.61456 307.1844Q543.80206 307.9344 543.80206 309.21564Q543.80206 310.73126 543.48956 311.65314Q543.1927 312.575 542.5677 313.09064Q541.9583 313.59064 541.0052 313.59064Q539.7708 313.59064 539.05206 312.7Q538.2083 311.6375 538.2083 309.21564ZM539.28644 309.21564Q539.28644 311.325 539.78644 312.02814Q540.28644 312.73126 541.0052 312.73126Q541.73956 312.73126 542.22394 312.02814Q542.72394 311.325 542.72394 309.21564Q542.72394 307.09064 542.22394 306.40314Q541.73956 305.7 540.98956 305.7Q540.2708 305.7 539.8333 306.3094Q539.28644 307.09064 539.28644 309.21564Z" fill-rule="nonzero"/><path fill="#000000" d="M575.10626 311.46564L576.1219 311.3719Q576.2469 312.09064 576.60626 312.41876Q576.98126 312.73126 577.54376 312.73126Q578.02814 312.73126 578.3875 312.5125Q578.7625 312.27814 578.9969 311.91876Q579.23126 311.54376 579.3875 310.91876Q579.54376 310.27814 579.54376 309.6219Q579.54376 309.54376 579.54376 309.40314Q579.23126 309.90314 578.6844 310.23126Q578.1375 310.54376 577.4969 310.54376Q576.41876 310.54376 575.6844 309.77814Q574.95 308.9969 574.95 307.73126Q574.95 306.41876 575.71564 305.6219Q576.4969 304.825 577.65314 304.825Q578.48126 304.825 579.16876 305.27814Q579.8719 305.73126 580.23126 306.575Q580.59064 307.40314 580.59064 308.98126Q580.59064 310.6219 580.23126 311.60626Q579.8875 312.575 579.16876 313.09064Q578.46564 313.59064 577.52814 313.59064Q576.5125 313.59064 575.8719 313.04376Q575.23126 312.48126 575.10626 311.46564ZM579.41876 307.66876Q579.41876 306.7625 578.9344 306.23126Q578.46564 305.7 577.77814 305.7Q577.075 305.7 576.54376 306.27814Q576.02814 306.84064 576.02814 307.7625Q576.02814 308.575 576.52814 309.09064Q577.02814 309.60626 577.7469 309.60626Q578.48126 309.60626 578.95 309.09064Q579.41876 308.575 579.41876 307.66876ZM585.91876 313.45L584.8719 313.45L584.8719 306.73126Q584.48126 307.09064 583.85626 307.46564Q583.2469 307.825 582.7625 307.9969L582.7625 306.98126Q583.6375 306.5594 584.29376 305.98126Q584.96564 305.3875 585.2469 304.825L585.91876 304.825L585.91876 313.45Z" fill-rule="nonzero"/><path fill="#d64e20" d="M265.0 65.916664C265.0 69.23038 262.31372 71.916664 259.0 71.916664C255.6863 71.916664 253.0 69.23038 253.0 65.916664C253.0 62.60296 255.6863 59.916668 259.0 59.916668C262.31372 59.916668 265.0 62.60296 265.0 65.916664Z" fill-rule="nonzero"/><path fill="#1a1a1a" d="M273.79688 69.916664L273.79688 63.697914L274.73438 63.697914L274.73438 64.572914Q275.03125 64.104164 275.51562 63.83854Q276.0 63.55729 276.625 63.55729Q277.3125 63.55729 277.75 63.83854Q278.20312 64.11979 278.375 64.635414Q279.125 63.55729 280.29688 63.55729Q281.23438 63.55729 281.71875 64.072914Q282.21875 64.572914 282.21875 65.65104L282.21875 69.916664L281.17188 69.916664L281.17188 65.99479Q281.17188 65.36979 281.0625 65.08854Q280.96875 64.80729 280.70312 64.635414Q280.4375 64.46354 280.0625 64.46354Q279.40625 64.46354 278.96875 64.90104Q278.54688 65.33854 278.54688 66.30729L278.54688 69.916664L277.48438 69.916664L277.48438 65.86979Q277.48438 65.166664 277.21875 64.822914Q276.96875 64.46354 276.39062 64.46354Q275.9375 64.46354 275.5625 64.697914Q275.1875 64.93229 275.01562 65.385414Q274.84375 65.83854 274.84375 66.68229L274.84375 69.916664L273.79688 69.916664ZM288.85938 69.15104Q288.26562 69.65104 287.71875 69.854164Q287.1875 70.05729 286.5625 70.05729Q285.53125 70.05729 284.98438 69.55729Q284.4375 69.05729 284.4375 68.27604Q284.4375 67.822914 284.64062 67.447914Q284.84375 67.05729 285.1875 66.83854Q285.53125 66.604164 285.95312 66.49479Q286.25 66.40104 286.89062 66.322914Q288.15625 66.18229 288.76562 65.96354Q288.76562 65.74479 288.76562 65.697914Q288.76562 65.041664 288.46875 64.77604Q288.0625 64.43229 287.26562 64.43229Q286.53125 64.43229 286.17188 64.697914Q285.8125 64.947914 285.64062 65.604164L284.60938 65.46354Q284.75 64.80729 285.07812 64.40104Q285.40625 63.99479 286.01562 63.77604Q286.625 63.55729 287.42188 63.55729Q288.21875 63.55729 288.71875 63.74479Q289.21875 63.93229 289.45312 64.21354Q289.6875 64.49479 289.78125 64.93229Q289.82812 65.197914 289.82812 65.90104L289.82812 67.30729Q289.82812 68.77604 289.89062 69.166664Q289.96875 69.55729 290.17188 69.916664L289.0625 69.916664Q288.90625 69.58854 288.85938 69.15104ZM288.76562 66.791664Q288.1875 67.02604 287.04688 67.197914Q286.39062 67.291664 286.125 67.416664Q285.85938 67.52604 285.70312 67.74479Q285.5625 67.96354 285.5625 68.24479Q285.5625 68.666664 285.875 68.947914Q286.20312 69.229164 286.8125 69.229164Q287.42188 69.229164 287.89062 68.96354Q288.375 68.697914 288.59375 68.229164Q288.76562 67.86979 288.76562 67.18229L288.76562 66.791664ZM294.09375 68.979164L294.25 69.90104Q293.79688 69.99479 293.45312 69.99479Q292.875 69.99479 292.5625 69.822914Q292.25 69.635414 292.10938 69.33854Q291.98438 69.041664 291.98438 68.08854L291.98438 64.510414L291.21875 64.510414L291.21875 63.697914L291.98438 63.697914L291.98438 62.15104L293.03125 61.52604L293.03125 63.697914L294.09375 63.697914L294.09375 64.510414L293.03125 64.510414L293.03125 68.15104Q293.03125 68.604164 293.07812 68.729164Q293.14062 68.854164 293.26562 68.93229Q293.39062 69.010414 293.625 69.010414Q293.8125 69.010414 294.09375 68.979164Z" fill-rule="nonzero"/><path fill="#efc649" d="M310.0 60.916668C310.0 60.364384 310.44772 59.916668 311.0 59.916668L321.0 59.916668C321.55228 59.916668 322.0 60.364384 322.0 60.916668L322.0 70.916664C322.0 71.46895 321.55228 71.916664 321.0 71.916664L311.0 71.916664C310.44772 71.916664 310.0 71.46895 310.0 70.916664Z" fill-rule="nonzero"/><path fill="#1a1a1a" d="M330.79688 72.30729L330.79688 63.697914L331.75 63.697914L331.75 64.49479Q332.09375 64.02604 332.51562 63.791664Q332.95312 63.55729 333.5625 63.55729Q334.35938 63.55729 334.96875 63.96354Q335.57812 64.36979 335.875 65.11979Q336.1875 65.86979 336.1875 66.760414Q336.1875 67.71354 335.84375 68.479164Q335.51562 69.24479 334.85938 69.65104Q334.20312 70.05729 333.48438 70.05729Q332.95312 70.05729 332.53125 69.83854Q332.10938 69.604164 331.84375 69.27604L331.84375 72.30729L330.79688 72.30729ZM331.75 66.83854Q331.75 68.041664 332.23438 68.61979Q332.71875 69.18229 333.40625 69.18229Q334.10938 69.18229 334.60938 68.58854Q335.10938 67.99479 335.10938 66.74479Q335.10938 65.55729 334.625 64.979164Q334.14062 64.385414 333.45312 64.385414Q332.78125 64.385414 332.26562 65.010414Q331.75 65.635414 331.75 66.83854ZM341.85938 69.15104Q341.26562 69.65104 340.71875 69.854164Q340.1875 70.05729 339.5625 70.05729Q338.53125 70.05729 337.98438 69.55729Q337.4375 69.05729 337.4375 68.27604Q337.4375 67.822914 337.64062 67.447914Q337.84375 67.05729 338.1875 66.83854Q338.53125 66.604164 338.95312 66.49479Q339.25 66.40104 339.89062 66.322914Q341.15625 66.18229 341.76562 65.96354Q341.76562 65.74479 341.76562 65.697914Q341.76562 65.041664 341.46875 64.77604Q341.0625 64.43229 340.26562 64.43229Q339.53125 64.43229 339.17188 64.697914Q338.8125 64.947914 338.64062 65.604164L337.60938 65.46354Q337.75 64.80729 338.07812 64.40104Q338.40625 63.99479 339.01562 63.77604Q339.625 63.55729 340.42188 63.55729Q341.21875 63.55729 341.71875 63.74479Q342.21875 63.93229 342.45312 64.21354Q342.6875 64.49479 342.78125 64.93229Q342.82812 65.197914 342.82812 65.90104L342.82812 67.30729Q342.82812 68.77604 342.89062 69.166664Q342.96875 69.55729 343.17188 69.916664L342.0625 69.916664Q341.90625 69.58854 341.85938 69.15104ZM341.76562 66.791664Q341.1875 67.02604 340.04688 67.197914Q339.39062 67.291664 339.125 67.416664Q338.85938 67.52604 338.70312 67.74479Q338.5625 67.96354 338.5625 68.24479Q338.5625 68.666664 338.875 68.947914Q339.20312 69.229164 339.8125 69.229164Q340.42188 69.229164 340.89062 68.96354Q341.375 68.697914 341.59375 68.229164Q341.76562 67.86979 341.76562 67.18229L341.76562 66.791664ZM347.09375 68.979164L347.25 69.90104Q346.79688 69.99479 346.45312 69.99479Q345.875 69.99479 345.5625 69.822914Q345.25 69.635414 345.10938 69.33854Q344.98438 69.041664 344.98438 68.08854L344.98438 64.510414L344.21875 64.510414L344.21875 63.697914L344.98438 63.697914L344.98438 62.15104L346.03125 61.52604L346.03125 63.697914L347.09375 63.697914L347.09375 64.510414L346.03125 64.510414L346.03125 68.15104Q346.03125 68.604164 346.07812 68.729164Q346.14062 68.854164 346.26562 68.93229Q346.39062 69.010414 346.625 69.010414Q346.8125 69.010414 347.09375 68.979164Z" fill-rule="nonzero"/><path fill="#757575" d="M22.58125 34.815624Q22.315624 34.815624 21.39375 34.690624Q21.315624 36.159374 21.315624 39.8625Q21.315624 40.253124 21.05 40.51875Q20.8 40.784374 20.425 40.784374Q20.034374 40.784374 19.784374 40.51875Q19.534374 40.253124 19.534374 39.8625L19.534374 36.9875Q19.534374 35.55 19.70625 32.940624Q19.89375 30.1125 19.925 28.89375L19.925 27.55Q19.925 26.58125 20.034374 26.14375Q20.253124 25.284374 20.9875 25.409374Q21.3 25.3 21.878124 25.253124Q22.45625 25.20625 23.3 25.20625Q25.08125 25.20625 26.64375 26.425Q28.3625 27.76875 28.3625 29.675Q28.3625 32.096874 26.534374 33.534374Q24.89375 34.815624 22.58125 34.815624ZM23.065624 27.065624Q22.64375 27.065624 22.3 27.08125Q21.971874 27.096874 21.7375 27.14375L21.721874 28.940624L21.503124 32.83125L22.58125 32.95625Q24.221874 32.95625 25.346874 32.128124Q26.58125 31.20625 26.58125 29.675Q26.58125 28.58125 25.409374 27.784374Q24.315624 27.065624 23.065624 27.065624ZM37.534374 41.190624Q37.346874 41.190624 36.8625 40.76875Q36.425 40.3625 36.20625 40.05Q35.26875 40.565624 34.55 40.815624Q33.846874 41.08125 33.3625 41.08125Q31.08125 41.08125 30.034374 39.784374Q29.05 38.58125 29.05 36.08125Q29.05 33.70625 30.675 32.034374Q32.3 30.346874 34.55 30.346874Q35.409374 30.346874 36.45625 30.8Q37.784374 31.346874 37.784374 32.1125Q37.784374 32.378124 37.596874 32.58125Q37.503124 32.95625 37.440624 33.8Q37.39375 34.64375 37.378124 35.971874Q37.3625 37.190624 37.55 37.89375Q37.64375 38.315624 38.159374 39.6125Q38.221874 39.784374 38.378124 40.128124L38.440624 40.3Q38.440624 40.690624 38.159374 40.940624Q37.89375 41.190624 37.534374 41.190624ZM35.503124 34.409374Q35.503124 33.9875 35.55 33.503124Q35.6125 33.003124 35.721874 32.440624Q35.3625 32.253124 35.096874 32.175Q34.846874 32.08125 34.690624 32.08125Q33.175 32.08125 32.065624 33.315624Q30.971874 34.55 30.971874 36.159374Q30.971874 37.76875 31.534374 38.565624Q32.1125 39.3625 33.2375 39.3625Q34.175 39.3625 34.83125 39.01875Q35.175 38.846874 35.815624 38.284374Q35.503124 35.690624 35.503124 34.409374ZM46.440624 32.221874Q46.2375 32.221874 45.95625 32.20625Q45.675 32.190624 45.471874 32.190624Q45.253124 32.190624 44.14375 32.33125L44.33125 38.1125L44.346874 38.534374L44.346874 39.034374Q44.39375 41.175 43.33125 41.175Q42.940624 41.175 42.64375 40.925Q42.3625 40.675 42.3625 40.284374Q42.3625 39.909374 42.39375 39.175Q42.425 38.425 42.425 38.065624L42.221874 32.3625Q41.503124 32.33125 40.05 32.190624Q39.190624 32.065624 39.190624 31.221874Q39.190624 30.8 39.440624 30.51875Q39.70625 30.221874 40.128124 30.221874L42.175 30.39375Q42.175 29.89375 42.128124 29.065624Q42.08125 28.221874 42.08125 27.846874Q42.08125 27.440624 42.3625 27.175Q42.659374 26.909374 43.065624 26.909374Q43.940624 26.909374 44.08125 28.346874Q44.1125 28.70625 44.1125 29.20625L44.096874 29.784374L44.08125 30.378124Q45.3 30.221874 45.471874 30.221874Q46.4875 30.221874 46.8 30.33125Q47.39375 30.51875 47.39375 31.2375Q47.39375 31.675 47.128124 31.95625Q46.8625 32.221874 46.440624 32.221874ZM58.409374 40.034374Q58.378124 40.940624 57.51875 40.940624Q56.815624 40.940624 56.4875 40.096874L54.9875 36.128124L53.253124 31.659374Q53.159374 31.39375 53.159374 31.20625Q53.159374 30.8 53.45625 30.51875Q53.76875 30.2375 54.159374 30.2375Q54.753124 30.2375 55.003124 30.83125L57.4875 37.659374Q58.221874 36.096874 59.33125 33.128124Q59.596874 32.346874 60.159374 30.925Q60.45625 30.3 61.01875 30.3Q61.425 30.3 61.721874 30.58125Q62.01875 30.8625 62.01875 31.253124Q62.01875 31.628124 60.409374 35.425L58.409374 40.034374ZM70.50313 33.034374Q69.95625 33.034374 69.75313 32.675Q69.59688 32.409374 69.4875 31.6125Q68.76875 31.8 67.2375 32.3Q65.65938 32.925 65.65938 33.846874Q65.95625 33.940624 66.2375 34.003124Q68.47188 34.39375 69.56563 35.096874Q71.15938 36.128124 71.15938 38.065624Q71.15938 39.659374 69.78438 40.471874Q68.64375 41.14375 66.89375 41.14375Q65.6125 41.14375 64.45625 40.70625Q62.95625 40.159374 62.95625 39.175Q62.95625 38.784374 63.253124 38.503124Q63.565624 38.20625 63.95625 38.20625Q64.25313 38.20625 64.7375 38.675Q64.97188 38.89375 65.8 39.05Q66.44063 39.159374 66.89375 39.159374Q67.72188 39.159374 68.34688 38.971874Q69.25313 38.690624 69.25313 38.065624Q69.25313 36.7375 67.39375 36.26875L66.37813 36.05Q65.08125 35.76875 64.53438 35.378124Q63.7375 34.83125 63.7375 33.7375Q63.7375 31.690624 65.65938 30.815624Q66.25313 30.565624 67.53438 30.20625Q68.83125 29.83125 69.39375 29.565624Q69.78438 29.39375 70.25313 29.39375Q70.675 29.39375 70.94063 29.675Q71.20625 29.940624 71.20625 30.378124Q71.20625 30.659374 71.33125 31.20625Q71.45625 31.753124 71.45625 32.05Q71.45625 32.4875 71.19063 32.76875Q70.925 33.034374 70.50313 33.034374ZM75.15938 41.45625Q74.64375 41.45625 74.28438 41.096874Q73.94063 40.753124 73.94063 40.253124Q73.94063 39.753124 74.28438 39.39375Q74.64375 39.034374 75.15938 39.034374Q75.65938 39.034374 76.00313 39.39375Q76.3625 39.753124 76.3625 40.253124Q76.3625 40.753124 76.00313 41.096874Q75.65938 41.45625 75.15938 41.45625ZM98.425 41.3625Q97.89375 41.3625 97.55 40.815624Q97.25313 40.346874 97.01875 39.253124L96.675 37.565624Q96.26875 36.003124 95.40938 30.675L93.45625 36.565624L92.87813 38.425Q92.51875 39.51875 92.14375 40.221874Q91.7375 40.971874 91.03438 40.971874Q90.45625 40.971874 90.12813 40.346874Q89.90938 39.940624 89.7375 39.3L89.45625 38.221874Q88.47188 34.76875 87.72188 30.83125L87.3625 32.58125L86.1125 37.7375Q86.03438 38.64375 85.6125 40.425Q85.33125 41.190624 84.64375 41.190624Q84.175 41.190624 83.89375 40.846874Q83.64375 40.55 83.64375 40.1125Q83.64375 38.4875 84.31563 36.1125L85.39375 32.175L85.95625 29.096874Q86.39375 26.940624 86.8625 26.284374Q87.25313 25.721874 87.83125 25.721874Q88.47188 25.721874 88.78438 26.440624Q89.15938 27.3 89.59688 29.9875Q90.1125 33.190624 91.20625 36.940624Q92.65938 33.175 93.70625 29.096874L94.00313 27.675Q94.175 26.815624 94.47188 26.284374Q94.84688 25.565624 95.50313 25.565624Q96.34688 25.565624 96.78438 27.190624Q96.94063 27.753124 97.175 29.4875Q97.75313 33.909374 98.6125 37.034374L99.08125 38.70625Q99.45625 40.065624 99.45625 40.378124Q99.45625 40.8 99.12813 41.08125Q98.81563 41.3625 98.425 41.3625ZM109.53438 41.190624Q109.34688 41.190624 108.8625 40.76875Q108.425 40.3625 108.20625 40.05Q107.26875 40.565624 106.55 40.815624Q105.84688 41.08125 105.3625 41.08125Q103.08125 41.08125 102.03438 39.784374Q101.05 38.58125 101.05 36.08125Q101.05 33.70625 102.675 32.034374Q104.3 30.346874 106.55 30.346874Q107.40938 30.346874 108.45625 30.8Q109.78438 31.346874 109.78438 32.1125Q109.78438 32.378124 109.59688 32.58125Q109.50313 32.95625 109.44063 33.8Q109.39375 34.64375 109.37813 35.971874Q109.3625 37.190624 109.55 37.89375Q109.64375 38.315624 110.15938 39.6125Q110.22188 39.784374 110.37813 40.128124L110.44063 40.3Q110.44063 40.690624 110.15938 40.940624Q109.89375 41.190624 109.53438 41.190624ZM107.50313 34.409374Q107.50313 33.9875 107.55 33.503124Q107.6125 33.003124 107.72188 32.440624Q107.3625 32.253124 107.09688 32.175Q106.84688 32.08125 106.69063 32.08125Q105.175 32.08125 104.06563 33.315624Q102.97188 34.55 102.97188 36.159374Q102.97188 37.76875 103.53438 38.565624Q104.1125 39.3625 105.2375 39.3625Q106.175 39.3625 106.83125 39.01875Q107.175 38.846874 107.81563 38.284374Q107.50313 35.690624 107.50313 34.409374ZM118.44063 32.221874Q118.2375 32.221874 117.95625 32.20625Q117.675 32.190624 117.47188 32.190624Q117.25313 32.190624 116.14375 32.33125L116.33125 38.1125L116.34688 38.534374L116.34688 39.034374Q116.39375 41.175 115.33125 41.175Q114.94063 41.175 114.64375 40.925Q114.3625 40.675 114.3625 40.284374Q114.3625 39.909374 114.39375 39.175Q114.425 38.425 114.425 38.065624L114.22188 32.3625Q113.50313 32.33125 112.05 32.190624Q111.19063 32.065624 111.19063 31.221874Q111.19063 30.8 111.44063 30.51875Q111.70625 30.221874 112.12813 30.221874L114.175 30.39375Q114.175 29.89375 114.12813 29.065624Q114.08125 28.221874 114.08125 27.846874Q114.08125 27.440624 114.3625 27.175Q114.65938 26.909374 115.06563 26.909374Q115.94063 26.909374 116.08125 28.346874Q116.1125 28.70625 116.1125 29.20625L116.09688 29.784374L116.08125 30.378124Q117.3 30.221874 117.47188 30.221874Q118.4875 30.221874 118.8 30.33125Q119.39375 30.51875 119.39375 31.2375Q119.39375 31.675 119.12813 31.95625Q118.8625 32.221874 118.44063 32.221874ZM131.34688 25.76875Q131.34688 26.1125 130.7375 26.76875Q130.3 27.221874 129.84688 27.675Q128.76875 28.89375 128.15938 31.190624Q127.6125 33.175 127.6125 35.096874Q127.6125 40.065624 129.8625 42.378124Q130.31563 42.721874 130.76875 43.08125Q131.33125 43.534374 131.33125 43.971874Q131.33125 44.284374 131.08125 44.51875Q130.83125 44.76875 130.50313 44.76875Q130.20625 44.76875 129.8 44.55Q125.65938 42.2375 125.65938 34.878124Q125.65938 32.221874 126.72188 29.51875Q127.925 26.503124 129.84688 25.14375Q130.2375 24.8625 130.47188 24.8625Q130.81563 24.8625 131.08125 25.14375Q131.34688 25.425 131.34688 25.76875ZM141.39375 40.565624Q141.14375 40.565624 140.70625 40.425Q140.26875 40.26875 140.03438 40.26875Q139.53438 40.26875 138.53438 40.33125Q137.53438 40.378124 137.03438 40.378124Q136.64375 40.378124 135.89375 40.4875Q135.15938 40.58125 134.76875 40.58125Q134.65938 40.58125 134.45625 40.55Q134.25313 40.503124 134.14375 40.503124Q133.47188 40.503124 133.26875 39.846874Q133.15938 39.503124 133.15938 38.675Q133.15938 36.39375 134.39375 35.01875Q134.95625 34.378124 137.45625 32.675Q138.84688 31.70625 139.31563 31.175Q140.15938 30.2375 140.15938 28.971874Q140.15938 28.346874 139.34688 27.8625Q138.62813 27.425 137.94063 27.425Q137.05 27.425 136.2375 27.940624L134.84688 29.034374Q134.425 29.3625 134.175 29.3625Q133.15938 29.3625 133.15938 28.565624Q133.15938 28.1125 133.53438 27.76875Q134.675 26.70625 135.51875 26.221874Q136.69063 25.55 137.94063 25.55Q139.53438 25.55 140.76875 26.409374Q142.15938 27.378124 142.15938 28.89375Q142.15938 29.878124 141.87813 30.721874Q141.59688 31.565624 141.01875 32.253124Q140.28438 33.14375 138.53438 34.221874Q136.69063 35.378124 136.12813 35.971874Q135.03438 37.096874 135.05 38.690624L137.06563 38.503124Q139.14375 38.39375 140.03438 38.39375Q140.76875 38.39375 141.44063 38.64375Q142.31563 38.9875 142.31563 39.596874Q142.31563 39.971874 142.05 40.26875Q141.78438 40.565624 141.39375 40.565624ZM149.51875 40.925Q146.55 40.925 145.175 38.221874Q144.14375 36.128124 144.14375 32.76875Q144.14375 29.940624 145.4875 27.83125Q147.08125 25.3625 149.81563 25.3625Q152.39375 25.3625 153.83125 27.55Q155.06563 29.440624 155.06563 32.175Q155.06563 36.55 153.675 38.7375Q152.28438 40.925 149.51875 40.925ZM149.81563 27.253124Q147.9875 27.253124 146.925 29.096874Q146.03438 30.64375 146.03438 32.6125Q146.03438 35.83125 146.90938 37.440624Q147.78438 39.05 149.51875 39.05Q151.58125 39.05 152.4875 36.690624Q153.1125 35.05 153.1125 32.534374Q153.1125 29.878124 152.28438 28.565624Q151.45625 27.253124 149.81563 27.253124ZM161.51875 40.925Q158.55 40.925 157.175 38.221874Q156.14375 36.128124 156.14375 32.76875Q156.14375 29.940624 157.4875 27.83125Q159.08125 25.3625 161.81563 25.3625Q164.39375 25.3625 165.83125 27.55Q167.06563 29.440624 167.06563 32.175Q167.06563 36.55 165.675 38.7375Q164.28438 40.925 161.51875 40.925ZM161.81563 27.253124Q159.9875 27.253124 158.925 29.096874Q158.03438 30.64375 158.03438 32.6125Q158.03438 35.83125 158.90938 37.440624Q159.78438 39.05 161.51875 39.05Q163.58125 39.05 164.4875 36.690624Q165.1125 35.05 165.1125 32.534374Q165.1125 29.878124 164.28438 28.565624Q163.45625 27.253124 161.81563 27.253124ZM178.81563 27.8L177.925 28.83125Q176.65938 30.315624 175.59688 32.425L173.81563 36.315624Q173.62813 36.753124 173.00313 38.58125Q172.4875 40.01875 172.05 40.7375Q171.78438 41.190624 171.26875 41.190624Q170.87813 41.190624 170.58125 40.909374Q170.28438 40.64375 170.28438 40.26875Q170.28438 39.89375 170.90938 38.3625L173.1125 32.9875Q174.56563 29.784374 176.09688 28.065624L176.28438 27.846874L171.37813 27.753124L169.175 27.690624Q168.2375 27.6125 168.2375 26.753124Q168.2375 26.346874 168.50313 26.08125Q168.78438 25.815624 169.19063 25.815624Q170.425 25.815624 172.87813 25.89375Q175.34688 25.971874 176.58125 25.971874L178.37813 25.971874Q179.40938 25.971874 179.40938 26.596874Q179.40938 27.05 178.81563 27.8ZM183.425 33.14375Q183.97188 33.14375 185.05 33.221874Q186.12813 33.3 186.675 33.3Q187.09688 33.3 187.3625 33.58125Q187.64375 33.846874 187.64375 34.26875Q187.64375 34.690624 187.3625 34.971874Q187.09688 35.2375 186.675 35.2375Q186.12813 35.2375 185.05 35.159374Q183.97188 35.08125 183.425 35.08125Q182.14375 35.08125 181.1125 35.221874Q181.01875 35.2375 180.94063 35.2375Q180.53438 35.2375 180.25313 34.971874Q179.9875 34.690624 179.9875 34.253124Q179.9875 33.4875 180.78438 33.315624Q181.58125 33.14375 183.425 33.14375ZM198.39375 40.565624Q198.14375 40.565624 197.70625 40.425Q197.26875 40.26875 197.03438 40.26875Q196.53438 40.26875 195.53438 40.33125Q194.53438 40.378124 194.03438 40.378124Q193.64375 40.378124 192.89375 40.4875Q192.15938 40.58125 191.76875 40.58125Q191.65938 40.58125 191.45625 40.55Q191.25313 40.503124 191.14375 40.503124Q190.47188 40.503124 190.26875 39.846874Q190.15938 39.503124 190.15938 38.675Q190.15938 36.39375 191.39375 35.01875Q191.95625 34.378124 194.45625 32.675Q195.84688 31.70625 196.31563 31.175Q197.15938 30.2375 197.15938 28.971874Q197.15938 28.346874 196.34688 27.8625Q195.62813 27.425 194.94063 27.425Q194.05 27.425 193.2375 27.940624L191.84688 29.034374Q191.425 29.3625 191.175 29.3625Q190.15938 29.3625 190.15938 28.565624Q190.15938 28.1125 190.53438 27.76875Q191.675 26.70625 192.51875 26.221874Q193.69063 25.55 194.94063 25.55Q196.53438 25.55 197.76875 26.409374Q199.15938 27.378124 199.15938 28.89375Q199.15938 29.878124 198.87813 30.721874Q198.59688 31.565624 198.01875 32.253124Q197.28438 33.14375 195.53438 34.221874Q193.69063 35.378124 193.12813 35.971874Q192.03438 37.096874 192.05 38.690624L194.06563 38.503124Q196.14375 38.39375 197.03438 38.39375Q197.76875 38.39375 198.44063 38.64375Q199.31563 38.9875 199.31563 39.596874Q199.31563 39.971874 199.05 40.26875Q198.78438 40.565624 198.39375 40.565624ZM206.51875 40.925Q203.55 40.925 202.175 38.221874Q201.14375 36.128124 201.14375 32.76875Q201.14375 29.940624 202.4875 27.83125Q204.08125 25.3625 206.81563 25.3625Q209.39375 25.3625 210.83125 27.55Q212.06563 29.440624 212.06563 32.175Q212.06563 36.55 210.675 38.7375Q209.28438 40.925 206.51875 40.925ZM206.81563 27.253124Q204.9875 27.253124 203.925 29.096874Q203.03438 30.64375 203.03438 32.6125Q203.03438 35.83125 203.90938 37.440624Q204.78438 39.05 206.51875 39.05Q208.58125 39.05 209.4875 36.690624Q210.1125 35.05 210.1125 32.534374Q210.1125 29.878124 209.28438 28.565624Q208.45625 27.253124 206.81563 27.253124ZM219.425 40.565624L217.4875 40.565624L215.55 40.55Q214.8625 40.55 214.59688 40.45625Q214.09688 40.284374 214.09688 39.721874Q214.09688 38.7375 215.62813 38.7375L216.09688 38.7375L216.50313 38.76875Q216.50313 38.3 216.40938 37.378124Q216.33125 36.45625 216.33125 36.003124Q216.33125 34.753124 216.55 32.221874Q216.76875 29.7375 216.75313 28.45625Q215.45625 29.471874 215.09688 29.471874Q214.70625 29.471874 214.40938 29.175Q214.12813 28.878124 214.12813 28.503124Q214.12813 28.034374 214.95625 27.378124Q215.4875 27.01875 216.45625 26.190624Q217.31563 25.33125 218.09688 25.33125Q218.75313 25.33125 218.75313 26.08125Q218.75313 26.3 218.69063 26.753124Q218.62813 27.190624 218.62813 27.409374Q218.62813 27.7375 218.65938 28.39375Q218.70625 29.05 218.70625 29.3625Q218.70625 30.4875 218.47188 32.690624Q218.2375 34.89375 218.2375 36.003124Q218.2375 36.565624 218.31563 37.378124Q218.39375 38.190624 218.39375 38.70625L219.425 38.690624Q219.83125 38.690624 220.09688 38.95625Q220.37813 39.221874 220.37813 39.628124Q220.37813 40.034374 220.09688 40.3Q219.83125 40.565624 219.425 40.565624ZM227.03438 41.159374Q224.26875 41.159374 222.95625 39.1125Q222.78438 38.83125 222.78438 38.565624Q222.78438 38.190624 223.08125 37.909374Q223.39375 37.628124 223.76875 37.628124Q224.175 37.628124 224.53438 38.065624Q225.05 38.690624 225.31563 38.8625Q225.94063 39.284374 227.03438 39.284374Q228.72188 39.284374 229.84688 38.003124Q230.90938 36.76875 230.90938 35.034374Q230.90938 33.6125 230.44063 32.721874Q229.83125 31.596874 228.56563 31.596874Q227.53438 31.596874 226.8625 31.89375Q226.33125 32.1125 225.8 32.659374L224.7375 33.815624Q224.3 34.253124 223.8625 34.253124Q223.47188 34.253124 223.19063 33.9875Q222.925 33.70625 222.925 33.315624Q222.925 33.1125 223.08125 31.58125Q223.40938 28.503124 223.40938 27.534374Q223.40938 27.190624 223.2375 26.784374Q223.06563 26.378124 223.06563 26.190624Q223.06563 25.58125 224.09688 25.58125Q224.28438 25.58125 224.675 25.628124Q225.08125 25.659374 225.26875 25.659374Q225.83125 25.659374 226.95625 25.628124Q228.09688 25.58125 228.675 25.58125Q228.94063 25.58125 229.47188 25.596874Q230.00313 25.6125 230.26875 25.6125Q230.45625 25.6125 230.8 25.55Q231.15938 25.471874 231.33125 25.471874Q231.72188 25.471874 232.00313 25.753124Q232.3 26.034374 232.3 26.409374Q232.3 27.503124 229.9875 27.503124Q229.69063 27.503124 229.22188 27.4875Q228.76875 27.45625 228.675 27.45625L227.01875 27.4875L225.3625 27.534374Q225.3625 27.9875 225.00313 30.8Q226.34688 29.721874 228.56563 29.721874Q230.72188 29.721874 231.84688 31.409374Q232.81563 32.83125 232.81563 35.034374Q232.81563 37.675 231.26875 39.39375Q229.65938 41.159374 227.03438 41.159374ZM240.34688 34.878124Q240.34688 42.2375 236.20625 44.55Q235.8 44.76875 235.51875 44.76875Q235.175 44.76875 234.925 44.51875Q234.675 44.284374 234.675 43.971874Q234.675 43.534374 235.2375 43.08125Q235.69063 42.721874 236.14375 42.378124Q238.39375 40.065624 238.39375 35.096874Q238.39375 33.175 237.8625 31.190624Q237.2375 28.89375 236.15938 27.675Q235.70625 27.221874 235.26875 26.76875Q234.65938 26.1125 234.65938 25.76875Q234.65938 25.425 234.90938 25.14375Q235.175 24.8625 235.53438 24.8625Q235.75313 24.8625 236.15938 25.14375Q238.09688 26.503124 239.28438 29.51875Q240.34688 32.221874 240.34688 34.878124Z" fill-rule="nonzero"/></svg>