<svg version="1.1" viewBox="0.0 0.0 600.0 371.0" fill="none" stroke="none" stroke-linecap="square" stroke-miterlimit="10" width="600" height="371" xmlns:xlink="http://www.w3.org/1999/xlink" xmlns="http://www.w3.org/2000/svg"><path fill="#ffffff" d="M0 0L600.0 0L600.0 371.0L0 371.0L0 0Z" fill-rule="nonzero"/><path stroke="#333333" stroke-width="1.0" stroke-linecap="butt" d="M56.5 296.5L581.5 296.5" fill-rule="nonzero"/><path stroke="#cccccc" stroke-width="1.0" stroke-linecap="butt" d="M56.5 245.5L581.5 245.5" fill-rule="nonzero"/><path stroke="#cccccc" stroke-width="1.0" stroke-linecap="butt" d="M56.5 194.5L581.5 194.5" fill-rule="nonzero"/><path stroke="#cccccc" stroke-width="1.0" stroke-linecap="butt" d="M56.5 143.5L581.5 143.5" fill-rule="nonzero"/><path stroke="#cccccc" stroke-width="1.0" stroke-linecap="butt" d="M56.5 92.5L581.5 92.5" fill-rule="nonzero"/><clipPath id="id_0"><path d="M56.55 92.28333L581.45 92.28333L581.45 296.45L56.55 296.45L56.55 92.28333Z" clip-rule="nonzero"/></clipPath><path fill="#efc649" clip-path="url(#id_0)" d="M56.55 220.62941L96.926926 216.83673L137.30385 189.93579L177.68077 194.36667L218.0577 209.48491L258.4346 203.64697L298.81152 189.00252L339.18848 186.27896L379.5654 183.27573L419.94232 196.46454L460.31924 172.8074L500.69617 185.84973L541.07306 197.76944L581.45 224.76997L581.45 296.45L541.07306 296.45L500.69617 296.45L460.31924 296.45L419.94232 296.45L379.5654 296.45L339.18848 296.45L298.81152 296.45L258.4346 296.45L218.0577 296.45L177.68077 296.45L137.30385 296.45L96.926926 296.45L56.55 296.45Z" fill-rule="nonzero"/><path fill="#d64e20" clip-path="url(#id_0)" d="M56.55 92.28333L96.926926 92.28333L137.30385 92.28333L177.68077 92.28333L218.0577 92.28333L258.4346 92.28333L298.81152 92.28333L339.18848 92.28333L379.5654 92.28333L419.94232 92.28333L460.31924 92.28333L500.69617 92.28333L541.07306 92.28333L581.45 92.28333L581.45 224.76997L541.07306 197.76944L500.69617 185.84973L460.31924 172.8074L419.94232 196.46454L379.5654 183.27573L339.18848 186.27896L298.81152 189.00252L258.4346 203.64697L218.0577 209.48491L177.68077 194.36667L137.30385 189.93579L96.926926 216.83673L56.55 220.62941Z" fill-rule="nonzero"/><path stroke="#efc649" stroke-width="2.0" stroke-linecap="butt" clip-path="url(#id_0)" d="M56.55 220.62941L96.926926 216.83673L137.30385 189.93579L177.68077 194.36667L218.0577 209.48491L258.4346 203.64697L298.81152 189.00252L339.18848 186.27896L379.5654 183.27573L419.94232 196.46454L460.31924 172.8074L500.69617 185.84973L541.07306 197.76944L581.45 224.76997" fill-rule="nonzero"/><path stroke="#d64e20" stroke-width="2.0" stroke-linecap="butt" clip-path="url(#id_0)" d="M56.55 92.28333L96.926926 92.28333L137.30385 92.28333L177.68077 92.28333L218.0577 92.28333L258.4346 92.28333L298.81152 92.28333L339.18848 92.28333L379.5654 92.28333L419.94232 92.28333L460.31924 92.28333L500.69617 92.28333L541.07306 92.28333L581.45 92.28333" fill-rule="nonzero"/><path fill="#000000" fill-opacity="0.0" clip-path="url(#id_0)" d="M59.55 220.62941C59.55 222.28627 58.206856 223.62941 56.55 223.62941C54.893147 223.62941 53.55 222.28627 53.55 220.62941C53.55 218.97256 54.893147 217.62941 56.55 217.62941C58.206856 217.62941 59.55 218.97256 59.55 220.62941Z" fill-rule="nonzero"/><path fill="#000000" fill-opacity="0.0" clip-path="url(#id_0)" d="M99.926926 216.83673C99.926926 218.49358 98.58378 219.83673 96.926926 219.83673C95.270065 219.83673 93.926926 218.49358 93.926926 216.83673C93.926926 215.17987 95.270065 213.83673 96.926926 213.83673C98.58378 213.83673 99.926926 215.17987 99.926926 216.83673Z" fill-rule="nonzero"/><path fill="#000000" fill-opacity="0.0" clip-path="url(#id_0)" d="M140.30385 189.93579C140.30385 191.59264 138.9607 192.93579 137.30385 192.93579C135.64699 192.93579 134.30385 191.59264 134.30385 189.93579C134.30385 188.27893 135.64699 186.93579 137.30385 186.93579C138.9607 186.93579 140.30385 188.27893 140.30385 189.93579Z" fill-rule="nonzero"/><path fill="#000000" fill-opacity="0.0" clip-path="url(#id_0)" d="M180.68077 194.36667C180.68077 196.02351 179.33762 197.36667 177.68077 197.36667C176.02391 197.36667 174.68077 196.02351 174.68077 194.36667C174.68077 192.70981 176.02391 191.36667 177.68077 191.36667C179.33762 191.36667 180.68077 192.70981 180.68077 194.36667Z" fill-rule="nonzero"/><path fill="#000000" fill-opacity="0.0" clip-path="url(#id_0)" d="M221.0577 209.48491C221.0577 211.14175 219.71455 212.48491 218.0577 212.48491C216.40083 212.48491 215.0577 211.14175 215.0577 209.48491C215.0577 207.82805 216.40083 206.48491 218.0577 206.48491C219.71455 206.48491 221.0577 207.82805 221.0577 209.48491Z" fill-rule="nonzero"/><path fill="#000000" fill-opacity="0.0" clip-path="url(#id_0)" d="M261.4346 203.64697C261.4346 205.30382 260.09146 206.64697 258.4346 206.64697C256.77777 206.64697 255.43462 205.30382 255.43462 203.64697C255.43462 201.99011 256.77777 200.64697 258.4346 200.64697C260.09146 200.64697 261.4346 201.99011 261.4346 203.64697Z" fill-rule="nonzero"/><path fill="#000000" fill-opacity="0.0" clip-path="url(#id_0)" d="M301.81152 189.00252C301.81152 190.65936 300.46838 192.00252 298.81152 192.00252C297.1547 192.00252 295.81152 190.65936 295.81152 189.00252C295.81152 187.34566 297.1547 186.00252 298.81152 186.00252C300.46838 186.00252 301.81152 187.34566 301.81152 189.00252Z" fill-rule="nonzero"/><path fill="#000000" fill-opacity="0.0" clip-path="url(#id_0)" d="M342.18848 186.27896C342.18848 187.93582 340.8453 189.27896 339.18848 189.27896C337.53162 189.27896 336.18848 187.93582 336.18848 186.27896C336.18848 184.62212 337.53162 183.27896 339.18848 183.27896C340.8453 183.27896 342.18848 184.62212 342.18848 186.27896Z" fill-rule="nonzero"/><path fill="#000000" fill-opacity="0.0" clip-path="url(#id_0)" d="M382.5654 183.27573C382.5654 184.93259 381.22223 186.27573 379.5654 186.27573C377.90854 186.27573 376.5654 184.93259 376.5654 183.27573C376.5654 181.61888 377.90854 180.27573 379.5654 180.27573C381.22223 180.27573 382.5654 181.61888 382.5654 183.27573Z" fill-rule="nonzero"/><path fill="#000000" fill-opacity="0.0" clip-path="url(#id_0)" d="M422.94232 196.46454C422.94232 198.1214 421.59915 199.46454 419.94232 199.46454C418.28546 199.46454 416.94232 198.1214 416.94232 196.46454C416.94232 194.8077 418.28546 193.46454 419.94232 193.46454C421.59915 193.46454 422.94232 194.8077 422.94232 196.46454Z" fill-rule="nonzero"/><path fill="#000000" fill-opacity="0.0" clip-path="url(#id_0)" d="M463.31924 172.8074C463.31924 174.46426 461.97607 175.8074 460.31924 175.8074C458.66238 175.8074 457.31924 174.46426 457.31924 172.8074C457.31924 171.15056 458.66238 169.8074 460.31924 169.8074C461.97607 169.8074 463.31924 171.15056 463.31924 172.8074Z" fill-rule="nonzero"/><path fill="#000000" fill-opacity="0.0" clip-path="url(#id_0)" d="M503.69617 185.84973C503.69617 187.50658 502.353 188.84973 500.69617 188.84973C499.0393 188.84973 497.69617 187.50658 497.69617 185.84973C497.69617 184.19287 499.0393 182.84973 500.69617 182.84973C502.353 182.84973 503.69617 184.19287 503.69617 185.84973Z" fill-rule="nonzero"/><path fill="#000000" fill-opacity="0.0" clip-path="url(#id_0)" d="M544.07306 197.76944C544.07306 199.4263 542.7299 200.76944 541.07306 200.76944C539.4162 200.76944 538.07306 199.4263 538.07306 197.76944C538.07306 196.1126 539.4162 194.76944 541.07306 194.76944C542.7299 194.76944 544.07306 196.1126 544.07306 197.76944Z" fill-rule="nonzero"/><path fill="#000000" fill-opacity="0.0" clip-path="url(#id_0)" d="M584.45 224.76997C584.45 226.42683 583.1069 227.76997 581.45 227.76997C579.79315 227.76997 578.45 226.42683 578.45 224.76997C578.45 223.11313 579.79315 221.76997 581.45 221.76997C583.1069 221.76997 584.45 223.11313 584.45 224.76997Z" fill-rule="nonzero"/><path fill="#d64e20" clip-path="url(#id_0)" d="M62.55 92.28333C62.55 95.59704 59.86371 98.28333 56.55 98.28333C53.23629 98.28333 50.55 95.59704 50.55 92.28333C50.55 88.96963 53.23629 86.28333 56.55 86.28333C59.86371 86.28333 62.55 88.96963 62.55 92.28333Z" fill-rule="nonzero"/><path fill="#d64e20" clip-path="url(#id_0)" d="M102.926926 92.28333C102.926926 95.59704 100.24063 98.28333 96.926926 98.28333C93.61321 98.28333 90.926926 95.59704 90.926926 92.28333C90.926926 88.96963 93.61321 86.28333 96.926926 86.28333C100.24063 86.28333 102.926926 88.96963 102.926926 92.28333Z" fill-rule="nonzero"/><path fill="#d64e20" clip-path="url(#id_0)" d="M143.30385 92.28333C143.30385 95.59704 140.61755 98.28333 137.30385 98.28333C133.99014 98.28333 131.30385 95.59704 131.30385 92.28333C131.30385 88.96963 133.99014 86.28333 137.30385 86.28333C140.61755 86.28333 143.30385 88.96963 143.30385 92.28333Z" fill-rule="nonzero"/><path fill="#d64e20" clip-path="url(#id_0)" d="M183.68077 92.28333C183.68077 95.59704 180.99448 98.28333 177.68077 98.28333C174.36707 98.28333 171.68077 95.59704 171.68077 92.28333C171.68077 88.96963 174.36707 86.28333 177.68077 86.28333C180.99448 86.28333 183.68077 88.96963 183.68077 92.28333Z" fill-rule="nonzero"/><path fill="#d64e20" clip-path="url(#id_0)" d="M224.0577 92.28333C224.0577 95.59704 221.3714 98.28333 218.0577 98.28333C214.74399 98.28333 212.0577 95.59704 212.0577 92.28333C212.0577 88.96963 214.74399 86.28333 218.0577 86.28333C221.3714 86.28333 224.0577 88.96963 224.0577 92.28333Z" fill-rule="nonzero"/><path fill="#d64e20" clip-path="url(#id_0)" d="M264.4346 92.28333C264.4346 95.59704 261.74832 98.28333 258.4346 98.28333C255.12091 98.28333 252.43462 95.59704 252.43462 92.28333C252.43462 88.96963 255.12091 86.28333 258.4346 86.28333C261.74832 86.28333 264.4346 88.96963 264.4346 92.28333Z" fill-rule="nonzero"/><path fill="#d64e20" clip-path="url(#id_0)" d="M304.81152 92.28333C304.81152 95.59704 302.12524 98.28333 298.81152 98.28333C295.49783 98.28333 292.81152 95.59704 292.81152 92.28333C292.81152 88.96963 295.49783 86.28333 298.81152 86.28333C302.12524 86.28333 304.81152 88.96963 304.81152 92.28333Z" fill-rule="nonzero"/><path fill="#d64e20" clip-path="url(#id_0)" d="M345.18848 92.28333C345.18848 95.59704 342.50217 98.28333 339.18848 98.28333C335.87476 98.28333 333.18848 95.59704 333.18848 92.28333C333.18848 88.96963 335.87476 86.28333 339.18848 86.28333C342.50217 86.28333 345.18848 88.96963 345.18848 92.28333Z" fill-rule="nonzero"/><path fill="#d64e20" clip-path="url(#id_0)" d="M385.5654 92.28333C385.5654 95.59704 382.8791 98.28333 379.5654 98.28333C376.25168 98.28333 373.5654 95.59704 373.5654 92.28333C373.5654 88.96963 376.25168 86.28333 379.5654 86.28333C382.8791 86.28333 385.5654 88.96963 385.5654 92.28333Z" fill-rule="nonzero"/><path fill="#d64e20" clip-path="url(#id_0)" d="M425.94232 92.28333C425.94232 95.59704 423.256 98.28333 419.94232 98.28333C416.6286 98.28333 413.94232 95.59704 413.94232 92.28333C413.94232 88.96963 416.6286 86.28333 419.94232 86.28333C423.256 86.28333 425.94232 88.96963 425.94232 92.28333Z" fill-rule="nonzero"/><path fill="#d64e20" clip-path="url(#id_0)" d="M466.31924 92.28333C466.31924 95.59704 463.63293 98.28333 460.31924 98.28333C457.00552 98.28333 454.31924 95.59704 454.31924 92.28333C454.31924 88.96963 457.00552 86.28333 460.31924 86.28333C463.63293 86.28333 466.31924 88.96963 466.31924 92.28333Z" fill-rule="nonzero"/><path fill="#d64e20" clip-path="url(#id_0)" d="M506.69617 92.28333C506.69617 95.59704 504.00986 98.28333 500.69617 98.28333C497.38245 98.28333 494.69617 95.59704 494.69617 92.28333C494.69617 88.96963 497.38245 86.28333 500.69617 86.28333C504.00986 86.28333 506.69617 88.96963 506.69617 92.28333Z" fill-rule="nonzero"/><path fill="#d64e20" clip-path="url(#id_0)" d="M547.07306 92.28333C547.07306 95.59704 544.3868 98.28333 541.07306 98.28333C537.75934 98.28333 535.07306 95.59704 535.07306 92.28333C535.07306 88.96963 537.75934 86.28333 541.07306 86.28333C544.3868 86.28333 547.07306 88.96963 547.07306 92.28333Z" fill-rule="nonzero"/><path fill="#d64e20" clip-path="url(#id_0)" d="M587.45 92.28333C587.45 95.59704 584.76373 98.28333 581.45 98.28333C578.1363 98.28333 575.45 95.59704 575.45 92.28333C575.45 88.96963 578.1363 86.28333 581.45 86.28333C584.76373 86.28333 587.45 88.96963 587.45 92.28333Z" fill-rule="nonzero"/><path fill="#000000" d="M296.39062 348.84064Q296.28125 348.84064 295.98438 348.575Q295.71875 348.34064 295.59375 348.15314Q295.03125 348.45 294.59375 348.60626Q294.17188 348.7625 293.89062 348.7625Q292.51562 348.7625 291.89062 347.9969Q291.29688 347.2625 291.29688 345.7625Q291.29688 344.34064 292.26562 343.34064Q293.25 342.325 294.60938 342.325Q295.10938 342.325 295.75 342.59064Q296.54688 342.91876 296.54688 343.3875Q296.54688 343.54376 296.42188 343.66876Q296.375 343.8875 296.32812 344.40314Q296.29688 344.90314 296.29688 345.7Q296.29688 346.4344 296.39062 346.85626Q296.45312 347.10626 296.76562 347.8875Q296.8125 347.9969 296.90625 348.2L296.9375 348.29376Q296.9375 348.52814 296.76562 348.6844Q296.60938 348.84064 296.39062 348.84064ZM295.17188 344.7625Q295.17188 344.5125 295.20312 344.21564Q295.23438 343.91876 295.29688 343.59064Q295.07812 343.48126 294.92188 343.4344Q294.78125 343.3719 294.6875 343.3719Q293.76562 343.3719 293.10938 344.1219Q292.45312 344.85626 292.45312 345.825Q292.45312 346.77814 292.79688 347.2625Q293.14062 347.7469 293.8125 347.7469Q294.375 347.7469 294.76562 347.52814Q294.98438 347.41876 295.35938 347.09064Q295.17188 345.54376 295.17188 344.7625ZM301.75 340.21564Q300.32812 340.21564 300.17188 342.1844L300.14062 342.54376Q301.14062 342.46564 301.4375 342.46564Q302.375 342.46564 302.375 343.0594Q302.375 343.48126 301.90625 343.575Q301.71875 343.60626 301.4375 343.60626Q301.17188 343.59064 300.09375 343.66876L300.04688 345.0125Q300.04688 345.3719 300.0625 346.10626Q300.09375 346.825 300.09375 347.1844Q300.09375 348.29376 299.96875 348.91876Q299.85938 349.3875 299.42188 349.3875Q299.1875 349.3875 299.01562 349.23126Q298.84375 349.075 298.84375 348.84064Q298.84375 348.79376 298.85938 348.73126Q298.96875 347.96564 298.96875 347.0594L298.95312 345.46564L298.95312 343.7625Q298.21875 343.825 298.03125 343.825Q297.4375 343.825 297.4375 343.2625Q297.4375 342.6844 298.46875 342.65314L299.03125 342.6375Q299.04688 342.3094 299.10938 341.7469Q299.26562 340.4344 299.76562 339.825Q300.375 339.075 301.67188 339.075Q302.51562 339.075 302.51562 339.65314Q302.51562 340.21564 301.75 340.21564ZM305.29688 343.84064L305.21875 346.7625Q305.21875 347.21564 305.17188 348.1219Q305.10938 348.7 304.59375 348.7Q304.01562 348.7 304.01562 348.10626Q304.01562 347.3875 304.07812 345.98126Q304.15625 344.5594 304.15625 343.84064Q304.15625 342.91876 304.17188 341.73126Q304.20312 340.52814 304.20312 339.60626Q304.20312 339.02814 304.78125 339.02814Q305.35938 339.02814 305.35938 339.60626Q305.35938 340.52814 305.32812 341.73126Q305.29688 342.91876 305.29688 343.84064ZM310.54688 348.71564Q309.23438 348.71564 308.40625 348.0594Q307.51562 347.325 307.51562 346.0125Q307.51562 344.48126 308.25 343.45Q309.04688 342.325 310.39062 342.325Q311.35938 342.325 311.98438 342.65314Q312.73438 343.0594 312.73438 343.90314Q312.73438 344.48126 312.07812 344.96564Q311.78125 345.16876 310.82812 345.6219L308.59375 346.6844Q308.92188 347.16876 309.40625 347.41876Q309.90625 347.65314 310.54688 347.65314Q310.95312 347.65314 311.5 347.5125Q312.1875 347.3094 312.39062 346.9969Q312.59375 346.6844 312.8125 346.6844Q313.03125 346.6844 313.1875 346.84064Q313.34375 346.9969 313.34375 347.2Q313.34375 347.85626 312.29688 348.325Q311.40625 348.71564 310.54688 348.71564ZM310.39062 343.3875Q309.67188 343.3875 309.20312 343.9344Q308.73438 344.48126 308.5 345.60626L310.29688 344.7469Q311.35938 344.23126 311.8125 343.85626Q311.29688 343.3875 310.39062 343.3875ZM316.51562 348.1375Q316.5 348.6844 315.98438 348.6844Q315.5625 348.6844 315.35938 348.1844L314.46875 345.79376L313.42188 343.10626Q313.35938 342.96564 313.35938 342.84064Q313.35938 342.60626 313.54688 342.4344Q313.73438 342.2625 313.96875 342.2625Q314.3125 342.2625 314.46875 342.6219L315.95312 346.71564Q316.40625 345.77814 317.0625 343.9969Q317.21875 343.52814 317.5625 342.66876Q317.75 342.29376 318.07812 342.29376Q318.32812 342.29376 318.5 342.46564Q318.6875 342.6375 318.6875 342.8719Q318.6875 343.09064 317.71875 345.3719L316.51562 348.1375ZM322.54688 348.71564Q321.23438 348.71564 320.40625 348.0594Q319.51562 347.325 319.51562 346.0125Q319.51562 344.48126 320.25 343.45Q321.04688 342.325 322.39062 342.325Q323.35938 342.325 323.98438 342.65314Q324.73438 343.0594 324.73438 343.90314Q324.73438 344.48126 324.07812 344.96564Q323.78125 345.16876 322.82812 345.6219L320.59375 346.6844Q320.92188 347.16876 321.40625 347.41876Q321.90625 347.65314 322.54688 347.65314Q322.95312 347.65314 323.5 347.5125Q324.1875 347.3094 324.39062 346.9969Q324.59375 346.6844 324.8125 346.6844Q325.03125 346.6844 325.1875 346.84064Q325.34375 346.9969 325.34375 347.2Q325.34375 347.85626 324.29688 348.325Q323.40625 348.71564 322.54688 348.71564ZM322.39062 343.3875Q321.67188 343.3875 321.20312 343.9344Q320.73438 344.48126 320.5 345.60626L322.29688 344.7469Q323.35938 344.23126 323.8125 343.85626Q323.29688 343.3875 322.39062 343.3875ZM330.375 344.1219Q330.32812 344.85626 329.78125 344.85626Q329.28125 344.85626 329.28125 344.27814Q329.28125 344.15314 329.26562 343.85626L329.25 343.3719Q328.32812 343.48126 327.76562 343.8875Q327.25 344.27814 326.90625 345.04376L326.90625 348.2469Q326.90625 348.84064 326.32812 348.84064Q325.8125 348.84064 325.8125 348.2469L325.8125 344.1375Q325.8125 343.95 325.82812 343.5594Q325.84375 343.16876 325.84375 342.98126Q325.84375 342.3875 326.35938 342.3875Q326.9375 342.3875 326.9375 343.35626Q328.0625 342.27814 329.4375 342.27814Q329.90625 342.27814 330.14062 342.6375Q330.375 342.98126 330.375 343.71564Q330.375 344.0125 330.375 344.1219ZM332.9375 341.02814Q332.65625 341.02814 332.45312 340.84064Q332.25 340.6375 332.25 340.35626Q332.25 340.075 332.45312 339.8719Q332.65625 339.66876 332.9375 339.66876Q333.21875 339.66876 333.42188 339.8719Q333.625 340.075 333.625 340.35626Q333.625 340.6375 333.42188 340.84064Q333.21875 341.02814 332.9375 341.02814ZM333.20312 345.79376Q333.20312 346.1375 333.21875 346.84064Q333.23438 347.54376 333.23438 347.8875Q333.23438 348.15314 333.07812 348.325Q332.92188 348.48126 332.67188 348.48126Q332.40625 348.48126 332.25 348.325Q332.09375 348.15314 332.09375 347.8875Q332.09375 347.54376 332.0625 346.84064Q332.04688 346.1375 332.04688 345.79376Q332.04688 345.23126 332.10938 344.41876Q332.17188 343.59064 332.17188 343.04376Q332.17188 342.77814 332.32812 342.6219Q332.48438 342.45 332.73438 342.45Q333.0 342.45 333.15625 342.6219Q333.3125 342.77814 333.3125 343.04376Q333.3125 343.59064 333.25 344.41876Q333.20312 345.23126 333.20312 345.79376ZM340.3125 348.8719Q339.8125 348.8719 339.73438 348.3094L339.57812 347.02814Q339.5 346.34064 339.5 345.7469Q339.5 345.59064 339.51562 345.2Q339.53125 344.79376 339.53125 344.6375Q339.53125 343.3719 339.0625 343.3719Q338.40625 343.3719 337.8125 344.15314Q337.28125 344.85626 336.96875 345.9344Q336.95312 346.16876 336.92188 346.5125Q336.875 346.8094 336.875 347.09064Q336.875 347.2625 336.90625 347.6219Q336.95312 347.96564 336.95312 348.1375Q336.95312 348.40314 336.78125 348.5594Q336.625 348.73126 336.375 348.73126Q336.125 348.73126 335.95312 348.5594Q335.79688 348.40314 335.79688 348.1375Q335.79688 347.96564 335.76562 347.6219Q335.73438 347.2625 335.73438 347.09064Q335.73438 346.48126 335.8125 345.41876Q335.89062 344.34064 335.89062 343.73126Q335.89062 343.54376 335.875 343.1844Q335.85938 342.8094 335.85938 342.6219Q335.85938 342.3719 336.01562 342.21564Q336.1875 342.04376 336.4375 342.04376Q336.96875 342.04376 337.03125 342.8094L337.04688 343.4969Q338.03125 342.1844 339.0625 342.1844Q340.0 342.1844 340.375 343.0125Q340.625 343.5594 340.65625 344.6375L340.65625 345.23126L340.64062 345.77814Q340.64062 346.2625 340.76562 347.04376Q340.89062 347.8094 340.89062 348.27814Q340.89062 348.54376 340.71875 348.7Q340.5625 348.8719 340.3125 348.8719ZM346.64062 345.91876L346.5 347.8875Q346.46875 349.0594 346.26562 349.8094Q346.0 350.7625 345.42188 351.21564Q344.71875 351.7625 343.39062 351.7625Q342.60938 351.7625 342.07812 351.65314Q341.34375 351.4969 341.34375 351.04376Q341.34375 350.5125 341.84375 350.5125Q342.0625 350.5125 342.54688 350.6219Q343.04688 350.73126 343.64062 350.71564Q344.76562 350.7 345.20312 349.6219Q345.48438 348.90314 345.5 347.41876Q345.17188 348.0125 344.73438 348.3094Q344.3125 348.59064 343.75 348.59064Q342.6875 348.59064 342.01562 347.8719Q341.35938 347.15314 341.35938 345.9969Q341.35938 344.41876 342.26562 343.45Q343.20312 342.45 344.8125 342.45Q345.35938 342.45 345.71875 342.59064Q346.09375 342.73126 346.29688 343.0125Q346.92188 343.02814 346.92188 343.71564Q346.92188 344.1219 346.79688 344.825Q346.65625 345.6375 346.64062 345.91876ZM344.75 343.3875Q343.64062 343.3875 343.03125 344.15314Q342.48438 344.84064 342.48438 345.91876Q342.48438 346.7625 342.8125 347.2Q343.14062 347.6219 343.78125 347.6219Q344.375 347.6219 344.92188 346.95Q345.4375 346.34064 345.5 345.73126Q345.625 345.09064 345.76562 343.7469Q345.53125 343.5594 345.28125 343.48126Q345.03125 343.3875 344.75 343.3875Z" fill-rule="nonzero"/><path fill="#000000" d="M33.05 296.21564Q33.05 294.6844 33.3625 293.7625Q33.675 292.825 34.284374 292.325Q34.909374 291.825 35.846874 291.825Q36.534374 291.825 37.05 292.10626Q37.58125 292.3875 37.925 292.91876Q38.26875 293.4344 38.45625 294.1844Q38.64375 294.9344 38.64375 296.21564Q38.64375 297.73126 38.33125 298.65314Q38.034374 299.575 37.409374 300.09064Q36.8 300.59064 35.846874 300.59064Q34.6125 300.59064 33.89375 299.7Q33.05 298.6375 33.05 296.21564ZM34.128124 296.21564Q34.128124 298.325 34.628124 299.02814Q35.128124 299.73126 35.846874 299.73126Q36.58125 299.73126 37.065624 299.02814Q37.565624 298.325 37.565624 296.21564Q37.565624 294.09064 37.065624 293.40314Q36.58125 292.7 35.83125 292.7Q35.1125 292.7 34.675 293.3094Q34.128124 294.09064 34.128124 296.21564ZM40.253124 293.91876Q40.253124 292.9969 40.70625 292.35626Q41.175 291.71564 42.05 291.71564Q42.8625 291.71564 43.39375 292.29376Q43.925 292.8719 43.925 293.98126Q43.925 295.075 43.378124 295.66876Q42.846874 296.2469 42.065624 296.2469Q41.284374 296.2469 40.76875 295.66876Q40.253124 295.09064 40.253124 293.91876ZM42.08125 292.4344Q41.690624 292.4344 41.425 292.77814Q41.175 293.1219 41.175 294.02814Q41.175 294.85626 41.425 295.2Q41.690624 295.52814 42.08125 295.52814Q42.4875 295.52814 42.7375 295.1844Q43.003124 294.84064 43.003124 293.95Q43.003124 293.10626 42.7375 292.77814Q42.471874 292.4344 42.08125 292.4344ZM42.08125 300.7625L46.784374 291.71564L47.64375 291.71564L42.95625 300.7625L42.08125 300.7625ZM45.8 298.4344Q45.8 297.5125 46.253124 296.8719Q46.721874 296.23126 47.6125 296.23126Q48.425 296.23126 48.95625 296.8094Q49.4875 297.3719 49.4875 298.4969Q49.4875 299.59064 48.940624 300.1844Q48.409374 300.7625 47.6125 300.7625Q46.846874 300.7625 46.315624 300.1844Q45.8 299.60626 45.8 298.4344ZM47.64375 296.95Q47.2375 296.95 46.971874 297.29376Q46.721874 297.6375 46.721874 298.54376Q46.721874 299.35626 46.9875 299.7Q47.253124 300.04376 47.64375 300.04376Q48.034374 300.04376 48.3 299.7Q48.565624 299.35626 48.565624 298.45Q48.565624 297.6219 48.3 297.29376Q48.034374 296.95 47.64375 296.95Z" fill-rule="nonzero"/><path fill="#000000" d="M31.596874 248.39272L31.596874 249.40834L25.909374 249.40834Q25.909374 249.03334 26.034374 248.67397Q26.253124 248.09584 26.721874 247.53334Q27.20625 246.97084 28.1125 246.23647Q29.51875 245.08022 30.003124 244.40834Q30.503124 243.73647 30.503124 243.14272Q30.503124 242.51772 30.05 242.09584Q29.596874 241.65834 28.878124 241.65834Q28.1125 241.65834 27.659374 242.11147Q27.20625 242.56459 27.190624 243.37709L26.1125 243.26772Q26.221874 242.04897 26.940624 241.42397Q27.675 240.78334 28.909374 240.78334Q30.14375 240.78334 30.8625 241.47084Q31.58125 242.15834 31.58125 243.17397Q31.58125 243.68959 31.3625 244.18959Q31.159374 244.67397 30.659374 245.23647Q30.175 245.78334 29.05 246.73647Q28.096874 247.53334 27.815624 247.83022Q27.55 248.11147 27.378124 248.39272L31.596874 248.39272ZM33.05 247.15834L34.159374 247.06459Q34.284374 247.87709 34.721874 248.28334Q35.175 248.68959 35.815624 248.68959Q36.565624 248.68959 37.096874 248.11147Q37.628124 247.53334 37.628124 246.59584Q37.628124 245.68959 37.1125 245.17397Q36.6125 244.64272 35.784374 244.64272Q35.284374 244.64272 34.8625 244.87709Q34.45625 245.11147 34.221874 245.47084L33.2375 245.34584L34.065624 240.93959L38.346874 240.93959L38.346874 241.93959L34.909374 241.93959L34.45625 244.25209Q35.221874 243.70522 36.065624 243.70522Q37.190624 243.70522 37.95625 244.48647Q38.7375 245.26772 38.7375 246.50209Q38.7375 247.65834 38.065624 248.51772Q37.2375 249.54897 35.815624 249.54897Q34.64375 249.54897 33.89375 248.89272Q33.159374 248.23647 33.05 247.15834ZM40.253124 242.87709Q40.253124 241.95522 40.70625 241.31459Q41.175 240.67397 42.05 240.67397Q42.8625 240.67397 43.39375 241.25209Q43.925 241.83022 43.925 242.93959Q43.925 244.03334 43.378124 244.62709Q42.846874 245.20522 42.065624 245.20522Q41.284374 245.20522 40.76875 244.62709Q40.253124 244.04897 40.253124 242.87709ZM42.08125 241.39272Q41.690624 241.39272 41.425 241.73647Q41.175 242.08022 41.175 242.98647Q41.175 243.81459 41.425 244.15834Q41.690624 244.48647 42.08125 244.48647Q42.4875 244.48647 42.7375 244.14272Q43.003124 243.79897 43.003124 242.90834Q43.003124 242.06459 42.7375 241.73647Q42.471874 241.39272 42.08125 241.39272ZM42.08125 249.72084L46.784374 240.67397L47.64375 240.67397L42.95625 249.72084L42.08125 249.72084ZM45.8 247.39272Q45.8 246.47084 46.253124 245.83022Q46.721874 245.18959 47.6125 245.18959Q48.425 245.18959 48.95625 245.76772Q49.4875 246.33022 49.4875 247.45522Q49.4875 248.54897 48.940624 249.14272Q48.409374 249.72084 47.6125 249.72084Q46.846874 249.72084 46.315624 249.14272Q45.8 248.56459 45.8 247.39272ZM47.64375 245.90834Q47.2375 245.90834 46.971874 246.25209Q46.721874 246.59584 46.721874 247.50209Q46.721874 248.31459 46.9875 248.65834Q47.253124 249.00209 47.64375 249.00209Q48.034374 249.00209 48.3 248.65834Q48.565624 248.31459 48.565624 247.40834Q48.565624 246.58022 48.3 246.25209Q48.034374 245.90834 47.64375 245.90834Z" fill-rule="nonzero"/><path fill="#000000" d="M26.05 196.11667L27.159374 196.02292Q27.284374 196.83542 27.721874 197.24167Q28.175 197.64792 28.815624 197.64792Q29.565624 197.64792 30.096874 197.0698Q30.628124 196.49167 30.628124 195.55417Q30.628124 194.64792 30.1125 194.1323Q29.6125 193.60104 28.784374 193.60104Q28.284374 193.60104 27.8625 193.83542Q27.45625 194.0698 27.221874 194.42917L26.2375 194.30417L27.065624 189.89792L31.346874 189.89792L31.346874 190.89792L27.909374 190.89792L27.45625 193.21042Q28.221874 192.66354 29.065624 192.66354Q30.190624 192.66354 30.95625 193.4448Q31.7375 194.22604 31.7375 195.46042Q31.7375 196.61667 31.065624 197.47604Q30.2375 198.5073 28.815624 198.5073Q27.64375 198.5073 26.89375 197.85104Q26.159374 197.1948 26.05 196.11667ZM33.05 194.1323Q33.05 192.60104 33.3625 191.67917Q33.675 190.74167 34.284374 190.24167Q34.909374 189.74167 35.846874 189.74167Q36.534374 189.74167 37.05 190.02292Q37.58125 190.30417 37.925 190.83542Q38.26875 191.35104 38.45625 192.10104Q38.64375 192.85104 38.64375 194.1323Q38.64375 195.64792 38.33125 196.5698Q38.034374 197.49167 37.409374 198.0073Q36.8 198.5073 35.846874 198.5073Q34.6125 198.5073 33.89375 197.61667Q33.05 196.55417 33.05 194.1323ZM34.128124 194.1323Q34.128124 196.24167 34.628124 196.9448Q35.128124 197.64792 35.846874 197.64792Q36.58125 197.64792 37.065624 196.9448Q37.565624 196.24167 37.565624 194.1323Q37.565624 192.0073 37.065624 191.3198Q36.58125 190.61667 35.83125 190.61667Q35.1125 190.61667 34.675 191.22604Q34.128124 192.0073 34.128124 194.1323ZM40.253124 191.83542Q40.253124 190.91354 40.70625 190.27292Q41.175 189.6323 42.05 189.6323Q42.8625 189.6323 43.39375 190.21042Q43.925 190.78854 43.925 191.89792Q43.925 192.99167 43.378124 193.58542Q42.846874 194.16354 42.065624 194.16354Q41.284374 194.16354 40.76875 193.58542Q40.253124 193.0073 40.253124 191.83542ZM42.08125 190.35104Q41.690624 190.35104 41.425 190.6948Q41.175 191.03854 41.175 191.9448Q41.175 192.77292 41.425 193.11667Q41.690624 193.4448 42.08125 193.4448Q42.4875 193.4448 42.7375 193.10104Q43.003124 192.7573 43.003124 191.86667Q43.003124 191.02292 42.7375 190.6948Q42.471874 190.35104 42.08125 190.35104ZM42.08125 198.67917L46.784374 189.6323L47.64375 189.6323L42.95625 198.67917L42.08125 198.67917ZM45.8 196.35104Q45.8 195.42917 46.253124 194.78854Q46.721874 194.14792 47.6125 194.14792Q48.425 194.14792 48.95625 194.72604Q49.4875 195.28854 49.4875 196.41354Q49.4875 197.5073 48.940624 198.10104Q48.409374 198.67917 47.6125 198.67917Q46.846874 198.67917 46.315624 198.10104Q45.8 197.52292 45.8 196.35104ZM47.64375 194.86667Q47.2375 194.86667 46.971874 195.21042Q46.721874 195.55417 46.721874 196.46042Q46.721874 197.27292 46.9875 197.61667Q47.253124 197.96042 47.64375 197.96042Q48.034374 197.96042 48.3 197.61667Q48.565624 197.27292 48.565624 196.36667Q48.565624 195.53854 48.3 195.21042Q48.034374 194.86667 47.64375 194.86667Z" fill-rule="nonzero"/><path fill="#000000" d="M26.1125 139.85625L26.1125 138.84062L31.675 138.84062L31.675 139.66875Q30.8625 140.54375 30.05 141.99687Q29.253124 143.43437 28.815624 144.96562Q28.4875 146.04375 28.409374 147.325L27.315624 147.325Q27.33125 146.30937 27.70625 144.87187Q28.096874 143.43437 28.8 142.10625Q29.51875 140.77812 30.33125 139.85625L26.1125 139.85625ZM33.05 145.075L34.159374 144.98125Q34.284374 145.79375 34.721874 146.2Q35.175 146.60625 35.815624 146.60625Q36.565624 146.60625 37.096874 146.02812Q37.628124 145.45 37.628124 144.5125Q37.628124 143.60625 37.1125 143.09062Q36.6125 142.55937 35.784374 142.55937Q35.284374 142.55937 34.8625 142.79375Q34.45625 143.02812 34.221874 143.3875L33.2375 143.2625L34.065624 138.85625L38.346874 138.85625L38.346874 139.85625L34.909374 139.85625L34.45625 142.16875Q35.221874 141.62187 36.065624 141.62187Q37.190624 141.62187 37.95625 142.40312Q38.7375 143.18437 38.7375 144.41875Q38.7375 145.575 38.065624 146.43437Q37.2375 147.46562 35.815624 147.46562Q34.64375 147.46562 33.89375 146.80937Q33.159374 146.15312 33.05 145.075ZM40.253124 140.79375Q40.253124 139.87187 40.70625 139.23125Q41.175 138.59062 42.05 138.59062Q42.8625 138.59062 43.39375 139.16875Q43.925 139.74687 43.925 140.85625Q43.925 141.95 43.378124 142.54375Q42.846874 143.12187 42.065624 143.12187Q41.284374 143.12187 40.76875 142.54375Q40.253124 141.96562 40.253124 140.79375ZM42.08125 139.30937Q41.690624 139.30937 41.425 139.65312Q41.175 139.99687 41.175 140.90312Q41.175 141.73125 41.425 142.075Q41.690624 142.40312 42.08125 142.40312Q42.4875 142.40312 42.7375 142.05937Q43.003124 141.71562 43.003124 140.825Q43.003124 139.98125 42.7375 139.65312Q42.471874 139.30937 42.08125 139.30937ZM42.08125 147.6375L46.784374 138.59062L47.64375 138.59062L42.95625 147.6375L42.08125 147.6375ZM45.8 145.30937Q45.8 144.3875 46.253124 143.74687Q46.721874 143.10625 47.6125 143.10625Q48.425 143.10625 48.95625 143.68437Q49.4875 144.24687 49.4875 145.37187Q49.4875 146.46562 48.940624 147.05937Q48.409374 147.6375 47.6125 147.6375Q46.846874 147.6375 46.315624 147.05937Q45.8 146.48125 45.8 145.30937ZM47.64375 143.825Q47.2375 143.825 46.971874 144.16875Q46.721874 144.5125 46.721874 145.41875Q46.721874 146.23125 46.9875 146.575Q47.253124 146.91875 47.64375 146.91875Q48.034374 146.91875 48.3 146.575Q48.565624 146.23125 48.565624 145.325Q48.565624 144.49687 48.3 144.16875Q48.034374 143.825 47.64375 143.825Z" fill-rule="nonzero"/><path fill="#000000" d="M23.01875 96.28333L21.971874 96.28333L21.971874 89.56458Q21.58125 89.92396 20.95625 90.29896Q20.346874 90.65833 19.8625 90.83021L19.8625 89.81458Q20.7375 89.39271 21.39375 88.81458Q22.065624 88.22083 22.346874 87.65833L23.01875 87.65833L23.01875 96.28333ZM26.05 92.04896Q26.05 90.51771 26.3625 89.59583Q26.675 88.65833 27.284374 88.15833Q27.909374 87.65833 28.846874 87.65833Q29.534374 87.65833 30.05 87.93958Q30.58125 88.22083 30.925 88.75208Q31.26875 89.26771 31.45625 90.01771Q31.64375 90.76771 31.64375 92.04896Q31.64375 93.56458 31.33125 94.48646Q31.034374 95.40833 30.409374 95.92396Q29.8 96.42396 28.846874 96.42396Q27.6125 96.42396 26.89375 95.53333Q26.05 94.47083 26.05 92.04896ZM27.128124 92.04896Q27.128124 94.15833 27.628124 94.86146Q28.128124 95.56458 28.846874 95.56458Q29.58125 95.56458 30.065624 94.86146Q30.565624 94.15833 30.565624 92.04896Q30.565624 89.92396 30.065624 89.23646Q29.58125 88.53333 28.83125 88.53333Q28.1125 88.53333 27.675 89.14271Q27.128124 89.92396 27.128124 92.04896ZM33.05 92.04896Q33.05 90.51771 33.3625 89.59583Q33.675 88.65833 34.284374 88.15833Q34.909374 87.65833 35.846874 87.65833Q36.534374 87.65833 37.05 87.93958Q37.58125 88.22083 37.925 88.75208Q38.26875 89.26771 38.45625 90.01771Q38.64375 90.76771 38.64375 92.04896Q38.64375 93.56458 38.33125 94.48646Q38.034374 95.40833 37.409374 95.92396Q36.8 96.42396 35.846874 96.42396Q34.6125 96.42396 33.89375 95.53333Q33.05 94.47083 33.05 92.04896ZM34.128124 92.04896Q34.128124 94.15833 34.628124 94.86146Q35.128124 95.56458 35.846874 95.56458Q36.58125 95.56458 37.065624 94.86146Q37.565624 94.15833 37.565624 92.04896Q37.565624 89.92396 37.065624 89.23646Q36.58125 88.53333 35.83125 88.53333Q35.1125 88.53333 34.675 89.14271Q34.128124 89.92396 34.128124 92.04896ZM40.253124 89.75208Q40.253124 88.83021 40.70625 88.18958Q41.175 87.54896 42.05 87.54896Q42.8625 87.54896 43.39375 88.12708Q43.925 88.70521 43.925 89.81458Q43.925 90.90833 43.378124 91.50208Q42.846874 92.08021 42.065624 92.08021Q41.284374 92.08021 40.76875 91.50208Q40.253124 90.92396 40.253124 89.75208ZM42.08125 88.26771Q41.690624 88.26771 41.425 88.61146Q41.175 88.95521 41.175 89.86146Q41.175 90.68958 41.425 91.03333Q41.690624 91.36146 42.08125 91.36146Q42.4875 91.36146 42.7375 91.01771Q43.003124 90.67396 43.003124 89.78333Q43.003124 88.93958 42.7375 88.61146Q42.471874 88.26771 42.08125 88.26771ZM42.08125 96.59583L46.784374 87.54896L47.64375 87.54896L42.95625 96.59583L42.08125 96.59583ZM45.8 94.26771Q45.8 93.34583 46.253124 92.70521Q46.721874 92.06458 47.6125 92.06458Q48.425 92.06458 48.95625 92.64271Q49.4875 93.20521 49.4875 94.33021Q49.4875 95.42396 48.940624 96.01771Q48.409374 96.59583 47.6125 96.59583Q46.846874 96.59583 46.315624 96.01771Q45.8 95.43958 45.8 94.26771ZM47.64375 92.78333Q47.2375 92.78333 46.971874 93.12708Q46.721874 93.47083 46.721874 94.37708Q46.721874 95.18958 46.9875 95.53333Q47.253124 95.87708 47.64375 95.87708Q48.034374 95.87708 48.3 95.53333Q48.565624 95.18958 48.565624 94.28333Q48.565624 93.45521 48.3 93.12708Q48.034374 92.78333 47.64375 92.78333Z" fill-rule="nonzero"/><path fill="#000000" d="M50.05 311.1844L51.1125 311.04376Q51.284374 311.9344 51.721874 312.34064Q52.159374 312.73126 52.784374 312.73126Q53.534374 312.73126 54.05 312.21564Q54.565624 311.7 54.565624 310.9344Q54.565624 310.21564 54.08125 309.7469Q53.6125 309.2625 52.878124 309.2625Q52.58125 309.2625 52.128124 309.3875L52.253124 308.45Q52.3625 308.46564 52.425 308.46564Q53.096874 308.46564 53.628124 308.1219Q54.175 307.7625 54.175 307.02814Q54.175 306.45 53.784374 306.075Q53.39375 305.6844 52.76875 305.6844Q52.159374 305.6844 51.7375 306.075Q51.33125 306.46564 51.221874 307.23126L50.159374 307.04376Q50.346874 305.9969 51.034374 305.41876Q51.721874 304.825 52.7375 304.825Q53.440624 304.825 54.034374 305.1375Q54.628124 305.4344 54.940624 305.95Q55.253124 306.46564 55.253124 307.0594Q55.253124 307.60626 54.95625 308.075Q54.659374 308.52814 54.08125 308.79376Q54.83125 308.96564 55.253124 309.52814Q55.675 310.075 55.675 310.91876Q55.675 312.04376 54.846874 312.825Q54.034374 313.60626 52.784374 313.60626Q51.659374 313.60626 50.909374 312.9344Q50.159374 312.2469 50.05 311.1844ZM62.51875 306.96564L61.471874 307.04376Q61.33125 306.41876 61.08125 306.1375Q60.64375 305.6844 60.01875 305.6844Q59.51875 305.6844 59.128124 305.96564Q58.64375 306.34064 58.346874 307.04376Q58.065624 307.73126 58.05 309.0125Q58.425 308.4344 58.971874 308.15314Q59.534374 307.8719 60.14375 307.8719Q61.190624 307.8719 61.925 308.65314Q62.675 309.4344 62.675 310.65314Q62.675 311.46564 62.315624 312.16876Q61.971874 312.85626 61.3625 313.23126Q60.753124 313.59064 59.9875 313.59064Q58.659374 313.59064 57.83125 312.6219Q57.003124 311.65314 57.003124 309.4344Q57.003124 306.9344 57.925 305.8094Q58.721874 304.825 60.08125 304.825Q61.096874 304.825 61.7375 305.40314Q62.39375 305.96564 62.51875 306.96564ZM58.221874 310.66876Q58.221874 311.21564 58.440624 311.71564Q58.675 312.2 59.08125 312.46564Q59.503124 312.73126 59.971874 312.73126Q60.628124 312.73126 61.1125 312.2Q61.596874 311.65314 61.596874 310.73126Q61.596874 309.84064 61.1125 309.325Q60.64375 308.8094 59.925 308.8094Q59.20625 308.8094 58.70625 309.325Q58.221874 309.84064 58.221874 310.66876Z" fill-rule="nonzero"/><path fill="#000000" d="M90.426926 311.1844L91.489426 311.04376Q91.6613 311.9344 92.0988 312.34064Q92.5363 312.73126 93.1613 312.73126Q93.9113 312.73126 94.426926 312.21564Q94.94255 311.7 94.94255 310.9344Q94.94255 310.21564 94.458176 309.7469Q93.989426 309.2625 93.25505 309.2625Q92.958176 309.2625 92.50505 309.3875L92.63005 308.45Q92.739426 308.46564 92.801926 308.46564Q93.4738 308.46564 94.00505 308.1219Q94.551926 307.7625 94.551926 307.02814Q94.551926 306.45 94.1613 306.075Q93.770676 305.6844 93.145676 305.6844Q92.5363 305.6844 92.114426 306.075Q91.708176 306.46564 91.5988 307.23126L90.5363 307.04376Q90.7238 305.9969 91.4113 305.41876Q92.0988 304.825 93.114426 304.825Q93.81755 304.825 94.4113 305.1375Q95.00505 305.4344 95.31755 305.95Q95.63005 306.46564 95.63005 307.0594Q95.63005 307.60626 95.333176 308.075Q95.0363 308.52814 94.458176 308.79376Q95.208176 308.96564 95.63005 309.52814Q96.051926 310.075 96.051926 310.91876Q96.051926 312.04376 95.2238 312.825Q94.4113 313.60626 93.1613 313.60626Q92.0363 313.60626 91.2863 312.9344Q90.5363 312.2469 90.426926 311.1844ZM97.489426 305.98126L97.489426 304.96564L103.051926 304.96564L103.051926 305.79376Q102.239426 306.66876 101.426926 308.1219Q100.63005 309.5594 100.19255 311.09064Q99.864426 312.16876 99.7863 313.45L98.69255 313.45Q98.708176 312.4344 99.083176 310.9969Q99.4738 309.5594 100.176926 308.23126Q100.895676 306.90314 101.708176 305.98126L97.489426 305.98126Z" fill-rule="nonzero"/><path fill="#000000" d="M130.80385 311.1844L131.86635 311.04376Q132.03822 311.9344 132.47572 312.34064Q132.91322 312.73126 133.53822 312.73126Q134.28822 312.73126 134.80385 312.21564Q135.31947 311.7 135.31947 310.9344Q135.31947 310.21564 134.8351 309.7469Q134.36635 309.2625 133.63197 309.2625Q133.3351 309.2625 132.88197 309.3875L133.00697 308.45Q133.11635 308.46564 133.17885 308.46564Q133.85072 308.46564 134.38197 308.1219Q134.92885 307.7625 134.92885 307.02814Q134.92885 306.45 134.53822 306.075Q134.1476 305.6844 133.5226 305.6844Q132.91322 305.6844 132.49135 306.075Q132.0851 306.46564 131.97572 307.23126L130.91322 307.04376Q131.10072 305.9969 131.78822 305.41876Q132.47572 304.825 133.49135 304.825Q134.19447 304.825 134.78822 305.1375Q135.38197 305.4344 135.69447 305.95Q136.00697 306.46564 136.00697 307.0594Q136.00697 307.60626 135.7101 308.075Q135.41322 308.52814 134.8351 308.79376Q135.5851 308.96564 136.00697 309.52814Q136.42885 310.075 136.42885 310.91876Q136.42885 312.04376 135.60072 312.825Q134.78822 313.60626 133.53822 313.60626Q132.41322 313.60626 131.66322 312.9344Q130.91322 312.2469 130.80385 311.1844ZM139.42885 308.79376Q138.7726 308.54376 138.44447 308.10626Q138.13197 307.65314 138.13197 307.04376Q138.13197 306.10626 138.80385 305.46564Q139.49135 304.825 140.60072 304.825Q141.72572 304.825 142.41322 305.48126Q143.10072 306.1375 143.10072 307.075Q143.10072 307.66876 142.78822 308.10626Q142.47572 308.54376 141.8351 308.79376Q142.63197 309.04376 143.03822 309.6219Q143.44447 310.2 143.44447 310.9969Q143.44447 312.09064 142.66322 312.84064Q141.8976 313.59064 140.61635 313.59064Q139.35072 313.59064 138.56947 312.84064Q137.78822 312.09064 137.78822 310.96564Q137.78822 310.1219 138.2101 309.5594Q138.6476 308.9969 139.42885 308.79376ZM139.2101 306.9969Q139.2101 307.60626 139.60072 307.9969Q140.00697 308.3875 140.63197 308.3875Q141.24135 308.3875 141.63197 308.0125Q142.0226 307.6219 142.0226 307.0594Q142.0226 306.48126 141.61635 306.09064Q141.2101 305.6844 140.61635 305.6844Q140.00697 305.6844 139.60072 306.075Q139.2101 306.46564 139.2101 306.9969ZM138.88197 310.96564Q138.88197 311.41876 139.0851 311.84064Q139.30385 312.2625 139.72572 312.4969Q140.1476 312.73126 140.63197 312.73126Q141.38197 312.73126 141.86635 312.2469Q142.36635 311.7625 142.36635 311.0125Q142.36635 310.2469 141.86635 309.7469Q141.36635 309.2469 140.60072 309.2469Q139.85072 309.2469 139.36635 309.7469Q138.88197 310.23126 138.88197 310.96564Z" fill-rule="nonzero"/><path fill="#000000" d="M171.18077 311.1844L172.24327 311.04376Q172.41515 311.9344 172.85265 312.34064Q173.29015 312.73126 173.91515 312.73126Q174.66515 312.73126 175.18077 312.21564Q175.6964 311.7 175.6964 310.9344Q175.6964 310.21564 175.21202 309.7469Q174.74327 309.2625 174.0089 309.2625Q173.71202 309.2625 173.2589 309.3875L173.3839 308.45Q173.49327 308.46564 173.55577 308.46564Q174.22765 308.46564 174.7589 308.1219Q175.30577 307.7625 175.30577 307.02814Q175.30577 306.45 174.91515 306.075Q174.52452 305.6844 173.89952 305.6844Q173.29015 305.6844 172.86827 306.075Q172.46202 306.46564 172.35265 307.23126L171.29015 307.04376Q171.47765 305.9969 172.16515 305.41876Q172.85265 304.825 173.86827 304.825Q174.5714 304.825 175.16515 305.1375Q175.7589 305.4344 176.0714 305.95Q176.3839 306.46564 176.3839 307.0594Q176.3839 307.60626 176.08702 308.075Q175.79015 308.52814 175.21202 308.79376Q175.96202 308.96564 176.3839 309.52814Q176.80577 310.075 176.80577 310.91876Q176.80577 312.04376 175.97765 312.825Q175.16515 313.60626 173.91515 313.60626Q172.79015 313.60626 172.04015 312.9344Q171.29015 312.2469 171.18077 311.1844ZM178.33702 311.46564L179.35265 311.3719Q179.47765 312.09064 179.83702 312.41876Q180.21202 312.73126 180.77452 312.73126Q181.2589 312.73126 181.61827 312.5125Q181.99327 312.27814 182.22765 311.91876Q182.46202 311.54376 182.61827 310.91876Q182.77452 310.27814 182.77452 309.6219Q182.77452 309.54376 182.77452 309.40314Q182.46202 309.90314 181.91515 310.23126Q181.36827 310.54376 180.72765 310.54376Q179.64952 310.54376 178.91515 309.77814Q178.18077 308.9969 178.18077 307.73126Q178.18077 306.41876 178.9464 305.6219Q179.72765 304.825 180.8839 304.825Q181.71202 304.825 182.39952 305.27814Q183.10265 305.73126 183.46202 306.575Q183.8214 307.40314 183.8214 308.98126Q183.8214 310.6219 183.46202 311.60626Q183.11827 312.575 182.39952 313.09064Q181.6964 313.59064 180.7589 313.59064Q179.74327 313.59064 179.10265 313.04376Q178.46202 312.48126 178.33702 311.46564ZM182.64952 307.66876Q182.64952 306.7625 182.16515 306.23126Q181.6964 305.7 181.0089 305.7Q180.30577 305.7 179.77452 306.27814Q179.2589 306.84064 179.2589 307.7625Q179.2589 308.575 179.7589 309.09064Q180.2589 309.60626 180.97765 309.60626Q181.71202 309.60626 182.18077 309.09064Q182.64952 308.575 182.64952 307.66876Z" fill-rule="nonzero"/><path fill="#000000" d="M214.9327 313.45L214.9327 311.3875L211.21394 311.3875L211.21394 310.41876L215.13582 304.85626L215.9952 304.85626L215.9952 310.41876L217.15144 310.41876L217.15144 311.3875L215.9952 311.3875L215.9952 313.45L214.9327 313.45ZM214.9327 310.41876L214.9327 306.5594L212.2452 310.41876L214.9327 310.41876ZM218.5577 309.21564Q218.5577 307.6844 218.8702 306.7625Q219.1827 305.825 219.79207 305.325Q220.41707 304.825 221.35457 304.825Q222.04207 304.825 222.5577 305.10626Q223.08894 305.3875 223.4327 305.91876Q223.77644 306.4344 223.96394 307.1844Q224.15144 307.9344 224.15144 309.21564Q224.15144 310.73126 223.83894 311.65314Q223.54207 312.575 222.91707 313.09064Q222.3077 313.59064 221.35457 313.59064Q220.1202 313.59064 219.40144 312.7Q218.5577 311.6375 218.5577 309.21564ZM219.63582 309.21564Q219.63582 311.325 220.13582 312.02814Q220.63582 312.73126 221.35457 312.73126Q222.08894 312.73126 222.57332 312.02814Q223.07332 311.325 223.07332 309.21564Q223.07332 307.09064 222.57332 306.40314Q222.08894 305.7 221.33894 305.7Q220.6202 305.7 220.1827 306.3094Q219.63582 307.09064 219.63582 309.21564Z" fill-rule="nonzero"/><path fill="#000000" d="M255.30962 313.45L255.30962 311.3875L251.59087 311.3875L251.59087 310.41876L255.51274 304.85626L256.37213 304.85626L256.37213 310.41876L257.52838 310.41876L257.52838 311.3875L256.37213 311.3875L256.37213 313.45L255.30962 313.45ZM255.30962 310.41876L255.30962 306.5594L252.62212 310.41876L255.30962 310.41876ZM262.90338 313.45L261.8565 313.45L261.8565 306.73126Q261.46588 307.09064 260.84088 307.46564Q260.2315 307.825 259.74713 307.9969L259.74713 306.98126Q260.62213 306.5594 261.27838 305.98126Q261.95026 305.3875 262.2315 304.825L262.90338 304.825L262.90338 313.45Z" fill-rule="nonzero"/><path fill="#000000" d="M295.68652 313.45L295.68652 311.3875L291.96777 311.3875L291.96777 310.41876L295.88965 304.85626L296.74902 304.85626L296.74902 310.41876L297.90527 310.41876L297.90527 311.3875L296.74902 311.3875L296.74902 313.45L295.68652 313.45ZM295.68652 310.41876L295.68652 306.5594L292.99902 310.41876L295.68652 310.41876ZM304.8584 312.4344L304.8584 313.45L299.1709 313.45Q299.1709 313.075 299.2959 312.71564Q299.51465 312.1375 299.9834 311.575Q300.46777 311.0125 301.37402 310.27814Q302.78027 309.1219 303.26465 308.45Q303.76465 307.77814 303.76465 307.1844Q303.76465 306.5594 303.31152 306.1375Q302.8584 305.7 302.13965 305.7Q301.37402 305.7 300.9209 306.15314Q300.46777 306.60626 300.45215 307.41876L299.37402 307.3094Q299.4834 306.09064 300.20215 305.46564Q300.93652 304.825 302.1709 304.825Q303.40527 304.825 304.12402 305.5125Q304.84277 306.2 304.84277 307.21564Q304.84277 307.73126 304.62402 308.23126Q304.4209 308.71564 303.9209 309.27814Q303.43652 309.825 302.31152 310.77814Q301.3584 311.575 301.07715 311.8719Q300.81152 312.15314 300.63965 312.4344L304.8584 312.4344Z" fill-rule="nonzero"/><path fill="#000000" d="M336.06348 313.45L336.06348 311.3875L332.34473 311.3875L332.34473 310.41876L336.2666 304.85626L337.12598 304.85626L337.12598 310.41876L338.28223 310.41876L338.28223 311.3875L337.12598 311.3875L337.12598 313.45L336.06348 313.45ZM336.06348 310.41876L336.06348 306.5594L333.37598 310.41876L336.06348 310.41876ZM339.68848 311.1844L340.75098 311.04376Q340.92285 311.9344 341.36035 312.34064Q341.79785 312.73126 342.42285 312.73126Q343.17285 312.73126 343.68848 312.21564Q344.2041 311.7 344.2041 310.9344Q344.2041 310.21564 343.71973 309.7469Q343.25098 309.2625 342.5166 309.2625Q342.21973 309.2625 341.7666 309.3875L341.8916 308.45Q342.00098 308.46564 342.06348 308.46564Q342.73535 308.46564 343.2666 308.1219Q343.81348 307.7625 343.81348 307.02814Q343.81348 306.45 343.42285 306.075Q343.03223 305.6844 342.40723 305.6844Q341.79785 305.6844 341.37598 306.075Q340.96973 306.46564 340.86035 307.23126L339.79785 307.04376Q339.98535 305.9969 340.67285 305.41876Q341.36035 304.825 342.37598 304.825Q343.0791 304.825 343.67285 305.1375Q344.2666 305.4344 344.5791 305.95Q344.8916 306.46564 344.8916 307.0594Q344.8916 307.60626 344.59473 308.075Q344.29785 308.52814 343.71973 308.79376Q344.46973 308.96564 344.8916 309.52814Q345.31348 310.075 345.31348 310.91876Q345.31348 312.04376 344.48535 312.825Q343.67285 313.60626 342.42285 313.60626Q341.29785 313.60626 340.54785 312.9344Q339.79785 312.2469 339.68848 311.1844Z" fill-rule="nonzero"/><path fill="#000000" d="M376.4404 313.45L376.4404 311.3875L372.72165 311.3875L372.72165 310.41876L376.64352 304.85626L377.5029 304.85626L377.5029 310.41876L378.65915 310.41876L378.65915 311.3875L377.5029 311.3875L377.5029 313.45L376.4404 313.45ZM376.4404 310.41876L376.4404 306.5594L373.7529 310.41876L376.4404 310.41876ZM383.4404 313.45L383.4404 311.3875L379.72165 311.3875L379.72165 310.41876L383.64352 304.85626L384.5029 304.85626L384.5029 310.41876L385.65915 310.41876L385.65915 311.3875L384.5029 311.3875L384.5029 313.45L383.4404 313.45ZM383.4404 310.41876L383.4404 306.5594L380.7529 310.41876L383.4404 310.41876Z" fill-rule="nonzero"/><path fill="#000000" d="M416.81732 313.45L416.81732 311.3875L413.09857 311.3875L413.09857 310.41876L417.02045 304.85626L417.87982 304.85626L417.87982 310.41876L419.03607 310.41876L419.03607 311.3875L417.87982 311.3875L417.87982 313.45L416.81732 313.45ZM416.81732 310.41876L416.81732 306.5594L414.12982 310.41876L416.81732 310.41876ZM420.44232 311.2L421.5517 311.10626Q421.6767 311.91876 422.1142 312.325Q422.56732 312.73126 423.20795 312.73126Q423.95795 312.73126 424.4892 312.15314Q425.02045 311.575 425.02045 310.6375Q425.02045 309.73126 424.50482 309.21564Q424.00482 308.6844 423.1767 308.6844Q422.6767 308.6844 422.25482 308.91876Q421.84857 309.15314 421.6142 309.5125L420.62982 309.3875L421.45795 304.98126L425.7392 304.98126L425.7392 305.98126L422.3017 305.98126L421.84857 308.29376Q422.6142 307.7469 423.45795 307.7469Q424.58295 307.7469 425.34857 308.52814Q426.12982 309.3094 426.12982 310.54376Q426.12982 311.7 425.45795 312.5594Q424.62982 313.59064 423.20795 313.59064Q422.03607 313.59064 421.28607 312.9344Q420.5517 312.27814 420.44232 311.2Z" fill-rule="nonzero"/><path fill="#000000" d="M457.19424 313.45L457.19424 311.3875L453.4755 311.3875L453.4755 310.41876L457.39737 304.85626L458.25674 304.85626L458.25674 310.41876L459.413 310.41876L459.413 311.3875L458.25674 311.3875L458.25674 313.45L457.19424 313.45ZM457.19424 310.41876L457.19424 306.5594L454.50674 310.41876L457.19424 310.41876ZM466.288 306.96564L465.24112 307.04376Q465.1005 306.41876 464.8505 306.1375Q464.413 305.6844 463.788 305.6844Q463.288 305.6844 462.89737 305.96564Q462.413 306.34064 462.11612 307.04376Q461.83487 307.73126 461.81924 309.0125Q462.19424 308.4344 462.74112 308.15314Q463.30362 307.8719 463.913 307.8719Q464.95987 307.8719 465.69424 308.65314Q466.44424 309.4344 466.44424 310.65314Q466.44424 311.46564 466.08487 312.16876Q465.74112 312.85626 465.13174 313.23126Q464.52237 313.59064 463.75674 313.59064Q462.42862 313.59064 461.6005 312.6219Q460.77237 311.65314 460.77237 309.4344Q460.77237 306.9344 461.69424 305.8094Q462.49112 304.825 463.8505 304.825Q464.86612 304.825 465.50674 305.40314Q466.163 305.96564 466.288 306.96564ZM461.99112 310.66876Q461.99112 311.21564 462.20987 311.71564Q462.44424 312.2 462.8505 312.46564Q463.27237 312.73126 463.74112 312.73126Q464.39737 312.73126 464.88174 312.2Q465.36612 311.65314 465.36612 310.73126Q465.36612 309.84064 464.88174 309.325Q464.413 308.8094 463.69424 308.8094Q462.9755 308.8094 462.4755 309.325Q461.99112 309.84064 461.99112 310.66876Z" fill-rule="nonzero"/><path fill="#000000" d="M497.57117 313.45L497.57117 311.3875L493.85242 311.3875L493.85242 310.41876L497.7743 304.85626L498.63367 304.85626L498.63367 310.41876L499.78992 310.41876L499.78992 311.3875L498.63367 311.3875L498.63367 313.45L497.57117 313.45ZM497.57117 310.41876L497.57117 306.5594L494.88367 310.41876L497.57117 310.41876ZM501.25867 305.98126L501.25867 304.96564L506.82117 304.96564L506.82117 305.79376Q506.00867 306.66876 505.19617 308.1219Q504.3993 309.5594 503.9618 311.09064Q503.63367 312.16876 503.55554 313.45L502.4618 313.45Q502.47742 312.4344 502.85242 310.9969Q503.24304 309.5594 503.94617 308.23126Q504.66492 306.90314 505.47742 305.98126L501.25867 305.98126Z" fill-rule="nonzero"/><path fill="#000000" d="M537.94806 313.45L537.94806 311.3875L534.2293 311.3875L534.2293 310.41876L538.1512 304.85626L539.01056 304.85626L539.01056 310.41876L540.1668 310.41876L540.1668 311.3875L539.01056 311.3875L539.01056 313.45L537.94806 313.45ZM537.94806 310.41876L537.94806 306.5594L535.26056 310.41876L537.94806 310.41876ZM543.19806 308.79376Q542.5418 308.54376 542.2137 308.10626Q541.9012 307.65314 541.9012 307.04376Q541.9012 306.10626 542.57306 305.46564Q543.26056 304.825 544.36993 304.825Q545.49493 304.825 546.18243 305.48126Q546.86993 306.1375 546.86993 307.075Q546.86993 307.66876 546.55743 308.10626Q546.24493 308.54376 545.6043 308.79376Q546.4012 309.04376 546.80743 309.6219Q547.2137 310.2 547.2137 310.9969Q547.2137 312.09064 546.43243 312.84064Q545.6668 313.59064 544.38556 313.59064Q543.11993 313.59064 542.3387 312.84064Q541.55743 312.09064 541.55743 310.96564Q541.55743 310.1219 541.9793 309.5594Q542.4168 308.9969 543.19806 308.79376ZM542.9793 306.9969Q542.9793 307.60626 543.36993 307.9969Q543.7762 308.3875 544.4012 308.3875Q545.01056 308.3875 545.4012 308.0125Q545.7918 307.6219 545.7918 307.0594Q545.7918 306.48126 545.38556 306.09064Q544.9793 305.6844 544.38556 305.6844Q543.7762 305.6844 543.36993 306.075Q542.9793 306.46564 542.9793 306.9969ZM542.6512 310.96564Q542.6512 311.41876 542.8543 311.84064Q543.07306 312.2625 543.49493 312.4969Q543.9168 312.73126 544.4012 312.73126Q545.1512 312.73126 545.63556 312.2469Q546.13556 311.7625 546.13556 311.0125Q546.13556 310.2469 545.63556 309.7469Q545.13556 309.2469 544.36993 309.2469Q543.61993 309.2469 543.13556 309.7469Q542.6512 310.23126 542.6512 310.96564Z" fill-rule="nonzero"/><path fill="#000000" d="M578.325 313.45L578.325 311.3875L574.60626 311.3875L574.60626 310.41876L578.52814 304.85626L579.3875 304.85626L579.3875 310.41876L580.54376 310.41876L580.54376 311.3875L579.3875 311.3875L579.3875 313.45L578.325 313.45ZM578.325 310.41876L578.325 306.5594L575.6375 310.41876L578.325 310.41876ZM582.10626 311.46564L583.1219 311.3719Q583.2469 312.09064 583.60626 312.41876Q583.98126 312.73126 584.54376 312.73126Q585.02814 312.73126 585.3875 312.5125Q585.7625 312.27814 585.9969 311.91876Q586.23126 311.54376 586.3875 310.91876Q586.54376 310.27814 586.54376 309.6219Q586.54376 309.54376 586.54376 309.40314Q586.23126 309.90314 585.6844 310.23126Q585.1375 310.54376 584.4969 310.54376Q583.41876 310.54376 582.6844 309.77814Q581.95 308.9969 581.95 307.73126Q581.95 306.41876 582.71564 305.6219Q583.4969 304.825 584.65314 304.825Q585.48126 304.825 586.16876 305.27814Q586.8719 305.73126 587.23126 306.575Q587.59064 307.40314 587.59064 308.98126Q587.59064 310.6219 587.23126 311.60626Q586.8875 312.575 586.16876 313.09064Q585.46564 313.59064 584.52814 313.59064Q583.5125 313.59064 582.8719 313.04376Q582.23126 312.48126 582.10626 311.46564ZM586.41876 307.66876Q586.41876 306.7625 585.9344 306.23126Q585.46564 305.7 584.77814 305.7Q584.075 305.7 583.54376 306.27814Q583.02814 306.84064 583.02814 307.7625Q583.02814 308.575 583.52814 309.09064Q584.02814 309.60626 584.7469 309.60626Q585.48126 309.60626 585.95 309.09064Q586.41876 308.575 586.41876 307.66876Z" fill-rule="nonzero"/><path fill="#d64e20" d="M265.0 65.916664C265.0 69.23038 262.31372 71.916664 259.0 71.916664C255.6863 71.916664 253.0 69.23038 253.0 65.916664C253.0 62.60296 255.6863 59.916668 259.0 59.916668C262.31372 59.916668 265.0 62.60296 265.0 65.916664Z" fill-rule="nonzero"/><path fill="#1a1a1a" d="M273.79688 69.916664L273.79688 63.697914L274.73438 63.697914L274.73438 64.572914Q275.03125 64.104164 275.51562 63.83854Q276.0 63.55729 276.625 63.55729Q277.3125 63.55729 277.75 63.83854Q278.20312 64.11979 278.375 64.635414Q279.125 63.55729 280.29688 63.55729Q281.23438 63.55729 281.71875 64.072914Q282.21875 64.572914 282.21875 65.65104L282.21875 69.916664L281.17188 69.916664L281.17188 65.99479Q281.17188 65.36979 281.0625 65.08854Q280.96875 64.80729 280.70312 64.635414Q280.4375 64.46354 280.0625 64.46354Q279.40625 64.46354 278.96875 64.90104Q278.54688 65.33854 278.54688 66.30729L278.54688 69.916664L277.48438 69.916664L277.48438 65.86979Q277.48438 65.166664 277.21875 64.822914Q276.96875 64.46354 276.39062 64.46354Q275.9375 64.46354 275.5625 64.697914Q275.1875 64.93229 275.01562 65.385414Q274.84375 65.83854 274.84375 66.68229L274.84375 69.916664L273.79688 69.916664ZM288.85938 69.15104Q288.26562 69.65104 287.71875 69.854164Q287.1875 70.05729 286.5625 70.05729Q285.53125 70.05729 284.98438 69.55729Q284.4375 69.05729 284.4375 68.27604Q284.4375 67.822914 284.64062 67.447914Q284.84375 67.05729 285.1875 66.83854Q285.53125 66.604164 285.95312 66.49479Q286.25 66.40104 286.89062 66.322914Q288.15625 66.18229 288.76562 65.96354Q288.76562 65.74479 288.76562 65.697914Q288.76562 65.041664 288.46875 64.77604Q288.0625 64.43229 287.26562 64.43229Q286.53125 64.43229 286.17188 64.697914Q285.8125 64.947914 285.64062 65.604164L284.60938 65.46354Q284.75 64.80729 285.07812 64.40104Q285.40625 63.99479 286.01562 63.77604Q286.625 63.55729 287.42188 63.55729Q288.21875 63.55729 288.71875 63.74479Q289.21875 63.93229 289.45312 64.21354Q289.6875 64.49479 289.78125 64.93229Q289.82812 65.197914 289.82812 65.90104L289.82812 67.30729Q289.82812 68.77604 289.89062 69.166664Q289.96875 69.55729 290.17188 69.916664L289.0625 69.916664Q288.90625 69.58854 288.85938 69.15104ZM288.76562 66.791664Q288.1875 67.02604 287.04688 67.197914Q286.39062 67.291664 286.125 67.416664Q285.85938 67.52604 285.70312 67.74479Q285.5625 67.96354 285.5625 68.24479Q285.5625 68.666664 285.875 68.947914Q286.20312 69.229164 286.8125 69.229164Q287.42188 69.229164 287.89062 68.96354Q288.375 68.697914 288.59375 68.229164Q288.76562 67.86979 288.76562 67.18229L288.76562 66.791664ZM294.09375 68.979164L294.25 69.90104Q293.79688 69.99479 293.45312 69.99479Q292.875 69.99479 292.5625 69.822914Q292.25 69.635414 292.10938 69.33854Q291.98438 69.041664 291.98438 68.08854L291.98438 64.510414L291.21875 64.510414L291.21875 63.697914L291.98438 63.697914L291.98438 62.15104L293.03125 61.52604L293.03125 63.697914L294.09375 63.697914L294.09375 64.510414L293.03125 64.510414L293.03125 68.15104Q293.03125 68.604164 293.07812 68.729164Q293.14062 68.854164 293.26562 68.93229Q293.39062 69.010414 293.625 69.010414Q293.8125 69.010414 294.09375 68.979164Z" fill-rule="nonzero"/><path fill="#efc649" d="M310.0 60.916668C310.0 60.364384 310.44772 59.916668 311.0 59.916668L321.0 59.916668C321.55228 59.916668 322.0 60.364384 322.0 60.916668L322.0 70.916664C322.0 71.46895 321.55228 71.916664 321.0 71.916664L311.0 71.916664C310.44772 71.916664 310.0 71.46895 310.0 70.916664Z" fill-rule="nonzero"/><path fill="#1a1a1a" d="M330.79688 72.30729L330.79688 63.697914L331.75 63.697914L331.75 64.49479Q332.09375 64.02604 332.51562 63.791664Q332.95312 63.55729 333.5625 63.55729Q334.35938 63.55729 334.96875 63.96354Q335.57812 64.36979 335.875 65.11979Q336.1875 65.86979 336.1875 66.760414Q336.1875 67.71354 335.84375 68.479164Q335.51562 69.24479 334.85938 69.65104Q334.20312 70.05729 333.48438 70.05729Q332.95312 70.05729 332.53125 69.83854Q332.10938 69.604164 331.84375 69.27604L331.84375 72.30729L330.79688 72.30729ZM331.75 66.83854Q331.75 68.041664 332.23438 68.61979Q332.71875 69.18229 333.40625 69.18229Q334.10938 69.18229 334.60938 68.58854Q335.10938 67.99479 335.10938 66.74479Q335.10938 65.55729 334.625 64.979164Q334.14062 64.385414 333.45312 64.385414Q332.78125 64.385414 332.26562 65.010414Q331.75 65.635414 331.75 66.83854ZM341.85938 69.15104Q341.26562 69.65104 340.71875 69.854164Q340.1875 70.05729 339.5625 70.05729Q338.53125 70.05729 337.98438 69.55729Q337.4375 69.05729 337.4375 68.27604Q337.4375 67.822914 337.64062 67.447914Q337.84375 67.05729 338.1875 66.83854Q338.53125 66.604164 338.95312 66.49479Q339.25 66.40104 339.89062 66.322914Q341.15625 66.18229 341.76562 65.96354Q341.76562 65.74479 341.76562 65.697914Q341.76562 65.041664 341.46875 64.77604Q341.0625 64.43229 340.26562 64.43229Q339.53125 64.43229 339.17188 64.697914Q338.8125 64.947914 338.64062 65.604164L337.60938 65.46354Q337.75 64.80729 338.07812 64.40104Q338.40625 63.99479 339.01562 63.77604Q339.625 63.55729 340.42188 63.55729Q341.21875 63.55729 341.71875 63.74479Q342.21875 63.93229 342.45312 64.21354Q342.6875 64.49479 342.78125 64.93229Q342.82812 65.197914 342.82812 65.90104L342.82812 67.30729Q342.82812 68.77604 342.89062 69.166664Q342.96875 69.55729 343.17188 69.916664L342.0625 69.916664Q341.90625 69.58854 341.85938 69.15104ZM341.76562 66.791664Q341.1875 67.02604 340.04688 67.197914Q339.39062 67.291664 339.125 67.416664Q338.85938 67.52604 338.70312 67.74479Q338.5625 67.96354 338.5625 68.24479Q338.5625 68.666664 338.875 68.947914Q339.20312 69.229164 339.8125 69.229164Q340.42188 69.229164 340.89062 68.96354Q341.375 68.697914 341.59375 68.229164Q341.76562 67.86979 341.76562 67.18229L341.76562 66.791664ZM347.09375 68.979164L347.25 69.90104Q346.79688 69.99479 346.45312 69.99479Q345.875 69.99479 345.5625 69.822914Q345.25 69.635414 345.10938 69.33854Q344.98438 69.041664 344.98438 68.08854L344.98438 64.510414L344.21875 64.510414L344.21875 63.697914L344.98438 63.697914L344.98438 62.15104L346.03125 61.52604L346.03125 63.697914L347.09375 63.697914L347.09375 64.510414L346.03125 64.510414L346.03125 68.15104Q346.03125 68.604164 346.07812 68.729164Q346.14062 68.854164 346.26562 68.93229Q346.39062 69.010414 346.625 69.010414Q346.8125 69.010414 347.09375 68.979164Z" fill-rule="nonzero"/><path fill="#757575" d="M22.58125 34.815624Q22.315624 34.815624 21.39375 34.690624Q21.315624 36.159374 21.315624 39.8625Q21.315624 40.253124 21.05 40.51875Q20.8 40.784374 20.425 40.784374Q20.034374 40.784374 19.784374 40.51875Q19.534374 40.253124 19.534374 39.8625L19.534374 36.9875Q19.534374 35.55 19.70625 32.940624Q19.89375 30.1125 19.925 28.89375L19.925 27.55Q19.925 26.58125 20.034374 26.14375Q20.253124 25.284374 20.9875 25.409374Q21.3 25.3 21.878124 25.253124Q22.45625 25.20625 23.3 25.20625Q25.08125 25.20625 26.64375 26.425Q28.3625 27.76875 28.3625 29.675Q28.3625 32.096874 26.534374 33.534374Q24.89375 34.815624 22.58125 34.815624ZM23.065624 27.065624Q22.64375 27.065624 22.3 27.08125Q21.971874 27.096874 21.7375 27.14375L21.721874 28.940624L21.503124 32.83125L22.58125 32.95625Q24.221874 32.95625 25.346874 32.128124Q26.58125 31.20625 26.58125 29.675Q26.58125 28.58125 25.409374 27.784374Q24.315624 27.065624 23.065624 27.065624ZM37.534374 41.190624Q37.346874 41.190624 36.8625 40.76875Q36.425 40.3625 36.20625 40.05Q35.26875 40.565624 34.55 40.815624Q33.846874 41.08125 33.3625 41.08125Q31.08125 41.08125 30.034374 39.784374Q29.05 38.58125 29.05 36.08125Q29.05 33.70625 30.675 32.034374Q32.3 30.346874 34.55 30.346874Q35.409374 30.346874 36.45625 30.8Q37.784374 31.346874 37.784374 32.1125Q37.784374 32.378124 37.596874 32.58125Q37.503124 32.95625 37.440624 33.8Q37.39375 34.64375 37.378124 35.971874Q37.3625 37.190624 37.55 37.89375Q37.64375 38.315624 38.159374 39.6125Q38.221874 39.784374 38.378124 40.128124L38.440624 40.3Q38.440624 40.690624 38.159374 40.940624Q37.89375 41.190624 37.534374 41.190624ZM35.503124 34.409374Q35.503124 33.9875 35.55 33.503124Q35.6125 33.003124 35.721874 32.440624Q35.3625 32.253124 35.096874 32.175Q34.846874 32.08125 34.690624 32.08125Q33.175 32.08125 32.065624 33.315624Q30.971874 34.55 30.971874 36.159374Q30.971874 37.76875 31.534374 38.565624Q32.1125 39.3625 33.2375 39.3625Q34.175 39.3625 34.83125 39.01875Q35.175 38.846874 35.815624 38.284374Q35.503124 35.690624 35.503124 34.409374ZM46.440624 32.221874Q46.2375 32.221874 45.95625 32.20625Q45.675 32.190624 45.471874 32.190624Q45.253124 32.190624 44.14375 32.33125L44.33125 38.1125L44.346874 38.534374L44.346874 39.034374Q44.39375 41.175 43.33125 41.175Q42.940624 41.175 42.64375 40.925Q42.3625 40.675 42.3625 40.284374Q42.3625 39.909374 42.39375 39.175Q42.425 38.425 42.425 38.065624L42.221874 32.3625Q41.503124 32.33125 40.05 32.190624Q39.190624 32.065624 39.190624 31.221874Q39.190624 30.8 39.440624 30.51875Q39.70625 30.221874 40.128124 30.221874L42.175 30.39375Q42.175 29.89375 42.128124 29.065624Q42.08125 28.221874 42.08125 27.846874Q42.08125 27.440624 42.3625 27.175Q42.659374 26.909374 43.065624 26.909374Q43.940624 26.909374 44.08125 28.346874Q44.1125 28.70625 44.1125 29.20625L44.096874 29.784374L44.08125 30.378124Q45.3 30.221874 45.471874 30.221874Q46.4875 30.221874 46.8 30.33125Q47.39375 30.51875 47.39375 31.2375Q47.39375 31.675 47.128124 31.95625Q46.8625 32.221874 46.440624 32.221874ZM58.409374 40.034374Q58.378124 40.940624 57.51875 40.940624Q56.815624 40.940624 56.4875 40.096874L54.9875 36.128124L53.253124 31.659374Q53.159374 31.39375 53.159374 31.20625Q53.159374 30.8 53.45625 30.51875Q53.76875 30.2375 54.159374 30.2375Q54.753124 30.2375 55.003124 30.83125L57.4875 37.659374Q58.221874 36.096874 59.33125 33.128124Q59.596874 32.346874 60.159374 30.925Q60.45625 30.3 61.01875 30.3Q61.425 30.3 61.721874 30.58125Q62.01875 30.8625 62.01875 31.253124Q62.01875 31.628124 60.409374 35.425L58.409374 40.034374ZM70.50313 33.034374Q69.95625 33.034374 69.75313 32.675Q69.59688 32.409374 69.4875 31.6125Q68.76875 31.8 67.2375 32.3Q65.65938 32.925 65.65938 33.846874Q65.95625 33.940624 66.2375 34.003124Q68.47188 34.39375 69.56563 35.096874Q71.15938 36.128124 71.15938 38.065624Q71.15938 39.659374 69.78438 40.471874Q68.64375 41.14375 66.89375 41.14375Q65.6125 41.14375 64.45625 40.70625Q62.95625 40.159374 62.95625 39.175Q62.95625 38.784374 63.253124 38.503124Q63.565624 38.20625 63.95625 38.20625Q64.25313 38.20625 64.7375 38.675Q64.97188 38.89375 65.8 39.05Q66.44063 39.159374 66.89375 39.159374Q67.72188 39.159374 68.34688 38.971874Q69.25313 38.690624 69.25313 38.065624Q69.25313 36.7375 67.39375 36.26875L66.37813 36.05Q65.08125 35.76875 64.53438 35.378124Q63.7375 34.83125 63.7375 33.7375Q63.7375 31.690624 65.65938 30.815624Q66.25313 30.565624 67.53438 30.20625Q68.83125 29.83125 69.39375 29.565624Q69.78438 29.39375 70.25313 29.39375Q70.675 29.39375 70.94063 29.675Q71.20625 29.940624 71.20625 30.378124Q71.20625 30.659374 71.33125 31.20625Q71.45625 31.753124 71.45625 32.05Q71.45625 32.4875 71.19063 32.76875Q70.925 33.034374 70.50313 33.034374ZM75.15938 41.45625Q74.64375 41.45625 74.28438 41.096874Q73.94063 40.753124 73.94063 40.253124Q73.94063 39.753124 74.28438 39.39375Q74.64375 39.034374 75.15938 39.034374Q75.65938 39.034374 76.00313 39.39375Q76.3625 39.753124 76.3625 40.253124Q76.3625 40.753124 76.00313 41.096874Q75.65938 41.45625 75.15938 41.45625ZM98.425 41.3625Q97.89375 41.3625 97.55 40.815624Q97.25313 40.346874 97.01875 39.253124L96.675 37.565624Q96.26875 36.003124 95.40938 30.675L93.45625 36.565624L92.87813 38.425Q92.51875 39.51875 92.14375 40.221874Q91.7375 40.971874 91.03438 40.971874Q90.45625 40.971874 90.12813 40.346874Q89.90938 39.940624 89.7375 39.3L89.45625 38.221874Q88.47188 34.76875 87.72188 30.83125L87.3625 32.58125L86.1125 37.7375Q86.03438 38.64375 85.6125 40.425Q85.33125 41.190624 84.64375 41.190624Q84.175 41.190624 83.89375 40.846874Q83.64375 40.55 83.64375 40.1125Q83.64375 38.4875 84.31563 36.1125L85.39375 32.175L85.95625 29.096874Q86.39375 26.940624 86.8625 26.284374Q87.25313 25.721874 87.83125 25.721874Q88.47188 25.721874 88.78438 26.440624Q89.15938 27.3 89.59688 29.9875Q90.1125 33.190624 91.20625 36.940624Q92.65938 33.175 93.70625 29.096874L94.00313 27.675Q94.175 26.815624 94.47188 26.284374Q94.84688 25.565624 95.50313 25.565624Q96.34688 25.565624 96.78438 27.190624Q96.94063 27.753124 97.175 29.4875Q97.75313 33.909374 98.6125 37.034374L99.08125 38.70625Q99.45625 40.065624 99.45625 40.378124Q99.45625 40.8 99.12813 41.08125Q98.81563 41.3625 98.425 41.3625ZM109.53438 41.190624Q109.34688 41.190624 108.8625 40.76875Q108.425 40.3625 108.20625 40.05Q107.26875 40.565624 106.55 40.815624Q105.84688 41.08125 105.3625 41.08125Q103.08125 41.08125 102.03438 39.784374Q101.05 38.58125 101.05 36.08125Q101.05 33.70625 102.675 32.034374Q104.3 30.346874 106.55 30.346874Q107.40938 30.346874 108.45625 30.8Q109.78438 31.346874 109.78438 32.1125Q109.78438 32.378124 109.59688 32.58125Q109.50313 32.95625 109.44063 33.8Q109.39375 34.64375 109.37813 35.971874Q109.3625 37.190624 109.55 37.89375Q109.64375 38.315624 110.15938 39.6125Q110.22188 39.784374 110.37813 40.128124L110.44063 40.3Q110.44063 40.690624 110.15938 40.940624Q109.89375 41.190624 109.53438 41.190624ZM107.50313 34.409374Q107.50313 33.9875 107.55 33.503124Q107.6125 33.003124 107.72188 32.440624Q107.3625 32.253124 107.09688 32.175Q106.84688 32.08125 106.69063 32.08125Q105.175 32.08125 104.06563 33.315624Q102.97188 34.55 102.97188 36.159374Q102.97188 37.76875 103.53438 38.565624Q104.1125 39.3625 105.2375 39.3625Q106.175 39.3625 106.83125 39.01875Q107.175 38.846874 107.81563 38.284374Q107.50313 35.690624 107.50313 34.409374ZM118.44063 32.221874Q118.2375 32.221874 117.95625 32.20625Q117.675 32.190624 117.47188 32.190624Q117.25313 32.190624 116.14375 32.33125L116.33125 38.1125L116.34688 38.534374L116.34688 39.034374Q116.39375 41.175 115.33125 41.175Q114.94063 41.175 114.64375 40.925Q114.3625 40.675 114.3625 40.284374Q114.3625 39.909374 114.39375 39.175Q114.425 38.425 114.425 38.065624L114.22188 32.3625Q113.50313 32.33125 112.05 32.190624Q111.19063 32.065624 111.19063 31.221874Q111.19063 30.8 111.44063 30.51875Q111.70625 30.221874 112.12813 30.221874L114.175 30.39375Q114.175 29.89375 114.12813 29.065624Q114.08125 28.221874 114.08125 27.846874Q114.08125 27.440624 114.3625 27.175Q114.65938 26.909374 115.06563 26.909374Q115.94063 26.909374 116.08125 28.346874Q116.1125 28.70625 116.1125 29.20625L116.09688 29.784374L116.08125 30.378124Q117.3 30.221874 117.47188 30.221874Q118.4875 30.221874 118.8 30.33125Q119.39375 30.51875 119.39375 31.2375Q119.39375 31.675 119.12813 31.95625Q118.8625 32.221874 118.44063 32.221874ZM131.34688 25.76875Q131.34688 26.1125 130.7375 26.76875Q130.3 27.221874 129.84688 27.675Q128.76875 28.89375 128.15938 31.190624Q127.6125 33.175 127.6125 35.096874Q127.6125 40.065624 129.8625 42.378124Q130.31563 42.721874 130.76875 43.08125Q131.33125 43.534374 131.33125 43.971874Q131.33125 44.284374 131.08125 44.51875Q130.83125 44.76875 130.50313 44.76875Q130.20625 44.76875 129.8 44.55Q125.65938 42.2375 125.65938 34.878124Q125.65938 32.221874 126.72188 29.51875Q127.925 26.503124 129.84688 25.14375Q130.2375 24.8625 130.47188 24.8625Q130.81563 24.8625 131.08125 25.14375Q131.34688 25.425 131.34688 25.76875ZM138.425 40.565624L136.4875 40.565624L134.55 40.55Q133.8625 40.55 133.59688 40.45625Q133.09688 40.284374 133.09688 39.721874Q133.09688 38.7375 134.62813 38.7375L135.09688 38.7375L135.50313 38.76875Q135.50313 38.3 135.40938 37.378124Q135.33125 36.45625 135.33125 36.003124Q135.33125 34.753124 135.55 32.221874Q135.76875 29.7375 135.75313 28.45625Q134.45625 29.471874 134.09688 29.471874Q133.70625 29.471874 133.40938 29.175Q133.12813 28.878124 133.12813 28.503124Q133.12813 28.034374 133.95625 27.378124Q134.4875 27.01875 135.45625 26.190624Q136.31563 25.33125 137.09688 25.33125Q137.75313 25.33125 137.75313 26.08125Q137.75313 26.3 137.69063 26.753124Q137.62813 27.190624 137.62813 27.409374Q137.62813 27.7375 137.65938 28.39375Q137.70625 29.05 137.70625 29.3625Q137.70625 30.4875 137.47188 32.690624Q137.2375 34.89375 137.2375 36.003124Q137.2375 36.565624 137.31563 37.378124Q137.39375 38.190624 137.39375 38.70625L138.425 38.690624Q138.83125 38.690624 139.09688 38.95625Q139.37813 39.221874 139.37813 39.628124Q139.37813 40.034374 139.09688 40.3Q138.83125 40.565624 138.425 40.565624ZM148.20625 39.3625Q147.4875 39.89375 145.925 40.64375Q144.175 41.471874 143.4875 41.471874Q143.09688 41.471874 142.83125 41.175Q142.56563 40.89375 142.56563 40.503124Q142.56563 39.925 143.2375 39.628124L144.8625 39.08125Q146.37813 38.45625 147.25313 37.659374Q148.14375 36.8625 148.8625 35.378124L149.28438 34.55Q148.7375 34.8625 147.87813 35.128124Q147.01875 35.378124 146.47188 35.378124Q144.62813 35.378124 143.28438 34.3625Q141.64375 33.1125 141.64375 30.8Q141.64375 28.08125 143.33125 26.70625Q144.75313 25.55 147.09688 25.55Q148.89375 25.55 150.31563 27.01875Q151.81563 28.565624 151.83125 30.76875Q151.84688 33.2375 150.90938 35.58125Q149.90938 38.096874 148.20625 39.3625ZM146.81563 27.221874Q145.175 27.221874 144.34688 28.08125Q143.53438 28.925 143.51875 30.628124Q143.51875 32.065624 144.51875 32.846874Q145.40938 33.55 146.76875 33.55Q147.55 33.55 148.39375 33.08125Q148.78438 32.8625 149.8 32.1125Q149.925 31.26875 149.925 30.76875Q149.90938 29.55 148.89375 28.39375Q147.87813 27.221874 146.81563 27.221874ZM160.20625 39.3625Q159.4875 39.89375 157.925 40.64375Q156.175 41.471874 155.4875 41.471874Q155.09688 41.471874 154.83125 41.175Q154.56563 40.89375 154.56563 40.503124Q154.56563 39.925 155.2375 39.628124L156.8625 39.08125Q158.37813 38.45625 159.25313 37.659374Q160.14375 36.8625 160.8625 35.378124L161.28438 34.55Q160.7375 34.8625 159.87813 35.128124Q159.01875 35.378124 158.47188 35.378124Q156.62813 35.378124 155.28438 34.3625Q153.64375 33.1125 153.64375 30.8Q153.64375 28.08125 155.33125 26.70625Q156.75313 25.55 159.09688 25.55Q160.89375 25.55 162.31563 27.01875Q163.81563 28.565624 163.83125 30.76875Q163.84688 33.2375 162.90938 35.58125Q161.90938 38.096874 160.20625 39.3625ZM158.81563 27.221874Q157.175 27.221874 156.34688 28.08125Q155.53438 28.925 155.51875 30.628124Q155.51875 32.065624 156.51875 32.846874Q157.40938 33.55 158.76875 33.55Q159.55 33.55 160.39375 33.08125Q160.78438 32.8625 161.8 32.1125Q161.925 31.26875 161.925 30.76875Q161.90938 29.55 160.89375 28.39375Q159.87813 27.221874 158.81563 27.221874ZM174.39375 40.565624Q174.14375 40.565624 173.70625 40.425Q173.26875 40.26875 173.03438 40.26875Q172.53438 40.26875 171.53438 40.33125Q170.53438 40.378124 170.03438 40.378124Q169.64375 40.378124 168.89375 40.4875Q168.15938 40.58125 167.76875 40.58125Q167.65938 40.58125 167.45625 40.55Q167.25313 40.503124 167.14375 40.503124Q166.47188 40.503124 166.26875 39.846874Q166.15938 39.503124 166.15938 38.675Q166.15938 36.39375 167.39375 35.01875Q167.95625 34.378124 170.45625 32.675Q171.84688 31.70625 172.31563 31.175Q173.15938 30.2375 173.15938 28.971874Q173.15938 28.346874 172.34688 27.8625Q171.62813 27.425 170.94063 27.425Q170.05 27.425 169.2375 27.940624L167.84688 29.034374Q167.425 29.3625 167.175 29.3625Q166.15938 29.3625 166.15938 28.565624Q166.15938 28.1125 166.53438 27.76875Q167.675 26.70625 168.51875 26.221874Q169.69063 25.55 170.94063 25.55Q172.53438 25.55 173.76875 26.409374Q175.15938 27.378124 175.15938 28.89375Q175.15938 29.878124 174.87813 30.721874Q174.59688 31.565624 174.01875 32.253124Q173.28438 33.14375 171.53438 34.221874Q169.69063 35.378124 169.12813 35.971874Q168.03438 37.096874 168.05 38.690624L170.06563 38.503124Q172.14375 38.39375 173.03438 38.39375Q173.76875 38.39375 174.44063 38.64375Q175.31563 38.9875 175.31563 39.596874Q175.31563 39.971874 175.05 40.26875Q174.78438 40.565624 174.39375 40.565624ZM180.425 33.14375Q180.97188 33.14375 182.05 33.221874Q183.12813 33.3 183.675 33.3Q184.09688 33.3 184.3625 33.58125Q184.64375 33.846874 184.64375 34.26875Q184.64375 34.690624 184.3625 34.971874Q184.09688 35.2375 183.675 35.2375Q183.12813 35.2375 182.05 35.159374Q180.97188 35.08125 180.425 35.08125Q179.14375 35.08125 178.1125 35.221874Q178.01875 35.2375 177.94063 35.2375Q177.53438 35.2375 177.25313 34.971874Q176.9875 34.690624 176.9875 34.253124Q176.9875 33.4875 177.78438 33.315624Q178.58125 33.14375 180.425 33.14375ZM192.425 40.565624L190.4875 40.565624L188.55 40.55Q187.8625 40.55 187.59688 40.45625Q187.09688 40.284374 187.09688 39.721874Q187.09688 38.7375 188.62813 38.7375L189.09688 38.7375L189.50313 38.76875Q189.50313 38.3 189.40938 37.378124Q189.33125 36.45625 189.33125 36.003124Q189.33125 34.753124 189.55 32.221874Q189.76875 29.7375 189.75313 28.45625Q188.45625 29.471874 188.09688 29.471874Q187.70625 29.471874 187.40938 29.175Q187.12813 28.878124 187.12813 28.503124Q187.12813 28.034374 187.95625 27.378124Q188.4875 27.01875 189.45625 26.190624Q190.31563 25.33125 191.09688 25.33125Q191.75313 25.33125 191.75313 26.08125Q191.75313 26.3 191.69063 26.753124Q191.62813 27.190624 191.62813 27.409374Q191.62813 27.7375 191.65938 28.39375Q191.70625 29.05 191.70625 29.3625Q191.70625 30.4875 191.47188 32.690624Q191.2375 34.89375 191.2375 36.003124Q191.2375 36.565624 191.31563 37.378124Q191.39375 38.190624 191.39375 38.70625L192.425 38.690624Q192.83125 38.690624 193.09688 38.95625Q193.37813 39.221874 193.37813 39.628124Q193.37813 40.034374 193.09688 40.3Q192.83125 40.565624 192.425 40.565624ZM202.20625 39.3625Q201.4875 39.89375 199.925 40.64375Q198.175 41.471874 197.4875 41.471874Q197.09688 41.471874 196.83125 41.175Q196.56563 40.89375 196.56563 40.503124Q196.56563 39.925 197.2375 39.628124L198.8625 39.08125Q200.37813 38.45625 201.25313 37.659374Q202.14375 36.8625 202.8625 35.378124L203.28438 34.55Q202.7375 34.8625 201.87813 35.128124Q201.01875 35.378124 200.47188 35.378124Q198.62813 35.378124 197.28438 34.3625Q195.64375 33.1125 195.64375 30.8Q195.64375 28.08125 197.33125 26.70625Q198.75313 25.55 201.09688 25.55Q202.89375 25.55 204.31563 27.01875Q205.81563 28.565624 205.83125 30.76875Q205.84688 33.2375 204.90938 35.58125Q203.90938 38.096874 202.20625 39.3625ZM200.81563 27.221874Q199.175 27.221874 198.34688 28.08125Q197.53438 28.925 197.51875 30.628124Q197.51875 32.065624 198.51875 32.846874Q199.40938 33.55 200.76875 33.55Q201.55 33.55 202.39375 33.08125Q202.78438 32.8625 203.8 32.1125Q203.925 31.26875 203.925 30.76875Q203.90938 29.55 202.89375 28.39375Q201.87813 27.221874 200.81563 27.221874ZM214.20625 39.3625Q213.4875 39.89375 211.925 40.64375Q210.175 41.471874 209.4875 41.471874Q209.09688 41.471874 208.83125 41.175Q208.56563 40.89375 208.56563 40.503124Q208.56563 39.925 209.2375 39.628124L210.8625 39.08125Q212.37813 38.45625 213.25313 37.659374Q214.14375 36.8625 214.8625 35.378124L215.28438 34.55Q214.7375 34.8625 213.87813 35.128124Q213.01875 35.378124 212.47188 35.378124Q210.62813 35.378124 209.28438 34.3625Q207.64375 33.1125 207.64375 30.8Q207.64375 28.08125 209.33125 26.70625Q210.75313 25.55 213.09688 25.55Q214.89375 25.55 216.31563 27.01875Q217.81563 28.565624 217.83125 30.76875Q217.84688 33.2375 216.90938 35.58125Q215.90938 38.096874 214.20625 39.3625ZM212.81563 27.221874Q211.175 27.221874 210.34688 28.08125Q209.53438 28.925 209.51875 30.628124Q209.51875 32.065624 210.51875 32.846874Q211.40938 33.55 212.76875 33.55Q213.55 33.55 214.39375 33.08125Q214.78438 32.8625 215.8 32.1125Q215.925 31.26875 215.925 30.76875Q215.90938 29.55 214.89375 28.39375Q213.87813 27.221874 212.81563 27.221874ZM224.37813 41.253124Q221.83125 41.253124 220.62813 39.39375Q219.62813 37.846874 219.62813 35.3Q219.62813 30.471874 223.55 26.925L224.47188 26.003124Q225.14375 25.346874 225.4875 25.346874Q225.87813 25.346874 226.15938 25.628124Q226.45625 25.909374 226.47188 26.284374Q226.4875 26.64375 225.47188 27.64375L223.4875 29.596874Q222.69063 30.39375 222.12813 32.01875Q222.97188 31.628124 223.59688 31.440624Q224.2375 31.2375 224.65938 31.2375Q226.94063 31.2375 228.15938 32.471874Q229.37813 33.690624 229.37813 35.909374Q229.37813 38.2375 228.06563 39.721874Q226.69063 41.253124 224.37813 41.253124ZM224.37813 33.2375Q223.53438 33.2375 222.87813 33.534374Q222.62813 33.64375 221.59688 34.284374Q221.53438 34.8 221.53438 35.3Q221.53438 37.05 222.12813 38.14375Q222.8625 39.55 224.44063 39.55Q225.90938 39.55 226.72188 38.503124Q227.47188 37.51875 227.47188 35.909374Q227.47188 34.565624 226.70625 33.909374Q225.94063 33.2375 224.37813 33.2375ZM237.34688 34.878124Q237.34688 42.2375 233.20625 44.55Q232.8 44.76875 232.51875 44.76875Q232.175 44.76875 231.925 44.51875Q231.675 44.284374 231.675 43.971874Q231.675 43.534374 232.2375 43.08125Q232.69063 42.721874 233.14375 42.378124Q235.39375 40.065624 235.39375 35.096874Q235.39375 33.175 234.8625 31.190624Q234.2375 28.89375 233.15938 27.675Q232.70625 27.221874 232.26875 26.76875Q231.65938 26.1125 231.65938 25.76875Q231.65938 25.425 231.90938 25.14375Q232.175 24.8625 232.53438 24.8625Q232.75313 24.8625 233.15938 25.14375Q235.09688 26.503124 236.28438 29.51875Q237.34688 32.221874 237.34688 34.878124Z" fill-rule="nonzero"/></svg>