<svg version="1.1" viewBox="0.0 0.0 600.0 371.0" fill="none" stroke="none" stroke-linecap="square" stroke-miterlimit="10" width="600" height="371" xmlns:xlink="http://www.w3.org/1999/xlink" xmlns="http://www.w3.org/2000/svg"><path fill="#ffffff" d="M0 0L600.0 0L600.0 371.0L0 371.0L0 0Z" fill-rule="nonzero"/><path stroke="#333333" stroke-width="1.0" stroke-linecap="butt" d="M56.5 296.5L581.5 296.5" fill-rule="nonzero"/><path stroke="#cccccc" stroke-width="1.0" stroke-linecap="butt" d="M56.5 245.5L581.5 245.5" fill-rule="nonzero"/><path stroke="#cccccc" stroke-width="1.0" stroke-linecap="butt" d="M56.5 194.5L581.5 194.5" fill-rule="nonzero"/><path stroke="#cccccc" stroke-width="1.0" stroke-linecap="butt" d="M56.5 143.5L581.5 143.5" fill-rule="nonzero"/><path stroke="#cccccc" stroke-width="1.0" stroke-linecap="butt" d="M56.5 92.5L581.5 92.5" fill-rule="nonzero"/><clipPath id="id_0"><path d="M56.55 92.28333L581.45 92.28333L581.45 296.45L56.55 296.45L56.55 92.28333Z" clip-rule="nonzero"/></clipPath><path fill="#efc649" clip-path="url(#id_0)" d="M56.55 160.33888L161.53 204.00293L266.51 195.89706L371.49 204.43817L476.47 235.5492L581.45 197.75583L581.45 296.45L476.47 296.45L371.49 296.45L266.51 296.45L161.53 296.45L56.55 296.45Z" fill-rule="nonzero"/><path fill="#d64e20" clip-path="url(#id_0)" d="M56.55 92.28333L161.53 92.28333L266.51 92.28333L371.49 92.28333L476.47 92.28333L581.45 92.28333L581.45 197.75583L476.47 235.5492L371.49 204.43817L266.51 195.89706L161.53 204.00293L56.55 160.33888Z" fill-rule="nonzero"/><path stroke="#efc649" stroke-width="2.0" stroke-linecap="butt" clip-path="url(#id_0)" d="M56.55 160.33888L161.53 204.00293L266.51 195.89706L371.49 204.43817L476.47 235.5492L581.45 197.75583" fill-rule="nonzero"/><path stroke="#d64e20" stroke-width="2.0" stroke-linecap="butt" clip-path="url(#id_0)" d="M56.55 92.28333L161.53 92.28333L266.51 92.28333L371.49 92.28333L476.47 92.28333L581.45 92.28333" fill-rule="nonzero"/><path fill="#000000" fill-opacity="0.0" clip-path="url(#id_0)" d="M59.55 160.33888C59.55 161.99574 58.206856 163.33888 56.55 163.33888C54.893147 163.33888 53.55 161.99574 53.55 160.33888C53.55 158.68204 54.893147 157.33888 56.55 157.33888C58.206856 157.33888 59.55 158.68204 59.55 160.33888Z" fill-rule="nonzero"/><path fill="#000000" fill-opacity="0.0" clip-path="url(#id_0)" d="M164.53 204.00293C164.53 205.65977 163.18686 207.00293 161.53 207.00293C159.87314 207.00293 158.53 205.65977 158.53 204.00293C158.53 202.34607 159.87314 201.00293 161.53 201.00293C163.18686 201.00293 164.53 202.34607 164.53 204.00293Z" fill-rule="nonzero"/><path fill="#000000" fill-opacity="0.0" clip-path="url(#id_0)" d="M269.51 195.89706C269.51 197.55392 268.16684 198.89706 266.51 198.89706C264.85315 198.89706 263.51 197.55392 263.51 195.89706C263.51 194.24022 264.85315 192.89706 266.51 192.89706C268.16684 192.89706 269.51 194.24022 269.51 195.89706Z" fill-rule="nonzero"/><path fill="#000000" fill-opacity="0.0" clip-path="url(#id_0)" d="M374.49 204.43817C374.49 206.09503 373.14685 207.43817 371.49 207.43817C369.83316 207.43817 368.49 206.09503 368.49 204.43817C368.49 202.78131 369.83316 201.43817 371.49 201.43817C373.14685 201.43817 374.49 202.78131 374.49 204.43817Z" fill-rule="nonzero"/><path fill="#000000" fill-opacity="0.0" clip-path="url(#id_0)" d="M479.47 235.5492C479.47 237.20605 478.12686 238.5492 476.47 238.5492C474.81314 238.5492 473.47 237.20605 473.47 235.5492C473.47 233.89235 474.81314 232.5492 476.47 232.5492C478.12686 232.5492 479.47 233.89235 479.47 235.5492Z" fill-rule="nonzero"/><path fill="#000000" fill-opacity="0.0" clip-path="url(#id_0)" d="M584.45 197.75583C584.45 199.41269 583.1069 200.75583 581.45 200.75583C579.79315 200.75583 578.45 199.41269 578.45 197.75583C578.45 196.09898 579.79315 194.75583 581.45 194.75583C583.1069 194.75583 584.45 196.09898 584.45 197.75583Z" fill-rule="nonzero"/><path fill="#d64e20" clip-path="url(#id_0)" d="M62.55 92.28333C62.55 95.59704 59.86371 98.28333 56.55 98.28333C53.23629 98.28333 50.55 95.59704 50.55 92.28333C50.55 88.96963 53.23629 86.28333 56.55 86.28333C59.86371 86.28333 62.55 88.96963 62.55 92.28333Z" fill-rule="nonzero"/><path fill="#d64e20" clip-path="url(#id_0)" d="M167.53 92.28333C167.53 95.59704 164.8437 98.28333 161.53 98.28333C158.2163 98.28333 155.53 95.59704 155.53 92.28333C155.53 88.96963 158.2163 86.28333 161.53 86.28333C164.8437 86.28333 167.53 88.96963 167.53 92.28333Z" fill-rule="nonzero"/><path fill="#d64e20" clip-path="url(#id_0)" d="M272.51 92.28333C272.51 95.59704 269.8237 98.28333 266.51 98.28333C263.1963 98.28333 260.51 95.59704 260.51 92.28333C260.51 88.96963 263.1963 86.28333 266.51 86.28333C269.8237 86.28333 272.51 88.96963 272.51 92.28333Z" fill-rule="nonzero"/><path fill="#d64e20" clip-path="url(#id_0)" d="M377.49 92.28333C377.49 95.59704 374.8037 98.28333 371.49 98.28333C368.1763 98.28333 365.49 95.59704 365.49 92.28333C365.49 88.96963 368.1763 86.28333 371.49 86.28333C374.8037 86.28333 377.49 88.96963 377.49 92.28333Z" fill-rule="nonzero"/><path fill="#d64e20" clip-path="url(#id_0)" d="M482.47 92.28333C482.47 95.59704 479.78372 98.28333 476.47 98.28333C473.15628 98.28333 470.47 95.59704 470.47 92.28333C470.47 88.96963 473.15628 86.28333 476.47 86.28333C479.78372 86.28333 482.47 88.96963 482.47 92.28333Z" fill-rule="nonzero"/><path fill="#d64e20" clip-path="url(#id_0)" d="M587.45 92.28333C587.45 95.59704 584.76373 98.28333 581.45 98.28333C578.1363 98.28333 575.45 95.59704 575.45 92.28333C575.45 88.96963 578.1363 86.28333 581.45 86.28333C584.76373 86.28333 587.45 88.96963 587.45 92.28333Z" fill-rule="nonzero"/><path fill="#000000" d="M296.39062 348.84064Q296.28125 348.84064 295.98438 348.575Q295.71875 348.34064 295.59375 348.15314Q295.03125 348.45 294.59375 348.60626Q294.17188 348.7625 293.89062 348.7625Q292.51562 348.7625 291.89062 347.9969Q291.29688 347.2625 291.29688 345.7625Q291.29688 344.34064 292.26562 343.34064Q293.25 342.325 294.60938 342.325Q295.10938 342.325 295.75 342.59064Q296.54688 342.91876 296.54688 343.3875Q296.54688 343.54376 296.42188 343.66876Q296.375 343.8875 296.32812 344.40314Q296.29688 344.90314 296.29688 345.7Q296.29688 346.4344 296.39062 346.85626Q296.45312 347.10626 296.76562 347.8875Q296.8125 347.9969 296.90625 348.2L296.9375 348.29376Q296.9375 348.52814 296.76562 348.6844Q296.60938 348.84064 296.39062 348.84064ZM295.17188 344.7625Q295.17188 344.5125 295.20312 344.21564Q295.23438 343.91876 295.29688 343.59064Q295.07812 343.48126 294.92188 343.4344Q294.78125 343.3719 294.6875 343.3719Q293.76562 343.3719 293.10938 344.1219Q292.45312 344.85626 292.45312 345.825Q292.45312 346.77814 292.79688 347.2625Q293.14062 347.7469 293.8125 347.7469Q294.375 347.7469 294.76562 347.52814Q294.98438 347.41876 295.35938 347.09064Q295.17188 345.54376 295.17188 344.7625ZM301.75 340.21564Q300.32812 340.21564 300.17188 342.1844L300.14062 342.54376Q301.14062 342.46564 301.4375 342.46564Q302.375 342.46564 302.375 343.0594Q302.375 343.48126 301.90625 343.575Q301.71875 343.60626 301.4375 343.60626Q301.17188 343.59064 300.09375 343.66876L300.04688 345.0125Q300.04688 345.3719 300.0625 346.10626Q300.09375 346.825 300.09375 347.1844Q300.09375 348.29376 299.96875 348.91876Q299.85938 349.3875 299.42188 349.3875Q299.1875 349.3875 299.01562 349.23126Q298.84375 349.075 298.84375 348.84064Q298.84375 348.79376 298.85938 348.73126Q298.96875 347.96564 298.96875 347.0594L298.95312 345.46564L298.95312 343.7625Q298.21875 343.825 298.03125 343.825Q297.4375 343.825 297.4375 343.2625Q297.4375 342.6844 298.46875 342.65314L299.03125 342.6375Q299.04688 342.3094 299.10938 341.7469Q299.26562 340.4344 299.76562 339.825Q300.375 339.075 301.67188 339.075Q302.51562 339.075 302.51562 339.65314Q302.51562 340.21564 301.75 340.21564ZM305.29688 343.84064L305.21875 346.7625Q305.21875 347.21564 305.17188 348.1219Q305.10938 348.7 304.59375 348.7Q304.01562 348.7 304.01562 348.10626Q304.01562 347.3875 304.07812 345.98126Q304.15625 344.5594 304.15625 343.84064Q304.15625 342.91876 304.17188 341.73126Q304.20312 340.52814 304.20312 339.60626Q304.20312 339.02814 304.78125 339.02814Q305.35938 339.02814 305.35938 339.60626Q305.35938 340.52814 305.32812 341.73126Q305.29688 342.91876 305.29688 343.84064ZM310.54688 348.71564Q309.23438 348.71564 308.40625 348.0594Q307.51562 347.325 307.51562 346.0125Q307.51562 344.48126 308.25 343.45Q309.04688 342.325 310.39062 342.325Q311.35938 342.325 311.98438 342.65314Q312.73438 343.0594 312.73438 343.90314Q312.73438 344.48126 312.07812 344.96564Q311.78125 345.16876 310.82812 345.6219L308.59375 346.6844Q308.92188 347.16876 309.40625 347.41876Q309.90625 347.65314 310.54688 347.65314Q310.95312 347.65314 311.5 347.5125Q312.1875 347.3094 312.39062 346.9969Q312.59375 346.6844 312.8125 346.6844Q313.03125 346.6844 313.1875 346.84064Q313.34375 346.9969 313.34375 347.2Q313.34375 347.85626 312.29688 348.325Q311.40625 348.71564 310.54688 348.71564ZM310.39062 343.3875Q309.67188 343.3875 309.20312 343.9344Q308.73438 344.48126 308.5 345.60626L310.29688 344.7469Q311.35938 344.23126 311.8125 343.85626Q311.29688 343.3875 310.39062 343.3875ZM316.51562 348.1375Q316.5 348.6844 315.98438 348.6844Q315.5625 348.6844 315.35938 348.1844L314.46875 345.79376L313.42188 343.10626Q313.35938 342.96564 313.35938 342.84064Q313.35938 342.60626 313.54688 342.4344Q313.73438 342.2625 313.96875 342.2625Q314.3125 342.2625 314.46875 342.6219L315.95312 346.71564Q316.40625 345.77814 317.0625 343.9969Q317.21875 343.52814 317.5625 342.66876Q317.75 342.29376 318.07812 342.29376Q318.32812 342.29376 318.5 342.46564Q318.6875 342.6375 318.6875 342.8719Q318.6875 343.09064 317.71875 345.3719L316.51562 348.1375ZM322.54688 348.71564Q321.23438 348.71564 320.40625 348.0594Q319.51562 347.325 319.51562 346.0125Q319.51562 344.48126 320.25 343.45Q321.04688 342.325 322.39062 342.325Q323.35938 342.325 323.98438 342.65314Q324.73438 343.0594 324.73438 343.90314Q324.73438 344.48126 324.07812 344.96564Q323.78125 345.16876 322.82812 345.6219L320.59375 346.6844Q320.92188 347.16876 321.40625 347.41876Q321.90625 347.65314 322.54688 347.65314Q322.95312 347.65314 323.5 347.5125Q324.1875 347.3094 324.39062 346.9969Q324.59375 346.6844 324.8125 346.6844Q325.03125 346.6844 325.1875 346.84064Q325.34375 346.9969 325.34375 347.2Q325.34375 347.85626 324.29688 348.325Q323.40625 348.71564 322.54688 348.71564ZM322.39062 343.3875Q321.67188 343.3875 321.20312 343.9344Q320.73438 344.48126 320.5 345.60626L322.29688 344.7469Q323.35938 344.23126 323.8125 343.85626Q323.29688 343.3875 322.39062 343.3875ZM330.375 344.1219Q330.32812 344.85626 329.78125 344.85626Q329.28125 344.85626 329.28125 344.27814Q329.28125 344.15314 329.26562 343.85626L329.25 343.3719Q328.32812 343.48126 327.76562 343.8875Q327.25 344.27814 326.90625 345.04376L326.90625 348.2469Q326.90625 348.84064 326.32812 348.84064Q325.8125 348.84064 325.8125 348.2469L325.8125 344.1375Q325.8125 343.95 325.82812 343.5594Q325.84375 343.16876 325.84375 342.98126Q325.84375 342.3875 326.35938 342.3875Q326.9375 342.3875 326.9375 343.35626Q328.0625 342.27814 329.4375 342.27814Q329.90625 342.27814 330.14062 342.6375Q330.375 342.98126 330.375 343.71564Q330.375 344.0125 330.375 344.1219ZM332.9375 341.02814Q332.65625 341.02814 332.45312 340.84064Q332.25 340.6375 332.25 340.35626Q332.25 340.075 332.45312 339.8719Q332.65625 339.66876 332.9375 339.66876Q333.21875 339.66876 333.42188 339.8719Q333.625 340.075 333.625 340.35626Q333.625 340.6375 333.42188 340.84064Q333.21875 341.02814 332.9375 341.02814ZM333.20312 345.79376Q333.20312 346.1375 333.21875 346.84064Q333.23438 347.54376 333.23438 347.8875Q333.23438 348.15314 333.07812 348.325Q332.92188 348.48126 332.67188 348.48126Q332.40625 348.48126 332.25 348.325Q332.09375 348.15314 332.09375 347.8875Q332.09375 347.54376 332.0625 346.84064Q332.04688 346.1375 332.04688 345.79376Q332.04688 345.23126 332.10938 344.41876Q332.17188 343.59064 332.17188 343.04376Q332.17188 342.77814 332.32812 342.6219Q332.48438 342.45 332.73438 342.45Q333.0 342.45 333.15625 342.6219Q333.3125 342.77814 333.3125 343.04376Q333.3125 343.59064 333.25 344.41876Q333.20312 345.23126 333.20312 345.79376ZM340.3125 348.8719Q339.8125 348.8719 339.73438 348.3094L339.57812 347.02814Q339.5 346.34064 339.5 345.7469Q339.5 345.59064 339.51562 345.2Q339.53125 344.79376 339.53125 344.6375Q339.53125 343.3719 339.0625 343.3719Q338.40625 343.3719 337.8125 344.15314Q337.28125 344.85626 336.96875 345.9344Q336.95312 346.16876 336.92188 346.5125Q336.875 346.8094 336.875 347.09064Q336.875 347.2625 336.90625 347.6219Q336.95312 347.96564 336.95312 348.1375Q336.95312 348.40314 336.78125 348.5594Q336.625 348.73126 336.375 348.73126Q336.125 348.73126 335.95312 348.5594Q335.79688 348.40314 335.79688 348.1375Q335.79688 347.96564 335.76562 347.6219Q335.73438 347.2625 335.73438 347.09064Q335.73438 346.48126 335.8125 345.41876Q335.89062 344.34064 335.89062 343.73126Q335.89062 343.54376 335.875 343.1844Q335.85938 342.8094 335.85938 342.6219Q335.85938 342.3719 336.01562 342.21564Q336.1875 342.04376 336.4375 342.04376Q336.96875 342.04376 337.03125 342.8094L337.04688 343.4969Q338.03125 342.1844 339.0625 342.1844Q340.0 342.1844 340.375 343.0125Q340.625 343.5594 340.65625 344.6375L340.65625 345.23126L340.64062 345.77814Q340.64062 346.2625 340.76562 347.04376Q340.89062 347.8094 340.89062 348.27814Q340.89062 348.54376 340.71875 348.7Q340.5625 348.8719 340.3125 348.8719ZM346.64062 345.91876L346.5 347.8875Q346.46875 349.0594 346.26562 349.8094Q346.0 350.7625 345.42188 351.21564Q344.71875 351.7625 343.39062 351.7625Q342.60938 351.7625 342.07812 351.65314Q341.34375 351.4969 341.34375 351.04376Q341.34375 350.5125 341.84375 350.5125Q342.0625 350.5125 342.54688 350.6219Q343.04688 350.73126 343.64062 350.71564Q344.76562 350.7 345.20312 349.6219Q345.48438 348.90314 345.5 347.41876Q345.17188 348.0125 344.73438 348.3094Q344.3125 348.59064 343.75 348.59064Q342.6875 348.59064 342.01562 347.8719Q341.35938 347.15314 341.35938 345.9969Q341.35938 344.41876 342.26562 343.45Q343.20312 342.45 344.8125 342.45Q345.35938 342.45 345.71875 342.59064Q346.09375 342.73126 346.29688 343.0125Q346.92188 343.02814 346.92188 343.71564Q346.92188 344.1219 346.79688 344.825Q346.65625 345.6375 346.64062 345.91876ZM344.75 343.3875Q343.64062 343.3875 343.03125 344.15314Q342.48438 344.84064 342.48438 345.91876Q342.48438 346.7625 342.8125 347.2Q343.14062 347.6219 343.78125 347.6219Q344.375 347.6219 344.92188 346.95Q345.4375 346.34064 345.5 345.73126Q345.625 345.09064 345.76562 343.7469Q345.53125 343.5594 345.28125 343.48126Q345.03125 343.3875 344.75 343.3875Z" fill-rule="nonzero"/><path fill="#000000" d="M33.05 296.21564Q33.05 294.6844 33.3625 293.7625Q33.675 292.825 34.284374 292.325Q34.909374 291.825 35.846874 291.825Q36.534374 291.825 37.05 292.10626Q37.58125 292.3875 37.925 292.91876Q38.26875 293.4344 38.45625 294.1844Q38.64375 294.9344 38.64375 296.21564Q38.64375 297.73126 38.33125 298.65314Q38.034374 299.575 37.409374 300.09064Q36.8 300.59064 35.846874 300.59064Q34.6125 300.59064 33.89375 299.7Q33.05 298.6375 33.05 296.21564ZM34.128124 296.21564Q34.128124 298.325 34.628124 299.02814Q35.128124 299.73126 35.846874 299.73126Q36.58125 299.73126 37.065624 299.02814Q37.565624 298.325 37.565624 296.21564Q37.565624 294.09064 37.065624 293.40314Q36.58125 292.7 35.83125 292.7Q35.1125 292.7 34.675 293.3094Q34.128124 294.09064 34.128124 296.21564ZM40.253124 293.91876Q40.253124 292.9969 40.70625 292.35626Q41.175 291.71564 42.05 291.71564Q42.8625 291.71564 43.39375 292.29376Q43.925 292.8719 43.925 293.98126Q43.925 295.075 43.378124 295.66876Q42.846874 296.2469 42.065624 296.2469Q41.284374 296.2469 40.76875 295.66876Q40.253124 295.09064 40.253124 293.91876ZM42.08125 292.4344Q41.690624 292.4344 41.425 292.77814Q41.175 293.1219 41.175 294.02814Q41.175 294.85626 41.425 295.2Q41.690624 295.52814 42.08125 295.52814Q42.4875 295.52814 42.7375 295.1844Q43.003124 294.84064 43.003124 293.95Q43.003124 293.10626 42.7375 292.77814Q42.471874 292.4344 42.08125 292.4344ZM42.08125 300.7625L46.784374 291.71564L47.64375 291.71564L42.95625 300.7625L42.08125 300.7625ZM45.8 298.4344Q45.8 297.5125 46.253124 296.8719Q46.721874 296.23126 47.6125 296.23126Q48.425 296.23126 48.95625 296.8094Q49.4875 297.3719 49.4875 298.4969Q49.4875 299.59064 48.940624 300.1844Q48.409374 300.7625 47.6125 300.7625Q46.846874 300.7625 46.315624 300.1844Q45.8 299.60626 45.8 298.4344ZM47.64375 296.95Q47.2375 296.95 46.971874 297.29376Q46.721874 297.6375 46.721874 298.54376Q46.721874 299.35626 46.9875 299.7Q47.253124 300.04376 47.64375 300.04376Q48.034374 300.04376 48.3 299.7Q48.565624 299.35626 48.565624 298.45Q48.565624 297.6219 48.3 297.29376Q48.034374 296.95 47.64375 296.95Z" fill-rule="nonzero"/><path fill="#000000" d="M31.596874 248.39272L31.596874 249.40834L25.909374 249.40834Q25.909374 249.03334 26.034374 248.67397Q26.253124 248.09584 26.721874 247.53334Q27.20625 246.97084 28.1125 246.23647Q29.51875 245.08022 30.003124 244.40834Q30.503124 243.73647 30.503124 243.14272Q30.503124 242.51772 30.05 242.09584Q29.596874 241.65834 28.878124 241.65834Q28.1125 241.65834 27.659374 242.11147Q27.20625 242.56459 27.190624 243.37709L26.1125 243.26772Q26.221874 242.04897 26.940624 241.42397Q27.675 240.78334 28.909374 240.78334Q30.14375 240.78334 30.8625 241.47084Q31.58125 242.15834 31.58125 243.17397Q31.58125 243.68959 31.3625 244.18959Q31.159374 244.67397 30.659374 245.23647Q30.175 245.78334 29.05 246.73647Q28.096874 247.53334 27.815624 247.83022Q27.55 248.11147 27.378124 248.39272L31.596874 248.39272ZM33.05 247.15834L34.159374 247.06459Q34.284374 247.87709 34.721874 248.28334Q35.175 248.68959 35.815624 248.68959Q36.565624 248.68959 37.096874 248.11147Q37.628124 247.53334 37.628124 246.59584Q37.628124 245.68959 37.1125 245.17397Q36.6125 244.64272 35.784374 244.64272Q35.284374 244.64272 34.8625 244.87709Q34.45625 245.11147 34.221874 245.47084L33.2375 245.34584L34.065624 240.93959L38.346874 240.93959L38.346874 241.93959L34.909374 241.93959L34.45625 244.25209Q35.221874 243.70522 36.065624 243.70522Q37.190624 243.70522 37.95625 244.48647Q38.7375 245.26772 38.7375 246.50209Q38.7375 247.65834 38.065624 248.51772Q37.2375 249.54897 35.815624 249.54897Q34.64375 249.54897 33.89375 248.89272Q33.159374 248.23647 33.05 247.15834ZM40.253124 242.87709Q40.253124 241.95522 40.70625 241.31459Q41.175 240.67397 42.05 240.67397Q42.8625 240.67397 43.39375 241.25209Q43.925 241.83022 43.925 242.93959Q43.925 244.03334 43.378124 244.62709Q42.846874 245.20522 42.065624 245.20522Q41.284374 245.20522 40.76875 244.62709Q40.253124 244.04897 40.253124 242.87709ZM42.08125 241.39272Q41.690624 241.39272 41.425 241.73647Q41.175 242.08022 41.175 242.98647Q41.175 243.81459 41.425 244.15834Q41.690624 244.48647 42.08125 244.48647Q42.4875 244.48647 42.7375 244.14272Q43.003124 243.79897 43.003124 242.90834Q43.003124 242.06459 42.7375 241.73647Q42.471874 241.39272 42.08125 241.39272ZM42.08125 249.72084L46.784374 240.67397L47.64375 240.67397L42.95625 249.72084L42.08125 249.72084ZM45.8 247.39272Q45.8 246.47084 46.253124 245.83022Q46.721874 245.18959 47.6125 245.18959Q48.425 245.18959 48.95625 245.76772Q49.4875 246.33022 49.4875 247.45522Q49.4875 248.54897 48.940624 249.14272Q48.409374 249.72084 47.6125 249.72084Q46.846874 249.72084 46.315624 249.14272Q45.8 248.56459 45.8 247.39272ZM47.64375 245.90834Q47.2375 245.90834 46.971874 246.25209Q46.721874 246.59584 46.721874 247.50209Q46.721874 248.31459 46.9875 248.65834Q47.253124 249.00209 47.64375 249.00209Q48.034374 249.00209 48.3 248.65834Q48.565624 248.31459 48.565624 247.40834Q48.565624 246.58022 48.3 246.25209Q48.034374 245.90834 47.64375 245.90834Z" fill-rule="nonzero"/><path fill="#000000" d="M26.05 196.11667L27.159374 196.02292Q27.284374 196.83542 27.721874 197.24167Q28.175 197.64792 28.815624 197.64792Q29.565624 197.64792 30.096874 197.0698Q30.628124 196.49167 30.628124 195.55417Q30.628124 194.64792 30.1125 194.1323Q29.6125 193.60104 28.784374 193.60104Q28.284374 193.60104 27.8625 193.83542Q27.45625 194.0698 27.221874 194.42917L26.2375 194.30417L27.065624 189.89792L31.346874 189.89792L31.346874 190.89792L27.909374 190.89792L27.45625 193.21042Q28.221874 192.66354 29.065624 192.66354Q30.190624 192.66354 30.95625 193.4448Q31.7375 194.22604 31.7375 195.46042Q31.7375 196.61667 31.065624 197.47604Q30.2375 198.5073 28.815624 198.5073Q27.64375 198.5073 26.89375 197.85104Q26.159374 197.1948 26.05 196.11667ZM33.05 194.1323Q33.05 192.60104 33.3625 191.67917Q33.675 190.74167 34.284374 190.24167Q34.909374 189.74167 35.846874 189.74167Q36.534374 189.74167 37.05 190.02292Q37.58125 190.30417 37.925 190.83542Q38.26875 191.35104 38.45625 192.10104Q38.64375 192.85104 38.64375 194.1323Q38.64375 195.64792 38.33125 196.5698Q38.034374 197.49167 37.409374 198.0073Q36.8 198.5073 35.846874 198.5073Q34.6125 198.5073 33.89375 197.61667Q33.05 196.55417 33.05 194.1323ZM34.128124 194.1323Q34.128124 196.24167 34.628124 196.9448Q35.128124 197.64792 35.846874 197.64792Q36.58125 197.64792 37.065624 196.9448Q37.565624 196.24167 37.565624 194.1323Q37.565624 192.0073 37.065624 191.3198Q36.58125 190.61667 35.83125 190.61667Q35.1125 190.61667 34.675 191.22604Q34.128124 192.0073 34.128124 194.1323ZM40.253124 191.83542Q40.253124 190.91354 40.70625 190.27292Q41.175 189.6323 42.05 189.6323Q42.8625 189.6323 43.39375 190.21042Q43.925 190.78854 43.925 191.89792Q43.925 192.99167 43.378124 193.58542Q42.846874 194.16354 42.065624 194.16354Q41.284374 194.16354 40.76875 193.58542Q40.253124 193.0073 40.253124 191.83542ZM42.08125 190.35104Q41.690624 190.35104 41.425 190.6948Q41.175 191.03854 41.175 191.9448Q41.175 192.77292 41.425 193.11667Q41.690624 193.4448 42.08125 193.4448Q42.4875 193.4448 42.7375 193.10104Q43.003124 192.7573 43.003124 191.86667Q43.003124 191.02292 42.7375 190.6948Q42.471874 190.35104 42.08125 190.35104ZM42.08125 198.67917L46.784374 189.6323L47.64375 189.6323L42.95625 198.67917L42.08125 198.67917ZM45.8 196.35104Q45.8 195.42917 46.253124 194.78854Q46.721874 194.14792 47.6125 194.14792Q48.425 194.14792 48.95625 194.72604Q49.4875 195.28854 49.4875 196.41354Q49.4875 197.5073 48.940624 198.10104Q48.409374 198.67917 47.6125 198.67917Q46.846874 198.67917 46.315624 198.10104Q45.8 197.52292 45.8 196.35104ZM47.64375 194.86667Q47.2375 194.86667 46.971874 195.21042Q46.721874 195.55417 46.721874 196.46042Q46.721874 197.27292 46.9875 197.61667Q47.253124 197.96042 47.64375 197.96042Q48.034374 197.96042 48.3 197.61667Q48.565624 197.27292 48.565624 196.36667Q48.565624 195.53854 48.3 195.21042Q48.034374 194.86667 47.64375 194.86667Z" fill-rule="nonzero"/><path fill="#000000" d="M26.1125 139.85625L26.1125 138.84062L31.675 138.84062L31.675 139.66875Q30.8625 140.54375 30.05 141.99687Q29.253124 143.43437 28.815624 144.96562Q28.4875 146.04375 28.409374 147.325L27.315624 147.325Q27.33125 146.30937 27.70625 144.87187Q28.096874 143.43437 28.8 142.10625Q29.51875 140.77812 30.33125 139.85625L26.1125 139.85625ZM33.05 145.075L34.159374 144.98125Q34.284374 145.79375 34.721874 146.2Q35.175 146.60625 35.815624 146.60625Q36.565624 146.60625 37.096874 146.02812Q37.628124 145.45 37.628124 144.5125Q37.628124 143.60625 37.1125 143.09062Q36.6125 142.55937 35.784374 142.55937Q35.284374 142.55937 34.8625 142.79375Q34.45625 143.02812 34.221874 143.3875L33.2375 143.2625L34.065624 138.85625L38.346874 138.85625L38.346874 139.85625L34.909374 139.85625L34.45625 142.16875Q35.221874 141.62187 36.065624 141.62187Q37.190624 141.62187 37.95625 142.40312Q38.7375 143.18437 38.7375 144.41875Q38.7375 145.575 38.065624 146.43437Q37.2375 147.46562 35.815624 147.46562Q34.64375 147.46562 33.89375 146.80937Q33.159374 146.15312 33.05 145.075ZM40.253124 140.79375Q40.253124 139.87187 40.70625 139.23125Q41.175 138.59062 42.05 138.59062Q42.8625 138.59062 43.39375 139.16875Q43.925 139.74687 43.925 140.85625Q43.925 141.95 43.378124 142.54375Q42.846874 143.12187 42.065624 143.12187Q41.284374 143.12187 40.76875 142.54375Q40.253124 141.96562 40.253124 140.79375ZM42.08125 139.30937Q41.690624 139.30937 41.425 139.65312Q41.175 139.99687 41.175 140.90312Q41.175 141.73125 41.425 142.075Q41.690624 142.40312 42.08125 142.40312Q42.4875 142.40312 42.7375 142.05937Q43.003124 141.71562 43.003124 140.825Q43.003124 139.98125 42.7375 139.65312Q42.471874 139.30937 42.08125 139.30937ZM42.08125 147.6375L46.784374 138.59062L47.64375 138.59062L42.95625 147.6375L42.08125 147.6375ZM45.8 145.30937Q45.8 144.3875 46.253124 143.74687Q46.721874 143.10625 47.6125 143.10625Q48.425 143.10625 48.95625 143.68437Q49.4875 144.24687 49.4875 145.37187Q49.4875 146.46562 48.940624 147.05937Q48.409374 147.6375 47.6125 147.6375Q46.846874 147.6375 46.315624 147.05937Q45.8 146.48125 45.8 145.30937ZM47.64375 143.825Q47.2375 143.825 46.971874 144.16875Q46.721874 144.5125 46.721874 145.41875Q46.721874 146.23125 46.9875 146.575Q47.253124 146.91875 47.64375 146.91875Q48.034374 146.91875 48.3 146.575Q48.565624 146.23125 48.565624 145.325Q48.565624 144.49687 48.3 144.16875Q48.034374 143.825 47.64375 143.825Z" fill-rule="nonzero"/><path fill="#000000" d="M23.01875 96.28333L21.971874 96.28333L21.971874 89.56458Q21.58125 89.92396 20.95625 90.29896Q20.346874 90.65833 19.8625 90.83021L19.8625 89.81458Q20.7375 89.39271 21.39375 88.81458Q22.065624 88.22083 22.346874 87.65833L23.01875 87.65833L23.01875 96.28333ZM26.05 92.04896Q26.05 90.51771 26.3625 89.59583Q26.675 88.65833 27.284374 88.15833Q27.909374 87.65833 28.846874 87.65833Q29.534374 87.65833 30.05 87.93958Q30.58125 88.22083 30.925 88.75208Q31.26875 89.26771 31.45625 90.01771Q31.64375 90.76771 31.64375 92.04896Q31.64375 93.56458 31.33125 94.48646Q31.034374 95.40833 30.409374 95.92396Q29.8 96.42396 28.846874 96.42396Q27.6125 96.42396 26.89375 95.53333Q26.05 94.47083 26.05 92.04896ZM27.128124 92.04896Q27.128124 94.15833 27.628124 94.86146Q28.128124 95.56458 28.846874 95.56458Q29.58125 95.56458 30.065624 94.86146Q30.565624 94.15833 30.565624 92.04896Q30.565624 89.92396 30.065624 89.23646Q29.58125 88.53333 28.83125 88.53333Q28.1125 88.53333 27.675 89.14271Q27.128124 89.92396 27.128124 92.04896ZM33.05 92.04896Q33.05 90.51771 33.3625 89.59583Q33.675 88.65833 34.284374 88.15833Q34.909374 87.65833 35.846874 87.65833Q36.534374 87.65833 37.05 87.93958Q37.58125 88.22083 37.925 88.75208Q38.26875 89.26771 38.45625 90.01771Q38.64375 90.76771 38.64375 92.04896Q38.64375 93.56458 38.33125 94.48646Q38.034374 95.40833 37.409374 95.92396Q36.8 96.42396 35.846874 96.42396Q34.6125 96.42396 33.89375 95.53333Q33.05 94.47083 33.05 92.04896ZM34.128124 92.04896Q34.128124 94.15833 34.628124 94.86146Q35.128124 95.56458 35.846874 95.56458Q36.58125 95.56458 37.065624 94.86146Q37.565624 94.15833 37.565624 92.04896Q37.565624 89.92396 37.065624 89.23646Q36.58125 88.53333 35.83125 88.53333Q35.1125 88.53333 34.675 89.14271Q34.128124 89.92396 34.128124 92.04896ZM40.253124 89.75208Q40.253124 88.83021 40.70625 88.18958Q41.175 87.54896 42.05 87.54896Q42.8625 87.54896 43.39375 88.12708Q43.925 88.70521 43.925 89.81458Q43.925 90.90833 43.378124 91.50208Q42.846874 92.08021 42.065624 92.08021Q41.284374 92.08021 40.76875 91.50208Q40.253124 90.92396 40.253124 89.75208ZM42.08125 88.26771Q41.690624 88.26771 41.425 88.61146Q41.175 88.95521 41.175 89.86146Q41.175 90.68958 41.425 91.03333Q41.690624 91.36146 42.08125 91.36146Q42.4875 91.36146 42.7375 91.01771Q43.003124 90.67396 43.003124 89.78333Q43.003124 88.93958 42.7375 88.61146Q42.471874 88.26771 42.08125 88.26771ZM42.08125 96.59583L46.784374 87.54896L47.64375 87.54896L42.95625 96.59583L42.08125 96.59583ZM45.8 94.26771Q45.8 93.34583 46.253124 92.70521Q46.721874 92.06458 47.6125 92.06458Q48.425 92.06458 48.95625 92.64271Q49.4875 93.20521 49.4875 94.33021Q49.4875 95.42396 48.940624 96.01771Q48.409374 96.59583 47.6125 96.59583Q46.846874 96.59583 46.315624 96.01771Q45.8 95.43958 45.8 94.26771ZM47.64375 92.78333Q47.2375 92.78333 46.971874 93.12708Q46.721874 93.47083 46.721874 94.37708Q46.721874 95.18958 46.9875 95.53333Q47.253124 95.87708 47.64375 95.87708Q48.034374 95.87708 48.3 95.53333Q48.565624 95.18958 48.565624 94.28333Q48.565624 93.45521 48.3 93.12708Q48.034374 92.78333 47.64375 92.78333Z" fill-rule="nonzero"/><path fill="#000000" d="M50.05 311.1844L51.1125 311.04376Q51.284374 311.9344 51.721874 312.34064Q52.159374 312.73126 52.784374 312.73126Q53.534374 312.73126 54.05 312.21564Q54.565624 311.7 54.565624 310.9344Q54.565624 310.21564 54.08125 309.7469Q53.6125 309.2625 52.878124 309.2625Q52.58125 309.2625 52.128124 309.3875L52.253124 308.45Q52.3625 308.46564 52.425 308.46564Q53.096874 308.46564 53.628124 308.1219Q54.175 307.7625 54.175 307.02814Q54.175 306.45 53.784374 306.075Q53.39375 305.6844 52.76875 305.6844Q52.159374 305.6844 51.7375 306.075Q51.33125 306.46564 51.221874 307.23126L50.159374 307.04376Q50.346874 305.9969 51.034374 305.41876Q51.721874 304.825 52.7375 304.825Q53.440624 304.825 54.034374 305.1375Q54.628124 305.4344 54.940624 305.95Q55.253124 306.46564 55.253124 307.0594Q55.253124 307.60626 54.95625 308.075Q54.659374 308.52814 54.08125 308.79376Q54.83125 308.96564 55.253124 309.52814Q55.675 310.075 55.675 310.91876Q55.675 312.04376 54.846874 312.825Q54.034374 313.60626 52.784374 313.60626Q51.659374 313.60626 50.909374 312.9344Q50.159374 312.2469 50.05 311.1844ZM57.05 309.21564Q57.05 307.6844 57.3625 306.7625Q57.675 305.825 58.284374 305.325Q58.909374 304.825 59.846874 304.825Q60.534374 304.825 61.05 305.10626Q61.58125 305.3875 61.925 305.91876Q62.26875 306.4344 62.45625 307.1844Q62.64375 307.9344 62.64375 309.21564Q62.64375 310.73126 62.33125 311.65314Q62.034374 312.575 61.409374 313.09064Q60.8 313.59064 59.846874 313.59064Q58.6125 313.59064 57.89375 312.7Q57.05 311.6375 57.05 309.21564ZM58.128124 309.21564Q58.128124 311.325 58.628124 312.02814Q59.128124 312.73126 59.846874 312.73126Q60.58125 312.73126 61.065624 312.02814Q61.565624 311.325 61.565624 309.21564Q61.565624 307.09064 61.065624 306.40314Q60.58125 305.7 59.83125 305.7Q59.1125 305.7 58.675 306.3094Q58.128124 307.09064 58.128124 309.21564Z" fill-rule="nonzero"/><path fill="#000000" d="M155.03 311.1844L156.0925 311.04376Q156.26437 311.9344 156.70187 312.34064Q157.13937 312.73126 157.76437 312.73126Q158.51437 312.73126 159.03 312.21564Q159.54562 311.7 159.54562 310.9344Q159.54562 310.21564 159.06125 309.7469Q158.5925 309.2625 157.85812 309.2625Q157.56125 309.2625 157.10812 309.3875L157.23312 308.45Q157.3425 308.46564 157.405 308.46564Q158.07687 308.46564 158.60812 308.1219Q159.155 307.7625 159.155 307.02814Q159.155 306.45 158.76437 306.075Q158.37375 305.6844 157.74875 305.6844Q157.13937 305.6844 156.7175 306.075Q156.31125 306.46564 156.20187 307.23126L155.13937 307.04376Q155.32687 305.9969 156.01437 305.41876Q156.70187 304.825 157.7175 304.825Q158.42062 304.825 159.01437 305.1375Q159.60812 305.4344 159.92062 305.95Q160.23312 306.46564 160.23312 307.0594Q160.23312 307.60626 159.93625 308.075Q159.63937 308.52814 159.06125 308.79376Q159.81125 308.96564 160.23312 309.52814Q160.655 310.075 160.655 310.91876Q160.655 312.04376 159.82687 312.825Q159.01437 313.60626 157.76437 313.60626Q156.63937 313.60626 155.88937 312.9344Q155.13937 312.2469 155.03 311.1844ZM165.99875 313.45L164.95187 313.45L164.95187 306.73126Q164.56125 307.09064 163.93625 307.46564Q163.32687 307.825 162.8425 307.9969L162.8425 306.98126Q163.7175 306.5594 164.37375 305.98126Q165.04562 305.3875 165.32687 304.825L165.99875 304.825L165.99875 313.45Z" fill-rule="nonzero"/><path fill="#000000" d="M260.01 311.1844L261.0725 311.04376Q261.2444 311.9344 261.6819 312.34064Q262.1194 312.73126 262.7444 312.73126Q263.4944 312.73126 264.01 312.21564Q264.52563 311.7 264.52563 310.9344Q264.52563 310.21564 264.04126 309.7469Q263.5725 309.2625 262.83813 309.2625Q262.54126 309.2625 262.08813 309.3875L262.21313 308.45Q262.3225 308.46564 262.385 308.46564Q263.0569 308.46564 263.58813 308.1219Q264.135 307.7625 264.135 307.02814Q264.135 306.45 263.7444 306.075Q263.35376 305.6844 262.72876 305.6844Q262.1194 305.6844 261.6975 306.075Q261.29126 306.46564 261.1819 307.23126L260.1194 307.04376Q260.3069 305.9969 260.9944 305.41876Q261.6819 304.825 262.6975 304.825Q263.40063 304.825 263.9944 305.1375Q264.58813 305.4344 264.90063 305.95Q265.21313 306.46564 265.21313 307.0594Q265.21313 307.60626 264.91626 308.075Q264.6194 308.52814 264.04126 308.79376Q264.79126 308.96564 265.21313 309.52814Q265.635 310.075 265.635 310.91876Q265.635 312.04376 264.8069 312.825Q263.9944 313.60626 262.7444 313.60626Q261.6194 313.60626 260.8694 312.9344Q260.1194 312.2469 260.01 311.1844ZM272.5569 312.4344L272.5569 313.45L266.8694 313.45Q266.8694 313.075 266.9944 312.71564Q267.21313 312.1375 267.6819 311.575Q268.16626 311.0125 269.0725 310.27814Q270.47876 309.1219 270.96313 308.45Q271.46313 307.77814 271.46313 307.1844Q271.46313 306.5594 271.01 306.1375Q270.5569 305.7 269.83813 305.7Q269.0725 305.7 268.6194 306.15314Q268.16626 306.60626 268.15063 307.41876L267.0725 307.3094Q267.1819 306.09064 267.90063 305.46564Q268.635 304.825 269.8694 304.825Q271.10376 304.825 271.8225 305.5125Q272.54126 306.2 272.54126 307.21564Q272.54126 307.73126 272.3225 308.23126Q272.1194 308.71564 271.6194 309.27814Q271.135 309.825 270.01 310.77814Q269.0569 311.575 268.77563 311.8719Q268.51 312.15314 268.33813 312.4344L272.5569 312.4344Z" fill-rule="nonzero"/><path fill="#000000" d="M364.99 311.1844L366.0525 311.04376Q366.22437 311.9344 366.66187 312.34064Q367.09937 312.73126 367.72437 312.73126Q368.47437 312.73126 368.99 312.21564Q369.5056 311.7 369.5056 310.9344Q369.5056 310.21564 369.02124 309.7469Q368.5525 309.2625 367.8181 309.2625Q367.52124 309.2625 367.0681 309.3875L367.1931 308.45Q367.3025 308.46564 367.365 308.46564Q368.03687 308.46564 368.5681 308.1219Q369.115 307.7625 369.115 307.02814Q369.115 306.45 368.72437 306.075Q368.33374 305.6844 367.70874 305.6844Q367.09937 305.6844 366.6775 306.075Q366.27124 306.46564 366.16187 307.23126L365.09937 307.04376Q365.28687 305.9969 365.97437 305.41876Q366.66187 304.825 367.6775 304.825Q368.3806 304.825 368.97437 305.1375Q369.5681 305.4344 369.8806 305.95Q370.1931 306.46564 370.1931 307.0594Q370.1931 307.60626 369.89624 308.075Q369.59937 308.52814 369.02124 308.79376Q369.77124 308.96564 370.1931 309.52814Q370.615 310.075 370.615 310.91876Q370.615 312.04376 369.78687 312.825Q368.97437 313.60626 367.72437 313.60626Q366.59937 313.60626 365.84937 312.9344Q365.09937 312.2469 364.99 311.1844ZM371.99 311.1844L373.0525 311.04376Q373.22437 311.9344 373.66187 312.34064Q374.09937 312.73126 374.72437 312.73126Q375.47437 312.73126 375.99 312.21564Q376.5056 311.7 376.5056 310.9344Q376.5056 310.21564 376.02124 309.7469Q375.5525 309.2625 374.8181 309.2625Q374.52124 309.2625 374.0681 309.3875L374.1931 308.45Q374.3025 308.46564 374.365 308.46564Q375.03687 308.46564 375.5681 308.1219Q376.115 307.7625 376.115 307.02814Q376.115 306.45 375.72437 306.075Q375.33374 305.6844 374.70874 305.6844Q374.09937 305.6844 373.6775 306.075Q373.27124 306.46564 373.16187 307.23126L372.09937 307.04376Q372.28687 305.9969 372.97437 305.41876Q373.66187 304.825 374.6775 304.825Q375.3806 304.825 375.97437 305.1375Q376.5681 305.4344 376.8806 305.95Q377.1931 306.46564 377.1931 307.0594Q377.1931 307.60626 376.89624 308.075Q376.59937 308.52814 376.02124 308.79376Q376.77124 308.96564 377.1931 309.52814Q377.615 310.075 377.615 310.91876Q377.615 312.04376 376.78687 312.825Q375.97437 313.60626 374.72437 313.60626Q373.59937 313.60626 372.84937 312.9344Q372.09937 312.2469 371.99 311.1844Z" fill-rule="nonzero"/><path fill="#000000" d="M469.97 311.1844L471.0325 311.04376Q471.20438 311.9344 471.64188 312.34064Q472.07938 312.73126 472.70438 312.73126Q473.45438 312.73126 473.97 312.21564Q474.48563 311.7 474.48563 310.9344Q474.48563 310.21564 474.00125 309.7469Q473.5325 309.2625 472.79813 309.2625Q472.50125 309.2625 472.04813 309.3875L472.17313 308.45Q472.2825 308.46564 472.345 308.46564Q473.01688 308.46564 473.54813 308.1219Q474.095 307.7625 474.095 307.02814Q474.095 306.45 473.70438 306.075Q473.31375 305.6844 472.68875 305.6844Q472.07938 305.6844 471.6575 306.075Q471.25125 306.46564 471.14188 307.23126L470.07938 307.04376Q470.26688 305.9969 470.95438 305.41876Q471.64188 304.825 472.6575 304.825Q473.36063 304.825 473.95438 305.1375Q474.54813 305.4344 474.86063 305.95Q475.17313 306.46564 475.17313 307.0594Q475.17313 307.60626 474.87625 308.075Q474.57938 308.52814 474.00125 308.79376Q474.75125 308.96564 475.17313 309.52814Q475.595 310.075 475.595 310.91876Q475.595 312.04376 474.76688 312.825Q473.95438 313.60626 472.70438 313.60626Q471.57938 313.60626 470.82938 312.9344Q470.07938 312.2469 469.97 311.1844ZM480.345 313.45L480.345 311.3875L476.62625 311.3875L476.62625 310.41876L480.54813 304.85626L481.4075 304.85626L481.4075 310.41876L482.56375 310.41876L482.56375 311.3875L481.4075 311.3875L481.4075 313.45L480.345 313.45ZM480.345 310.41876L480.345 306.5594L477.6575 310.41876L480.345 310.41876Z" fill-rule="nonzero"/><path fill="#000000" d="M574.95 311.1844L576.0125 311.04376Q576.1844 311.9344 576.6219 312.34064Q577.0594 312.73126 577.6844 312.73126Q578.4344 312.73126 578.95 312.21564Q579.46564 311.7 579.46564 310.9344Q579.46564 310.21564 578.98126 309.7469Q578.5125 309.2625 577.77814 309.2625Q577.48126 309.2625 577.02814 309.3875L577.15314 308.45Q577.2625 308.46564 577.325 308.46564Q577.9969 308.46564 578.52814 308.1219Q579.075 307.7625 579.075 307.02814Q579.075 306.45 578.6844 306.075Q578.29376 305.6844 577.66876 305.6844Q577.0594 305.6844 576.6375 306.075Q576.23126 306.46564 576.1219 307.23126L575.0594 307.04376Q575.2469 305.9969 575.9344 305.41876Q576.6219 304.825 577.6375 304.825Q578.34064 304.825 578.9344 305.1375Q579.52814 305.4344 579.84064 305.95Q580.15314 306.46564 580.15314 307.0594Q580.15314 307.60626 579.85626 308.075Q579.5594 308.52814 578.98126 308.79376Q579.73126 308.96564 580.15314 309.52814Q580.575 310.075 580.575 310.91876Q580.575 312.04376 579.7469 312.825Q578.9344 313.60626 577.6844 313.60626Q576.5594 313.60626 575.8094 312.9344Q575.0594 312.2469 574.95 311.1844ZM581.95 311.2L583.0594 311.10626Q583.1844 311.91876 583.6219 312.325Q584.075 312.73126 584.71564 312.73126Q585.46564 312.73126 585.9969 312.15314Q586.52814 311.575 586.52814 310.6375Q586.52814 309.73126 586.0125 309.21564Q585.5125 308.6844 584.6844 308.6844Q584.1844 308.6844 583.7625 308.91876Q583.35626 309.15314 583.1219 309.5125L582.1375 309.3875L582.96564 304.98126L587.2469 304.98126L587.2469 305.98126L583.8094 305.98126L583.35626 308.29376Q584.1219 307.7469 584.96564 307.7469Q586.09064 307.7469 586.85626 308.52814Q587.6375 309.3094 587.6375 310.54376Q587.6375 311.7 586.96564 312.5594Q586.1375 313.59064 584.71564 313.59064Q583.54376 313.59064 582.79376 312.9344Q582.0594 312.27814 581.95 311.2Z" fill-rule="nonzero"/><path fill="#d64e20" d="M265.0 65.916664C265.0 69.23038 262.31372 71.916664 259.0 71.916664C255.6863 71.916664 253.0 69.23038 253.0 65.916664C253.0 62.60296 255.6863 59.916668 259.0 59.916668C262.31372 59.916668 265.0 62.60296 265.0 65.916664Z" fill-rule="nonzero"/><path fill="#1a1a1a" d="M273.79688 69.916664L273.79688 63.697914L274.73438 63.697914L274.73438 64.572914Q275.03125 64.104164 275.51562 63.83854Q276.0 63.55729 276.625 63.55729Q277.3125 63.55729 277.75 63.83854Q278.20312 64.11979 278.375 64.635414Q279.125 63.55729 280.29688 63.55729Q281.23438 63.55729 281.71875 64.072914Q282.21875 64.572914 282.21875 65.65104L282.21875 69.916664L281.17188 69.916664L281.17188 65.99479Q281.17188 65.36979 281.0625 65.08854Q280.96875 64.80729 280.70312 64.635414Q280.4375 64.46354 280.0625 64.46354Q279.40625 64.46354 278.96875 64.90104Q278.54688 65.33854 278.54688 66.30729L278.54688 69.916664L277.48438 69.916664L277.48438 65.86979Q277.48438 65.166664 277.21875 64.822914Q276.96875 64.46354 276.39062 64.46354Q275.9375 64.46354 275.5625 64.697914Q275.1875 64.93229 275.01562 65.385414Q274.84375 65.83854 274.84375 66.68229L274.84375 69.916664L273.79688 69.916664ZM288.85938 69.15104Q288.26562 69.65104 287.71875 69.854164Q287.1875 70.05729 286.5625 70.05729Q285.53125 70.05729 284.98438 69.55729Q284.4375 69.05729 284.4375 68.27604Q284.4375 67.822914 284.64062 67.447914Q284.84375 67.05729 285.1875 66.83854Q285.53125 66.604164 285.95312 66.49479Q286.25 66.40104 286.89062 66.322914Q288.15625 66.18229 288.76562 65.96354Q288.76562 65.74479 288.76562 65.697914Q288.76562 65.041664 288.46875 64.77604Q288.0625 64.43229 287.26562 64.43229Q286.53125 64.43229 286.17188 64.697914Q285.8125 64.947914 285.64062 65.604164L284.60938 65.46354Q284.75 64.80729 285.07812 64.40104Q285.40625 63.99479 286.01562 63.77604Q286.625 63.55729 287.42188 63.55729Q288.21875 63.55729 288.71875 63.74479Q289.21875 63.93229 289.45312 64.21354Q289.6875 64.49479 289.78125 64.93229Q289.82812 65.197914 289.82812 65.90104L289.82812 67.30729Q289.82812 68.77604 289.89062 69.166664Q289.96875 69.55729 290.17188 69.916664L289.0625 69.916664Q288.90625 69.58854 288.85938 69.15104ZM288.76562 66.791664Q288.1875 67.02604 287.04688 67.197914Q286.39062 67.291664 286.125 67.416664Q285.85938 67.52604 285.70312 67.74479Q285.5625 67.96354 285.5625 68.24479Q285.5625 68.666664 285.875 68.947914Q286.20312 69.229164 286.8125 69.229164Q287.42188 69.229164 287.89062 68.96354Q288.375 68.697914 288.59375 68.229164Q288.76562 67.86979 288.76562 67.18229L288.76562 66.791664ZM294.09375 68.979164L294.25 69.90104Q293.79688 69.99479 293.45312 69.99479Q292.875 69.99479 292.5625 69.822914Q292.25 69.635414 292.10938 69.33854Q291.98438 69.041664 291.98438 68.08854L291.98438 64.510414L291.21875 64.510414L291.21875 63.697914L291.98438 63.697914L291.98438 62.15104L293.03125 61.52604L293.03125 63.697914L294.09375 63.697914L294.09375 64.510414L293.03125 64.510414L293.03125 68.15104Q293.03125 68.604164 293.07812 68.729164Q293.14062 68.854164 293.26562 68.93229Q293.39062 69.010414 293.625 69.010414Q293.8125 69.010414 294.09375 68.979164Z" fill-rule="nonzero"/><path fill="#efc649" d="M310.0 60.916668C310.0 60.364384 310.44772 59.916668 311.0 59.916668L321.0 59.916668C321.55228 59.916668 322.0 60.364384 322.0 60.916668L322.0 70.916664C322.0 71.46895 321.55228 71.916664 321.0 71.916664L311.0 71.916664C310.44772 71.916664 310.0 71.46895 310.0 70.916664Z" fill-rule="nonzero"/><path fill="#1a1a1a" d="M330.79688 72.30729L330.79688 63.697914L331.75 63.697914L331.75 64.49479Q332.09375 64.02604 332.51562 63.791664Q332.95312 63.55729 333.5625 63.55729Q334.35938 63.55729 334.96875 63.96354Q335.57812 64.36979 335.875 65.11979Q336.1875 65.86979 336.1875 66.760414Q336.1875 67.71354 335.84375 68.479164Q335.51562 69.24479 334.85938 69.65104Q334.20312 70.05729 333.48438 70.05729Q332.95312 70.05729 332.53125 69.83854Q332.10938 69.604164 331.84375 69.27604L331.84375 72.30729L330.79688 72.30729ZM331.75 66.83854Q331.75 68.041664 332.23438 68.61979Q332.71875 69.18229 333.40625 69.18229Q334.10938 69.18229 334.60938 68.58854Q335.10938 67.99479 335.10938 66.74479Q335.10938 65.55729 334.625 64.979164Q334.14062 64.385414 333.45312 64.385414Q332.78125 64.385414 332.26562 65.010414Q331.75 65.635414 331.75 66.83854ZM341.85938 69.15104Q341.26562 69.65104 340.71875 69.854164Q340.1875 70.05729 339.5625 70.05729Q338.53125 70.05729 337.98438 69.55729Q337.4375 69.05729 337.4375 68.27604Q337.4375 67.822914 337.64062 67.447914Q337.84375 67.05729 338.1875 66.83854Q338.53125 66.604164 338.95312 66.49479Q339.25 66.40104 339.89062 66.322914Q341.15625 66.18229 341.76562 65.96354Q341.76562 65.74479 341.76562 65.697914Q341.76562 65.041664 341.46875 64.77604Q341.0625 64.43229 340.26562 64.43229Q339.53125 64.43229 339.17188 64.697914Q338.8125 64.947914 338.64062 65.604164L337.60938 65.46354Q337.75 64.80729 338.07812 64.40104Q338.40625 63.99479 339.01562 63.77604Q339.625 63.55729 340.42188 63.55729Q341.21875 63.55729 341.71875 63.74479Q342.21875 63.93229 342.45312 64.21354Q342.6875 64.49479 342.78125 64.93229Q342.82812 65.197914 342.82812 65.90104L342.82812 67.30729Q342.82812 68.77604 342.89062 69.166664Q342.96875 69.55729 343.17188 69.916664L342.0625 69.916664Q341.90625 69.58854 341.85938 69.15104ZM341.76562 66.791664Q341.1875 67.02604 340.04688 67.197914Q339.39062 67.291664 339.125 67.416664Q338.85938 67.52604 338.70312 67.74479Q338.5625 67.96354 338.5625 68.24479Q338.5625 68.666664 338.875 68.947914Q339.20312 69.229164 339.8125 69.229164Q340.42188 69.229164 340.89062 68.96354Q341.375 68.697914 341.59375 68.229164Q341.76562 67.86979 341.76562 67.18229L341.76562 66.791664ZM347.09375 68.979164L347.25 69.90104Q346.79688 69.99479 346.45312 69.99479Q345.875 69.99479 345.5625 69.822914Q345.25 69.635414 345.10938 69.33854Q344.98438 69.041664 344.98438 68.08854L344.98438 64.510414L344.21875 64.510414L344.21875 63.697914L344.98438 63.697914L344.98438 62.15104L346.03125 61.52604L346.03125 63.697914L347.09375 63.697914L347.09375 64.510414L346.03125 64.510414L346.03125 68.15104Q346.03125 68.604164 346.07812 68.729164Q346.14062 68.854164 346.26562 68.93229Q346.39062 69.010414 346.625 69.010414Q346.8125 69.010414 347.09375 68.979164Z" fill-rule="nonzero"/><path fill="#757575" d="M22.58125 34.815624Q22.315624 34.815624 21.39375 34.690624Q21.315624 36.159374 21.315624 39.8625Q21.315624 40.253124 21.05 40.51875Q20.8 40.784374 20.425 40.784374Q20.034374 40.784374 19.784374 40.51875Q19.534374 40.253124 19.534374 39.8625L19.534374 36.9875Q19.534374 35.55 19.70625 32.940624Q19.89375 30.1125 19.925 28.89375L19.925 27.55Q19.925 26.58125 20.034374 26.14375Q20.253124 25.284374 20.9875 25.409374Q21.3 25.3 21.878124 25.253124Q22.45625 25.20625 23.3 25.20625Q25.08125 25.20625 26.64375 26.425Q28.3625 27.76875 28.3625 29.675Q28.3625 32.096874 26.534374 33.534374Q24.89375 34.815624 22.58125 34.815624ZM23.065624 27.065624Q22.64375 27.065624 22.3 27.08125Q21.971874 27.096874 21.7375 27.14375L21.721874 28.940624L21.503124 32.83125L22.58125 32.95625Q24.221874 32.95625 25.346874 32.128124Q26.58125 31.20625 26.58125 29.675Q26.58125 28.58125 25.409374 27.784374Q24.315624 27.065624 23.065624 27.065624ZM37.534374 41.190624Q37.346874 41.190624 36.8625 40.76875Q36.425 40.3625 36.20625 40.05Q35.26875 40.565624 34.55 40.815624Q33.846874 41.08125 33.3625 41.08125Q31.08125 41.08125 30.034374 39.784374Q29.05 38.58125 29.05 36.08125Q29.05 33.70625 30.675 32.034374Q32.3 30.346874 34.55 30.346874Q35.409374 30.346874 36.45625 30.8Q37.784374 31.346874 37.784374 32.1125Q37.784374 32.378124 37.596874 32.58125Q37.503124 32.95625 37.440624 33.8Q37.39375 34.64375 37.378124 35.971874Q37.3625 37.190624 37.55 37.89375Q37.64375 38.315624 38.159374 39.6125Q38.221874 39.784374 38.378124 40.128124L38.440624 40.3Q38.440624 40.690624 38.159374 40.940624Q37.89375 41.190624 37.534374 41.190624ZM35.503124 34.409374Q35.503124 33.9875 35.55 33.503124Q35.6125 33.003124 35.721874 32.440624Q35.3625 32.253124 35.096874 32.175Q34.846874 32.08125 34.690624 32.08125Q33.175 32.08125 32.065624 33.315624Q30.971874 34.55 30.971874 36.159374Q30.971874 37.76875 31.534374 38.565624Q32.1125 39.3625 33.2375 39.3625Q34.175 39.3625 34.83125 39.01875Q35.175 38.846874 35.815624 38.284374Q35.503124 35.690624 35.503124 34.409374ZM46.440624 32.221874Q46.2375 32.221874 45.95625 32.20625Q45.675 32.190624 45.471874 32.190624Q45.253124 32.190624 44.14375 32.33125L44.33125 38.1125L44.346874 38.534374L44.346874 39.034374Q44.39375 41.175 43.33125 41.175Q42.940624 41.175 42.64375 40.925Q42.3625 40.675 42.3625 40.284374Q42.3625 39.909374 42.39375 39.175Q42.425 38.425 42.425 38.065624L42.221874 32.3625Q41.503124 32.33125 40.05 32.190624Q39.190624 32.065624 39.190624 31.221874Q39.190624 30.8 39.440624 30.51875Q39.70625 30.221874 40.128124 30.221874L42.175 30.39375Q42.175 29.89375 42.128124 29.065624Q42.08125 28.221874 42.08125 27.846874Q42.08125 27.440624 42.3625 27.175Q42.659374 26.909374 43.065624 26.909374Q43.940624 26.909374 44.08125 28.346874Q44.1125 28.70625 44.1125 29.20625L44.096874 29.784374L44.08125 30.378124Q45.3 30.221874 45.471874 30.221874Q46.4875 30.221874 46.8 30.33125Q47.39375 30.51875 47.39375 31.2375Q47.39375 31.675 47.128124 31.95625Q46.8625 32.221874 46.440624 32.221874ZM58.409374 40.034374Q58.378124 40.940624 57.51875 40.940624Q56.815624 40.940624 56.4875 40.096874L54.9875 36.128124L53.253124 31.659374Q53.159374 31.39375 53.159374 31.20625Q53.159374 30.8 53.45625 30.51875Q53.76875 30.2375 54.159374 30.2375Q54.753124 30.2375 55.003124 30.83125L57.4875 37.659374Q58.221874 36.096874 59.33125 33.128124Q59.596874 32.346874 60.159374 30.925Q60.45625 30.3 61.01875 30.3Q61.425 30.3 61.721874 30.58125Q62.01875 30.8625 62.01875 31.253124Q62.01875 31.628124 60.409374 35.425L58.409374 40.034374ZM70.50313 33.034374Q69.95625 33.034374 69.75313 32.675Q69.59688 32.409374 69.4875 31.6125Q68.76875 31.8 67.2375 32.3Q65.65938 32.925 65.65938 33.846874Q65.95625 33.940624 66.2375 34.003124Q68.47188 34.39375 69.56563 35.096874Q71.15938 36.128124 71.15938 38.065624Q71.15938 39.659374 69.78438 40.471874Q68.64375 41.14375 66.89375 41.14375Q65.6125 41.14375 64.45625 40.70625Q62.95625 40.159374 62.95625 39.175Q62.95625 38.784374 63.253124 38.503124Q63.565624 38.20625 63.95625 38.20625Q64.25313 38.20625 64.7375 38.675Q64.97188 38.89375 65.8 39.05Q66.44063 39.159374 66.89375 39.159374Q67.72188 39.159374 68.34688 38.971874Q69.25313 38.690624 69.25313 38.065624Q69.25313 36.7375 67.39375 36.26875L66.37813 36.05Q65.08125 35.76875 64.53438 35.378124Q63.7375 34.83125 63.7375 33.7375Q63.7375 31.690624 65.65938 30.815624Q66.25313 30.565624 67.53438 30.20625Q68.83125 29.83125 69.39375 29.565624Q69.78438 29.39375 70.25313 29.39375Q70.675 29.39375 70.94063 29.675Q71.20625 29.940624 71.20625 30.378124Q71.20625 30.659374 71.33125 31.20625Q71.45625 31.753124 71.45625 32.05Q71.45625 32.4875 71.19063 32.76875Q70.925 33.034374 70.50313 33.034374ZM75.15938 41.45625Q74.64375 41.45625 74.28438 41.096874Q73.94063 40.753124 73.94063 40.253124Q73.94063 39.753124 74.28438 39.39375Q74.64375 39.034374 75.15938 39.034374Q75.65938 39.034374 76.00313 39.39375Q76.3625 39.753124 76.3625 40.253124Q76.3625 40.753124 76.00313 41.096874Q75.65938 41.45625 75.15938 41.45625ZM98.425 41.3625Q97.89375 41.3625 97.55 40.815624Q97.25313 40.346874 97.01875 39.253124L96.675 37.565624Q96.26875 36.003124 95.40938 30.675L93.45625 36.565624L92.87813 38.425Q92.51875 39.51875 92.14375 40.221874Q91.7375 40.971874 91.03438 40.971874Q90.45625 40.971874 90.12813 40.346874Q89.90938 39.940624 89.7375 39.3L89.45625 38.221874Q88.47188 34.76875 87.72188 30.83125L87.3625 32.58125L86.1125 37.7375Q86.03438 38.64375 85.6125 40.425Q85.33125 41.190624 84.64375 41.190624Q84.175 41.190624 83.89375 40.846874Q83.64375 40.55 83.64375 40.1125Q83.64375 38.4875 84.31563 36.1125L85.39375 32.175L85.95625 29.096874Q86.39375 26.940624 86.8625 26.284374Q87.25313 25.721874 87.83125 25.721874Q88.47188 25.721874 88.78438 26.440624Q89.15938 27.3 89.59688 29.9875Q90.1125 33.190624 91.20625 36.940624Q92.65938 33.175 93.70625 29.096874L94.00313 27.675Q94.175 26.815624 94.47188 26.284374Q94.84688 25.565624 95.50313 25.565624Q96.34688 25.565624 96.78438 27.190624Q96.94063 27.753124 97.175 29.4875Q97.75313 33.909374 98.6125 37.034374L99.08125 38.70625Q99.45625 40.065624 99.45625 40.378124Q99.45625 40.8 99.12813 41.08125Q98.81563 41.3625 98.425 41.3625ZM109.53438 41.190624Q109.34688 41.190624 108.8625 40.76875Q108.425 40.3625 108.20625 40.05Q107.26875 40.565624 106.55 40.815624Q105.84688 41.08125 105.3625 41.08125Q103.08125 41.08125 102.03438 39.784374Q101.05 38.58125 101.05 36.08125Q101.05 33.70625 102.675 32.034374Q104.3 30.346874 106.55 30.346874Q107.40938 30.346874 108.45625 30.8Q109.78438 31.346874 109.78438 32.1125Q109.78438 32.378124 109.59688 32.58125Q109.50313 32.95625 109.44063 33.8Q109.39375 34.64375 109.37813 35.971874Q109.3625 37.190624 109.55 37.89375Q109.64375 38.315624 110.15938 39.6125Q110.22188 39.784374 110.37813 40.128124L110.44063 40.3Q110.44063 40.690624 110.15938 40.940624Q109.89375 41.190624 109.53438 41.190624ZM107.50313 34.409374Q107.50313 33.9875 107.55 33.503124Q107.6125 33.003124 107.72188 32.440624Q107.3625 32.253124 107.09688 32.175Q106.84688 32.08125 106.69063 32.08125Q105.175 32.08125 104.06563 33.315624Q102.97188 34.55 102.97188 36.159374Q102.97188 37.76875 103.53438 38.565624Q104.1125 39.3625 105.2375 39.3625Q106.175 39.3625 106.83125 39.01875Q107.175 38.846874 107.81563 38.284374Q107.50313 35.690624 107.50313 34.409374ZM118.44063 32.221874Q118.2375 32.221874 117.95625 32.20625Q117.675 32.190624 117.47188 32.190624Q117.25313 32.190624 116.14375 32.33125L116.33125 38.1125L116.34688 38.534374L116.34688 39.034374Q116.39375 41.175 115.33125 41.175Q114.94063 41.175 114.64375 40.925Q114.3625 40.675 114.3625 40.284374Q114.3625 39.909374 114.39375 39.175Q114.425 38.425 114.425 38.065624L114.22188 32.3625Q113.50313 32.33125 112.05 32.190624Q111.19063 32.065624 111.19063 31.221874Q111.19063 30.8 111.44063 30.51875Q111.70625 30.221874 112.12813 30.221874L114.175 30.39375Q114.175 29.89375 114.12813 29.065624Q114.08125 28.221874 114.08125 27.846874Q114.08125 27.440624 114.3625 27.175Q114.65938 26.909374 115.06563 26.909374Q115.94063 26.909374 116.08125 28.346874Q116.1125 28.70625 116.1125 29.20625L116.09688 29.784374L116.08125 30.378124Q117.3 30.221874 117.47188 30.221874Q118.4875 30.221874 118.8 30.33125Q119.39375 30.51875 119.39375 31.2375Q119.39375 31.675 119.12813 31.95625Q118.8625 32.221874 118.44063 32.221874ZM131.34688 25.76875Q131.34688 26.1125 130.7375 26.76875Q130.3 27.221874 129.84688 27.675Q128.76875 28.89375 128.15938 31.190624Q127.6125 33.175 127.6125 35.096874Q127.6125 40.065624 129.8625 42.378124Q130.31563 42.721874 130.76875 43.08125Q131.33125 43.534374 131.33125 43.971874Q131.33125 44.284374 131.08125 44.51875Q130.83125 44.76875 130.50313 44.76875Q130.20625 44.76875 129.8 44.55Q125.65938 42.2375 125.65938 34.878124Q125.65938 32.221874 126.72188 29.51875Q127.925 26.503124 129.84688 25.14375Q130.2375 24.8625 130.47188 24.8625Q130.81563 24.8625 131.08125 25.14375Q131.34688 25.425 131.34688 25.76875ZM138.425 40.565624L136.4875 40.565624L134.55 40.55Q133.8625 40.55 133.59688 40.45625Q133.09688 40.284374 133.09688 39.721874Q133.09688 38.7375 134.62813 38.7375L135.09688 38.7375L135.50313 38.76875Q135.50313 38.3 135.40938 37.378124Q135.33125 36.45625 135.33125 36.003124Q135.33125 34.753124 135.55 32.221874Q135.76875 29.7375 135.75313 28.45625Q134.45625 29.471874 134.09688 29.471874Q133.70625 29.471874 133.40938 29.175Q133.12813 28.878124 133.12813 28.503124Q133.12813 28.034374 133.95625 27.378124Q134.4875 27.01875 135.45625 26.190624Q136.31563 25.33125 137.09688 25.33125Q137.75313 25.33125 137.75313 26.08125Q137.75313 26.3 137.69063 26.753124Q137.62813 27.190624 137.62813 27.409374Q137.62813 27.7375 137.65938 28.39375Q137.70625 29.05 137.70625 29.3625Q137.70625 30.4875 137.47188 32.690624Q137.2375 34.89375 137.2375 36.003124Q137.2375 36.565624 137.31563 37.378124Q137.39375 38.190624 137.39375 38.70625L138.425 38.690624Q138.83125 38.690624 139.09688 38.95625Q139.37813 39.221874 139.37813 39.628124Q139.37813 40.034374 139.09688 40.3Q138.83125 40.565624 138.425 40.565624ZM148.20625 39.3625Q147.4875 39.89375 145.925 40.64375Q144.175 41.471874 143.4875 41.471874Q143.09688 41.471874 142.83125 41.175Q142.56563 40.89375 142.56563 40.503124Q142.56563 39.925 143.2375 39.628124L144.8625 39.08125Q146.37813 38.45625 147.25313 37.659374Q148.14375 36.8625 148.8625 35.378124L149.28438 34.55Q148.7375 34.8625 147.87813 35.128124Q147.01875 35.378124 146.47188 35.378124Q144.62813 35.378124 143.28438 34.3625Q141.64375 33.1125 141.64375 30.8Q141.64375 28.08125 143.33125 26.70625Q144.75313 25.55 147.09688 25.55Q148.89375 25.55 150.31563 27.01875Q151.81563 28.565624 151.83125 30.76875Q151.84688 33.2375 150.90938 35.58125Q149.90938 38.096874 148.20625 39.3625ZM146.81563 27.221874Q145.175 27.221874 144.34688 28.08125Q143.53438 28.925 143.51875 30.628124Q143.51875 32.065624 144.51875 32.846874Q145.40938 33.55 146.76875 33.55Q147.55 33.55 148.39375 33.08125Q148.78438 32.8625 149.8 32.1125Q149.925 31.26875 149.925 30.76875Q149.90938 29.55 148.89375 28.39375Q147.87813 27.221874 146.81563 27.221874ZM158.55 41.08125Q156.4875 41.08125 155.22188 40.175Q153.76875 39.159374 153.7375 37.20625Q153.70625 34.05 155.95625 32.909374Q154.22188 31.846874 154.22188 29.909374Q154.22188 28.065624 155.56563 26.83125Q156.83125 25.659374 158.65938 25.64375Q162.76875 25.6125 162.76875 29.70625Q162.76875 30.878124 162.3 31.503124Q161.90938 32.034374 160.81563 32.596874Q162.28438 33.315624 162.8625 34.175Q163.55 35.175 163.55 36.909374Q163.55 38.909374 162.06563 40.034374Q160.70625 41.08125 158.55 41.08125ZM158.62813 27.39375Q157.37813 27.39375 156.70625 28.1125Q156.1125 28.76875 156.12813 29.909374Q156.12813 31.26875 158.37813 31.846874Q159.55 31.503124 160.05 31.159374Q160.8625 30.6125 160.8625 29.70625Q160.8625 28.378124 160.26875 27.83125Q159.75313 27.39375 158.62813 27.39375ZM158.45625 33.58125Q156.90938 34.3 156.39375 34.83125Q155.58125 35.64375 155.62813 37.1125Q155.65938 38.33125 156.75313 38.940624Q157.53438 39.3625 158.55 39.3625Q160.26875 39.3625 160.95625 38.55Q161.50313 37.909374 161.50313 36.596874Q161.50313 35.33125 160.50313 34.55Q159.83125 34.003124 158.45625 33.58125ZM172.20625 39.3625Q171.4875 39.89375 169.925 40.64375Q168.175 41.471874 167.4875 41.471874Q167.09688 41.471874 166.83125 41.175Q166.56563 40.89375 166.56563 40.503124Q166.56563 39.925 167.2375 39.628124L168.8625 39.08125Q170.37813 38.45625 171.25313 37.659374Q172.14375 36.8625 172.8625 35.378124L173.28438 34.55Q172.7375 34.8625 171.87813 35.128124Q171.01875 35.378124 170.47188 35.378124Q168.62813 35.378124 167.28438 34.3625Q165.64375 33.1125 165.64375 30.8Q165.64375 28.08125 167.33125 26.70625Q168.75313 25.55 171.09688 25.55Q172.89375 25.55 174.31563 27.01875Q175.81563 28.565624 175.83125 30.76875Q175.84688 33.2375 174.90938 35.58125Q173.90938 38.096874 172.20625 39.3625ZM170.81563 27.221874Q169.175 27.221874 168.34688 28.08125Q167.53438 28.925 167.51875 30.628124Q167.51875 32.065624 168.51875 32.846874Q169.40938 33.55 170.76875 33.55Q171.55 33.55 172.39375 33.08125Q172.78438 32.8625 173.8 32.1125Q173.925 31.26875 173.925 30.76875Q173.90938 29.55 172.89375 28.39375Q171.87813 27.221874 170.81563 27.221874ZM180.425 33.14375Q180.97188 33.14375 182.05 33.221874Q183.12813 33.3 183.675 33.3Q184.09688 33.3 184.3625 33.58125Q184.64375 33.846874 184.64375 34.26875Q184.64375 34.690624 184.3625 34.971874Q184.09688 35.2375 183.675 35.2375Q183.12813 35.2375 182.05 35.159374Q180.97188 35.08125 180.425 35.08125Q179.14375 35.08125 178.1125 35.221874Q178.01875 35.2375 177.94063 35.2375Q177.53438 35.2375 177.25313 34.971874Q176.9875 34.690624 176.9875 34.253124Q176.9875 33.4875 177.78438 33.315624Q178.58125 33.14375 180.425 33.14375ZM192.425 40.565624L190.4875 40.565624L188.55 40.55Q187.8625 40.55 187.59688 40.45625Q187.09688 40.284374 187.09688 39.721874Q187.09688 38.7375 188.62813 38.7375L189.09688 38.7375L189.50313 38.76875Q189.50313 38.3 189.40938 37.378124Q189.33125 36.45625 189.33125 36.003124Q189.33125 34.753124 189.55 32.221874Q189.76875 29.7375 189.75313 28.45625Q188.45625 29.471874 188.09688 29.471874Q187.70625 29.471874 187.40938 29.175Q187.12813 28.878124 187.12813 28.503124Q187.12813 28.034374 187.95625 27.378124Q188.4875 27.01875 189.45625 26.190624Q190.31563 25.33125 191.09688 25.33125Q191.75313 25.33125 191.75313 26.08125Q191.75313 26.3 191.69063 26.753124Q191.62813 27.190624 191.62813 27.409374Q191.62813 27.7375 191.65938 28.39375Q191.70625 29.05 191.70625 29.3625Q191.70625 30.4875 191.47188 32.690624Q191.2375 34.89375 191.2375 36.003124Q191.2375 36.565624 191.31563 37.378124Q191.39375 38.190624 191.39375 38.70625L192.425 38.690624Q192.83125 38.690624 193.09688 38.95625Q193.37813 39.221874 193.37813 39.628124Q193.37813 40.034374 193.09688 40.3Q192.83125 40.565624 192.425 40.565624ZM202.20625 39.3625Q201.4875 39.89375 199.925 40.64375Q198.175 41.471874 197.4875 41.471874Q197.09688 41.471874 196.83125 41.175Q196.56563 40.89375 196.56563 40.503124Q196.56563 39.925 197.2375 39.628124L198.8625 39.08125Q200.37813 38.45625 201.25313 37.659374Q202.14375 36.8625 202.8625 35.378124L203.28438 34.55Q202.7375 34.8625 201.87813 35.128124Q201.01875 35.378124 200.47188 35.378124Q198.62813 35.378124 197.28438 34.3625Q195.64375 33.1125 195.64375 30.8Q195.64375 28.08125 197.33125 26.70625Q198.75313 25.55 201.09688 25.55Q202.89375 25.55 204.31563 27.01875Q205.81563 28.565624 205.83125 30.76875Q205.84688 33.2375 204.90938 35.58125Q203.90938 38.096874 202.20625 39.3625ZM200.81563 27.221874Q199.175 27.221874 198.34688 28.08125Q197.53438 28.925 197.51875 30.628124Q197.51875 32.065624 198.51875 32.846874Q199.40938 33.55 200.76875 33.55Q201.55 33.55 202.39375 33.08125Q202.78438 32.8625 203.8 32.1125Q203.925 31.26875 203.925 30.76875Q203.90938 29.55 202.89375 28.39375Q201.87813 27.221874 200.81563 27.221874ZM214.20625 39.3625Q213.4875 39.89375 211.925 40.64375Q210.175 41.471874 209.4875 41.471874Q209.09688 41.471874 208.83125 41.175Q208.56563 40.89375 208.56563 40.503124Q208.56563 39.925 209.2375 39.628124L210.8625 39.08125Q212.37813 38.45625 213.25313 37.659374Q214.14375 36.8625 214.8625 35.378124L215.28438 34.55Q214.7375 34.8625 213.87813 35.128124Q213.01875 35.378124 212.47188 35.378124Q210.62813 35.378124 209.28438 34.3625Q207.64375 33.1125 207.64375 30.8Q207.64375 28.08125 209.33125 26.70625Q210.75313 25.55 213.09688 25.55Q214.89375 25.55 216.31563 27.01875Q217.81563 28.565624 217.83125 30.76875Q217.84688 33.2375 216.90938 35.58125Q215.90938 38.096874 214.20625 39.3625ZM212.81563 27.221874Q211.175 27.221874 210.34688 28.08125Q209.53438 28.925 209.51875 30.628124Q209.51875 32.065624 210.51875 32.846874Q211.40938 33.55 212.76875 33.55Q213.55 33.55 214.39375 33.08125Q214.78438 32.8625 215.8 32.1125Q215.925 31.26875 215.925 30.76875Q215.90938 29.55 214.89375 28.39375Q213.87813 27.221874 212.81563 27.221874ZM224.51875 40.925Q221.55 40.925 220.175 38.221874Q219.14375 36.128124 219.14375 32.76875Q219.14375 29.940624 220.4875 27.83125Q222.08125 25.3625 224.81563 25.3625Q227.39375 25.3625 228.83125 27.55Q230.06563 29.440624 230.06563 32.175Q230.06563 36.55 228.675 38.7375Q227.28438 40.925 224.51875 40.925ZM224.81563 27.253124Q222.9875 27.253124 221.925 29.096874Q221.03438 30.64375 221.03438 32.6125Q221.03438 35.83125 221.90938 37.440624Q222.78438 39.05 224.51875 39.05Q226.58125 39.05 227.4875 36.690624Q228.1125 35.05 228.1125 32.534374Q228.1125 29.878124 227.28438 28.565624Q226.45625 27.253124 224.81563 27.253124ZM237.34688 34.878124Q237.34688 42.2375 233.20625 44.55Q232.8 44.76875 232.51875 44.76875Q232.175 44.76875 231.925 44.51875Q231.675 44.284374 231.675 43.971874Q231.675 43.534374 232.2375 43.08125Q232.69063 42.721874 233.14375 42.378124Q235.39375 40.065624 235.39375 35.096874Q235.39375 33.175 234.8625 31.190624Q234.2375 28.89375 233.15938 27.675Q232.70625 27.221874 232.26875 26.76875Q231.65938 26.1125 231.65938 25.76875Q231.65938 25.425 231.90938 25.14375Q232.175 24.8625 232.53438 24.8625Q232.75313 24.8625 233.15938 25.14375Q235.09688 26.503124 236.28438 29.51875Q237.34688 32.221874 237.34688 34.878124Z" fill-rule="nonzero"/></svg>