<svg version="1.1" viewBox="0.0 0.0 600.0 371.0" fill="none" stroke="none" stroke-linecap="square" stroke-miterlimit="10" width="600" height="371" xmlns:xlink="http://www.w3.org/1999/xlink" xmlns="http://www.w3.org/2000/svg"><path fill="#ffffff" d="M0 0L600.0 0L600.0 371.0L0 371.0L0 0Z" fill-rule="nonzero"/><path stroke="#333333" stroke-width="1.0" stroke-linecap="butt" d="M56.5 296.5L581.5 296.5" fill-rule="nonzero"/><path stroke="#cccccc" stroke-width="1.0" stroke-linecap="butt" d="M56.5 245.5L581.5 245.5" fill-rule="nonzero"/><path stroke="#cccccc" stroke-width="1.0" stroke-linecap="butt" d="M56.5 194.5L581.5 194.5" fill-rule="nonzero"/><path stroke="#cccccc" stroke-width="1.0" stroke-linecap="butt" d="M56.5 143.5L581.5 143.5" fill-rule="nonzero"/><path stroke="#cccccc" stroke-width="1.0" stroke-linecap="butt" d="M56.5 92.5L581.5 92.5" fill-rule="nonzero"/><clipPath id="id_0"><path d="M56.55 92.28333L581.45 92.28333L581.45 296.45L56.55 296.45L56.55 92.28333Z" clip-rule="nonzero"/></clipPath><path fill="#efc649" clip-path="url(#id_0)" d="M56.55 181.15965L104.26818 203.64697L151.98636 177.35907L199.70454 157.39612L247.42273 191.2176L295.1409 183.74155L342.8591 168.41179L390.57727 162.35333L438.29544 187.73788L486.01364 197.17899L533.7318 218.6077L581.45 187.17609L581.45 296.45L533.7318 296.45L486.01364 296.45L438.29544 296.45L390.57727 296.45L342.8591 296.45L295.1409 296.45L247.42273 296.45L199.70454 296.45L151.98636 296.45L104.26818 296.45L56.55 296.45Z" fill-rule="nonzero"/><path fill="#d64e20" clip-path="url(#id_0)" d="M56.55 92.28333L104.26818 92.28333L151.98636 92.28333L199.70454 92.28333L247.42273 92.28333L295.1409 92.28333L342.8591 92.28333L390.57727 92.28333L438.29544 92.28333L486.01364 92.28333L533.7318 92.28333L581.45 92.28333L581.45 187.17609L533.7318 218.6077L486.01364 197.17899L438.29544 187.73788L390.57727 162.35333L342.8591 168.41179L295.1409 183.74155L247.42273 191.2176L199.70454 157.39612L151.98636 177.35907L104.26818 203.64697L56.55 181.15965Z" fill-rule="nonzero"/><path stroke="#efc649" stroke-width="2.0" stroke-linecap="butt" clip-path="url(#id_0)" d="M56.55 181.15965L104.26818 203.64697L151.98636 177.35907L199.70454 157.39612L247.42273 191.2176L295.1409 183.74155L342.8591 168.41179L390.57727 162.35333L438.29544 187.73788L486.01364 197.17899L533.7318 218.6077L581.45 187.17609" fill-rule="nonzero"/><path stroke="#d64e20" stroke-width="2.0" stroke-linecap="butt" clip-path="url(#id_0)" d="M56.55 92.28333L104.26818 92.28333L151.98636 92.28333L199.70454 92.28333L247.42273 92.28333L295.1409 92.28333L342.8591 92.28333L390.57727 92.28333L438.29544 92.28333L486.01364 92.28333L533.7318 92.28333L581.45 92.28333" fill-rule="nonzero"/><path fill="#000000" fill-opacity="0.0" clip-path="url(#id_0)" d="M59.55 181.15965C59.55 182.8165 58.206856 184.15965 56.55 184.15965C54.893147 184.15965 53.55 182.8165 53.55 181.15965C53.55 179.50279 54.893147 178.15965 56.55 178.15965C58.206856 178.15965 59.55 179.50279 59.55 181.15965Z" fill-rule="nonzero"/><path fill="#000000" fill-opacity="0.0" clip-path="url(#id_0)" d="M107.26818 203.64697C107.26818 205.30382 105.92503 206.64697 104.26818 206.64697C102.61133 206.64697 101.26818 205.30382 101.26818 203.64697C101.26818 201.99011 102.61133 200.64697 104.26818 200.64697C105.92503 200.64697 107.26818 201.99011 107.26818 203.64697Z" fill-rule="nonzero"/><path fill="#000000" fill-opacity="0.0" clip-path="url(#id_0)" d="M154.98636 177.35907C154.98636 179.01591 153.64322 180.35907 151.98636 180.35907C150.32951 180.35907 148.98636 179.01591 148.98636 177.35907C148.98636 175.70221 150.32951 174.35907 151.98636 174.35907C153.64322 174.35907 154.98636 175.70221 154.98636 177.35907Z" fill-rule="nonzero"/><path fill="#000000" fill-opacity="0.0" clip-path="url(#id_0)" d="M202.70454 157.39612C202.70454 159.05296 201.3614 160.39612 199.70454 160.39612C198.04768 160.39612 196.70454 159.05296 196.70454 157.39612C196.70454 155.73926 198.04768 154.39612 199.70454 154.39612C201.3614 154.39612 202.70454 155.73926 202.70454 157.39612Z" fill-rule="nonzero"/><path fill="#000000" fill-opacity="0.0" clip-path="url(#id_0)" d="M250.42273 191.2176C250.42273 192.87447 249.07957 194.2176 247.42273 194.2176C245.76587 194.2176 244.42273 192.87447 244.42273 191.2176C244.42273 189.56076 245.76587 188.2176 247.42273 188.2176C249.07957 188.2176 250.42273 189.56076 250.42273 191.2176Z" fill-rule="nonzero"/><path fill="#000000" fill-opacity="0.0" clip-path="url(#id_0)" d="M298.1409 183.74155C298.1409 185.3984 296.79776 186.74155 295.1409 186.74155C293.48407 186.74155 292.1409 185.3984 292.1409 183.74155C292.1409 182.08469 293.48407 180.74155 295.1409 180.74155C296.79776 180.74155 298.1409 182.08469 298.1409 183.74155Z" fill-rule="nonzero"/><path fill="#000000" fill-opacity="0.0" clip-path="url(#id_0)" d="M345.8591 168.41179C345.8591 170.06863 344.51593 171.41179 342.8591 171.41179C341.20224 171.41179 339.8591 170.06863 339.8591 168.41179C339.8591 166.75493 341.20224 165.41179 342.8591 165.41179C344.51593 165.41179 345.8591 166.75493 345.8591 168.41179Z" fill-rule="nonzero"/><path fill="#000000" fill-opacity="0.0" clip-path="url(#id_0)" d="M393.57727 162.35333C393.57727 164.0102 392.23413 165.35333 390.57727 165.35333C388.9204 165.35333 387.57727 164.0102 387.57727 162.35333C387.57727 160.69647 388.9204 159.35333 390.57727 159.35333C392.23413 159.35333 393.57727 160.69647 393.57727 162.35333Z" fill-rule="nonzero"/><path fill="#000000" fill-opacity="0.0" clip-path="url(#id_0)" d="M441.29544 187.73788C441.29544 189.39473 439.9523 190.73788 438.29544 190.73788C436.6386 190.73788 435.29544 189.39473 435.29544 187.73788C435.29544 186.08102 436.6386 184.73788 438.29544 184.73788C439.9523 184.73788 441.29544 186.08102 441.29544 187.73788Z" fill-rule="nonzero"/><path fill="#000000" fill-opacity="0.0" clip-path="url(#id_0)" d="M489.01364 197.17899C489.01364 198.83583 487.6705 200.17899 486.01364 200.17899C484.35678 200.17899 483.01364 198.83583 483.01364 197.17899C483.01364 195.52213 484.35678 194.17899 486.01364 194.17899C487.6705 194.17899 489.01364 195.52213 489.01364 197.17899Z" fill-rule="nonzero"/><path fill="#000000" fill-opacity="0.0" clip-path="url(#id_0)" d="M536.7318 218.6077C536.7318 220.26454 535.3887 221.6077 533.7318 221.6077C532.07495 221.6077 530.7318 220.26454 530.7318 218.6077C530.7318 216.95084 532.07495 215.6077 533.7318 215.6077C535.3887 215.6077 536.7318 216.95084 536.7318 218.6077Z" fill-rule="nonzero"/><path fill="#000000" fill-opacity="0.0" clip-path="url(#id_0)" d="M584.45 187.17609C584.45 188.83293 583.1069 190.17609 581.45 190.17609C579.79315 190.17609 578.45 188.83293 578.45 187.17609C578.45 185.51923 579.79315 184.17609 581.45 184.17609C583.1069 184.17609 584.45 185.51923 584.45 187.17609Z" fill-rule="nonzero"/><path fill="#d64e20" clip-path="url(#id_0)" d="M62.55 92.28333C62.55 95.59704 59.86371 98.28333 56.55 98.28333C53.23629 98.28333 50.55 95.59704 50.55 92.28333C50.55 88.96963 53.23629 86.28333 56.55 86.28333C59.86371 86.28333 62.55 88.96963 62.55 92.28333Z" fill-rule="nonzero"/><path fill="#d64e20" clip-path="url(#id_0)" d="M110.26818 92.28333C110.26818 95.59704 107.581894 98.28333 104.26818 98.28333C100.954475 98.28333 98.26818 95.59704 98.26818 92.28333C98.26818 88.96963 100.954475 86.28333 104.26818 86.28333C107.581894 86.28333 110.26818 88.96963 110.26818 92.28333Z" fill-rule="nonzero"/><path fill="#d64e20" clip-path="url(#id_0)" d="M157.98636 92.28333C157.98636 95.59704 155.30008 98.28333 151.98636 98.28333C148.67265 98.28333 145.98636 95.59704 145.98636 92.28333C145.98636 88.96963 148.67265 86.28333 151.98636 86.28333C155.30008 86.28333 157.98636 88.96963 157.98636 92.28333Z" fill-rule="nonzero"/><path fill="#d64e20" clip-path="url(#id_0)" d="M205.70454 92.28333C205.70454 95.59704 203.01825 98.28333 199.70454 98.28333C196.39084 98.28333 193.70454 95.59704 193.70454 92.28333C193.70454 88.96963 196.39084 86.28333 199.70454 86.28333C203.01825 86.28333 205.70454 88.96963 205.70454 92.28333Z" fill-rule="nonzero"/><path fill="#d64e20" clip-path="url(#id_0)" d="M253.42273 92.28333C253.42273 95.59704 250.73643 98.28333 247.42273 98.28333C244.10902 98.28333 241.42273 95.59704 241.42273 92.28333C241.42273 88.96963 244.10902 86.28333 247.42273 86.28333C250.73643 86.28333 253.42273 88.96963 253.42273 92.28333Z" fill-rule="nonzero"/><path fill="#d64e20" clip-path="url(#id_0)" d="M301.1409 92.28333C301.1409 95.59704 298.45462 98.28333 295.1409 98.28333C291.8272 98.28333 289.1409 95.59704 289.1409 92.28333C289.1409 88.96963 291.8272 86.28333 295.1409 86.28333C298.45462 86.28333 301.1409 88.96963 301.1409 92.28333Z" fill-rule="nonzero"/><path fill="#d64e20" clip-path="url(#id_0)" d="M348.8591 92.28333C348.8591 95.59704 346.1728 98.28333 342.8591 98.28333C339.54538 98.28333 336.8591 95.59704 336.8591 92.28333C336.8591 88.96963 339.54538 86.28333 342.8591 86.28333C346.1728 86.28333 348.8591 88.96963 348.8591 92.28333Z" fill-rule="nonzero"/><path fill="#d64e20" clip-path="url(#id_0)" d="M396.57727 92.28333C396.57727 95.59704 393.891 98.28333 390.57727 98.28333C387.26355 98.28333 384.57727 95.59704 384.57727 92.28333C384.57727 88.96963 387.26355 86.28333 390.57727 86.28333C393.891 86.28333 396.57727 88.96963 396.57727 92.28333Z" fill-rule="nonzero"/><path fill="#d64e20" clip-path="url(#id_0)" d="M444.29544 92.28333C444.29544 95.59704 441.60916 98.28333 438.29544 98.28333C434.98175 98.28333 432.29544 95.59704 432.29544 92.28333C432.29544 88.96963 434.98175 86.28333 438.29544 86.28333C441.60916 86.28333 444.29544 88.96963 444.29544 92.28333Z" fill-rule="nonzero"/><path fill="#d64e20" clip-path="url(#id_0)" d="M492.01364 92.28333C492.01364 95.59704 489.32733 98.28333 486.01364 98.28333C482.69992 98.28333 480.01364 95.59704 480.01364 92.28333C480.01364 88.96963 482.69992 86.28333 486.01364 86.28333C489.32733 86.28333 492.01364 88.96963 492.01364 92.28333Z" fill-rule="nonzero"/><path fill="#d64e20" clip-path="url(#id_0)" d="M539.7318 92.28333C539.7318 95.59704 537.04553 98.28333 533.7318 98.28333C530.4181 98.28333 527.7318 95.59704 527.7318 92.28333C527.7318 88.96963 530.4181 86.28333 533.7318 86.28333C537.04553 86.28333 539.7318 88.96963 539.7318 92.28333Z" fill-rule="nonzero"/><path fill="#d64e20" clip-path="url(#id_0)" d="M587.45 92.28333C587.45 95.59704 584.76373 98.28333 581.45 98.28333C578.1363 98.28333 575.45 95.59704 575.45 92.28333C575.45 88.96963 578.1363 86.28333 581.45 86.28333C584.76373 86.28333 587.45 88.96963 587.45 92.28333Z" fill-rule="nonzero"/><path fill="#000000" d="M296.39062 348.84064Q296.28125 348.84064 295.98438 348.575Q295.71875 348.34064 295.59375 348.15314Q295.03125 348.45 294.59375 348.60626Q294.17188 348.7625 293.89062 348.7625Q292.51562 348.7625 291.89062 347.9969Q291.29688 347.2625 291.29688 345.7625Q291.29688 344.34064 292.26562 343.34064Q293.25 342.325 294.60938 342.325Q295.10938 342.325 295.75 342.59064Q296.54688 342.91876 296.54688 343.3875Q296.54688 343.54376 296.42188 343.66876Q296.375 343.8875 296.32812 344.40314Q296.29688 344.90314 296.29688 345.7Q296.29688 346.4344 296.39062 346.85626Q296.45312 347.10626 296.76562 347.8875Q296.8125 347.9969 296.90625 348.2L296.9375 348.29376Q296.9375 348.52814 296.76562 348.6844Q296.60938 348.84064 296.39062 348.84064ZM295.17188 344.7625Q295.17188 344.5125 295.20312 344.21564Q295.23438 343.91876 295.29688 343.59064Q295.07812 343.48126 294.92188 343.4344Q294.78125 343.3719 294.6875 343.3719Q293.76562 343.3719 293.10938 344.1219Q292.45312 344.85626 292.45312 345.825Q292.45312 346.77814 292.79688 347.2625Q293.14062 347.7469 293.8125 347.7469Q294.375 347.7469 294.76562 347.52814Q294.98438 347.41876 295.35938 347.09064Q295.17188 345.54376 295.17188 344.7625ZM301.75 340.21564Q300.32812 340.21564 300.17188 342.1844L300.14062 342.54376Q301.14062 342.46564 301.4375 342.46564Q302.375 342.46564 302.375 343.0594Q302.375 343.48126 301.90625 343.575Q301.71875 343.60626 301.4375 343.60626Q301.17188 343.59064 300.09375 343.66876L300.04688 345.0125Q300.04688 345.3719 300.0625 346.10626Q300.09375 346.825 300.09375 347.1844Q300.09375 348.29376 299.96875 348.91876Q299.85938 349.3875 299.42188 349.3875Q299.1875 349.3875 299.01562 349.23126Q298.84375 349.075 298.84375 348.84064Q298.84375 348.79376 298.85938 348.73126Q298.96875 347.96564 298.96875 347.0594L298.95312 345.46564L298.95312 343.7625Q298.21875 343.825 298.03125 343.825Q297.4375 343.825 297.4375 343.2625Q297.4375 342.6844 298.46875 342.65314L299.03125 342.6375Q299.04688 342.3094 299.10938 341.7469Q299.26562 340.4344 299.76562 339.825Q300.375 339.075 301.67188 339.075Q302.51562 339.075 302.51562 339.65314Q302.51562 340.21564 301.75 340.21564ZM305.29688 343.84064L305.21875 346.7625Q305.21875 347.21564 305.17188 348.1219Q305.10938 348.7 304.59375 348.7Q304.01562 348.7 304.01562 348.10626Q304.01562 347.3875 304.07812 345.98126Q304.15625 344.5594 304.15625 343.84064Q304.15625 342.91876 304.17188 341.73126Q304.20312 340.52814 304.20312 339.60626Q304.20312 339.02814 304.78125 339.02814Q305.35938 339.02814 305.35938 339.60626Q305.35938 340.52814 305.32812 341.73126Q305.29688 342.91876 305.29688 343.84064ZM310.54688 348.71564Q309.23438 348.71564 308.40625 348.0594Q307.51562 347.325 307.51562 346.0125Q307.51562 344.48126 308.25 343.45Q309.04688 342.325 310.39062 342.325Q311.35938 342.325 311.98438 342.65314Q312.73438 343.0594 312.73438 343.90314Q312.73438 344.48126 312.07812 344.96564Q311.78125 345.16876 310.82812 345.6219L308.59375 346.6844Q308.92188 347.16876 309.40625 347.41876Q309.90625 347.65314 310.54688 347.65314Q310.95312 347.65314 311.5 347.5125Q312.1875 347.3094 312.39062 346.9969Q312.59375 346.6844 312.8125 346.6844Q313.03125 346.6844 313.1875 346.84064Q313.34375 346.9969 313.34375 347.2Q313.34375 347.85626 312.29688 348.325Q311.40625 348.71564 310.54688 348.71564ZM310.39062 343.3875Q309.67188 343.3875 309.20312 343.9344Q308.73438 344.48126 308.5 345.60626L310.29688 344.7469Q311.35938 344.23126 311.8125 343.85626Q311.29688 343.3875 310.39062 343.3875ZM316.51562 348.1375Q316.5 348.6844 315.98438 348.6844Q315.5625 348.6844 315.35938 348.1844L314.46875 345.79376L313.42188 343.10626Q313.35938 342.96564 313.35938 342.84064Q313.35938 342.60626 313.54688 342.4344Q313.73438 342.2625 313.96875 342.2625Q314.3125 342.2625 314.46875 342.6219L315.95312 346.71564Q316.40625 345.77814 317.0625 343.9969Q317.21875 343.52814 317.5625 342.66876Q317.75 342.29376 318.07812 342.29376Q318.32812 342.29376 318.5 342.46564Q318.6875 342.6375 318.6875 342.8719Q318.6875 343.09064 317.71875 345.3719L316.51562 348.1375ZM322.54688 348.71564Q321.23438 348.71564 320.40625 348.0594Q319.51562 347.325 319.51562 346.0125Q319.51562 344.48126 320.25 343.45Q321.04688 342.325 322.39062 342.325Q323.35938 342.325 323.98438 342.65314Q324.73438 343.0594 324.73438 343.90314Q324.73438 344.48126 324.07812 344.96564Q323.78125 345.16876 322.82812 345.6219L320.59375 346.6844Q320.92188 347.16876 321.40625 347.41876Q321.90625 347.65314 322.54688 347.65314Q322.95312 347.65314 323.5 347.5125Q324.1875 347.3094 324.39062 346.9969Q324.59375 346.6844 324.8125 346.6844Q325.03125 346.6844 325.1875 346.84064Q325.34375 346.9969 325.34375 347.2Q325.34375 347.85626 324.29688 348.325Q323.40625 348.71564 322.54688 348.71564ZM322.39062 343.3875Q321.67188 343.3875 321.20312 343.9344Q320.73438 344.48126 320.5 345.60626L322.29688 344.7469Q323.35938 344.23126 323.8125 343.85626Q323.29688 343.3875 322.39062 343.3875ZM330.375 344.1219Q330.32812 344.85626 329.78125 344.85626Q329.28125 344.85626 329.28125 344.27814Q329.28125 344.15314 329.26562 343.85626L329.25 343.3719Q328.32812 343.48126 327.76562 343.8875Q327.25 344.27814 326.90625 345.04376L326.90625 348.2469Q326.90625 348.84064 326.32812 348.84064Q325.8125 348.84064 325.8125 348.2469L325.8125 344.1375Q325.8125 343.95 325.82812 343.5594Q325.84375 343.16876 325.84375 342.98126Q325.84375 342.3875 326.35938 342.3875Q326.9375 342.3875 326.9375 343.35626Q328.0625 342.27814 329.4375 342.27814Q329.90625 342.27814 330.14062 342.6375Q330.375 342.98126 330.375 343.71564Q330.375 344.0125 330.375 344.1219ZM332.9375 341.02814Q332.65625 341.02814 332.45312 340.84064Q332.25 340.6375 332.25 340.35626Q332.25 340.075 332.45312 339.8719Q332.65625 339.66876 332.9375 339.66876Q333.21875 339.66876 333.42188 339.8719Q333.625 340.075 333.625 340.35626Q333.625 340.6375 333.42188 340.84064Q333.21875 341.02814 332.9375 341.02814ZM333.20312 345.79376Q333.20312 346.1375 333.21875 346.84064Q333.23438 347.54376 333.23438 347.8875Q333.23438 348.15314 333.07812 348.325Q332.92188 348.48126 332.67188 348.48126Q332.40625 348.48126 332.25 348.325Q332.09375 348.15314 332.09375 347.8875Q332.09375 347.54376 332.0625 346.84064Q332.04688 346.1375 332.04688 345.79376Q332.04688 345.23126 332.10938 344.41876Q332.17188 343.59064 332.17188 343.04376Q332.17188 342.77814 332.32812 342.6219Q332.48438 342.45 332.73438 342.45Q333.0 342.45 333.15625 342.6219Q333.3125 342.77814 333.3125 343.04376Q333.3125 343.59064 333.25 344.41876Q333.20312 345.23126 333.20312 345.79376ZM340.3125 348.8719Q339.8125 348.8719 339.73438 348.3094L339.57812 347.02814Q339.5 346.34064 339.5 345.7469Q339.5 345.59064 339.51562 345.2Q339.53125 344.79376 339.53125 344.6375Q339.53125 343.3719 339.0625 343.3719Q338.40625 343.3719 337.8125 344.15314Q337.28125 344.85626 336.96875 345.9344Q336.95312 346.16876 336.92188 346.5125Q336.875 346.8094 336.875 347.09064Q336.875 347.2625 336.90625 347.6219Q336.95312 347.96564 336.95312 348.1375Q336.95312 348.40314 336.78125 348.5594Q336.625 348.73126 336.375 348.73126Q336.125 348.73126 335.95312 348.5594Q335.79688 348.40314 335.79688 348.1375Q335.79688 347.96564 335.76562 347.6219Q335.73438 347.2625 335.73438 347.09064Q335.73438 346.48126 335.8125 345.41876Q335.89062 344.34064 335.89062 343.73126Q335.89062 343.54376 335.875 343.1844Q335.85938 342.8094 335.85938 342.6219Q335.85938 342.3719 336.01562 342.21564Q336.1875 342.04376 336.4375 342.04376Q336.96875 342.04376 337.03125 342.8094L337.04688 343.4969Q338.03125 342.1844 339.0625 342.1844Q340.0 342.1844 340.375 343.0125Q340.625 343.5594 340.65625 344.6375L340.65625 345.23126L340.64062 345.77814Q340.64062 346.2625 340.76562 347.04376Q340.89062 347.8094 340.89062 348.27814Q340.89062 348.54376 340.71875 348.7Q340.5625 348.8719 340.3125 348.8719ZM346.64062 345.91876L346.5 347.8875Q346.46875 349.0594 346.26562 349.8094Q346.0 350.7625 345.42188 351.21564Q344.71875 351.7625 343.39062 351.7625Q342.60938 351.7625 342.07812 351.65314Q341.34375 351.4969 341.34375 351.04376Q341.34375 350.5125 341.84375 350.5125Q342.0625 350.5125 342.54688 350.6219Q343.04688 350.73126 343.64062 350.71564Q344.76562 350.7 345.20312 349.6219Q345.48438 348.90314 345.5 347.41876Q345.17188 348.0125 344.73438 348.3094Q344.3125 348.59064 343.75 348.59064Q342.6875 348.59064 342.01562 347.8719Q341.35938 347.15314 341.35938 345.9969Q341.35938 344.41876 342.26562 343.45Q343.20312 342.45 344.8125 342.45Q345.35938 342.45 345.71875 342.59064Q346.09375 342.73126 346.29688 343.0125Q346.92188 343.02814 346.92188 343.71564Q346.92188 344.1219 346.79688 344.825Q346.65625 345.6375 346.64062 345.91876ZM344.75 343.3875Q343.64062 343.3875 343.03125 344.15314Q342.48438 344.84064 342.48438 345.91876Q342.48438 346.7625 342.8125 347.2Q343.14062 347.6219 343.78125 347.6219Q344.375 347.6219 344.92188 346.95Q345.4375 346.34064 345.5 345.73126Q345.625 345.09064 345.76562 343.7469Q345.53125 343.5594 345.28125 343.48126Q345.03125 343.3875 344.75 343.3875Z" fill-rule="nonzero"/><path fill="#000000" d="M33.05 296.21564Q33.05 294.6844 33.3625 293.7625Q33.675 292.825 34.284374 292.325Q34.909374 291.825 35.846874 291.825Q36.534374 291.825 37.05 292.10626Q37.58125 292.3875 37.925 292.91876Q38.26875 293.4344 38.45625 294.1844Q38.64375 294.9344 38.64375 296.21564Q38.64375 297.73126 38.33125 298.65314Q38.034374 299.575 37.409374 300.09064Q36.8 300.59064 35.846874 300.59064Q34.6125 300.59064 33.89375 299.7Q33.05 298.6375 33.05 296.21564ZM34.128124 296.21564Q34.128124 298.325 34.628124 299.02814Q35.128124 299.73126 35.846874 299.73126Q36.58125 299.73126 37.065624 299.02814Q37.565624 298.325 37.565624 296.21564Q37.565624 294.09064 37.065624 293.40314Q36.58125 292.7 35.83125 292.7Q35.1125 292.7 34.675 293.3094Q34.128124 294.09064 34.128124 296.21564ZM40.253124 293.91876Q40.253124 292.9969 40.70625 292.35626Q41.175 291.71564 42.05 291.71564Q42.8625 291.71564 43.39375 292.29376Q43.925 292.8719 43.925 293.98126Q43.925 295.075 43.378124 295.66876Q42.846874 296.2469 42.065624 296.2469Q41.284374 296.2469 40.76875 295.66876Q40.253124 295.09064 40.253124 293.91876ZM42.08125 292.4344Q41.690624 292.4344 41.425 292.77814Q41.175 293.1219 41.175 294.02814Q41.175 294.85626 41.425 295.2Q41.690624 295.52814 42.08125 295.52814Q42.4875 295.52814 42.7375 295.1844Q43.003124 294.84064 43.003124 293.95Q43.003124 293.10626 42.7375 292.77814Q42.471874 292.4344 42.08125 292.4344ZM42.08125 300.7625L46.784374 291.71564L47.64375 291.71564L42.95625 300.7625L42.08125 300.7625ZM45.8 298.4344Q45.8 297.5125 46.253124 296.8719Q46.721874 296.23126 47.6125 296.23126Q48.425 296.23126 48.95625 296.8094Q49.4875 297.3719 49.4875 298.4969Q49.4875 299.59064 48.940624 300.1844Q48.409374 300.7625 47.6125 300.7625Q46.846874 300.7625 46.315624 300.1844Q45.8 299.60626 45.8 298.4344ZM47.64375 296.95Q47.2375 296.95 46.971874 297.29376Q46.721874 297.6375 46.721874 298.54376Q46.721874 299.35626 46.9875 299.7Q47.253124 300.04376 47.64375 300.04376Q48.034374 300.04376 48.3 299.7Q48.565624 299.35626 48.565624 298.45Q48.565624 297.6219 48.3 297.29376Q48.034374 296.95 47.64375 296.95Z" fill-rule="nonzero"/><path fill="#000000" d="M31.596874 248.39272L31.596874 249.40834L25.909374 249.40834Q25.909374 249.03334 26.034374 248.67397Q26.253124 248.09584 26.721874 247.53334Q27.20625 246.97084 28.1125 246.23647Q29.51875 245.08022 30.003124 244.40834Q30.503124 243.73647 30.503124 243.14272Q30.503124 242.51772 30.05 242.09584Q29.596874 241.65834 28.878124 241.65834Q28.1125 241.65834 27.659374 242.11147Q27.20625 242.56459 27.190624 243.37709L26.1125 243.26772Q26.221874 242.04897 26.940624 241.42397Q27.675 240.78334 28.909374 240.78334Q30.14375 240.78334 30.8625 241.47084Q31.58125 242.15834 31.58125 243.17397Q31.58125 243.68959 31.3625 244.18959Q31.159374 244.67397 30.659374 245.23647Q30.175 245.78334 29.05 246.73647Q28.096874 247.53334 27.815624 247.83022Q27.55 248.11147 27.378124 248.39272L31.596874 248.39272ZM33.05 247.15834L34.159374 247.06459Q34.284374 247.87709 34.721874 248.28334Q35.175 248.68959 35.815624 248.68959Q36.565624 248.68959 37.096874 248.11147Q37.628124 247.53334 37.628124 246.59584Q37.628124 245.68959 37.1125 245.17397Q36.6125 244.64272 35.784374 244.64272Q35.284374 244.64272 34.8625 244.87709Q34.45625 245.11147 34.221874 245.47084L33.2375 245.34584L34.065624 240.93959L38.346874 240.93959L38.346874 241.93959L34.909374 241.93959L34.45625 244.25209Q35.221874 243.70522 36.065624 243.70522Q37.190624 243.70522 37.95625 244.48647Q38.7375 245.26772 38.7375 246.50209Q38.7375 247.65834 38.065624 248.51772Q37.2375 249.54897 35.815624 249.54897Q34.64375 249.54897 33.89375 248.89272Q33.159374 248.23647 33.05 247.15834ZM40.253124 242.87709Q40.253124 241.95522 40.70625 241.31459Q41.175 240.67397 42.05 240.67397Q42.8625 240.67397 43.39375 241.25209Q43.925 241.83022 43.925 242.93959Q43.925 244.03334 43.378124 244.62709Q42.846874 245.20522 42.065624 245.20522Q41.284374 245.20522 40.76875 244.62709Q40.253124 244.04897 40.253124 242.87709ZM42.08125 241.39272Q41.690624 241.39272 41.425 241.73647Q41.175 242.08022 41.175 242.98647Q41.175 243.81459 41.425 244.15834Q41.690624 244.48647 42.08125 244.48647Q42.4875 244.48647 42.7375 244.14272Q43.003124 243.79897 43.003124 242.90834Q43.003124 242.06459 42.7375 241.73647Q42.471874 241.39272 42.08125 241.39272ZM42.08125 249.72084L46.784374 240.67397L47.64375 240.67397L42.95625 249.72084L42.08125 249.72084ZM45.8 247.39272Q45.8 246.47084 46.253124 245.83022Q46.721874 245.18959 47.6125 245.18959Q48.425 245.18959 48.95625 245.76772Q49.4875 246.33022 49.4875 247.45522Q49.4875 248.54897 48.940624 249.14272Q48.409374 249.72084 47.6125 249.72084Q46.846874 249.72084 46.315624 249.14272Q45.8 248.56459 45.8 247.39272ZM47.64375 245.90834Q47.2375 245.90834 46.971874 246.25209Q46.721874 246.59584 46.721874 247.50209Q46.721874 248.31459 46.9875 248.65834Q47.253124 249.00209 47.64375 249.00209Q48.034374 249.00209 48.3 248.65834Q48.565624 248.31459 48.565624 247.40834Q48.565624 246.58022 48.3 246.25209Q48.034374 245.90834 47.64375 245.90834Z" fill-rule="nonzero"/><path fill="#000000" d="M26.05 196.11667L27.159374 196.02292Q27.284374 196.83542 27.721874 197.24167Q28.175 197.64792 28.815624 197.64792Q29.565624 197.64792 30.096874 197.0698Q30.628124 196.49167 30.628124 195.55417Q30.628124 194.64792 30.1125 194.1323Q29.6125 193.60104 28.784374 193.60104Q28.284374 193.60104 27.8625 193.83542Q27.45625 194.0698 27.221874 194.42917L26.2375 194.30417L27.065624 189.89792L31.346874 189.89792L31.346874 190.89792L27.909374 190.89792L27.45625 193.21042Q28.221874 192.66354 29.065624 192.66354Q30.190624 192.66354 30.95625 193.4448Q31.7375 194.22604 31.7375 195.46042Q31.7375 196.61667 31.065624 197.47604Q30.2375 198.5073 28.815624 198.5073Q27.64375 198.5073 26.89375 197.85104Q26.159374 197.1948 26.05 196.11667ZM33.05 194.1323Q33.05 192.60104 33.3625 191.67917Q33.675 190.74167 34.284374 190.24167Q34.909374 189.74167 35.846874 189.74167Q36.534374 189.74167 37.05 190.02292Q37.58125 190.30417 37.925 190.83542Q38.26875 191.35104 38.45625 192.10104Q38.64375 192.85104 38.64375 194.1323Q38.64375 195.64792 38.33125 196.5698Q38.034374 197.49167 37.409374 198.0073Q36.8 198.5073 35.846874 198.5073Q34.6125 198.5073 33.89375 197.61667Q33.05 196.55417 33.05 194.1323ZM34.128124 194.1323Q34.128124 196.24167 34.628124 196.9448Q35.128124 197.64792 35.846874 197.64792Q36.58125 197.64792 37.065624 196.9448Q37.565624 196.24167 37.565624 194.1323Q37.565624 192.0073 37.065624 191.3198Q36.58125 190.61667 35.83125 190.61667Q35.1125 190.61667 34.675 191.22604Q34.128124 192.0073 34.128124 194.1323ZM40.253124 191.83542Q40.253124 190.91354 40.70625 190.27292Q41.175 189.6323 42.05 189.6323Q42.8625 189.6323 43.39375 190.21042Q43.925 190.78854 43.925 191.89792Q43.925 192.99167 43.378124 193.58542Q42.846874 194.16354 42.065624 194.16354Q41.284374 194.16354 40.76875 193.58542Q40.253124 193.0073 40.253124 191.83542ZM42.08125 190.35104Q41.690624 190.35104 41.425 190.6948Q41.175 191.03854 41.175 191.9448Q41.175 192.77292 41.425 193.11667Q41.690624 193.4448 42.08125 193.4448Q42.4875 193.4448 42.7375 193.10104Q43.003124 192.7573 43.003124 191.86667Q43.003124 191.02292 42.7375 190.6948Q42.471874 190.35104 42.08125 190.35104ZM42.08125 198.67917L46.784374 189.6323L47.64375 189.6323L42.95625 198.67917L42.08125 198.67917ZM45.8 196.35104Q45.8 195.42917 46.253124 194.78854Q46.721874 194.14792 47.6125 194.14792Q48.425 194.14792 48.95625 194.72604Q49.4875 195.28854 49.4875 196.41354Q49.4875 197.5073 48.940624 198.10104Q48.409374 198.67917 47.6125 198.67917Q46.846874 198.67917 46.315624 198.10104Q45.8 197.52292 45.8 196.35104ZM47.64375 194.86667Q47.2375 194.86667 46.971874 195.21042Q46.721874 195.55417 46.721874 196.46042Q46.721874 197.27292 46.9875 197.61667Q47.253124 197.96042 47.64375 197.96042Q48.034374 197.96042 48.3 197.61667Q48.565624 197.27292 48.565624 196.36667Q48.565624 195.53854 48.3 195.21042Q48.034374 194.86667 47.64375 194.86667Z" fill-rule="nonzero"/><path fill="#000000" d="M26.1125 139.85625L26.1125 138.84062L31.675 138.84062L31.675 139.66875Q30.8625 140.54375 30.05 141.99687Q29.253124 143.43437 28.815624 144.96562Q28.4875 146.04375 28.409374 147.325L27.315624 147.325Q27.33125 146.30937 27.70625 144.87187Q28.096874 143.43437 28.8 142.10625Q29.51875 140.77812 30.33125 139.85625L26.1125 139.85625ZM33.05 145.075L34.159374 144.98125Q34.284374 145.79375 34.721874 146.2Q35.175 146.60625 35.815624 146.60625Q36.565624 146.60625 37.096874 146.02812Q37.628124 145.45 37.628124 144.5125Q37.628124 143.60625 37.1125 143.09062Q36.6125 142.55937 35.784374 142.55937Q35.284374 142.55937 34.8625 142.79375Q34.45625 143.02812 34.221874 143.3875L33.2375 143.2625L34.065624 138.85625L38.346874 138.85625L38.346874 139.85625L34.909374 139.85625L34.45625 142.16875Q35.221874 141.62187 36.065624 141.62187Q37.190624 141.62187 37.95625 142.40312Q38.7375 143.18437 38.7375 144.41875Q38.7375 145.575 38.065624 146.43437Q37.2375 147.46562 35.815624 147.46562Q34.64375 147.46562 33.89375 146.80937Q33.159374 146.15312 33.05 145.075ZM40.253124 140.79375Q40.253124 139.87187 40.70625 139.23125Q41.175 138.59062 42.05 138.59062Q42.8625 138.59062 43.39375 139.16875Q43.925 139.74687 43.925 140.85625Q43.925 141.95 43.378124 142.54375Q42.846874 143.12187 42.065624 143.12187Q41.284374 143.12187 40.76875 142.54375Q40.253124 141.96562 40.253124 140.79375ZM42.08125 139.30937Q41.690624 139.30937 41.425 139.65312Q41.175 139.99687 41.175 140.90312Q41.175 141.73125 41.425 142.075Q41.690624 142.40312 42.08125 142.40312Q42.4875 142.40312 42.7375 142.05937Q43.003124 141.71562 43.003124 140.825Q43.003124 139.98125 42.7375 139.65312Q42.471874 139.30937 42.08125 139.30937ZM42.08125 147.6375L46.784374 138.59062L47.64375 138.59062L42.95625 147.6375L42.08125 147.6375ZM45.8 145.30937Q45.8 144.3875 46.253124 143.74687Q46.721874 143.10625 47.6125 143.10625Q48.425 143.10625 48.95625 143.68437Q49.4875 144.24687 49.4875 145.37187Q49.4875 146.46562 48.940624 147.05937Q48.409374 147.6375 47.6125 147.6375Q46.846874 147.6375 46.315624 147.05937Q45.8 146.48125 45.8 145.30937ZM47.64375 143.825Q47.2375 143.825 46.971874 144.16875Q46.721874 144.5125 46.721874 145.41875Q46.721874 146.23125 46.9875 146.575Q47.253124 146.91875 47.64375 146.91875Q48.034374 146.91875 48.3 146.575Q48.565624 146.23125 48.565624 145.325Q48.565624 144.49687 48.3 144.16875Q48.034374 143.825 47.64375 143.825Z" fill-rule="nonzero"/><path fill="#000000" d="M23.01875 96.28333L21.971874 96.28333L21.971874 89.56458Q21.58125 89.92396 20.95625 90.29896Q20.346874 90.65833 19.8625 90.83021L19.8625 89.81458Q20.7375 89.39271 21.39375 88.81458Q22.065624 88.22083 22.346874 87.65833L23.01875 87.65833L23.01875 96.28333ZM26.05 92.04896Q26.05 90.51771 26.3625 89.59583Q26.675 88.65833 27.284374 88.15833Q27.909374 87.65833 28.846874 87.65833Q29.534374 87.65833 30.05 87.93958Q30.58125 88.22083 30.925 88.75208Q31.26875 89.26771 31.45625 90.01771Q31.64375 90.76771 31.64375 92.04896Q31.64375 93.56458 31.33125 94.48646Q31.034374 95.40833 30.409374 95.92396Q29.8 96.42396 28.846874 96.42396Q27.6125 96.42396 26.89375 95.53333Q26.05 94.47083 26.05 92.04896ZM27.128124 92.04896Q27.128124 94.15833 27.628124 94.86146Q28.128124 95.56458 28.846874 95.56458Q29.58125 95.56458 30.065624 94.86146Q30.565624 94.15833 30.565624 92.04896Q30.565624 89.92396 30.065624 89.23646Q29.58125 88.53333 28.83125 88.53333Q28.1125 88.53333 27.675 89.14271Q27.128124 89.92396 27.128124 92.04896ZM33.05 92.04896Q33.05 90.51771 33.3625 89.59583Q33.675 88.65833 34.284374 88.15833Q34.909374 87.65833 35.846874 87.65833Q36.534374 87.65833 37.05 87.93958Q37.58125 88.22083 37.925 88.75208Q38.26875 89.26771 38.45625 90.01771Q38.64375 90.76771 38.64375 92.04896Q38.64375 93.56458 38.33125 94.48646Q38.034374 95.40833 37.409374 95.92396Q36.8 96.42396 35.846874 96.42396Q34.6125 96.42396 33.89375 95.53333Q33.05 94.47083 33.05 92.04896ZM34.128124 92.04896Q34.128124 94.15833 34.628124 94.86146Q35.128124 95.56458 35.846874 95.56458Q36.58125 95.56458 37.065624 94.86146Q37.565624 94.15833 37.565624 92.04896Q37.565624 89.92396 37.065624 89.23646Q36.58125 88.53333 35.83125 88.53333Q35.1125 88.53333 34.675 89.14271Q34.128124 89.92396 34.128124 92.04896ZM40.253124 89.75208Q40.253124 88.83021 40.70625 88.18958Q41.175 87.54896 42.05 87.54896Q42.8625 87.54896 43.39375 88.12708Q43.925 88.70521 43.925 89.81458Q43.925 90.90833 43.378124 91.50208Q42.846874 92.08021 42.065624 92.08021Q41.284374 92.08021 40.76875 91.50208Q40.253124 90.92396 40.253124 89.75208ZM42.08125 88.26771Q41.690624 88.26771 41.425 88.61146Q41.175 88.95521 41.175 89.86146Q41.175 90.68958 41.425 91.03333Q41.690624 91.36146 42.08125 91.36146Q42.4875 91.36146 42.7375 91.01771Q43.003124 90.67396 43.003124 89.78333Q43.003124 88.93958 42.7375 88.61146Q42.471874 88.26771 42.08125 88.26771ZM42.08125 96.59583L46.784374 87.54896L47.64375 87.54896L42.95625 96.59583L42.08125 96.59583ZM45.8 94.26771Q45.8 93.34583 46.253124 92.70521Q46.721874 92.06458 47.6125 92.06458Q48.425 92.06458 48.95625 92.64271Q49.4875 93.20521 49.4875 94.33021Q49.4875 95.42396 48.940624 96.01771Q48.409374 96.59583 47.6125 96.59583Q46.846874 96.59583 46.315624 96.01771Q45.8 95.43958 45.8 94.26771ZM47.64375 92.78333Q47.2375 92.78333 46.971874 93.12708Q46.721874 93.47083 46.721874 94.37708Q46.721874 95.18958 46.9875 95.53333Q47.253124 95.87708 47.64375 95.87708Q48.034374 95.87708 48.3 95.53333Q48.565624 95.18958 48.565624 94.28333Q48.565624 93.45521 48.3 93.12708Q48.034374 92.78333 47.64375 92.78333Z" fill-rule="nonzero"/><path fill="#000000" d="M50.51875 313.45L49.471874 313.45L49.471874 306.73126Q49.08125 307.09064 48.45625 307.46564Q47.846874 307.825 47.3625 307.9969L47.3625 306.98126Q48.2375 306.5594 48.89375 305.98126Q49.565624 305.3875 49.846874 304.825L50.51875 304.825L50.51875 313.45ZM53.55 309.21564Q53.55 307.6844 53.8625 306.7625Q54.175 305.825 54.784374 305.325Q55.409374 304.825 56.346874 304.825Q57.034374 304.825 57.55 305.10626Q58.08125 305.3875 58.425 305.91876Q58.76875 306.4344 58.95625 307.1844Q59.14375 307.9344 59.14375 309.21564Q59.14375 310.73126 58.83125 311.65314Q58.534374 312.575 57.909374 313.09064Q57.3 313.59064 56.346874 313.59064Q55.1125 313.59064 54.39375 312.7Q53.55 311.6375 53.55 309.21564ZM54.628124 309.21564Q54.628124 311.325 55.128124 312.02814Q55.628124 312.73126 56.346874 312.73126Q57.08125 312.73126 57.565624 312.02814Q58.065624 311.325 58.065624 309.21564Q58.065624 307.09064 57.565624 306.40314Q57.08125 305.7 56.33125 305.7Q55.6125 305.7 55.175 306.3094Q54.628124 307.09064 54.628124 309.21564ZM60.55 311.2L61.659374 311.10626Q61.784374 311.91876 62.221874 312.325Q62.675 312.73126 63.315624 312.73126Q64.06563 312.73126 64.59688 312.15314Q65.12813 311.575 65.12813 310.6375Q65.12813 309.73126 64.6125 309.21564Q64.1125 308.6844 63.284374 308.6844Q62.784374 308.6844 62.3625 308.91876Q61.95625 309.15314 61.721874 309.5125L60.7375 309.3875L61.565624 304.98126L65.84688 304.98126L65.84688 305.98126L62.409374 305.98126L61.95625 308.29376Q62.721874 307.7469 63.565624 307.7469Q64.69063 307.7469 65.45625 308.52814Q66.2375 309.3094 66.2375 310.54376Q66.2375 311.7 65.56563 312.5594Q64.7375 313.59064 63.315624 313.59064Q62.14375 313.59064 61.39375 312.9344Q60.659374 312.27814 60.55 311.2Z" fill-rule="nonzero"/><path fill="#000000" d="M98.23693 313.45L97.190056 313.45L97.190056 306.73126Q96.79943 307.09064 96.17443 307.46564Q95.565056 307.825 95.08068 307.9969L95.08068 306.98126Q95.95568 306.5594 96.61193 305.98126Q97.283806 305.3875 97.565056 304.825L98.23693 304.825L98.23693 313.45ZM101.26818 309.21564Q101.26818 307.6844 101.58068 306.7625Q101.89318 305.825 102.502556 305.325Q103.127556 304.825 104.065056 304.825Q104.752556 304.825 105.26818 305.10626Q105.79943 305.3875 106.14318 305.91876Q106.48693 306.4344 106.67443 307.1844Q106.86193 307.9344 106.86193 309.21564Q106.86193 310.73126 106.54943 311.65314Q106.252556 312.575 105.627556 313.09064Q105.01818 313.59064 104.065056 313.59064Q102.83068 313.59064 102.11193 312.7Q101.26818 311.6375 101.26818 309.21564ZM102.346306 309.21564Q102.346306 311.325 102.846306 312.02814Q103.346306 312.73126 104.065056 312.73126Q104.79943 312.73126 105.283806 312.02814Q105.783806 311.325 105.783806 309.21564Q105.783806 307.09064 105.283806 306.40314Q104.79943 305.7 104.04943 305.7Q103.33068 305.7 102.89318 306.3094Q102.346306 307.09064 102.346306 309.21564ZM113.73693 306.96564L112.690056 307.04376Q112.54943 306.41876 112.29943 306.1375Q111.86193 305.6844 111.23693 305.6844Q110.73693 305.6844 110.346306 305.96564Q109.86193 306.34064 109.565056 307.04376Q109.283806 307.73126 109.26818 309.0125Q109.64318 308.4344 110.190056 308.15314Q110.752556 307.8719 111.36193 307.8719Q112.408806 307.8719 113.14318 308.65314Q113.89318 309.4344 113.89318 310.65314Q113.89318 311.46564 113.533806 312.16876Q113.190056 312.85626 112.58068 313.23126Q111.971306 313.59064 111.20568 313.59064Q109.877556 313.59064 109.04943 312.6219Q108.221306 311.65314 108.221306 309.4344Q108.221306 306.9344 109.14318 305.8094Q109.940056 304.825 111.29943 304.825Q112.315056 304.825 112.95568 305.40314Q113.61193 305.96564 113.73693 306.96564ZM109.440056 310.66876Q109.440056 311.21564 109.658806 311.71564Q109.89318 312.2 110.29943 312.46564Q110.721306 312.73126 111.190056 312.73126Q111.846306 312.73126 112.33068 312.2Q112.815056 311.65314 112.815056 310.73126Q112.815056 309.84064 112.33068 309.325Q111.86193 308.8094 111.14318 308.8094Q110.42443 308.8094 109.92443 309.325Q109.440056 309.84064 109.440056 310.66876Z" fill-rule="nonzero"/><path fill="#000000" d="M145.95511 313.45L144.90823 313.45L144.90823 306.73126Q144.51761 307.09064 143.89261 307.46564Q143.28323 307.825 142.79886 307.9969L142.79886 306.98126Q143.67386 306.5594 144.33011 305.98126Q145.00198 305.3875 145.28323 304.825L145.95511 304.825L145.95511 313.45ZM148.98636 309.21564Q148.98636 307.6844 149.29886 306.7625Q149.61136 305.825 150.22073 305.325Q150.84573 304.825 151.78323 304.825Q152.47073 304.825 152.98636 305.10626Q153.51761 305.3875 153.86136 305.91876Q154.20511 306.4344 154.39261 307.1844Q154.58011 307.9344 154.58011 309.21564Q154.58011 310.73126 154.26761 311.65314Q153.97073 312.575 153.34573 313.09064Q152.73636 313.59064 151.78323 313.59064Q150.54886 313.59064 149.83011 312.7Q148.98636 311.6375 148.98636 309.21564ZM150.06448 309.21564Q150.06448 311.325 150.56448 312.02814Q151.06448 312.73126 151.78323 312.73126Q152.51761 312.73126 153.00198 312.02814Q153.50198 311.325 153.50198 309.21564Q153.50198 307.09064 153.00198 306.40314Q152.51761 305.7 151.76761 305.7Q151.04886 305.7 150.61136 306.3094Q150.06448 307.09064 150.06448 309.21564ZM156.04886 305.98126L156.04886 304.96564L161.61136 304.96564L161.61136 305.79376Q160.79886 306.66876 159.98636 308.1219Q159.18948 309.5594 158.75198 311.09064Q158.42386 312.16876 158.34573 313.45L157.25198 313.45Q157.26761 312.4344 157.64261 310.9969Q158.03323 309.5594 158.73636 308.23126Q159.45511 306.90314 160.26761 305.98126L156.04886 305.98126Z" fill-rule="nonzero"/><path fill="#000000" d="M193.6733 313.45L192.62642 313.45L192.62642 306.73126Q192.2358 307.09064 191.6108 307.46564Q191.00142 307.825 190.51704 307.9969L190.51704 306.98126Q191.39204 306.5594 192.0483 305.98126Q192.72017 305.3875 193.00142 304.825L193.6733 304.825L193.6733 313.45ZM196.70454 309.21564Q196.70454 307.6844 197.01704 306.7625Q197.32954 305.825 197.93892 305.325Q198.56392 304.825 199.50142 304.825Q200.18892 304.825 200.70454 305.10626Q201.2358 305.3875 201.57954 305.91876Q201.9233 306.4344 202.1108 307.1844Q202.2983 307.9344 202.2983 309.21564Q202.2983 310.73126 201.9858 311.65314Q201.68892 312.575 201.06392 313.09064Q200.45454 313.59064 199.50142 313.59064Q198.26704 313.59064 197.5483 312.7Q196.70454 311.6375 196.70454 309.21564ZM197.78267 309.21564Q197.78267 311.325 198.28267 312.02814Q198.78267 312.73126 199.50142 312.73126Q200.2358 312.73126 200.72017 312.02814Q201.22017 311.325 201.22017 309.21564Q201.22017 307.09064 200.72017 306.40314Q200.2358 305.7 199.4858 305.7Q198.76704 305.7 198.32954 306.3094Q197.78267 307.09064 197.78267 309.21564ZM205.32954 308.79376Q204.6733 308.54376 204.34517 308.10626Q204.03267 307.65314 204.03267 307.04376Q204.03267 306.10626 204.70454 305.46564Q205.39204 304.825 206.50142 304.825Q207.62642 304.825 208.31392 305.48126Q209.00142 306.1375 209.00142 307.075Q209.00142 307.66876 208.68892 308.10626Q208.37642 308.54376 207.7358 308.79376Q208.53267 309.04376 208.93892 309.6219Q209.34517 310.2 209.34517 310.9969Q209.34517 312.09064 208.56392 312.84064Q207.7983 313.59064 206.51704 313.59064Q205.25142 313.59064 204.47017 312.84064Q203.68892 312.09064 203.68892 310.96564Q203.68892 310.1219 204.1108 309.5594Q204.5483 308.9969 205.32954 308.79376ZM205.1108 306.9969Q205.1108 307.60626 205.50142 307.9969Q205.90767 308.3875 206.53267 308.3875Q207.14204 308.3875 207.53267 308.0125Q207.9233 307.6219 207.9233 307.0594Q207.9233 306.48126 207.51704 306.09064Q207.1108 305.6844 206.51704 305.6844Q205.90767 305.6844 205.50142 306.075Q205.1108 306.46564 205.1108 306.9969ZM204.78267 310.96564Q204.78267 311.41876 204.9858 311.84064Q205.20454 312.2625 205.62642 312.4969Q206.0483 312.73126 206.53267 312.73126Q207.28267 312.73126 207.76704 312.2469Q208.26704 311.7625 208.26704 311.0125Q208.26704 310.2469 207.76704 309.7469Q207.26704 309.2469 206.50142 309.2469Q205.75142 309.2469 205.26704 309.7469Q204.78267 310.23126 204.78267 310.96564Z" fill-rule="nonzero"/><path fill="#000000" d="M241.39148 313.45L240.3446 313.45L240.3446 306.73126Q239.95398 307.09064 239.32898 307.46564Q238.7196 307.825 238.23523 307.9969L238.23523 306.98126Q239.11023 306.5594 239.76648 305.98126Q240.43835 305.3875 240.7196 304.825L241.39148 304.825L241.39148 313.45ZM244.42273 309.21564Q244.42273 307.6844 244.73523 306.7625Q245.04773 305.825 245.6571 305.325Q246.2821 304.825 247.2196 304.825Q247.9071 304.825 248.42273 305.10626Q248.95398 305.3875 249.29773 305.91876Q249.64148 306.4344 249.82898 307.1844Q250.01648 307.9344 250.01648 309.21564Q250.01648 310.73126 249.70398 311.65314Q249.4071 312.575 248.7821 313.09064Q248.17273 313.59064 247.2196 313.59064Q245.98523 313.59064 245.26648 312.7Q244.42273 311.6375 244.42273 309.21564ZM245.50085 309.21564Q245.50085 311.325 246.00085 312.02814Q246.50085 312.73126 247.2196 312.73126Q247.95398 312.73126 248.43835 312.02814Q248.93835 311.325 248.93835 309.21564Q248.93835 307.09064 248.43835 306.40314Q247.95398 305.7 247.20398 305.7Q246.48523 305.7 246.04773 306.3094Q245.50085 307.09064 245.50085 309.21564ZM251.57898 311.46564L252.5946 311.3719Q252.7196 312.09064 253.07898 312.41876Q253.45398 312.73126 254.01648 312.73126Q254.50085 312.73126 254.86023 312.5125Q255.23523 312.27814 255.4696 311.91876Q255.70398 311.54376 255.86023 310.91876Q256.01648 310.27814 256.01648 309.6219Q256.01648 309.54376 256.01648 309.40314Q255.70398 309.90314 255.1571 310.23126Q254.61023 310.54376 253.9696 310.54376Q252.89148 310.54376 252.1571 309.77814Q251.42273 308.9969 251.42273 307.73126Q251.42273 306.41876 252.18835 305.6219Q252.9696 304.825 254.12585 304.825Q254.95398 304.825 255.64148 305.27814Q256.3446 305.73126 256.70398 306.575Q257.06335 307.40314 257.06335 308.98126Q257.06335 310.6219 256.70398 311.60626Q256.36023 312.575 255.64148 313.09064Q254.93835 313.59064 254.00085 313.59064Q252.98523 313.59064 252.3446 313.04376Q251.70398 312.48126 251.57898 311.46564ZM255.89148 307.66876Q255.89148 306.7625 255.4071 306.23126Q254.93835 305.7 254.25085 305.7Q253.54773 305.7 253.01648 306.27814Q252.50085 306.84064 252.50085 307.7625Q252.50085 308.575 253.00085 309.09064Q253.50085 309.60626 254.2196 309.60626Q254.95398 309.60626 255.42273 309.09064Q255.89148 308.575 255.89148 307.66876Z" fill-rule="nonzero"/><path fill="#000000" d="M289.10965 313.45L288.06277 313.45L288.06277 306.73126Q287.67215 307.09064 287.04715 307.46564Q286.43777 307.825 285.9534 307.9969L285.9534 306.98126Q286.8284 306.5594 287.48465 305.98126Q288.15652 305.3875 288.43777 304.825L289.10965 304.825L289.10965 313.45ZM296.10965 313.45L295.06277 313.45L295.06277 306.73126Q294.67215 307.09064 294.04715 307.46564Q293.43777 307.825 292.9534 307.9969L292.9534 306.98126Q293.8284 306.5594 294.48465 305.98126Q295.15652 305.3875 295.43777 304.825L296.10965 304.825L296.10965 313.45ZM299.1409 309.21564Q299.1409 307.6844 299.4534 306.7625Q299.7659 305.825 300.37527 305.325Q301.00027 304.825 301.93777 304.825Q302.62527 304.825 303.1409 305.10626Q303.67215 305.3875 304.0159 305.91876Q304.35965 306.4344 304.54715 307.1844Q304.73465 307.9344 304.73465 309.21564Q304.73465 310.73126 304.42215 311.65314Q304.12527 312.575 303.50027 313.09064Q302.8909 313.59064 301.93777 313.59064Q300.7034 313.59064 299.98465 312.7Q299.1409 311.6375 299.1409 309.21564ZM300.21902 309.21564Q300.21902 311.325 300.71902 312.02814Q301.21902 312.73126 301.93777 312.73126Q302.67215 312.73126 303.15652 312.02814Q303.65652 311.325 303.65652 309.21564Q303.65652 307.09064 303.15652 306.40314Q302.67215 305.7 301.92215 305.7Q301.2034 305.7 300.7659 306.3094Q300.21902 307.09064 300.21902 309.21564Z" fill-rule="nonzero"/><path fill="#000000" d="M336.82785 313.45L335.78098 313.45L335.78098 306.73126Q335.39035 307.09064 334.76535 307.46564Q334.15598 307.825 333.6716 307.9969L333.6716 306.98126Q334.5466 306.5594 335.20285 305.98126Q335.87473 305.3875 336.15598 304.825L336.82785 304.825L336.82785 313.45ZM343.82785 313.45L342.78098 313.45L342.78098 306.73126Q342.39035 307.09064 341.76535 307.46564Q341.15598 307.825 340.6716 307.9969L340.6716 306.98126Q341.5466 306.5594 342.20285 305.98126Q342.87473 305.3875 343.15598 304.825L343.82785 304.825L343.82785 313.45ZM350.82785 313.45L349.78098 313.45L349.78098 306.73126Q349.39035 307.09064 348.76535 307.46564Q348.15598 307.825 347.6716 307.9969L347.6716 306.98126Q348.5466 306.5594 349.20285 305.98126Q349.87473 305.3875 350.15598 304.825L350.82785 304.825L350.82785 313.45Z" fill-rule="nonzero"/><path fill="#000000" d="M384.54602 313.45L383.49915 313.45L383.49915 306.73126Q383.10852 307.09064 382.48352 307.46564Q381.87415 307.825 381.38977 307.9969L381.38977 306.98126Q382.26477 306.5594 382.92102 305.98126Q383.5929 305.3875 383.87415 304.825L384.54602 304.825L384.54602 313.45ZM391.54602 313.45L390.49915 313.45L390.49915 306.73126Q390.10852 307.09064 389.48352 307.46564Q388.87415 307.825 388.38977 307.9969L388.38977 306.98126Q389.26477 306.5594 389.92102 305.98126Q390.5929 305.3875 390.87415 304.825L391.54602 304.825L391.54602 313.45ZM400.12415 312.4344L400.12415 313.45L394.43665 313.45Q394.43665 313.075 394.56165 312.71564Q394.7804 312.1375 395.24915 311.575Q395.73352 311.0125 396.63977 310.27814Q398.04602 309.1219 398.5304 308.45Q399.0304 307.77814 399.0304 307.1844Q399.0304 306.5594 398.57727 306.1375Q398.12415 305.7 397.4054 305.7Q396.63977 305.7 396.18665 306.15314Q395.73352 306.60626 395.7179 307.41876L394.63977 307.3094Q394.74915 306.09064 395.4679 305.46564Q396.20227 304.825 397.43665 304.825Q398.67102 304.825 399.38977 305.5125Q400.10852 306.2 400.10852 307.21564Q400.10852 307.73126 399.88977 308.23126Q399.68665 308.71564 399.18665 309.27814Q398.70227 309.825 397.57727 310.77814Q396.62415 311.575 396.3429 311.8719Q396.07727 312.15314 395.9054 312.4344L400.12415 312.4344Z" fill-rule="nonzero"/><path fill="#000000" d="M432.2642 313.45L431.21732 313.45L431.21732 306.73126Q430.8267 307.09064 430.2017 307.46564Q429.59232 307.825 429.10794 307.9969L429.10794 306.98126Q429.98294 306.5594 430.6392 305.98126Q431.31107 305.3875 431.59232 304.825L432.2642 304.825L432.2642 313.45ZM439.2642 313.45L438.21732 313.45L438.21732 306.73126Q437.8267 307.09064 437.2017 307.46564Q436.59232 307.825 436.10794 307.9969L436.10794 306.98126Q436.98294 306.5594 437.6392 305.98126Q438.31107 305.3875 438.59232 304.825L439.2642 304.825L439.2642 313.45ZM442.29544 311.1844L443.35794 311.04376Q443.52982 311.9344 443.96732 312.34064Q444.40482 312.73126 445.02982 312.73126Q445.77982 312.73126 446.29544 312.21564Q446.81107 311.7 446.81107 310.9344Q446.81107 310.21564 446.3267 309.7469Q445.85794 309.2625 445.12357 309.2625Q444.8267 309.2625 444.37357 309.3875L444.49857 308.45Q444.60794 308.46564 444.67044 308.46564Q445.34232 308.46564 445.87357 308.1219Q446.42044 307.7625 446.42044 307.02814Q446.42044 306.45 446.02982 306.075Q445.6392 305.6844 445.0142 305.6844Q444.40482 305.6844 443.98294 306.075Q443.5767 306.46564 443.46732 307.23126L442.40482 307.04376Q442.59232 305.9969 443.27982 305.41876Q443.96732 304.825 444.98294 304.825Q445.68607 304.825 446.27982 305.1375Q446.87357 305.4344 447.18607 305.95Q447.49857 306.46564 447.49857 307.0594Q447.49857 307.60626 447.2017 308.075Q446.90482 308.52814 446.3267 308.79376Q447.0767 308.96564 447.49857 309.52814Q447.92044 310.075 447.92044 310.91876Q447.92044 312.04376 447.09232 312.825Q446.27982 313.60626 445.02982 313.60626Q443.90482 313.60626 443.15482 312.9344Q442.40482 312.2469 442.29544 311.1844Z" fill-rule="nonzero"/><path fill="#000000" d="M479.9824 313.45L478.93552 313.45L478.93552 306.73126Q478.5449 307.09064 477.9199 307.46564Q477.31052 307.825 476.82614 307.9969L476.82614 306.98126Q477.70114 306.5594 478.3574 305.98126Q479.02927 305.3875 479.31052 304.825L479.9824 304.825L479.9824 313.45ZM486.9824 313.45L485.93552 313.45L485.93552 306.73126Q485.5449 307.09064 484.9199 307.46564Q484.31052 307.825 483.82614 307.9969L483.82614 306.98126Q484.70114 306.5594 485.3574 305.98126Q486.02927 305.3875 486.31052 304.825L486.9824 304.825L486.9824 313.45ZM493.38864 313.45L493.38864 311.3875L489.6699 311.3875L489.6699 310.41876L493.59177 304.85626L494.45114 304.85626L494.45114 310.41876L495.6074 310.41876L495.6074 311.3875L494.45114 311.3875L494.45114 313.45L493.38864 313.45ZM493.38864 310.41876L493.38864 306.5594L490.70114 310.41876L493.38864 310.41876Z" fill-rule="nonzero"/><path fill="#000000" d="M527.70056 313.45L526.6537 313.45L526.6537 306.73126Q526.26306 307.09064 525.63806 307.46564Q525.0287 307.825 524.5443 307.9969L524.5443 306.98126Q525.4193 306.5594 526.07556 305.98126Q526.74744 305.3875 527.0287 304.825L527.70056 304.825L527.70056 313.45ZM534.70056 313.45L533.6537 313.45L533.6537 306.73126Q533.26306 307.09064 532.63806 307.46564Q532.0287 307.825 531.5443 307.9969L531.5443 306.98126Q532.4193 306.5594 533.07556 305.98126Q533.74744 305.3875 534.0287 304.825L534.70056 304.825L534.70056 313.45ZM543.20056 306.96564L542.1537 307.04376Q542.01306 306.41876 541.76306 306.1375Q541.32556 305.6844 540.70056 305.6844Q540.20056 305.6844 539.80994 305.96564Q539.32556 306.34064 539.0287 307.04376Q538.74744 307.73126 538.7318 309.0125Q539.1068 308.4344 539.6537 308.15314Q540.2162 307.8719 540.82556 307.8719Q541.87244 307.8719 542.6068 308.65314Q543.3568 309.4344 543.3568 310.65314Q543.3568 311.46564 542.99744 312.16876Q542.6537 312.85626 542.0443 313.23126Q541.43494 313.59064 540.6693 313.59064Q539.3412 313.59064 538.51306 312.6219Q537.68494 311.65314 537.68494 309.4344Q537.68494 306.9344 538.6068 305.8094Q539.4037 304.825 540.76306 304.825Q541.7787 304.825 542.4193 305.40314Q543.07556 305.96564 543.20056 306.96564ZM538.9037 310.66876Q538.9037 311.21564 539.12244 311.71564Q539.3568 312.2 539.76306 312.46564Q540.18494 312.73126 540.6537 312.73126Q541.30994 312.73126 541.7943 312.2Q542.2787 311.65314 542.2787 310.73126Q542.2787 309.84064 541.7943 309.325Q541.32556 308.8094 540.6068 308.8094Q539.88806 308.8094 539.38806 309.325Q538.9037 309.84064 538.9037 310.66876Z" fill-rule="nonzero"/><path fill="#000000" d="M575.41876 313.45L574.3719 313.45L574.3719 306.73126Q573.98126 307.09064 573.35626 307.46564Q572.7469 307.825 572.2625 307.9969L572.2625 306.98126Q573.1375 306.5594 573.79376 305.98126Q574.46564 305.3875 574.7469 304.825L575.41876 304.825L575.41876 313.45ZM582.41876 313.45L581.3719 313.45L581.3719 306.73126Q580.98126 307.09064 580.35626 307.46564Q579.7469 307.825 579.2625 307.9969L579.2625 306.98126Q580.1375 306.5594 580.79376 305.98126Q581.46564 305.3875 581.7469 304.825L582.41876 304.825L582.41876 313.45ZM585.5125 305.98126L585.5125 304.96564L591.075 304.96564L591.075 305.79376Q590.2625 306.66876 589.45 308.1219Q588.65314 309.5594 588.21564 311.09064Q587.8875 312.16876 587.8094 313.45L586.71564 313.45Q586.73126 312.4344 587.10626 310.9969Q587.4969 309.5594 588.2 308.23126Q588.91876 306.90314 589.73126 305.98126L585.5125 305.98126Z" fill-rule="nonzero"/><path fill="#d64e20" d="M265.0 65.916664C265.0 69.23038 262.31372 71.916664 259.0 71.916664C255.6863 71.916664 253.0 69.23038 253.0 65.916664C253.0 62.60296 255.6863 59.916668 259.0 59.916668C262.31372 59.916668 265.0 62.60296 265.0 65.916664Z" fill-rule="nonzero"/><path fill="#1a1a1a" d="M273.79688 69.916664L273.79688 63.697914L274.73438 63.697914L274.73438 64.572914Q275.03125 64.104164 275.51562 63.83854Q276.0 63.55729 276.625 63.55729Q277.3125 63.55729 277.75 63.83854Q278.20312 64.11979 278.375 64.635414Q279.125 63.55729 280.29688 63.55729Q281.23438 63.55729 281.71875 64.072914Q282.21875 64.572914 282.21875 65.65104L282.21875 69.916664L281.17188 69.916664L281.17188 65.99479Q281.17188 65.36979 281.0625 65.08854Q280.96875 64.80729 280.70312 64.635414Q280.4375 64.46354 280.0625 64.46354Q279.40625 64.46354 278.96875 64.90104Q278.54688 65.33854 278.54688 66.30729L278.54688 69.916664L277.48438 69.916664L277.48438 65.86979Q277.48438 65.166664 277.21875 64.822914Q276.96875 64.46354 276.39062 64.46354Q275.9375 64.46354 275.5625 64.697914Q275.1875 64.93229 275.01562 65.385414Q274.84375 65.83854 274.84375 66.68229L274.84375 69.916664L273.79688 69.916664ZM288.85938 69.15104Q288.26562 69.65104 287.71875 69.854164Q287.1875 70.05729 286.5625 70.05729Q285.53125 70.05729 284.98438 69.55729Q284.4375 69.05729 284.4375 68.27604Q284.4375 67.822914 284.64062 67.447914Q284.84375 67.05729 285.1875 66.83854Q285.53125 66.604164 285.95312 66.49479Q286.25 66.40104 286.89062 66.322914Q288.15625 66.18229 288.76562 65.96354Q288.76562 65.74479 288.76562 65.697914Q288.76562 65.041664 288.46875 64.77604Q288.0625 64.43229 287.26562 64.43229Q286.53125 64.43229 286.17188 64.697914Q285.8125 64.947914 285.64062 65.604164L284.60938 65.46354Q284.75 64.80729 285.07812 64.40104Q285.40625 63.99479 286.01562 63.77604Q286.625 63.55729 287.42188 63.55729Q288.21875 63.55729 288.71875 63.74479Q289.21875 63.93229 289.45312 64.21354Q289.6875 64.49479 289.78125 64.93229Q289.82812 65.197914 289.82812 65.90104L289.82812 67.30729Q289.82812 68.77604 289.89062 69.166664Q289.96875 69.55729 290.17188 69.916664L289.0625 69.916664Q288.90625 69.58854 288.85938 69.15104ZM288.76562 66.791664Q288.1875 67.02604 287.04688 67.197914Q286.39062 67.291664 286.125 67.416664Q285.85938 67.52604 285.70312 67.74479Q285.5625 67.96354 285.5625 68.24479Q285.5625 68.666664 285.875 68.947914Q286.20312 69.229164 286.8125 69.229164Q287.42188 69.229164 287.89062 68.96354Q288.375 68.697914 288.59375 68.229164Q288.76562 67.86979 288.76562 67.18229L288.76562 66.791664ZM294.09375 68.979164L294.25 69.90104Q293.79688 69.99479 293.45312 69.99479Q292.875 69.99479 292.5625 69.822914Q292.25 69.635414 292.10938 69.33854Q291.98438 69.041664 291.98438 68.08854L291.98438 64.510414L291.21875 64.510414L291.21875 63.697914L291.98438 63.697914L291.98438 62.15104L293.03125 61.52604L293.03125 63.697914L294.09375 63.697914L294.09375 64.510414L293.03125 64.510414L293.03125 68.15104Q293.03125 68.604164 293.07812 68.729164Q293.14062 68.854164 293.26562 68.93229Q293.39062 69.010414 293.625 69.010414Q293.8125 69.010414 294.09375 68.979164Z" fill-rule="nonzero"/><path fill="#efc649" d="M310.0 60.916668C310.0 60.364384 310.44772 59.916668 311.0 59.916668L321.0 59.916668C321.55228 59.916668 322.0 60.364384 322.0 60.916668L322.0 70.916664C322.0 71.46895 321.55228 71.916664 321.0 71.916664L311.0 71.916664C310.44772 71.916664 310.0 71.46895 310.0 70.916664Z" fill-rule="nonzero"/><path fill="#1a1a1a" d="M330.79688 72.30729L330.79688 63.697914L331.75 63.697914L331.75 64.49479Q332.09375 64.02604 332.51562 63.791664Q332.95312 63.55729 333.5625 63.55729Q334.35938 63.55729 334.96875 63.96354Q335.57812 64.36979 335.875 65.11979Q336.1875 65.86979 336.1875 66.760414Q336.1875 67.71354 335.84375 68.479164Q335.51562 69.24479 334.85938 69.65104Q334.20312 70.05729 333.48438 70.05729Q332.95312 70.05729 332.53125 69.83854Q332.10938 69.604164 331.84375 69.27604L331.84375 72.30729L330.79688 72.30729ZM331.75 66.83854Q331.75 68.041664 332.23438 68.61979Q332.71875 69.18229 333.40625 69.18229Q334.10938 69.18229 334.60938 68.58854Q335.10938 67.99479 335.10938 66.74479Q335.10938 65.55729 334.625 64.979164Q334.14062 64.385414 333.45312 64.385414Q332.78125 64.385414 332.26562 65.010414Q331.75 65.635414 331.75 66.83854ZM341.85938 69.15104Q341.26562 69.65104 340.71875 69.854164Q340.1875 70.05729 339.5625 70.05729Q338.53125 70.05729 337.98438 69.55729Q337.4375 69.05729 337.4375 68.27604Q337.4375 67.822914 337.64062 67.447914Q337.84375 67.05729 338.1875 66.83854Q338.53125 66.604164 338.95312 66.49479Q339.25 66.40104 339.89062 66.322914Q341.15625 66.18229 341.76562 65.96354Q341.76562 65.74479 341.76562 65.697914Q341.76562 65.041664 341.46875 64.77604Q341.0625 64.43229 340.26562 64.43229Q339.53125 64.43229 339.17188 64.697914Q338.8125 64.947914 338.64062 65.604164L337.60938 65.46354Q337.75 64.80729 338.07812 64.40104Q338.40625 63.99479 339.01562 63.77604Q339.625 63.55729 340.42188 63.55729Q341.21875 63.55729 341.71875 63.74479Q342.21875 63.93229 342.45312 64.21354Q342.6875 64.49479 342.78125 64.93229Q342.82812 65.197914 342.82812 65.90104L342.82812 67.30729Q342.82812 68.77604 342.89062 69.166664Q342.96875 69.55729 343.17188 69.916664L342.0625 69.916664Q341.90625 69.58854 341.85938 69.15104ZM341.76562 66.791664Q341.1875 67.02604 340.04688 67.197914Q339.39062 67.291664 339.125 67.416664Q338.85938 67.52604 338.70312 67.74479Q338.5625 67.96354 338.5625 68.24479Q338.5625 68.666664 338.875 68.947914Q339.20312 69.229164 339.8125 69.229164Q340.42188 69.229164 340.89062 68.96354Q341.375 68.697914 341.59375 68.229164Q341.76562 67.86979 341.76562 67.18229L341.76562 66.791664ZM347.09375 68.979164L347.25 69.90104Q346.79688 69.99479 346.45312 69.99479Q345.875 69.99479 345.5625 69.822914Q345.25 69.635414 345.10938 69.33854Q344.98438 69.041664 344.98438 68.08854L344.98438 64.510414L344.21875 64.510414L344.21875 63.697914L344.98438 63.697914L344.98438 62.15104L346.03125 61.52604L346.03125 63.697914L347.09375 63.697914L347.09375 64.510414L346.03125 64.510414L346.03125 68.15104Q346.03125 68.604164 346.07812 68.729164Q346.14062 68.854164 346.26562 68.93229Q346.39062 69.010414 346.625 69.010414Q346.8125 69.010414 347.09375 68.979164Z" fill-rule="nonzero"/><path fill="#757575" d="M22.58125 34.815624Q22.315624 34.815624 21.39375 34.690624Q21.315624 36.159374 21.315624 39.8625Q21.315624 40.253124 21.05 40.51875Q20.8 40.784374 20.425 40.784374Q20.034374 40.784374 19.784374 40.51875Q19.534374 40.253124 19.534374 39.8625L19.534374 36.9875Q19.534374 35.55 19.70625 32.940624Q19.89375 30.1125 19.925 28.89375L19.925 27.55Q19.925 26.58125 20.034374 26.14375Q20.253124 25.284374 20.9875 25.409374Q21.3 25.3 21.878124 25.253124Q22.45625 25.20625 23.3 25.20625Q25.08125 25.20625 26.64375 26.425Q28.3625 27.76875 28.3625 29.675Q28.3625 32.096874 26.534374 33.534374Q24.89375 34.815624 22.58125 34.815624ZM23.065624 27.065624Q22.64375 27.065624 22.3 27.08125Q21.971874 27.096874 21.7375 27.14375L21.721874 28.940624L21.503124 32.83125L22.58125 32.95625Q24.221874 32.95625 25.346874 32.128124Q26.58125 31.20625 26.58125 29.675Q26.58125 28.58125 25.409374 27.784374Q24.315624 27.065624 23.065624 27.065624ZM37.534374 41.190624Q37.346874 41.190624 36.8625 40.76875Q36.425 40.3625 36.20625 40.05Q35.26875 40.565624 34.55 40.815624Q33.846874 41.08125 33.3625 41.08125Q31.08125 41.08125 30.034374 39.784374Q29.05 38.58125 29.05 36.08125Q29.05 33.70625 30.675 32.034374Q32.3 30.346874 34.55 30.346874Q35.409374 30.346874 36.45625 30.8Q37.784374 31.346874 37.784374 32.1125Q37.784374 32.378124 37.596874 32.58125Q37.503124 32.95625 37.440624 33.8Q37.39375 34.64375 37.378124 35.971874Q37.3625 37.190624 37.55 37.89375Q37.64375 38.315624 38.159374 39.6125Q38.221874 39.784374 38.378124 40.128124L38.440624 40.3Q38.440624 40.690624 38.159374 40.940624Q37.89375 41.190624 37.534374 41.190624ZM35.503124 34.409374Q35.503124 33.9875 35.55 33.503124Q35.6125 33.003124 35.721874 32.440624Q35.3625 32.253124 35.096874 32.175Q34.846874 32.08125 34.690624 32.08125Q33.175 32.08125 32.065624 33.315624Q30.971874 34.55 30.971874 36.159374Q30.971874 37.76875 31.534374 38.565624Q32.1125 39.3625 33.2375 39.3625Q34.175 39.3625 34.83125 39.01875Q35.175 38.846874 35.815624 38.284374Q35.503124 35.690624 35.503124 34.409374ZM46.440624 32.221874Q46.2375 32.221874 45.95625 32.20625Q45.675 32.190624 45.471874 32.190624Q45.253124 32.190624 44.14375 32.33125L44.33125 38.1125L44.346874 38.534374L44.346874 39.034374Q44.39375 41.175 43.33125 41.175Q42.940624 41.175 42.64375 40.925Q42.3625 40.675 42.3625 40.284374Q42.3625 39.909374 42.39375 39.175Q42.425 38.425 42.425 38.065624L42.221874 32.3625Q41.503124 32.33125 40.05 32.190624Q39.190624 32.065624 39.190624 31.221874Q39.190624 30.8 39.440624 30.51875Q39.70625 30.221874 40.128124 30.221874L42.175 30.39375Q42.175 29.89375 42.128124 29.065624Q42.08125 28.221874 42.08125 27.846874Q42.08125 27.440624 42.3625 27.175Q42.659374 26.909374 43.065624 26.909374Q43.940624 26.909374 44.08125 28.346874Q44.1125 28.70625 44.1125 29.20625L44.096874 29.784374L44.08125 30.378124Q45.3 30.221874 45.471874 30.221874Q46.4875 30.221874 46.8 30.33125Q47.39375 30.51875 47.39375 31.2375Q47.39375 31.675 47.128124 31.95625Q46.8625 32.221874 46.440624 32.221874ZM58.409374 40.034374Q58.378124 40.940624 57.51875 40.940624Q56.815624 40.940624 56.4875 40.096874L54.9875 36.128124L53.253124 31.659374Q53.159374 31.39375 53.159374 31.20625Q53.159374 30.8 53.45625 30.51875Q53.76875 30.2375 54.159374 30.2375Q54.753124 30.2375 55.003124 30.83125L57.4875 37.659374Q58.221874 36.096874 59.33125 33.128124Q59.596874 32.346874 60.159374 30.925Q60.45625 30.3 61.01875 30.3Q61.425 30.3 61.721874 30.58125Q62.01875 30.8625 62.01875 31.253124Q62.01875 31.628124 60.409374 35.425L58.409374 40.034374ZM70.50313 33.034374Q69.95625 33.034374 69.75313 32.675Q69.59688 32.409374 69.4875 31.6125Q68.76875 31.8 67.2375 32.3Q65.65938 32.925 65.65938 33.846874Q65.95625 33.940624 66.2375 34.003124Q68.47188 34.39375 69.56563 35.096874Q71.15938 36.128124 71.15938 38.065624Q71.15938 39.659374 69.78438 40.471874Q68.64375 41.14375 66.89375 41.14375Q65.6125 41.14375 64.45625 40.70625Q62.95625 40.159374 62.95625 39.175Q62.95625 38.784374 63.253124 38.503124Q63.565624 38.20625 63.95625 38.20625Q64.25313 38.20625 64.7375 38.675Q64.97188 38.89375 65.8 39.05Q66.44063 39.159374 66.89375 39.159374Q67.72188 39.159374 68.34688 38.971874Q69.25313 38.690624 69.25313 38.065624Q69.25313 36.7375 67.39375 36.26875L66.37813 36.05Q65.08125 35.76875 64.53438 35.378124Q63.7375 34.83125 63.7375 33.7375Q63.7375 31.690624 65.65938 30.815624Q66.25313 30.565624 67.53438 30.20625Q68.83125 29.83125 69.39375 29.565624Q69.78438 29.39375 70.25313 29.39375Q70.675 29.39375 70.94063 29.675Q71.20625 29.940624 71.20625 30.378124Q71.20625 30.659374 71.33125 31.20625Q71.45625 31.753124 71.45625 32.05Q71.45625 32.4875 71.19063 32.76875Q70.925 33.034374 70.50313 33.034374ZM75.15938 41.45625Q74.64375 41.45625 74.28438 41.096874Q73.94063 40.753124 73.94063 40.253124Q73.94063 39.753124 74.28438 39.39375Q74.64375 39.034374 75.15938 39.034374Q75.65938 39.034374 76.00313 39.39375Q76.3625 39.753124 76.3625 40.253124Q76.3625 40.753124 76.00313 41.096874Q75.65938 41.45625 75.15938 41.45625ZM98.425 41.3625Q97.89375 41.3625 97.55 40.815624Q97.25313 40.346874 97.01875 39.253124L96.675 37.565624Q96.26875 36.003124 95.40938 30.675L93.45625 36.565624L92.87813 38.425Q92.51875 39.51875 92.14375 40.221874Q91.7375 40.971874 91.03438 40.971874Q90.45625 40.971874 90.12813 40.346874Q89.90938 39.940624 89.7375 39.3L89.45625 38.221874Q88.47188 34.76875 87.72188 30.83125L87.3625 32.58125L86.1125 37.7375Q86.03438 38.64375 85.6125 40.425Q85.33125 41.190624 84.64375 41.190624Q84.175 41.190624 83.89375 40.846874Q83.64375 40.55 83.64375 40.1125Q83.64375 38.4875 84.31563 36.1125L85.39375 32.175L85.95625 29.096874Q86.39375 26.940624 86.8625 26.284374Q87.25313 25.721874 87.83125 25.721874Q88.47188 25.721874 88.78438 26.440624Q89.15938 27.3 89.59688 29.9875Q90.1125 33.190624 91.20625 36.940624Q92.65938 33.175 93.70625 29.096874L94.00313 27.675Q94.175 26.815624 94.47188 26.284374Q94.84688 25.565624 95.50313 25.565624Q96.34688 25.565624 96.78438 27.190624Q96.94063 27.753124 97.175 29.4875Q97.75313 33.909374 98.6125 37.034374L99.08125 38.70625Q99.45625 40.065624 99.45625 40.378124Q99.45625 40.8 99.12813 41.08125Q98.81563 41.3625 98.425 41.3625ZM109.53438 41.190624Q109.34688 41.190624 108.8625 40.76875Q108.425 40.3625 108.20625 40.05Q107.26875 40.565624 106.55 40.815624Q105.84688 41.08125 105.3625 41.08125Q103.08125 41.08125 102.03438 39.784374Q101.05 38.58125 101.05 36.08125Q101.05 33.70625 102.675 32.034374Q104.3 30.346874 106.55 30.346874Q107.40938 30.346874 108.45625 30.8Q109.78438 31.346874 109.78438 32.1125Q109.78438 32.378124 109.59688 32.58125Q109.50313 32.95625 109.44063 33.8Q109.39375 34.64375 109.37813 35.971874Q109.3625 37.190624 109.55 37.89375Q109.64375 38.315624 110.15938 39.6125Q110.22188 39.784374 110.37813 40.128124L110.44063 40.3Q110.44063 40.690624 110.15938 40.940624Q109.89375 41.190624 109.53438 41.190624ZM107.50313 34.409374Q107.50313 33.9875 107.55 33.503124Q107.6125 33.003124 107.72188 32.440624Q107.3625 32.253124 107.09688 32.175Q106.84688 32.08125 106.69063 32.08125Q105.175 32.08125 104.06563 33.315624Q102.97188 34.55 102.97188 36.159374Q102.97188 37.76875 103.53438 38.565624Q104.1125 39.3625 105.2375 39.3625Q106.175 39.3625 106.83125 39.01875Q107.175 38.846874 107.81563 38.284374Q107.50313 35.690624 107.50313 34.409374ZM118.44063 32.221874Q118.2375 32.221874 117.95625 32.20625Q117.675 32.190624 117.47188 32.190624Q117.25313 32.190624 116.14375 32.33125L116.33125 38.1125L116.34688 38.534374L116.34688 39.034374Q116.39375 41.175 115.33125 41.175Q114.94063 41.175 114.64375 40.925Q114.3625 40.675 114.3625 40.284374Q114.3625 39.909374 114.39375 39.175Q114.425 38.425 114.425 38.065624L114.22188 32.3625Q113.50313 32.33125 112.05 32.190624Q111.19063 32.065624 111.19063 31.221874Q111.19063 30.8 111.44063 30.51875Q111.70625 30.221874 112.12813 30.221874L114.175 30.39375Q114.175 29.89375 114.12813 29.065624Q114.08125 28.221874 114.08125 27.846874Q114.08125 27.440624 114.3625 27.175Q114.65938 26.909374 115.06563 26.909374Q115.94063 26.909374 116.08125 28.346874Q116.1125 28.70625 116.1125 29.20625L116.09688 29.784374L116.08125 30.378124Q117.3 30.221874 117.47188 30.221874Q118.4875 30.221874 118.8 30.33125Q119.39375 30.51875 119.39375 31.2375Q119.39375 31.675 119.12813 31.95625Q118.8625 32.221874 118.44063 32.221874ZM131.34688 25.76875Q131.34688 26.1125 130.7375 26.76875Q130.3 27.221874 129.84688 27.675Q128.76875 28.89375 128.15938 31.190624Q127.6125 33.175 127.6125 35.096874Q127.6125 40.065624 129.8625 42.378124Q130.31563 42.721874 130.76875 43.08125Q131.33125 43.534374 131.33125 43.971874Q131.33125 44.284374 131.08125 44.51875Q130.83125 44.76875 130.50313 44.76875Q130.20625 44.76875 129.8 44.55Q125.65938 42.2375 125.65938 34.878124Q125.65938 32.221874 126.72188 29.51875Q127.925 26.503124 129.84688 25.14375Q130.2375 24.8625 130.47188 24.8625Q130.81563 24.8625 131.08125 25.14375Q131.34688 25.425 131.34688 25.76875ZM141.39375 40.565624Q141.14375 40.565624 140.70625 40.425Q140.26875 40.26875 140.03438 40.26875Q139.53438 40.26875 138.53438 40.33125Q137.53438 40.378124 137.03438 40.378124Q136.64375 40.378124 135.89375 40.4875Q135.15938 40.58125 134.76875 40.58125Q134.65938 40.58125 134.45625 40.55Q134.25313 40.503124 134.14375 40.503124Q133.47188 40.503124 133.26875 39.846874Q133.15938 39.503124 133.15938 38.675Q133.15938 36.39375 134.39375 35.01875Q134.95625 34.378124 137.45625 32.675Q138.84688 31.70625 139.31563 31.175Q140.15938 30.2375 140.15938 28.971874Q140.15938 28.346874 139.34688 27.8625Q138.62813 27.425 137.94063 27.425Q137.05 27.425 136.2375 27.940624L134.84688 29.034374Q134.425 29.3625 134.175 29.3625Q133.15938 29.3625 133.15938 28.565624Q133.15938 28.1125 133.53438 27.76875Q134.675 26.70625 135.51875 26.221874Q136.69063 25.55 137.94063 25.55Q139.53438 25.55 140.76875 26.409374Q142.15938 27.378124 142.15938 28.89375Q142.15938 29.878124 141.87813 30.721874Q141.59688 31.565624 141.01875 32.253124Q140.28438 33.14375 138.53438 34.221874Q136.69063 35.378124 136.12813 35.971874Q135.03438 37.096874 135.05 38.690624L137.06563 38.503124Q139.14375 38.39375 140.03438 38.39375Q140.76875 38.39375 141.44063 38.64375Q142.31563 38.9875 142.31563 39.596874Q142.31563 39.971874 142.05 40.26875Q141.78438 40.565624 141.39375 40.565624ZM149.51875 40.925Q146.55 40.925 145.175 38.221874Q144.14375 36.128124 144.14375 32.76875Q144.14375 29.940624 145.4875 27.83125Q147.08125 25.3625 149.81563 25.3625Q152.39375 25.3625 153.83125 27.55Q155.06563 29.440624 155.06563 32.175Q155.06563 36.55 153.675 38.7375Q152.28438 40.925 149.51875 40.925ZM149.81563 27.253124Q147.9875 27.253124 146.925 29.096874Q146.03438 30.64375 146.03438 32.6125Q146.03438 35.83125 146.90938 37.440624Q147.78438 39.05 149.51875 39.05Q151.58125 39.05 152.4875 36.690624Q153.1125 35.05 153.1125 32.534374Q153.1125 29.878124 152.28438 28.565624Q151.45625 27.253124 149.81563 27.253124ZM162.425 40.565624L160.4875 40.565624L158.55 40.55Q157.8625 40.55 157.59688 40.45625Q157.09688 40.284374 157.09688 39.721874Q157.09688 38.7375 158.62813 38.7375L159.09688 38.7375L159.50313 38.76875Q159.50313 38.3 159.40938 37.378124Q159.33125 36.45625 159.33125 36.003124Q159.33125 34.753124 159.55 32.221874Q159.76875 29.7375 159.75313 28.45625Q158.45625 29.471874 158.09688 29.471874Q157.70625 29.471874 157.40938 29.175Q157.12813 28.878124 157.12813 28.503124Q157.12813 28.034374 157.95625 27.378124Q158.4875 27.01875 159.45625 26.190624Q160.31563 25.33125 161.09688 25.33125Q161.75313 25.33125 161.75313 26.08125Q161.75313 26.3 161.69063 26.753124Q161.62813 27.190624 161.62813 27.409374Q161.62813 27.7375 161.65938 28.39375Q161.70625 29.05 161.70625 29.3625Q161.70625 30.4875 161.47188 32.690624Q161.2375 34.89375 161.2375 36.003124Q161.2375 36.565624 161.31563 37.378124Q161.39375 38.190624 161.39375 38.70625L162.425 38.690624Q162.83125 38.690624 163.09688 38.95625Q163.37813 39.221874 163.37813 39.628124Q163.37813 40.034374 163.09688 40.3Q162.83125 40.565624 162.425 40.565624ZM170.55 41.08125Q168.4875 41.08125 167.22188 40.175Q165.76875 39.159374 165.7375 37.20625Q165.70625 34.05 167.95625 32.909374Q166.22188 31.846874 166.22188 29.909374Q166.22188 28.065624 167.56563 26.83125Q168.83125 25.659374 170.65938 25.64375Q174.76875 25.6125 174.76875 29.70625Q174.76875 30.878124 174.3 31.503124Q173.90938 32.034374 172.81563 32.596874Q174.28438 33.315624 174.8625 34.175Q175.55 35.175 175.55 36.909374Q175.55 38.909374 174.06563 40.034374Q172.70625 41.08125 170.55 41.08125ZM170.62813 27.39375Q169.37813 27.39375 168.70625 28.1125Q168.1125 28.76875 168.12813 29.909374Q168.12813 31.26875 170.37813 31.846874Q171.55 31.503124 172.05 31.159374Q172.8625 30.6125 172.8625 29.70625Q172.8625 28.378124 172.26875 27.83125Q171.75313 27.39375 170.62813 27.39375ZM170.45625 33.58125Q168.90938 34.3 168.39375 34.83125Q167.58125 35.64375 167.62813 37.1125Q167.65938 38.33125 168.75313 38.940624Q169.53438 39.3625 170.55 39.3625Q172.26875 39.3625 172.95625 38.55Q173.50313 37.909374 173.50313 36.596874Q173.50313 35.33125 172.50313 34.55Q171.83125 34.003124 170.45625 33.58125ZM180.425 33.14375Q180.97188 33.14375 182.05 33.221874Q183.12813 33.3 183.675 33.3Q184.09688 33.3 184.3625 33.58125Q184.64375 33.846874 184.64375 34.26875Q184.64375 34.690624 184.3625 34.971874Q184.09688 35.2375 183.675 35.2375Q183.12813 35.2375 182.05 35.159374Q180.97188 35.08125 180.425 35.08125Q179.14375 35.08125 178.1125 35.221874Q178.01875 35.2375 177.94063 35.2375Q177.53438 35.2375 177.25313 34.971874Q176.9875 34.690624 176.9875 34.253124Q176.9875 33.4875 177.78438 33.315624Q178.58125 33.14375 180.425 33.14375ZM195.39375 40.565624Q195.14375 40.565624 194.70625 40.425Q194.26875 40.26875 194.03438 40.26875Q193.53438 40.26875 192.53438 40.33125Q191.53438 40.378124 191.03438 40.378124Q190.64375 40.378124 189.89375 40.4875Q189.15938 40.58125 188.76875 40.58125Q188.65938 40.58125 188.45625 40.55Q188.25313 40.503124 188.14375 40.503124Q187.47188 40.503124 187.26875 39.846874Q187.15938 39.503124 187.15938 38.675Q187.15938 36.39375 188.39375 35.01875Q188.95625 34.378124 191.45625 32.675Q192.84688 31.70625 193.31563 31.175Q194.15938 30.2375 194.15938 28.971874Q194.15938 28.346874 193.34688 27.8625Q192.62813 27.425 191.94063 27.425Q191.05 27.425 190.2375 27.940624L188.84688 29.034374Q188.425 29.3625 188.175 29.3625Q187.15938 29.3625 187.15938 28.565624Q187.15938 28.1125 187.53438 27.76875Q188.675 26.70625 189.51875 26.221874Q190.69063 25.55 191.94063 25.55Q193.53438 25.55 194.76875 26.409374Q196.15938 27.378124 196.15938 28.89375Q196.15938 29.878124 195.87813 30.721874Q195.59688 31.565624 195.01875 32.253124Q194.28438 33.14375 192.53438 34.221874Q190.69063 35.378124 190.12813 35.971874Q189.03438 37.096874 189.05 38.690624L191.06563 38.503124Q193.14375 38.39375 194.03438 38.39375Q194.76875 38.39375 195.44063 38.64375Q196.31563 38.9875 196.31563 39.596874Q196.31563 39.971874 196.05 40.26875Q195.78438 40.565624 195.39375 40.565624ZM203.51875 40.925Q200.55 40.925 199.175 38.221874Q198.14375 36.128124 198.14375 32.76875Q198.14375 29.940624 199.4875 27.83125Q201.08125 25.3625 203.81563 25.3625Q206.39375 25.3625 207.83125 27.55Q209.06563 29.440624 209.06563 32.175Q209.06563 36.55 207.675 38.7375Q206.28438 40.925 203.51875 40.925ZM203.81563 27.253124Q201.9875 27.253124 200.925 29.096874Q200.03438 30.64375 200.03438 32.6125Q200.03438 35.83125 200.90938 37.440624Q201.78438 39.05 203.51875 39.05Q205.58125 39.05 206.4875 36.690624Q207.1125 35.05 207.1125 32.534374Q207.1125 29.878124 206.28438 28.565624Q205.45625 27.253124 203.81563 27.253124ZM216.425 40.565624L214.4875 40.565624L212.55 40.55Q211.8625 40.55 211.59688 40.45625Q211.09688 40.284374 211.09688 39.721874Q211.09688 38.7375 212.62813 38.7375L213.09688 38.7375L213.50313 38.76875Q213.50313 38.3 213.40938 37.378124Q213.33125 36.45625 213.33125 36.003124Q213.33125 34.753124 213.55 32.221874Q213.76875 29.7375 213.75313 28.45625Q212.45625 29.471874 212.09688 29.471874Q211.70625 29.471874 211.40938 29.175Q211.12813 28.878124 211.12813 28.503124Q211.12813 28.034374 211.95625 27.378124Q212.4875 27.01875 213.45625 26.190624Q214.31563 25.33125 215.09688 25.33125Q215.75313 25.33125 215.75313 26.08125Q215.75313 26.3 215.69063 26.753124Q215.62813 27.190624 215.62813 27.409374Q215.62813 27.7375 215.65938 28.39375Q215.70625 29.05 215.70625 29.3625Q215.70625 30.4875 215.47188 32.690624Q215.2375 34.89375 215.2375 36.003124Q215.2375 36.565624 215.31563 37.378124Q215.39375 38.190624 215.39375 38.70625L216.425 38.690624Q216.83125 38.690624 217.09688 38.95625Q217.37813 39.221874 217.37813 39.628124Q217.37813 40.034374 217.09688 40.3Q216.83125 40.565624 216.425 40.565624ZM226.20625 39.3625Q225.4875 39.89375 223.925 40.64375Q222.175 41.471874 221.4875 41.471874Q221.09688 41.471874 220.83125 41.175Q220.56563 40.89375 220.56563 40.503124Q220.56563 39.925 221.2375 39.628124L222.8625 39.08125Q224.37813 38.45625 225.25313 37.659374Q226.14375 36.8625 226.8625 35.378124L227.28438 34.55Q226.7375 34.8625 225.87813 35.128124Q225.01875 35.378124 224.47188 35.378124Q222.62813 35.378124 221.28438 34.3625Q219.64375 33.1125 219.64375 30.8Q219.64375 28.08125 221.33125 26.70625Q222.75313 25.55 225.09688 25.55Q226.89375 25.55 228.31563 27.01875Q229.81563 28.565624 229.83125 30.76875Q229.84688 33.2375 228.90938 35.58125Q227.90938 38.096874 226.20625 39.3625ZM224.81563 27.221874Q223.175 27.221874 222.34688 28.08125Q221.53438 28.925 221.51875 30.628124Q221.51875 32.065624 222.51875 32.846874Q223.40938 33.55 224.76875 33.55Q225.55 33.55 226.39375 33.08125Q226.78438 32.8625 227.8 32.1125Q227.925 31.26875 227.925 30.76875Q227.90938 29.55 226.89375 28.39375Q225.87813 27.221874 224.81563 27.221874ZM237.34688 34.878124Q237.34688 42.2375 233.20625 44.55Q232.8 44.76875 232.51875 44.76875Q232.175 44.76875 231.925 44.51875Q231.675 44.284374 231.675 43.971874Q231.675 43.534374 232.2375 43.08125Q232.69063 42.721874 233.14375 42.378124Q235.39375 40.065624 235.39375 35.096874Q235.39375 33.175 234.8625 31.190624Q234.2375 28.89375 233.15938 27.675Q232.70625 27.221874 232.26875 26.76875Q231.65938 26.1125 231.65938 25.76875Q231.65938 25.425 231.90938 25.14375Q232.175 24.8625 232.53438 24.8625Q232.75313 24.8625 233.15938 25.14375Q235.09688 26.503124 236.28438 29.51875Q237.34688 32.221874 237.34688 34.878124Z" fill-rule="nonzero"/></svg>